<svg width="60" height="55" viewBox="0 0 60 55" fill="none" xmlns="http://www.w3.org/2000/svg">
<path d="M3 28.832C3 40.5227 14.8645 49.9999 29.5 49.9999C44.1355 49.9999 56 40.5227 56 28.832C56 17.1413 52.6026 0.216048 29.5 7.66405C16.8856 12.7224 3 17.1413 3 28.832Z" fill="#D2E0FF"/>
<path d="M41.8421 12.7039H17.1669C15.3078 12.7039 13.8008 14.3374 13.8008 16.3524V40.6421C13.8008 42.6572 15.3078 44.2907 17.1669 44.2907H41.8421C43.7011 44.2907 45.2082 42.6572 45.2082 40.6421V16.3524C45.2082 14.3374 43.7011 12.7039 41.8421 12.7039Z" fill="#7D97F4"/>
<path d="M23.2737 26.5229H22.4833C22.3987 26.5229 22.3164 26.4912 22.2482 26.4325C22.1799 26.3738 22.1293 26.2911 22.1035 26.1963L21.7796 25.0039C21.7609 24.9349 21.724 24.8747 21.6744 24.832C21.6247 24.7893 21.5648 24.7662 21.5032 24.7662H19.5421C19.4804 24.7662 19.4203 24.7893 19.3706 24.8322C19.3208 24.8751 19.284 24.9356 19.2654 25.0049L18.9452 26.1951C18.9196 26.2902 18.869 26.3732 18.8006 26.4322C18.7322 26.4911 18.6497 26.5229 18.5649 26.5229H17.7894C17.7253 26.5229 17.6621 26.5047 17.6053 26.4699C17.5484 26.435 17.4995 26.3845 17.4628 26.3227C17.426 26.2608 17.4024 26.1895 17.394 26.1147C17.3857 26.0398 17.3927 25.9637 17.4147 25.8928L19.4191 19.4092C19.4904 19.1795 19.6199 18.9812 19.7901 18.8412C19.9604 18.7011 20.1631 18.6261 20.3708 18.6262H20.738C20.947 18.6263 21.1508 18.7025 21.3216 18.8443C21.4923 18.9861 21.6217 19.1867 21.6918 19.4185L23.649 25.8962C23.6704 25.967 23.6771 26.0428 23.6684 26.1172C23.6598 26.1917 23.6361 26.2626 23.5993 26.324C23.5625 26.3855 23.5137 26.4356 23.4571 26.4702C23.4004 26.5048 23.3375 26.5229 23.2737 26.5229ZM21.2661 23.0033L20.6367 20.5691C20.6284 20.5367 20.6115 20.5084 20.5883 20.4883C20.5652 20.4682 20.5372 20.4575 20.5085 20.4577C20.4797 20.458 20.4518 20.4692 20.4289 20.4897C20.4061 20.5101 20.3894 20.5388 20.3816 20.5713C20.2158 21.2527 19.9161 22.3988 19.7574 23.002C19.7455 23.0481 19.7429 23.0968 19.7498 23.1442C19.7568 23.1916 19.773 23.2365 19.7973 23.2752C19.8216 23.314 19.8532 23.3455 19.8897 23.3672C19.9261 23.389 19.9664 23.4004 20.0073 23.4006H21.016C21.0567 23.4004 21.0969 23.389 21.1333 23.3674C21.1697 23.3457 21.2013 23.3143 21.2256 23.2757C21.2499 23.2372 21.2662 23.1924 21.2732 23.1451C21.2803 23.0978 21.2779 23.0493 21.2661 23.0033Z" fill="white"/>
<path d="M43.0089 19.6831H26.7856C26.6581 19.6831 26.5547 19.9516 26.5547 20.2829C26.5547 20.6142 26.6581 20.8827 26.7856 20.8827H43.0089C43.1365 20.8827 43.2399 20.6142 43.2399 20.2829C43.2399 19.9516 43.1365 19.6831 43.0089 19.6831Z" fill="#F5F8FF"/>
<path d="M43.0089 22.0825H26.7856C26.6581 22.0825 26.5547 22.3511 26.5547 22.6823C26.5547 23.0136 26.6581 23.2821 26.7856 23.2821H43.0089C43.1365 23.2821 43.2399 23.0136 43.2399 22.6823C43.2399 22.3511 43.1365 22.0825 43.0089 22.0825Z" fill="#F5F8FF"/>
<path d="M42.9673 24.4817H26.8273C26.6767 24.4817 26.5547 24.7502 26.5547 25.0815C26.5547 25.4127 26.6767 25.6813 26.8273 25.6813H42.9673C43.1178 25.6813 43.2399 25.4127 43.2399 25.0815C43.2399 24.7502 43.1178 24.4817 42.9673 24.4817Z" fill="#F5F8FF"/>
<path d="M38.1027 32.8789H21.8794C21.7518 32.8789 21.6484 33.1474 21.6484 33.4787C21.6484 33.81 21.7518 34.0785 21.8794 34.0785H38.1027C38.2302 34.0785 38.3336 33.81 38.3336 33.4787C38.3336 33.1474 38.2302 32.8789 38.1027 32.8789Z" fill="#F5F8FF"/>
<path d="M38.1027 35.2778H21.8794C21.7518 35.2778 21.6484 35.5464 21.6484 35.8776C21.6484 36.2089 21.7518 36.4774 21.8794 36.4774H38.1027C38.2302 36.4774 38.3336 36.2089 38.3336 35.8776C38.3336 35.5464 38.2302 35.2778 38.1027 35.2778Z" fill="#F5F8FF"/>
<path d="M38.061 37.677H21.921C21.7705 37.677 21.6484 37.9455 21.6484 38.2768C21.6484 38.6081 21.7705 38.8766 21.921 38.8766H38.061C38.2116 38.8766 38.3336 38.6081 38.3336 38.2768C38.3336 37.9455 38.2116 37.677 38.061 37.677Z" fill="#F5F8FF"/>
</svg>
