<svg width="62" height="46" viewBox="0 0 62 46" fill="none" xmlns="http://www.w3.org/2000/svg">
<path d="M62 24.0251C62 36.0171 48.5685 45.7384 32 45.7384C15.4315 45.7384 0.5 47.4258 0.5 35.4339C0.5 23.442 10.5 12.9339 32 2.31187C57.5 -4.56614 62 9.93384 62 24.0251Z" fill="#EBDCFF"/>
<path d="M44.9453 5.15308H15.0547C13.9198 5.15308 13 6.57155 13 8.32096V34.7922C13 36.5419 13.9198 37.9601 15.0545 37.9601H44.9453C46.0802 37.9601 47 36.5419 47 34.7922V8.32096C47 6.57128 46.0802 5.15334 44.9453 5.15334V5.15308Z" fill="#B37BFF"/>
<path d="M18.2671 12.8887H16.125V21.6946H18.2671V12.8887Z" fill="#FFBC59"/>
<path d="M21.1966 10.9668H19.0547V21.6861H21.1968V10.9666L21.1966 10.9668Z" fill="white"/>
<path d="M24.1341 16.6677H21.9922V21.695H24.1345V16.6677H24.1341Z" fill="#FFBC59"/>
<path d="M27.064 8.30764H24.9219V21.6948H27.064V8.30737V8.30764Z" fill="#BDDFFF"/>
<path opacity="0.62" d="M18.2474 23.016C18.2475 23.0331 18.2454 23.0501 18.2412 23.066C18.237 23.0818 18.2308 23.0962 18.2229 23.1083C18.215 23.1204 18.2057 23.13 18.1954 23.1364C18.1851 23.1428 18.174 23.146 18.1629 23.1458H16.2056C16.1945 23.146 16.1835 23.1428 16.1732 23.1364C16.1628 23.13 16.1535 23.1204 16.1456 23.1083C16.1377 23.0962 16.1315 23.0818 16.1273 23.066C16.1231 23.0501 16.121 23.0331 16.1211 23.016C16.121 22.9989 16.1231 22.9819 16.1273 22.9661C16.1315 22.9502 16.1377 22.9358 16.1455 22.9238C16.1534 22.9117 16.1628 22.9021 16.173 22.8957C16.1833 22.8892 16.1943 22.886 16.2054 22.8862H18.1629C18.174 22.886 18.185 22.8892 18.1953 22.8957C18.2056 22.9021 18.2149 22.9117 18.2228 22.9238C18.2307 22.9358 18.2369 22.9502 18.2411 22.9661C18.2453 22.9819 18.2474 22.9989 18.2472 23.016H18.2474ZM21.181 23.016C21.1811 23.0331 21.179 23.0501 21.1748 23.066C21.1706 23.0818 21.1643 23.0962 21.1565 23.1083C21.1486 23.1204 21.1392 23.13 21.1289 23.1364C21.1186 23.1428 21.1076 23.146 21.0965 23.1458H19.1391C19.128 23.146 19.117 23.1428 19.1067 23.1364C19.0964 23.13 19.087 23.1204 19.0792 23.1083C19.0713 23.0962 19.0651 23.0818 19.0608 23.066C19.0566 23.0501 19.0545 23.0331 19.0546 23.016C19.0545 22.9989 19.0566 22.9819 19.0608 22.9661C19.065 22.9502 19.0712 22.9358 19.0791 22.9238C19.0869 22.9117 19.0963 22.9021 19.1066 22.8957C19.1169 22.8892 19.1279 22.886 19.139 22.8862H21.0965C21.1076 22.886 21.1186 22.8892 21.1289 22.8956C21.1392 22.902 21.1486 22.9116 21.1565 22.9237C21.1643 22.9357 21.1706 22.9501 21.1748 22.966C21.179 22.9819 21.1811 22.9989 21.181 23.016ZM24.1251 23.016C24.1252 23.0331 24.1231 23.0501 24.1189 23.0659C24.1147 23.0818 24.1085 23.0962 24.1006 23.1082C24.0928 23.1203 24.0834 23.1299 24.0732 23.1363C24.0629 23.1428 24.0519 23.146 24.0408 23.1458H22.0833C22.0722 23.146 22.0611 23.1428 22.0508 23.1364C22.0405 23.13 22.0312 23.1204 22.0233 23.1083C22.0154 23.0962 22.0092 23.0818 22.005 23.066C22.0008 23.0501 21.9986 23.0331 21.9988 23.016C21.9986 22.9989 22.0008 22.9819 22.005 22.966C22.0092 22.9501 22.0154 22.9357 22.0233 22.9237C22.0312 22.9116 22.0405 22.902 22.0508 22.8956C22.0611 22.8892 22.0722 22.886 22.0833 22.8862H24.0406C24.0628 22.8871 24.0839 22.9011 24.0996 22.9252C24.1153 22.9493 24.1244 22.9818 24.1251 23.016ZM27.0534 23.016C27.0535 23.0331 27.0514 23.0501 27.0472 23.0659C27.043 23.0818 27.0368 23.0962 27.029 23.1082C27.0211 23.1203 27.0118 23.1299 27.0015 23.1363C26.9912 23.1428 26.9802 23.146 26.9691 23.1458H25.0116C25.0005 23.146 24.9895 23.1428 24.9792 23.1364C24.9689 23.13 24.9595 23.1204 24.9516 23.1083C24.9437 23.0962 24.9375 23.0818 24.9333 23.066C24.9291 23.0501 24.927 23.0331 24.9271 23.016C24.927 22.9989 24.9291 22.9819 24.9333 22.966C24.9375 22.9501 24.9437 22.9357 24.9516 22.9237C24.9595 22.9116 24.9689 22.902 24.9792 22.8956C24.9895 22.8892 25.0005 22.886 25.0116 22.8862H26.9691C27.0165 22.8943 27.0534 22.951 27.0534 23.016Z" fill="#F5F8FF"/>
<path d="M41.6401 26.3811H16.3599C16.1611 26.3811 16 26.4891 16 26.6223C16 26.7556 16.1611 26.8636 16.3599 26.8636H41.6401C41.8389 26.8636 42 26.7556 42 26.6223C42 26.4891 41.8389 26.3811 41.6401 26.3811Z" fill="#F5F8FF"/>
<path d="M41.6401 28.311H16.3599C16.1611 28.311 16 28.419 16 28.5523C16 28.6855 16.1611 28.7935 16.3599 28.7935H41.6401C41.8389 28.7935 42 28.6855 42 28.5523C42 28.419 41.8389 28.311 41.6401 28.311Z" fill="#F5F8FF"/>
<path d="M26.6796 31.0437H16.3271C16.2457 31.0437 16.1797 31.1399 16.1797 31.2586C16.1797 31.3773 16.2457 31.4735 16.3271 31.4735H26.6796C26.761 31.4735 26.827 31.3773 26.827 31.2586C26.827 31.1399 26.761 31.0437 26.6796 31.0437Z" fill="#F5F8FF"/>
<path d="M26.653 32.7627H16.3536C16.2576 32.7627 16.1797 32.8589 16.1797 32.9776C16.1797 33.0962 16.2576 33.1924 16.3536 33.1924H26.653C26.7491 33.1924 26.827 33.0962 26.827 32.9776C26.827 32.8589 26.7491 32.7627 26.653 32.7627Z" fill="#F5F8FF"/>
<path d="M37.7418 6.42522L36.6822 4.25212C31.9252 6.41166 29.8855 11.9001 32.1296 16.5025C33.6356 19.5911 36.6739 21.4921 39.9504 21.7642L40.1567 19.3743C37.7334 19.1772 35.4888 17.7658 34.3757 15.4829C32.7276 12.0711 34.234 8.01763 37.7418 6.42522Z" fill="#BDDFFF"/>
<path d="M49.3516 8.66699C48.817 7.5717 48.065 6.58832 47.1386 5.77313C46.2123 4.95794 45.1297 4.32692 43.9529 3.91619C41.572 3.08721 38.9526 3.20407 36.6682 4.24118L37.7277 6.41428C41.248 4.81622 45.4448 6.28065 47.1055 9.68662L49.3516 8.66699Z" fill="#B37BFF"/>
<path d="M49.3526 8.66732L47.1066 9.68695C48.7673 13.0929 47.2609 17.1464 43.7406 18.7445C42.624 19.2522 41.3872 19.4638 40.156 19.3578L39.9557 21.76C45.157 22.187 49.7965 18.396 50.2402 13.3636C50.3656 11.756 50.0669 10.1323 49.3526 8.66732Z" fill="#00A3FF"/>
<path d="M37.846 6.36169C34.2898 7.97605 32.7659 12.0719 34.4423 15.5099C36.1186 18.948 40.3604 20.4264 43.9165 18.812C47.4726 17.1976 48.9965 13.1018 47.3202 9.66376C45.6439 6.22571 41.4021 4.74732 37.846 6.36169Z" fill="white"/>
<path d="M41.845 9.92961C41.2434 9.8279 40.6248 9.93103 40.0944 10.2215C38.8141 10.9145 38.3495 12.4804 39.0714 13.7241C39.7908 14.9621 41.4123 15.4133 42.6984 14.7177L41.4008 12.471L41.845 9.92961Z" fill="#FFBC59"/>
</svg>
