<svg width="60" height="49" viewBox="0 0 60 49" fill="none" xmlns="http://www.w3.org/2000/svg">
<g clip-path="url(#clip0_641:1283)">
<path d="M2.11507 14.5185C6.30413 4.19735 34.003 11.1097 49.9839 8.9621C64.8922 15.013 60.2919 26.1095 56.1028 36.4306C47.2017 45.0663 31.4114 57.1083 10.5471 40.9814C-0.489836 31.3003 -2.07399 24.8396 2.11507 14.5185Z" fill="#FFEEDB"/>
<path d="M34.5077 37.8156L44.014 16.0619L41.7806 16.21C41.688 16.2163 41.5954 16.196 41.5138 16.1513C41.4322 16.1067 41.3649 16.0396 41.3197 15.9578C41.2745 15.8761 41.2534 15.7831 41.2588 15.6898C41.2642 15.5964 41.2958 15.5066 41.3501 15.4307L52.0217 0.400156C52.4843 -0.251447 53.505 0.0748593 53.5118 0.875996L53.6197 14.8744C53.6212 15.0643 53.5842 15.2524 53.511 15.4273C53.4379 15.6022 53.33 15.7602 53.1941 15.8917C53.0582 16.0231 52.8971 16.1253 52.7206 16.1919C52.5441 16.2585 52.3559 16.2882 52.1676 16.2791L50.5986 16.2028L41.3472 40.5097C41.2293 40.8196 41.0257 41.089 40.7605 41.2859C40.4952 41.4829 40.1794 41.5991 39.8504 41.6209L36.1016 41.8695L34.5077 37.8156Z" fill="url(#paint0_linear_641:1283)"/>
<path d="M24.5174 23.6624L33.3556 40.3679C33.6119 40.8523 34.0016 41.252 34.4779 41.5189C34.9541 41.7859 35.4967 41.9087 36.0403 41.8727L40.0073 41.6096C40.2658 41.5925 40.515 41.5059 40.7291 41.3591C40.9431 41.2122 41.1141 41.0103 41.2245 40.7743L41.3484 40.5091C41.1395 40.5231 40.9308 40.4787 40.7452 40.3808C40.5597 40.283 40.4045 40.1355 40.2968 39.9546L28.7011 20.4004L24.5174 23.6624Z" fill="url(#paint1_linear_641:1283)"/>
<path d="M29.8717 22.3752C29.6796 22.2422 29.4622 22.1507 29.2333 22.1065C29.0044 22.0623 28.769 22.0663 28.5418 22.1183C28.3146 22.1703 28.1006 22.2691 27.9133 22.4085C27.726 22.548 27.5695 22.725 27.4536 22.9284L17.2737 40.7986C16.872 41.5031 16.3037 42.0966 15.6191 42.5263C14.9346 42.9561 14.155 43.2088 13.3498 43.262C13.3498 43.262 13.5122 43.2684 12.333 42.4231C11.1538 41.5777 10.5187 41.0955 9.4631 40.2295C9.4631 40.2295 19.6549 22.7553 22.2032 20.1188C22.2032 20.1188 24.741 17.4902 27.526 19.1654C28.2617 19.6083 28.8421 20.2715 29.2212 21.0457L29.8717 22.3752Z" fill="url(#paint2_linear_641:1283)"/>
</g>
<defs>
<linearGradient id="paint0_linear_641:1283" x1="40.7303" y1="34.5554" x2="52.3825" y2="1.78577" gradientUnits="userSpaceOnUse">
<stop stop-color="#FE7062"/>
<stop offset="1" stop-color="#FF928E"/>
</linearGradient>
<linearGradient id="paint1_linear_641:1283" x1="9719.28" y1="12901.7" x2="14841.3" y2="22778.2" gradientUnits="userSpaceOnUse">
<stop stop-color="#FE7062"/>
<stop offset="1" stop-color="#FF928E"/>
</linearGradient>
<linearGradient id="paint2_linear_641:1283" x1="5726.15" y1="25787.1" x2="11841" y2="16023.9" gradientUnits="userSpaceOnUse">
<stop stop-color="#FE7062"/>
<stop offset="1" stop-color="#FF928E"/>
</linearGradient>
<clipPath id="clip0_641:1283">
<rect width="60" height="55" fill="white" transform="translate(0 -6)"/>
</clipPath>
</defs>
</svg>
