<svg width="43" height="69" viewBox="0 0 43 69" fill="none" xmlns="http://www.w3.org/2000/svg">
<g opacity="0.5">
<path d="M20.4079 28.2896L17.4863 29.1723C14.3639 30.1129 12.8323 33.5999 14.0685 36.9542L23.7773 63.2905C25.0132 66.6388 28.5523 68.6048 31.6746 67.6642L35.8567 66.4008C36.4697 66.2158 36.7675 65.5326 36.5248 64.8801C36.2818 64.2216 35.5887 63.8399 34.9815 64.0251L30.7991 65.2824C28.9027 65.853 26.7448 64.6622 25.9943 62.6189L16.2855 36.2827C15.5353 34.2456 16.465 32.1186 18.3673 31.5483L21.289 30.6655C23.1853 30.0949 25.3433 31.2857 26.0938 33.329L32.5388 50.8146C33.5822 54.0299 34.7506 56.9504 35.8562 56.2203C36.9618 55.4901 34.9929 50.8014 34.7502 50.1489L28.3053 32.6632C27.0691 29.3089 23.5245 27.3488 20.4079 28.2896Z" fill="#F99746"/>
<path d="M11.7617 0.970642L6.52619 2.55295C1.66271 4.01826 -0.614089 9.76776 1.44973 15.3611L16.0561 54.9456C16.2993 55.604 16.9925 55.9853 17.5996 55.7999C18.2125 55.6147 18.5101 54.9314 18.2673 54.279L3.66674 14.6948C2.0889 10.4122 3.7646 6.02905 7.40774 4.92835L12.6433 3.34604C16.2864 2.24535 20.5338 4.83996 22.1174 9.12284L38.7534 54.2144C40.3371 58.4973 38.6555 62.8802 35.0182 63.9811C34.4053 64.1663 34.1077 64.8497 34.3505 65.502C34.5937 66.1605 35.2869 66.5418 35.8939 66.3563C40.7574 64.891 43.0342 59.1415 40.9704 53.5481L24.3345 8.45658C22.259 2.86269 16.6194 -0.494928 11.7617 0.970642Z" fill="#F99746"/>
</g>
</svg>
