<svg width="60" height="55" viewBox="0 0 60 55" fill="none" xmlns="http://www.w3.org/2000/svg">
<path d="M60 28.6254C60 40.6173 46.5685 50.3387 30 50.3387C13.4315 50.3387 2.42434e-07 40.6173 1.60731e-07 28.6254C7.90281e-08 16.6335 3.84615 -0.727739 30 6.91214C44.2804 12.1008 60 16.6335 60 28.6254Z" fill="#F9DDBF"/>
<path d="M47.7212 33.4007C50.6519 23.8418 45.1628 13.6557 35.461 10.6493C25.7591 7.64291 15.5184 12.9548 12.5877 22.5137C9.65704 32.0725 15.1462 42.2587 24.848 45.265C34.5499 48.2714 44.7906 42.9596 47.7212 33.4007Z" fill="#1A0F91"/>
<path d="M36.9464 42.3365C44.9327 38.7188 48.3671 29.3512 44.6172 21.4134C40.8673 13.4755 31.3532 9.97331 23.3668 13.591C15.3805 17.2087 11.9461 26.5763 15.696 34.5141C19.4459 42.452 28.96 45.9542 36.9464 42.3365Z" fill="#F0F0F0"/>
<path d="M33.7991 5.03564L27.8047 4.80298L27.7 8.51125L33.6944 8.74391L33.7991 5.03564Z" fill="#1A0F91"/>
<path d="M29.4844 14.6602C29.7163 15.7586 29.8716 16.8661 30.0317 17.9707L30.2412 19.6261L30.4129 21.3005C30.5507 22.4117 30.6165 23.5129 30.6941 24.6334C30.7717 25.7539 30.8355 26.8464 30.8858 27.9437L29.7965 27.3337C30.6598 26.8713 31.5271 26.4262 32.4011 25.9869C33.2752 25.5477 34.1522 25.1132 35.038 24.6933C35.9239 24.2733 36.8205 23.8764 37.7201 23.4844C38.6197 23.0923 39.5349 22.7206 40.4717 22.395C39.6782 23.0096 38.8735 23.5358 38.0593 24.084C37.245 24.6321 36.4209 25.1534 35.5997 25.6631C34.7784 26.1728 33.929 26.6794 33.0843 27.1669C32.2396 27.6544 31.389 28.1322 30.5287 28.5994L29.5056 29.1559L29.4181 27.9921C29.3542 26.8833 29.3106 25.7755 29.2759 24.6658C29.2411 23.5562 29.2179 22.4495 29.221 21.3372L29.2213 19.6697L29.2663 18.0053C29.3247 16.8867 29.3696 15.7727 29.4844 14.6602Z" fill="#1A0F91"/>
</svg>
