<svg width="304" height="279" viewBox="0 0 304 279" fill="none" xmlns="http://www.w3.org/2000/svg">
<g clip-path="url(#clip0_641:999)">
<path d="M183.615 319.526H188.086C192.119 291.669 192.962 259.061 188.43 216.915L177.582 217.135C184.803 258.935 185.991 291.607 183.615 319.526Z" fill="#E02323"/>
<path d="M191.117 97.8908C185.74 91.0747 174.33 95.3898 178.581 117.994C178.613 118.119 179.769 135.752 179.238 142.568C173.83 141.318 163.951 138.035 156.73 137.659C156.73 137.659 147.914 129.062 144.444 127.499C141.881 126.342 134.91 126.935 134.91 126.935C134.91 126.935 124.75 132.313 125.531 134.033C126.594 136.409 132.472 129.687 135.66 130.782C135.66 130.782 128.251 134.94 130.002 135.69C131.752 136.44 134.722 135.44 136.161 135.346C137.598 135.252 142.788 139.535 146.851 141.662C147.508 142.006 149.071 143.381 152.135 145.069C155.229 146.758 158.48 149.634 162.732 151.385C174.111 156.075 186.772 162.297 191.117 158.95L191.085 158.888C196.119 153.01 200.058 109.271 191.117 97.8908Z" fill="#FFA491"/>
<path d="M295.093 111.836C289.028 110.522 282.933 113.93 281.401 119.495L258.737 201.003C257.924 203.91 255.08 205.911 251.828 205.911H182.585C176.802 205.911 172.145 210.601 172.145 216.354C172.145 221.981 176.583 226.577 182.21 226.796L265.458 229.829C270.991 229.829 277.181 222.356 278.526 217.385L303.597 124.592C305.16 118.932 301.315 113.148 295.093 111.836Z" fill="#F06666"/>
<path d="M157.375 320.058H169.098V154.292H157.375V320.058Z" fill="#858CED"/>
<path d="M226.256 205.473L167.642 211.914L136.194 292.608L117.062 288.856C117.062 288.856 127.785 202.627 134.036 195.406C151.105 175.709 210.688 178.054 210.688 178.054L226.256 205.473Z" fill="#4C277E"/>
<path opacity="0.3" d="M226.256 205.472L167.642 211.914L136.194 292.608L117.062 288.856C117.062 288.856 127.785 202.627 134.036 195.406C151.105 175.709 210.688 178.054 210.688 178.054L226.256 205.472Z" fill="#333333"/>
<path d="M219.222 170.05C219.222 170.05 157.857 173.364 142.383 196.031C130.816 212.977 159.638 296.578 159.638 296.578L176.988 293.389C176.988 293.389 172.986 236.738 170.11 218.073C169.61 214.914 167.36 205.567 167.36 205.567C167.36 205.567 233.102 212.039 243.762 206.473C254.422 200.939 258.892 185.87 254.202 176.084C249.513 166.205 219.222 170.05 219.222 170.05Z" fill="#4C277E"/>
<path d="M185.052 82.7277C179.582 83.6965 179.238 88.1054 179.238 88.1054L173.642 111.428C173.642 111.428 173.142 121.308 174.268 125.091C176.487 132.439 180.926 135.346 188.241 137.847C197.932 141.162 201.745 149.509 205.935 154.387C213.188 162.828 207.279 172.957 207.279 172.957L226.567 179.054L255.39 175.178C255.39 175.178 258.641 170.175 247.168 142.412C237.227 118.307 213.344 77.7869 185.052 82.7277Z" fill="#FFC311"/>
<path d="M200.184 319.527H204.593C210.281 277.507 208.562 230.703 202.935 188.84C202.311 184.182 205.812 179.993 210.501 179.773L276.774 176.646V172.082C276.742 172.082 220.723 168.643 195.558 167.205C190.775 166.923 187.086 171.3 188.149 175.959C188.899 179.242 189.774 183.338 190.744 188.278C198.997 230.235 203.56 276.788 200.184 319.527Z" fill="#E02323"/>
<path d="M206.467 87.7922C200.247 80.9762 189.243 85.3545 194.15 107.958C194.182 108.083 194.15 129.875 193.526 136.691C187.273 135.439 173.769 129.343 165.202 127.31C165.202 127.31 156.512 118.963 152.511 117.4C149.541 116.244 141.476 116.837 141.476 116.837C141.476 116.837 129.721 122.214 130.628 123.935C131.879 126.31 138.63 119.589 142.351 120.683C142.351 120.683 133.786 124.841 135.818 125.591C137.849 126.342 141.288 125.341 142.945 125.247C144.602 125.153 149.166 130.063 153.855 132.188C154.636 132.532 157.887 133.282 161.42 134.971C165.015 136.659 200.621 161.578 203.904 156.481C212.594 142.975 216.846 99.1724 206.467 87.7922Z" fill="#FEB59E"/>
<path d="M211.875 133.658C201.839 132.345 190.835 129.375 190.835 129.375C190.835 129.375 189.054 109.147 188.96 108.397C188.303 98.017 187.022 91.0753 193.743 83.6662C196.931 80.1648 211.781 82.3218 214.25 94.8279C216.563 106.426 214.125 122.872 212.562 133.158L212.468 133.752L211.875 133.658Z" fill="#F2B301"/>
<path d="M180.521 44.2723C181.303 37.5818 181.272 12.0999 196.777 12.6318C212.251 13.1636 212.345 30.2022 224.881 9.66221C236.51 -9.34762 257.955 2.94007 255.955 18.6659C258.226 18.8906 260.406 19.6748 262.3 20.9484C269.084 25.4503 270.71 34.8929 265.958 42.052C265.208 43.1779 265.27 44.4591 264.301 45.3349C264.77 52.4317 262.081 59.9664 255.36 66.8447C236.979 85.6351 226.944 60.2798 217.065 59.654C207.187 59.0293 212.033 67.7829 202.56 72.0663C193.089 76.3802 186.618 73.5352 176.052 54.8705L173.52 49.8051C173.52 49.8051 179.74 50.9628 180.521 44.2723Z" fill="#F06666"/>
<path d="M171.581 39.6446C182.461 47.2427 184.867 66.5944 174.864 75.8492C168.362 81.8517 155.513 82.9154 148.386 76.9435C136.82 67.2824 135.538 56.3402 139.633 47.7418C144.916 36.674 162.61 33.3604 171.581 39.6446Z" fill="#F06666"/>
<path d="M174.985 65.876C174.985 65.876 178.33 76.2874 190.147 82.3215C191.616 83.0707 173.672 111.928 173.641 111.584C173.578 109.365 176.735 96.3588 175.986 94.7643C173.891 90.387 161.699 70.4401 161.699 70.4401L174.985 65.876Z" fill="#FFA490"/>
<path d="M168.202 68.1892L161.699 70.4095C161.699 70.4411 167.045 79.163 171.265 86.3548C172.766 85.1349 174.079 83.3525 175.141 80.9137C176.829 77.006 177.079 72.9421 176.454 69.0956C175.392 67.1571 174.985 65.876 174.985 65.876L168.202 68.1892Z" fill="#F47458"/>
<path d="M150.822 46.3038C150.822 46.3038 156.636 43.8344 162.951 46.2109C169.266 48.5863 180.645 63.9692 174.767 77.444C168.922 90.92 154.917 84.2284 148.696 75.6617C142.506 67.1266 136.317 54.2458 150.822 46.3038Z" fill="#FEB59E"/>
<path d="M176.02 53.9642C171.018 45.2729 165.516 40.1453 157.795 42.1451C150.074 44.1153 143.133 45.4597 142.634 54.5267L142.07 56.0896C142.07 56.0896 153.262 50.619 157.888 54.9024C162.515 59.1847 172.237 60.5608 173.55 63.5314C174.833 66.501 178.052 71.8787 178.052 71.8787L178.615 68.5334C178.584 68.5018 181.022 62.6555 176.02 53.9642Z" fill="#F06666"/>
<path d="M164.202 59.2786C165.234 61.9675 167.61 63.5314 169.485 62.7505C171.361 61.9675 172.017 59.1541 170.986 56.4652C169.954 53.7764 167.578 52.2124 165.703 52.9955C163.827 53.7764 163.171 56.5908 164.202 59.2786Z" fill="#F7A491"/>
<path d="M24.1875 319.659H35.4756V160.232H24.1875V319.659Z" fill="#858CED"/>
<path d="M35.4073 69.4711C35.4073 69.4711 43.3791 72.16 46.6299 80.5695C51.0069 91.9813 44.2235 110.271 46.1613 115.367C48.0991 120.463 57.2277 126.029 57.2277 126.029L77.922 118.682C77.922 118.682 70.7006 105.019 70.8884 100.33C71.1069 95.6389 70.3881 73.5361 61.7292 69.4395H35.4062V69.4711H35.4073Z" fill="#FFC311"/>
<path d="M62.7297 74.1613H46.0357C45.9285 74.1594 45.8262 74.116 45.7504 74.0402C45.6746 73.9644 45.6312 73.8622 45.6293 73.755C45.6293 73.5355 45.8172 73.3477 46.0357 73.3477H62.7297C62.9482 73.3477 63.1361 73.5355 63.1361 73.755C63.1342 73.8623 63.0906 73.9647 63.0146 74.0405C62.9386 74.1164 62.836 74.1597 62.7287 74.1613H62.7297ZM65.6681 77.3187H48.5371C48.4299 77.3168 48.3276 77.2734 48.2518 77.1976C48.176 77.1218 48.1326 77.0196 48.1307 76.9124C48.1307 76.6929 48.3175 76.5061 48.5371 76.5061H65.6671C65.8866 76.5061 66.0745 76.6929 66.0745 76.9124C66.0726 77.0196 66.0291 77.1218 65.9533 77.1976C65.8775 77.2734 65.7753 77.3168 65.6681 77.3187ZM66.4808 80.8834H54.7569C54.6497 80.8815 54.5474 80.8381 54.4716 80.7623C54.3958 80.6865 54.3524 80.5843 54.3505 80.4771C54.3505 80.2576 54.5373 80.0698 54.7569 80.0698H66.4798C66.6982 80.0698 66.8861 80.2576 66.8861 80.4771C66.8842 80.5843 66.8408 80.6865 66.765 80.7623C66.6892 80.8381 66.5869 80.8815 66.4798 80.8834H66.4808ZM65.761 147.102H47.2864V151.666H65.762V147.102H65.761ZM130.159 146.164H110.465V151.636H130.159V146.164ZM47.3486 115.306H40.9727V104.519H46.6299L47.3497 115.306H47.3486Z" fill="#6770F3"/>
<path d="M51.631 97.8592C51.631 102.424 47.9105 106.144 43.3467 106.144C38.783 106.144 35.0625 102.424 35.0625 97.8603C35.0625 93.2951 38.783 89.5742 43.3467 89.5742C44.435 89.5737 45.5126 89.7876 46.5181 90.2038C47.5236 90.62 48.4372 91.2303 49.2066 91.9997C49.976 92.7692 50.5861 93.6828 51.0021 94.6882C51.4181 95.6936 51.6318 96.7712 51.631 97.8592Z" fill="#858CED"/>
<path d="M47.6945 97.8595C47.6958 98.4304 47.5842 98.996 47.3663 99.5237C47.1484 100.051 46.8284 100.531 46.4247 100.935C46.0209 101.339 45.5414 101.659 45.0136 101.877C44.4859 102.095 43.9202 102.206 43.3492 102.205C42.7782 102.206 42.2125 102.095 41.6848 101.877C41.157 101.659 40.6775 101.339 40.2738 100.935C39.87 100.531 39.55 100.051 39.3321 99.5237C39.1142 98.996 39.0027 98.4304 39.0039 97.8595C39.0027 97.2886 39.1142 96.723 39.3321 96.1953C39.55 95.6675 39.87 95.188 40.2738 94.7842C40.6775 94.3805 41.157 94.0604 41.6848 93.8424C42.2125 93.6244 42.7782 93.5127 43.3492 93.5139C43.9202 93.5127 44.4859 93.6244 45.0136 93.8424C45.5414 94.0604 46.0209 94.3805 46.4247 94.7842C46.8284 95.188 47.1484 95.6675 47.3663 96.1953C47.5842 96.723 47.6958 97.2886 47.6945 97.8595ZM58.4791 87.5737C58.4794 88.0006 58.3955 88.4234 58.2322 88.8178C58.069 89.2123 57.8295 89.5707 57.5276 89.8726C57.2257 90.1745 56.8672 90.4139 56.4727 90.5771C56.0781 90.7403 55.6553 90.8242 55.2283 90.8239C54.8013 90.8242 54.3785 90.7403 53.984 90.5771C53.5894 90.4139 53.231 90.1745 52.929 89.8726C52.6271 89.5707 52.3877 89.2123 52.2244 88.8178C52.0611 88.4234 51.9773 88.0006 51.9775 87.5737C51.982 86.7128 52.3258 85.8885 52.9344 85.2795C53.5431 84.6706 54.3673 84.3263 55.2283 84.3213C57.0099 84.2896 58.4791 85.7597 58.4791 87.5737Z" fill="#6770F3"/>
<path d="M46.566 114.961L45.0039 112.803C45.0978 112.741 53.8507 106.363 55.6323 101.111C57.3833 95.9516 55.0697 90.2931 55.0381 90.2309L57.4762 89.1988C57.6028 89.4806 60.1961 95.8576 58.1337 101.955C56.1009 108.02 46.9734 114.68 46.566 114.961ZM79.6723 87.5737C79.6726 88.0006 79.5887 88.4234 79.4254 88.8178C79.2622 89.2123 79.0227 89.5707 78.7208 89.8726C78.4189 90.1745 78.0604 90.4139 77.6659 90.5771C77.2714 90.7403 76.8485 90.8242 76.4215 90.8239C75.9946 90.8242 75.5717 90.7403 75.1772 90.5771C74.7827 90.4139 74.4242 90.1745 74.1223 89.8726C73.8203 89.5707 73.5809 89.2123 73.4176 88.8178C73.2544 88.4234 73.1705 88.0006 73.1707 87.5737C73.1752 86.7128 73.519 85.8885 74.1277 85.2795C74.7363 84.6706 75.5605 84.3263 76.4215 84.3213C78.2031 84.2896 79.6723 85.7597 79.6723 87.5737Z" fill="#4C54CC"/>
<path d="M67.7617 114.961L66.1996 112.803C66.2925 112.741 75.0454 106.363 76.828 101.111C78.578 95.9513 76.2644 90.2929 76.2338 90.2306L78.6719 89.1986C78.7964 89.4803 81.3918 95.8574 79.3284 101.955C77.2967 108.019 68.168 114.679 67.7617 114.961ZM75.077 86.3535H55.8203V87.9786H75.077V86.3535Z" fill="#6770F3"/>
<path d="M88.176 98.6413C88.176 102.706 85.3315 105.988 81.7989 105.988C78.2663 105.988 75.4219 102.706 75.4219 98.6413C75.4219 94.5774 78.2663 91.2944 81.7989 91.2944C85.2999 91.3261 88.176 94.608 88.176 98.6413Z" fill="#858CED"/>
<path d="M81.9561 91.3555H66.1992V106.238H81.9571V91.3565L81.9561 91.3555Z" fill="#858CED"/>
<path d="M74.201 98.7355C74.201 102.8 70.7306 106.083 66.4476 106.083C62.1646 106.083 58.6953 102.8 58.6953 98.7355C58.6953 94.6717 62.1646 91.3887 66.4476 91.3887C70.7306 91.3887 74.201 94.6706 74.201 98.7355ZM118.966 124.903C118.966 125.748 117.403 126.436 115.465 126.436C113.527 126.436 111.964 125.748 111.964 124.903C111.964 124.059 113.527 123.372 115.465 123.372C117.372 123.372 118.966 124.059 118.966 124.903ZM126.093 128.749C126.093 129.562 124.812 130.187 123.249 130.187C121.686 130.187 120.404 129.531 120.404 128.749C120.404 127.936 121.686 127.312 123.249 127.312C124.812 127.28 126.093 127.936 126.093 128.749ZM135.034 128.749C135.034 129.562 133.753 130.187 132.19 130.187C130.626 130.187 129.345 129.531 129.345 128.749C129.345 127.936 130.626 127.312 132.19 127.312C133.784 127.28 135.034 127.936 135.034 128.749ZM130.658 125.467C130.658 126.279 129.376 126.905 127.813 126.905C126.249 126.905 124.968 126.248 124.968 125.467C124.968 124.653 126.249 124.029 127.813 124.029C129.376 124.029 130.658 124.685 130.658 125.467Z" fill="#6770F3"/>
<path d="M124.003 129.312H122.564V139.974H124.003V129.312ZM119.157 133.032C120.729 133.032 122.001 132.388 122.001 131.594C122.001 130.8 120.729 130.155 119.157 130.155C117.585 130.155 116.312 130.8 116.312 131.594C116.312 132.388 117.585 133.032 119.157 133.032Z" fill="#4C54CC"/>
<path d="M119.935 132.187H118.498V142.849H119.935V132.187ZM116.153 125.873H114.715V136.533H116.153V125.873ZM132.971 129.28H131.533V139.942H132.971V129.28ZM128.533 126.56H127.094V137.815H128.533V126.56Z" fill="#4C54CC"/>
<path d="M137.098 136.034V148.321H35.8125V115.117H51.2242L57.1949 104.331L94.5515 104.143L98.2404 104.112C96.7089 125.653 117.028 141.536 137.098 136.034Z" fill="#858CED"/>
<path d="M137.101 136.034V139.816C114.531 145.288 93.1167 127.311 94.5859 104.143L98.2747 104.112C96.7115 125.653 117.031 141.536 137.101 136.034ZM112.436 142.818H40.9109V118.15C40.9103 117.985 40.8442 117.826 40.7269 117.709C40.6096 117.592 40.4507 117.526 40.285 117.526C40.1194 117.526 39.9608 117.592 39.8438 117.709C39.7267 117.826 39.6607 117.985 39.6602 118.15V143.413C39.6602 143.757 39.942 144.037 40.285 144.037H112.436C112.601 144.037 112.76 143.971 112.877 143.854C112.994 143.737 113.06 143.578 113.06 143.413C113.06 143.1 112.78 142.818 112.436 142.818Z" fill="#6770F3"/>
<path d="M4.31363 161.703H182.459C183.603 161.7 184.699 161.245 185.507 160.436C186.316 159.627 186.771 158.531 186.773 157.388V155.919C186.771 154.775 186.316 153.679 185.507 152.87C184.699 152.062 183.603 151.606 182.459 151.604H4.31363C3.16999 151.606 2.07394 152.062 1.26546 152.87C0.456982 153.679 0.00195171 154.775 0 155.919V157.388C0.00195171 158.531 0.456982 159.627 1.26546 160.436C2.07394 161.245 3.16999 161.7 4.31363 161.703Z" fill="#858CED"/>
</g>
<defs>
<clipPath id="clip0_641:999">
<rect width="304" height="280.424" fill="white"/>
</clipPath>
</defs>
</svg>
