<svg width="147" height="190" viewBox="0 0 147 190" fill="none" xmlns="http://www.w3.org/2000/svg">
<path d="M1.419 1.82262C1.40059 2.09815 1.60903 2.33643 1.88456 2.35484C2.16009 2.37325 2.39837 2.16481 2.41677 1.88928L1.419 1.82262ZM1.90717 10.9466C1.91967 10.6708 1.70618 10.437 1.43032 10.4245C1.15446 10.412 0.9207 10.6255 0.9082 10.9014L1.90717 10.9466ZM0.78068 13.9813C0.770348 14.2572 0.985673 14.4893 1.26162 14.4996C1.53757 14.51 1.76965 14.2946 1.77998 14.0187L0.78068 13.9813ZM1.55211 23.0999C1.55549 22.8238 1.33439 22.5972 1.05827 22.5939C0.782147 22.5905 0.555567 22.8116 0.552187 23.0877L1.55211 23.0999ZM0.528684 26.1457C0.527836 26.4218 0.751005 26.6464 1.02715 26.6472C1.30329 26.6481 1.52783 26.4249 1.52868 26.1487L0.528684 26.1457ZM1.63303 35.2388C1.62567 34.9627 1.39593 34.7449 1.11989 34.7523C0.843843 34.7596 0.626029 34.9894 0.633387 35.2654L1.63303 35.2388ZM0.730142 38.2912C0.740457 38.5671 0.972519 38.7824 1.24847 38.7721C1.52442 38.7618 1.73976 38.5298 1.72944 38.2538L0.730142 38.2912ZM2.22507 47.3294C2.20507 47.054 1.96559 46.8469 1.69017 46.8669C1.41475 46.8869 1.2077 47.1264 1.2277 47.4018L2.22507 47.3294ZM1.46611 50.4215C1.4896 50.6966 1.73169 50.9006 2.00683 50.8771C2.28197 50.8536 2.48597 50.6116 2.46248 50.3364L1.46611 50.4215ZM3.4202 59.3773C3.38528 59.1034 3.13492 58.9096 2.86099 58.9445C2.58706 58.9795 2.39331 59.2298 2.42822 59.5038L3.4202 59.3773ZM2.838 62.5366C2.87706 62.81 3.13033 62.9999 3.4037 62.9609C3.67707 62.9218 3.86701 62.6686 3.82795 62.3952L2.838 62.5366ZM5.32758 71.3483C5.27516 71.0772 5.01288 70.8999 4.74176 70.9523C4.47064 71.0047 4.29335 71.267 4.34577 71.5381L5.32758 71.3483ZM4.94362 74.4919C5.00078 74.762 5.26614 74.9347 5.5363 74.8775C5.80646 74.8203 5.97912 74.555 5.92195 74.2848L4.94362 74.4919ZM8.0549 83.125C7.98229 82.8585 7.70745 82.7014 7.44103 82.774C7.1746 82.8466 7.01748 83.1215 7.09009 83.3879L8.0549 83.125ZM7.92439 86.3297C8.00249 86.5946 8.28052 86.746 8.54539 86.6679C8.81025 86.5898 8.96166 86.3118 8.88356 86.0469L7.92439 86.3297ZM11.728 94.6528C11.6326 94.3936 11.3452 94.2609 11.086 94.3563C10.8269 94.4517 10.6941 94.7391 10.7896 94.9983L11.728 94.6528ZM11.8745 97.8427C11.9759 98.0995 12.2664 98.2255 12.5232 98.124C12.78 98.0226 12.906 97.7322 12.8046 97.4753L11.8745 97.8427ZM16.4433 105.786C16.3232 105.538 16.0242 105.434 15.7756 105.554C15.527 105.674 15.4228 105.973 15.5429 106.221L16.4433 105.786ZM16.9009 108.942C17.0274 109.188 17.3289 109.284 17.5744 109.158C17.8198 109.031 17.9163 108.73 17.7898 108.484L16.9009 108.942ZM22.2565 116.372C22.1109 116.137 21.8027 116.065 21.568 116.211C21.3334 116.356 21.2612 116.665 21.4067 116.899L22.2565 116.372ZM23.0502 119.47C23.202 119.701 23.5121 119.765 23.7427 119.613C23.9734 119.461 24.0372 119.151 23.8854 118.92L23.0502 119.47ZM29.1727 126.28C29.0026 126.062 28.6883 126.024 28.4708 126.194C28.2533 126.364 28.2148 126.678 28.3849 126.896L29.1727 126.28ZM30.2936 129.27C30.4695 129.483 30.7846 129.513 30.9975 129.337C31.2104 129.161 31.2403 128.846 31.0644 128.633L30.2936 129.27ZM37.111 135.384C36.9188 135.186 36.6023 135.181 36.4039 135.373C36.2056 135.565 36.2006 135.882 36.3928 136.08L37.111 135.384ZM38.5461 138.246C38.7433 138.439 39.0598 138.436 39.2532 138.239C39.4465 138.042 39.4434 137.725 39.2462 137.532L38.5461 138.246ZM45.9443 143.631C45.7336 143.452 45.4181 143.479 45.2397 143.689C45.0612 143.9 45.0874 144.216 45.2982 144.394L45.9443 143.631ZM47.6492 146.338C47.864 146.512 48.1788 146.478 48.3524 146.263C48.5259 146.048 48.4924 145.734 48.2776 145.56L47.6492 146.338ZM55.5323 151.033C55.3067 150.874 54.9947 150.928 54.8355 151.154C54.6764 151.379 54.7303 151.691 54.9559 151.851L55.5323 151.033ZM57.4434 153.568C57.6722 153.722 57.983 153.662 58.1377 153.434C58.2923 153.205 58.2321 152.894 58.0033 152.739L57.4434 153.568ZM65.6656 157.604C65.4285 157.462 65.1215 157.54 64.98 157.777C64.8384 158.014 64.9159 158.321 65.153 158.463L65.6656 157.604ZM67.802 160.012C68.0416 160.15 68.3471 160.067 68.4845 159.828C68.6219 159.588 68.5391 159.282 68.2995 159.145L67.802 160.012ZM76.2795 163.468C76.0336 163.342 75.7324 163.439 75.6065 163.685C75.4807 163.931 75.578 164.232 75.8238 164.358L76.2795 163.468ZM78.5236 165.715C78.7712 165.838 79.071 165.736 79.1933 165.488C79.3155 165.241 79.2139 164.941 78.9664 164.819L78.5236 165.715ZM87.1935 168.674C86.9412 168.562 86.6457 168.675 86.5334 168.927C86.4211 169.18 86.5347 169.475 86.787 169.588L87.1935 168.674ZM89.5948 170.816C89.8485 170.925 90.1426 170.808 90.2518 170.554C90.3609 170.301 90.2438 170.007 89.9901 169.898L89.5948 170.816ZM98.4042 173.348C98.147 173.248 97.857 173.375 97.7564 173.632C97.6558 173.889 97.7828 174.179 98.04 174.28L98.4042 173.348ZM100.859 175.366C101.117 175.464 101.406 175.334 101.504 175.075C101.602 174.817 101.472 174.529 101.214 174.431L100.859 175.366ZM109.762 177.535C109.501 177.444 109.216 177.582 109.125 177.843C109.035 178.104 109.173 178.389 109.433 178.479L109.762 177.535ZM112.299 179.462C112.561 179.55 112.844 179.41 112.933 179.148C113.021 178.887 112.881 178.603 112.619 178.514L112.299 179.462ZM121.269 181.324C121.005 181.242 120.725 181.389 120.643 181.652C120.56 181.916 120.707 182.196 120.971 182.278L121.269 181.324ZM123.891 183.178C124.155 183.259 124.435 183.11 124.515 182.845C124.596 182.581 124.446 182.302 124.182 182.222L123.891 183.178ZM132.903 184.779C132.637 184.704 132.361 184.858 132.286 185.124C132.211 185.39 132.365 185.666 132.631 185.741L132.903 184.779ZM135.594 186.569C135.86 186.643 136.136 186.487 136.209 186.221C136.283 185.954 136.127 185.679 135.86 185.605L135.594 186.569ZM144.63 187.948C144.363 187.879 144.09 188.039 144.021 188.307C143.952 188.574 144.113 188.847 144.38 188.916L144.63 187.948ZM1.52467 0.280406C1.48847 0.79588 1.45325 1.30995 1.419 1.82262L2.41677 1.88928C2.45095 1.37774 2.48609 0.864804 2.52221 0.350453L1.52467 0.280406ZM0.9082 10.9014C0.861411 11.9339 0.818899 12.9605 0.78068 13.9813L1.77998 14.0187C1.8181 13.0006 1.8605 11.9766 1.90717 10.9466L0.9082 10.9014ZM0.552187 23.0877C0.539636 24.1132 0.531794 25.1325 0.528684 26.1457L1.52868 26.1487C1.53178 25.1387 1.5396 24.1225 1.55211 23.0999L0.552187 23.0877ZM0.633387 35.2654C0.660442 36.2805 0.692686 37.2891 0.730142 38.2912L1.72944 38.2538C1.69212 37.2553 1.65999 36.2503 1.63303 35.2388L0.633387 35.2654ZM1.2277 47.4018C1.3013 48.4153 1.38076 49.4219 1.46611 50.4215L2.46248 50.3364C2.3775 49.3411 2.29837 48.3388 2.22507 47.3294L1.2277 47.4018ZM2.42822 59.5038C2.55805 60.5223 2.69463 61.5332 2.838 62.5366L3.82795 62.3952C3.6853 61.3968 3.54939 60.3909 3.4202 59.3773L2.42822 59.5038ZM4.34577 71.5381C4.53764 72.5305 4.73691 73.515 4.94362 74.4919L5.92195 74.2848C5.71647 73.3138 5.51836 72.335 5.32758 71.3483L4.34577 71.5381ZM7.09009 83.3879C7.35963 84.3769 7.63771 85.3575 7.92439 86.3297L8.88356 86.0469C8.59885 85.0814 8.32265 84.1074 8.0549 83.125L7.09009 83.3879ZM10.7896 94.9983C11.1418 95.955 11.5034 96.9031 11.8745 97.8427L12.8046 97.4753C12.4364 96.5431 12.0775 95.6023 11.728 94.6528L10.7896 94.9983ZM15.5429 106.221C15.9854 107.137 16.438 108.044 16.9009 108.942L17.7898 108.484C17.3309 107.594 16.8821 106.694 16.4433 105.786L15.5429 106.221ZM21.4067 116.899C21.9437 117.765 22.4915 118.622 23.0502 119.47L23.8854 118.92C23.3316 118.079 22.7887 117.23 22.2565 116.372L21.4067 116.899ZM28.3849 126.896C29.0101 127.695 29.6463 128.487 30.2936 129.27L31.0644 128.633C30.4228 127.856 29.7923 127.072 29.1727 126.28L28.3849 126.896ZM36.3928 136.08C37.0995 136.809 37.8173 137.531 38.5461 138.246L39.2462 137.532C38.5234 136.823 37.8117 136.107 37.111 135.384L36.3928 136.08ZM45.2982 144.394C46.0712 145.049 46.8549 145.696 47.6492 146.338L48.2776 145.56C47.4892 144.923 46.7114 144.28 45.9443 143.631L45.2982 144.394ZM54.9559 151.851C55.7752 152.428 56.6044 153.001 57.4434 153.568L58.0033 152.739C57.1698 152.176 56.3461 151.607 55.5323 151.033L54.9559 151.851ZM65.153 158.463C66.0265 158.984 66.9095 159.501 67.802 160.012L68.2995 159.145C67.412 158.636 66.534 158.122 65.6656 157.604L65.153 158.463ZM75.8238 164.358C76.7152 164.814 77.6151 165.267 78.5236 165.715L78.9664 164.819C78.0621 164.372 77.1665 163.922 76.2795 163.468L75.8238 164.358ZM86.787 169.588C87.7148 170 88.6508 170.41 89.5948 170.816L89.9901 169.898C89.0497 169.493 88.1175 169.085 87.1935 168.674L86.787 169.588ZM98.04 174.28C98.9723 174.644 99.912 175.006 100.859 175.366L101.214 174.431C100.27 174.072 99.3334 173.712 98.4042 173.348L98.04 174.28ZM109.433 178.479C110.382 178.809 111.337 179.136 112.299 179.462L112.619 178.514C111.66 178.19 110.708 177.863 109.762 177.535L109.433 178.479ZM120.971 182.278C121.938 182.58 122.911 182.88 123.891 183.178L124.182 182.222C123.205 181.924 122.234 181.625 121.269 181.324L120.971 182.278ZM132.631 185.741C133.613 186.019 134.6 186.295 135.594 186.569L135.86 185.605C134.869 185.331 133.883 185.056 132.903 184.779L132.631 185.741ZM144.38 188.916C144.877 189.044 145.375 189.172 145.874 189.3L146.122 188.331C145.623 188.204 145.126 188.076 144.63 187.948L144.38 188.916ZM0.920109 1.7893C0.883296 2.34035 1.30017 2.81692 1.85123 2.85373C2.40229 2.89054 2.87885 2.47366 2.91566 1.92261L0.920109 1.7893ZM2.40666 10.9693C2.43166 10.4176 2.00467 9.95003 1.45295 9.92503C0.901235 9.90003 0.433712 10.327 0.408712 10.8787L2.40666 10.9693ZM0.28103 13.9626C0.260366 14.5145 0.691016 14.9786 1.24291 14.9993C1.79481 15.02 2.25897 14.5893 2.27963 14.0374L0.28103 13.9626ZM2.05207 23.1061C2.05883 22.5538 1.61663 22.1006 1.06439 22.0939C0.512144 22.0871 0.0589835 22.5293 0.0522246 23.0816L2.05207 23.1061ZM0.028686 26.1441C0.0269903 26.6964 0.473329 27.1455 1.02561 27.1472C1.57789 27.1489 2.02698 26.7026 2.02868 26.1503L0.028686 26.1441ZM2.13285 35.2254C2.11814 34.6733 1.65865 34.2377 1.10657 34.2524C0.554477 34.2671 0.118849 34.7266 0.133564 35.2787L2.13285 35.2254ZM0.230491 38.3098C0.25112 38.8617 0.715245 39.2924 1.26714 39.2718C1.81904 39.2512 2.24972 38.787 2.2291 38.2351L0.230491 38.3098ZM2.72376 47.2932C2.68375 46.7424 2.20479 46.3282 1.65395 46.3682C1.10312 46.4082 0.689008 46.8872 0.729011 47.438L2.72376 47.2932ZM0.967921 50.464C1.0149 51.0143 1.49908 51.4223 2.04937 51.3753C2.59965 51.3283 3.00765 50.8442 2.96067 50.2939L0.967921 50.464ZM3.91618 59.3141C3.84635 58.7662 3.34562 58.3787 2.79777 58.4486C2.24992 58.5184 1.8624 59.0191 1.93223 59.567L3.91618 59.3141ZM2.34303 62.6074C2.42115 63.1541 2.92769 63.534 3.47442 63.4559C4.02116 63.3777 4.40104 62.8712 4.32292 62.3245L2.34303 62.6074ZM5.81849 71.2534C5.71365 70.7111 5.18909 70.3565 4.64684 70.4614C4.1046 70.5662 3.75002 71.0908 3.85486 71.633L5.81849 71.2534ZM4.45445 74.5954C4.56879 75.1357 5.09949 75.481 5.63981 75.3667C6.18013 75.2523 6.52546 74.7216 6.41112 74.1813L4.45445 74.5954ZM8.53731 82.9935C8.39209 82.4606 7.84241 82.1464 7.30956 82.2916C6.77671 82.4368 6.46246 82.9865 6.60768 83.5194L8.53731 82.9935ZM7.4448 86.4712C7.601 87.0009 8.15706 87.3037 8.6868 87.1475C9.21654 86.9913 9.51935 86.4352 9.36314 85.9055L7.4448 86.4712ZM12.1972 94.48C12.0064 93.9618 11.4316 93.6963 10.9133 93.8871C10.395 94.0779 10.1295 94.6527 10.3203 95.171L12.1972 94.48ZM11.4094 98.0263C11.6123 98.54 12.1932 98.792 12.7069 98.5891C13.2205 98.3862 13.4725 97.8053 13.2696 97.2917L11.4094 98.0263ZM16.8935 105.569C16.6533 105.072 16.0554 104.863 15.5581 105.103C15.0608 105.344 14.8525 105.942 15.0927 106.439L16.8935 105.569ZM16.4564 109.171C16.7094 109.662 17.3124 109.855 17.8034 109.602C18.2943 109.349 18.4873 108.746 18.2343 108.255L16.4564 109.171ZM22.6814 116.109C22.3902 115.639 21.7738 115.495 21.3045 115.786C20.8351 116.077 20.6907 116.694 20.9818 117.163L22.6814 116.109ZM22.6326 119.745C22.9363 120.207 23.5564 120.334 24.0177 120.031C24.479 119.727 24.6067 119.107 24.303 118.645L22.6326 119.745ZM29.5665 125.972C29.2263 125.537 28.5978 125.46 28.1628 125.8C27.7277 126.14 27.6508 126.769 27.9911 127.204L29.5665 125.972ZM29.9081 129.588C30.2599 130.014 30.8903 130.074 31.316 129.722C31.7417 129.37 31.8017 128.74 31.4499 128.314L29.9081 129.588ZM37.47 135.036C37.0857 134.64 36.4526 134.63 36.056 135.014C35.6594 135.398 35.6494 136.031 36.0337 136.428L37.47 135.036ZM38.196 138.603C38.5904 138.99 39.2235 138.983 39.6102 138.589C39.9969 138.195 39.9906 137.562 39.5963 137.175L38.196 138.603ZM46.2674 143.249C45.8459 142.892 45.2149 142.945 44.858 143.366C44.5012 143.788 44.5536 144.419 44.9751 144.776L46.2674 143.249ZM47.335 146.727C47.7647 147.074 48.3943 147.007 48.7413 146.577C49.0883 146.148 49.0214 145.518 48.5917 145.171L47.335 146.727ZM55.8205 150.625C55.3692 150.306 54.7453 150.414 54.427 150.866C54.1086 151.317 54.2164 151.941 54.6677 152.259L55.8205 150.625ZM57.1635 153.982C57.6211 154.291 58.2427 154.171 58.5519 153.714C58.8612 153.256 58.7409 152.634 58.2833 152.325L57.1635 153.982ZM65.9219 157.175C65.4476 156.891 64.8337 157.046 64.5506 157.521C64.2676 157.995 64.4225 158.609 64.8968 158.892L65.9219 157.175ZM67.5532 160.446C68.0323 160.721 68.6434 160.555 68.9182 160.076C69.193 159.597 69.0274 158.986 68.5483 158.711L67.5532 160.446ZM76.5073 163.023C76.0157 162.771 75.4131 162.965 75.1615 163.457C74.9098 163.949 75.1043 164.551 75.5959 164.803L76.5073 163.023ZM78.3022 166.164C78.7974 166.408 79.3971 166.205 79.6416 165.71C79.8861 165.214 79.6829 164.615 79.1877 164.37L78.3022 166.164ZM87.3967 168.217C86.8922 167.993 86.3011 168.22 86.0766 168.724C85.8521 169.229 86.0791 169.82 86.5837 170.044L87.3967 168.217ZM89.3972 171.275C89.9045 171.494 90.4928 171.259 90.711 170.752C90.9293 170.245 90.695 169.657 90.1877 169.438L89.3972 171.275ZM98.5863 172.883C98.072 172.682 97.4919 172.935 97.2908 173.45C97.0896 173.964 97.3435 174.544 97.8578 174.745L98.5863 172.883ZM100.682 175.833C101.198 176.029 101.775 175.769 101.971 175.253C102.167 174.736 101.907 174.159 101.391 173.963L100.682 175.833ZM109.926 177.062C109.404 176.881 108.835 177.157 108.653 177.679C108.472 178.2 108.748 178.77 109.269 178.951L109.926 177.062ZM112.139 179.935C112.662 180.112 113.23 179.832 113.407 179.308C113.584 178.785 113.303 178.218 112.78 178.041L112.139 179.935ZM121.418 180.847C120.891 180.682 120.33 180.976 120.165 181.503C120.001 182.03 120.295 182.591 120.822 182.756L121.418 180.847ZM123.746 183.657C124.274 183.817 124.833 183.519 124.993 182.991C125.154 182.463 124.856 181.904 124.328 181.743L123.746 183.657ZM133.039 184.298C132.508 184.148 131.955 184.457 131.805 184.988C131.654 185.519 131.963 186.072 132.495 186.222L133.039 184.298ZM135.461 187.051C135.993 187.198 136.544 186.886 136.691 186.354C136.838 185.821 136.526 185.271 135.994 185.123L135.461 187.051ZM144.755 187.464C144.221 187.325 143.675 187.647 143.537 188.182C143.399 188.716 143.72 189.262 144.255 189.4L144.755 187.464ZM1.02589 0.245383C0.989658 0.761417 0.954396 1.27605 0.920109 1.7893L2.91566 1.92261C2.9498 1.41164 2.9849 0.899267 3.02098 0.385477L1.02589 0.245383ZM0.408712 10.8787C0.361866 11.9126 0.319299 12.9405 0.28103 13.9626L2.27963 14.0374C2.3177 13.0206 2.36005 11.998 2.40666 10.9693L0.408712 10.8787ZM0.0522246 23.0816C0.0396548 24.1086 0.0318014 25.1295 0.028686 26.1441L2.02868 26.1503C2.03177 25.1418 2.03958 24.1271 2.05207 23.1061L0.0522246 23.0816ZM0.133564 35.2787C0.160667 36.2956 0.192968 37.3059 0.230491 38.3098L2.2291 38.2351C2.19184 37.2385 2.15977 36.2352 2.13285 35.2254L0.133564 35.2787ZM0.729011 47.438C0.802764 48.4536 0.882391 49.4623 0.967921 50.464L2.96067 50.2939C2.87587 49.3007 2.79691 48.3005 2.72376 47.2932L0.729011 47.438ZM1.93223 59.567C2.06237 60.588 2.19929 61.6014 2.34303 62.6074L4.32292 62.3245C4.18063 61.3287 4.04506 60.3252 3.91618 59.3141L1.93223 59.567ZM3.85486 71.633C4.04728 72.6282 4.24713 73.6156 4.45445 74.5954L6.41112 74.1813C6.20626 73.2132 6.00872 72.2372 5.81849 71.2534L3.85486 71.633ZM6.60768 83.5194C6.87811 84.5117 7.15714 85.4956 7.4448 86.4712L9.36314 85.9055C9.07943 84.9433 8.80416 83.9727 8.53731 82.9935L6.60768 83.5194ZM10.3203 95.171C10.6739 96.1314 11.0369 97.0831 11.4094 98.0263L13.2696 97.2917C12.9029 96.3631 12.5454 95.4259 12.1972 94.48L10.3203 95.171ZM15.0927 106.439C15.537 107.358 15.9916 108.269 16.4564 109.171L18.2343 108.255C17.7773 107.369 17.3304 106.473 16.8935 105.569L15.0927 106.439ZM20.9818 117.163C21.5212 118.032 22.0714 118.893 22.6326 119.745L24.303 118.645C23.7517 117.808 23.2112 116.963 22.6814 116.109L20.9818 117.163ZM27.9911 127.204C28.619 128.007 29.258 128.802 29.9081 129.588L31.4499 128.314C30.8111 127.541 30.1833 126.761 29.5665 125.972L27.9911 127.204ZM36.0337 136.428C36.7434 137.16 37.4642 137.885 38.196 138.603L39.5963 137.175C38.8765 136.469 38.1678 135.756 37.47 135.036L36.0337 136.428ZM44.9751 144.776C45.7511 145.433 46.5377 146.083 47.335 146.727L48.5917 145.171C47.8063 144.537 47.0315 143.896 46.2674 143.249L44.9751 144.776ZM54.6677 152.259C55.4898 152.839 56.3217 153.413 57.1635 153.982L58.2833 152.325C57.4524 151.764 56.6315 151.197 55.8205 150.625L54.6677 152.259ZM64.8968 158.892C65.7728 159.415 66.6583 159.933 67.5532 160.446L68.5483 158.711C67.6632 158.204 66.7878 157.691 65.9219 157.175L64.8968 158.892ZM75.5959 164.803C76.4895 165.26 77.3916 165.714 78.3022 166.164L79.1877 164.37C78.2856 163.925 77.3922 163.476 76.5073 163.023L75.5959 164.803ZM86.5837 170.044C87.5135 170.458 88.4513 170.868 89.3972 171.275L90.1877 169.438C89.2492 169.034 88.3189 168.627 87.3967 168.217L86.5837 170.044ZM97.8578 174.745C98.7918 175.111 99.7331 175.473 100.682 175.833L101.391 173.963C100.449 173.606 99.5139 173.245 98.5863 172.883L97.8578 174.745ZM109.269 178.951C110.219 179.282 111.176 179.61 112.139 179.935L112.78 178.041C111.822 177.717 110.87 177.391 109.926 177.062L109.269 178.951ZM120.822 182.756C121.79 183.058 122.765 183.358 123.746 183.657L124.328 181.743C123.351 181.446 122.381 181.147 121.418 180.847L120.822 182.756ZM132.495 186.222C133.478 186.5 134.466 186.777 135.461 187.051L135.994 185.123C135.003 184.85 134.018 184.575 133.039 184.298L132.495 186.222ZM144.255 189.4C144.752 189.528 145.25 189.657 145.75 189.784L146.245 187.847C145.747 187.719 145.251 187.592 144.755 187.464L144.255 189.4Z" fill="white" fill-opacity="0.5"/>
</svg>
