<svg width="147" height="192" viewBox="0 0 147 192" fill="none" xmlns="http://www.w3.org/2000/svg">
<path d="M146.253 189.246C146.49 189.105 146.569 188.798 146.428 188.56L144.133 184.69C143.992 184.452 143.685 184.374 143.448 184.514C143.21 184.655 143.132 184.962 143.273 185.2L145.313 188.64L141.872 190.68C141.634 190.821 141.556 191.128 141.697 191.365C141.838 191.603 142.144 191.681 142.382 191.54L146.253 189.246ZM1.52467 0.280406C-2.52364 57.9327 5.59224 98.0834 28.7725 127.389C51.9444 156.683 90.0949 175.042 145.874 189.3L146.122 188.331C90.4007 174.088 52.5193 155.798 29.5568 126.768C6.60247 97.7486 -1.51883 57.8993 2.52221 0.350453L1.52467 0.280406Z" fill="white"/>
</svg>
