<svg width="15" height="16" viewBox="0 0 15 16" fill="none" xmlns="http://www.w3.org/2000/svg">
<rect y="0.5" width="15" height="15" rx="7.5" fill="#0080DF"/>
<path d="M7.92004 4.13315C8.13588 4.13315 8.33054 4.02356 8.50425 3.80026C8.67796 3.57672 8.7633 3.33422 8.7633 3.07228C8.7633 2.81059 8.6974 2.59434 8.56734 2.42279C8.43576 2.251 8.26486 2.16669 8.05421 2.16669C7.84356 2.16669 7.6517 2.28648 7.4754 2.52606C7.30018 2.76564 7.21484 3.01154 7.21484 3.26594C7.21484 3.5235 7.27793 3.73053 7.40432 3.89187C7.5305 4.05321 7.70291 4.13315 7.92004 4.13315Z" fill="white"/>
<path d="M8.93288 12.1628C8.6868 12.3596 8.47787 12.4587 8.30136 12.4587C8.12635 12.4587 8.0395 12.2901 8.0395 11.9526C8.0395 11.784 8.0529 11.5738 8.07645 11.3208L8.28947 8.57756C8.38151 7.5065 8.42775 6.93233 8.42775 6.86429C8.42775 6.05662 8.18944 5.65424 7.71585 5.65424C7.29498 5.65424 6.86871 5.88799 6.43725 6.35257C6.00579 6.82007 5.67804 7.38209 5.45312 8.04373L5.81631 8.32608C6.35299 7.4251 6.71337 6.97534 6.89507 6.97534C7.07655 6.97534 7.166 7.19864 7.166 7.64986C7.166 7.81703 7.15822 8.00656 7.14115 8.21066L6.86611 10.9537C6.79892 11.7174 6.7663 12.2617 6.7663 12.5844C6.7663 12.9083 6.83198 13.1789 6.96356 13.3966C7.09492 13.6144 7.32134 13.7237 7.64239 13.7237C8.66346 13.7237 9.40539 13.0297 9.8658 11.6421L9.54215 11.3891C9.38141 11.7084 9.17875 11.9662 8.93288 12.1628Z" fill="white"/>
</svg>
