<svg width="15" height="15" viewBox="0 0 15 15" fill="none" xmlns="http://www.w3.org/2000/svg">
<rect x="0.5" y="0.5" width="14" height="14" rx="7" fill="white"/>
<path d="M7.31747 4.48437C7.48039 4.48437 7.62734 4.40165 7.75846 4.23309C7.88958 4.06435 7.954 3.8813 7.954 3.68358C7.954 3.48605 7.90425 3.32281 7.80608 3.19332C7.70676 3.06364 7.57776 3 7.41875 3C7.25974 3 7.11492 3.09042 6.98184 3.27127C6.84957 3.45212 6.78516 3.63773 6.78516 3.82976C6.78516 4.02418 6.83278 4.18045 6.92818 4.30224C7.02343 4.42403 7.15357 4.48437 7.31747 4.48437Z" fill="#0080DF"/>
<path d="M8.07979 10.5454C7.89404 10.694 7.73634 10.7688 7.60309 10.7688C7.47099 10.7688 7.40543 10.6415 7.40543 10.3868C7.40543 10.2595 7.41554 10.1008 7.43332 9.90991L7.59412 7.83916C7.6636 7.03067 7.6985 6.59727 7.6985 6.54591C7.6985 5.93624 7.51861 5.63251 7.16113 5.63251C6.84344 5.63251 6.52167 5.80895 6.19598 6.15964C5.8703 6.51253 5.6229 6.93677 5.45312 7.4362L5.72727 7.64933C6.13238 6.96923 6.40441 6.62973 6.54156 6.62973C6.67856 6.62973 6.74607 6.79829 6.74607 7.13889C6.74607 7.26508 6.7402 7.40814 6.72732 7.56221L6.51971 9.63277C6.46899 10.2092 6.44436 10.6201 6.44436 10.8637C6.44436 11.1082 6.49394 11.3125 6.59326 11.4768C6.69242 11.6412 6.86333 11.7237 7.10568 11.7237C7.87643 11.7237 8.43647 11.1999 8.784 10.1524L8.5397 9.96145C8.41836 10.2025 8.26539 10.3971 8.07979 10.5454Z" fill="#0080DF"/>
<rect x="0.5" y="0.5" width="14" height="14" rx="7" stroke="#0080DF"/>
</svg>
