<svg width="65" height="65" viewBox="0 0 65 65" fill="none" xmlns="http://www.w3.org/2000/svg">
<path d="M15.1366 20.9721V35.1952H20.0285M38.3732 35.1952H35.6215M35.6215 35.1952V20.9721H27.3664V28.502M35.6215 35.1952H27.3664M27.3664 35.1952H20.0285M27.3664 35.1952V28.502M20.0285 35.1952V28.502H27.3664M15.1366 49L25.0733 42.3068H41C43.7614 42.3068 46 40.0682 46 37.3068V19C46 16.2386 43.7614 14 41 14H12C9.23858 14 7 16.2386 7 19V37.3068C7 40.0682 9.23858 42.3068 12 42.3068H15.1366V49Z" stroke="#4B0BBF" stroke-width="1.5" stroke-linecap="round" stroke-linejoin="round"/>
<circle cx="20.1055" cy="39" r="20" fill="#4B0BBF" fill-opacity="0.1"/>
</svg>
