<svg width="65" height="65" viewBox="0 0 65 65" fill="none" xmlns="http://www.w3.org/2000/svg">
<circle cx="20" cy="42" r="20" fill="#F32020" fill-opacity="0.1"/>
<path d="M44.45 52H13.5455M13.5455 52C14.72 51.0094 14.9054 50.44 13.5455 49.3012H40.7667M13.5455 52H11C10.4477 52 10 51.5523 10 51V21C10 20.4477 10.4477 20 11 20H48C48.5523 20 49 20.4477 49 21V38.6668M13.5455 46.1757H39.4667M13.5455 43.8316H20.0455M13.5455 40.3155H38.6M13.5455 37.5807H35.4091M13.5455 34.4553H44.8636" stroke="#F33839" stroke-width="1.3" stroke-linecap="round" stroke-linejoin="round"/>
<circle cx="46.6654" cy="45.6673" r="6.68333" stroke="#F33839" stroke-width="1.3"/>
<circle cx="17.7663" cy="26.9807" r="4.52647" stroke="#F33839" stroke-width="1.3"/>
<path d="M16.0391 28.7059C16.0826 28.3025 16.3118 28.04 17.6631 27.4117M17.6631 27.4117C19.0018 27.9909 19.3404 28.2668 19.49 28.7059M17.6631 27.4117C17.9565 27.2933 18.3254 26.5562 18.2721 26.1176C18.236 25.6572 18.1667 25.4481 17.9092 25.3312C17.7551 25.2612 17.5737 25.2714 17.4224 25.3472C17.1445 25.4864 17.0704 25.6851 17.0563 26.0368C17.0541 26.0905 17.0578 26.1446 17.0664 26.1977C17.1622 26.7898 17.3162 27.0469 17.6631 27.4117Z" stroke="#F33839" stroke-linecap="round" stroke-linejoin="round"/>
<path d="M42.7852 47.3244V44.0097C42.7852 43.7335 43.009 43.51 43.2852 43.51H44.0106C44.2868 43.51 44.5106 43.7339 44.5106 44.01V47.3237C44.5106 47.5999 44.2868 47.8237 44.0106 47.8237H43.2852C43.009 47.8237 42.7852 47.6005 42.7852 47.3244Z" stroke="#F33839" stroke-width="1.3" stroke-linecap="round" stroke-linejoin="round"/>
<path d="M44.5117 44.508H45.4169C45.7561 44.508 46.0721 44.336 46.2564 44.0513L46.8795 43.0884C46.9717 42.9459 47.097 42.8254 47.2518 42.7558C47.6048 42.597 47.8353 42.5956 48.0898 42.8645C48.3425 43.1316 48.3129 43.5478 48.1212 43.8616L47.7263 44.508H49.3551C49.9782 44.508 50.4569 45.0765 50.2583 45.6671C50.0914 46.1636 49.9107 46.5215 49.7667 46.8281C49.5318 47.3279 49.0436 47.7801 48.4915 47.7954C47.7691 47.8154 47.2001 47.8436 46.4623 47.8028C46.2442 47.7907 46.0381 47.7015 45.8751 47.5561L44.5117 46.34" stroke="#F33839" stroke-width="1.3" stroke-linecap="round" stroke-linejoin="round"/>
</svg>
