<svg width="65" height="65" viewBox="0 0 65 65" fill="none" xmlns="http://www.w3.org/2000/svg">
<circle cx="20" cy="39" r="20" fill="#F32020" fill-opacity="0.1"/>
<path d="M44.45 45H13.5455M13.5455 45C14.72 44.0094 14.9054 43.44 13.5455 42.3012H40.7667M13.5455 45H11C10.4477 45 10 44.5523 10 44V14C10 13.4477 10.4477 13 11 13H48C48.5523 13 49 13.4477 49 14V31.6668M13.5455 39.1757H39.4667M13.5455 36.8316H20.0455M13.5455 33.3155H38.6M13.5455 30.5807H35.4091M13.5455 27.4553H44.8636" stroke="#F33839" stroke-width="1.3" stroke-linecap="round" stroke-linejoin="round"/>
<circle cx="46.6654" cy="38.6673" r="6.68333" stroke="#F33839" stroke-width="1.3"/>
<circle cx="17.7663" cy="19.9807" r="4.52647" stroke="#F33839" stroke-width="1.3"/>
<path d="M16.0391 21.7059C16.0826 21.3025 16.3118 21.04 17.6631 20.4117M17.6631 20.4117C19.0018 20.9909 19.3404 21.2668 19.49 21.7059M17.6631 20.4117C17.9565 20.2933 18.3254 19.5562 18.2721 19.1176C18.236 18.6572 18.1667 18.4481 17.9092 18.3312C17.7551 18.2612 17.5737 18.2714 17.4224 18.3472C17.1445 18.4864 17.0704 18.6851 17.0563 19.0368C17.0541 19.0905 17.0578 19.1446 17.0664 19.1977C17.1622 19.7898 17.3162 20.0469 17.6631 20.4117Z" stroke="#F33839" stroke-linecap="round" stroke-linejoin="round"/>
<path d="M42.7852 40.3244V37.0097C42.7852 36.7335 43.009 36.51 43.2852 36.51H44.0106C44.2868 36.51 44.5106 36.7339 44.5106 37.01V40.3237C44.5106 40.5999 44.2868 40.8237 44.0106 40.8237H43.2852C43.009 40.8237 42.7852 40.6005 42.7852 40.3244Z" stroke="#F33839" stroke-width="1.3" stroke-linecap="round" stroke-linejoin="round"/>
<path d="M44.5117 37.508H45.4169C45.7561 37.508 46.0721 37.336 46.2564 37.0513L46.8795 36.0884C46.9717 35.9459 47.097 35.8254 47.2518 35.7558C47.6048 35.597 47.8353 35.5956 48.0898 35.8645C48.3425 36.1316 48.3129 36.5478 48.1212 36.8616L47.7263 37.508H49.3551C49.9782 37.508 50.4569 38.0765 50.2583 38.6671C50.0914 39.1636 49.9107 39.5215 49.7667 39.8281C49.5318 40.3279 49.0436 40.7801 48.4915 40.7954C47.7691 40.8154 47.2001 40.8436 46.4623 40.8028C46.2442 40.7907 46.0381 40.7015 45.8751 40.5561L44.5117 39.34" stroke="#F33839" stroke-width="1.3" stroke-linecap="round" stroke-linejoin="round"/>
</svg>
