<svg width="65" height="65" viewBox="0 0 65 65" fill="none" xmlns="http://www.w3.org/2000/svg">
<circle cx="20" cy="40" r="20" fill="#3BB1C0" fill-opacity="0.2"/>
<path d="M52.7834 17.1165H54.9994C55.5516 17.1165 55.9994 17.5642 55.9994 18.1165V45.0002C55.9994 45.5525 55.5516 46.0002 54.9994 46.0002H17.418C16.8657 46.0002 16.418 45.5525 16.418 45.0002V42.7909" stroke="#4694EF" stroke-width="1.5"/>
<path d="M11.0703 14.9768V41.7908C11.0703 42.343 11.518 42.7908 12.0703 42.7908H51.7912C52.3435 42.7908 52.7912 42.343 52.7912 41.7908V15.9768C52.7912 15.4245 52.3435 14.9768 51.7912 14.9768H49.2476" stroke="#4694EF" stroke-width="1.5"/>
<path d="M10.75 12.5389C10.75 12.5346 10.7507 12.5324 10.7514 12.5309C10.7522 12.5289 10.7538 12.5264 10.7562 12.5239C10.7587 12.5214 10.7612 12.5199 10.7632 12.519C10.7647 12.5184 10.767 12.5176 10.7713 12.5176C11.1535 12.5176 11.5108 12.3735 11.785 12.1349L11.2928 11.569L11.785 12.1349C12.7952 11.2564 13.4907 10.9654 14.1277 10.9759C14.7968 10.9868 15.5872 11.3293 16.7864 12.1849C17.082 12.3958 17.4409 12.5176 17.8171 12.5176H48.5814C48.7195 12.5176 48.8314 12.6296 48.8314 12.7676V38.5816C48.8314 38.7197 48.7195 38.8316 48.5814 38.8316H11C10.8619 38.8316 10.75 38.7197 10.75 38.5816V12.5389Z" stroke="#4694EF" stroke-width="1.5"/>
<path d="M17.4889 36.3722V12.3608C14.9759 10.3716 13.5882 9.92631 11.0703 12.3608V36.3722C13.5785 33.7492 14.9795 34.2303 17.4889 36.3722Z" stroke="#4694EF" stroke-width="1.5"/>
<path d="M23.9062 34.2327H43.1621M23.9062 28.8838L30.2917 23.972C30.6313 23.7107 31.0996 23.6949 31.4561 23.9325L35.0434 26.3241C35.4161 26.5726 35.9087 26.5428 36.2489 26.2513L43.1621 20.3257M43.1621 20.3257V23.535M43.1621 20.3257H39.4179" stroke="#4694EF" stroke-width="1.5"/>
</svg>
