<svg width="65" height="65" viewBox="0 0 65 65" fill="none" xmlns="http://www.w3.org/2000/svg">
<circle cx="20" cy="42" r="20" fill="#3BB1C0" fill-opacity="0.2"/>
<path d="M53.7834 22.1165H55.9994C56.5516 22.1165 56.9994 22.5642 56.9994 23.1165V50.0002C56.9994 50.5525 56.5516 51.0002 55.9994 51.0002H18.418C17.8657 51.0002 17.418 50.5525 17.418 50.0002V47.7909" stroke="#4694EF" stroke-width="1.5"/>
<path d="M12.0703 19.9768V46.7908C12.0703 47.343 12.518 47.7908 13.0703 47.7908H52.7912C53.3435 47.7908 53.7912 47.343 53.7912 46.7908V20.9768C53.7912 20.4245 53.3435 19.9768 52.7912 19.9768H50.2476" stroke="#4694EF" stroke-width="1.5"/>
<path d="M11.75 17.5389C11.75 17.5346 11.7507 17.5324 11.7514 17.5309C11.7522 17.5289 11.7538 17.5264 11.7562 17.5239C11.7587 17.5214 11.7612 17.5199 11.7632 17.519C11.7647 17.5184 11.767 17.5176 11.7713 17.5176C12.1535 17.5176 12.5108 17.3735 12.785 17.1349L12.2928 16.569L12.785 17.1349C13.7952 16.2564 14.4907 15.9654 15.1277 15.9759C15.7968 15.9868 16.5872 16.3293 17.7864 17.1849C18.082 17.3958 18.4409 17.5176 18.8171 17.5176H49.5814C49.7195 17.5176 49.8314 17.6296 49.8314 17.7676V43.5816C49.8314 43.7197 49.7195 43.8316 49.5814 43.8316H12C11.8619 43.8316 11.75 43.7197 11.75 43.5816V17.5389Z" stroke="#4694EF" stroke-width="1.5"/>
<path d="M18.4889 41.3722V17.3608C15.9759 15.3716 14.5882 14.9263 12.0703 17.3608V41.3722C14.5785 38.7492 15.9795 39.2303 18.4889 41.3722Z" stroke="#4694EF" stroke-width="1.5"/>
<path d="M24.9062 39.2327H44.1621M24.9062 33.8838L31.2917 28.972C31.6313 28.7107 32.0996 28.6949 32.4561 28.9325L36.0434 31.3241C36.4161 31.5726 36.9087 31.5428 37.2489 31.2513L44.1621 25.3257M44.1621 25.3257V28.535M44.1621 25.3257H40.4179" stroke="#4694EF" stroke-width="1.5"/>
</svg>
