<svg width="71" height="70" viewBox="0 0 71 70" fill="none" xmlns="http://www.w3.org/2000/svg">
<g clip-path="url(#clip0_641:2221)">
<circle cx="30.5" cy="39" r="30" fill="white" fill-opacity="0.2"/>
<g clip-path="url(#clip1_641:2221)">
<path d="M10.5 8H55.6762C56.2285 8 56.6762 8.44771 56.6762 9V17.3238L58.6762 15.3238V9C58.6762 7.34315 57.3331 6 55.6762 6H10.5C8.84315 6 7.5 7.34315 7.5 9V59.8625C7.5 61.5193 8.84314 62.8625 10.5 62.8625H55.6762C57.3331 62.8625 58.6762 61.5193 58.6762 59.8625V26.0297L56.6762 28.1249V59.8625C56.6762 60.4148 56.2285 60.8625 55.6762 60.8625H10.5C9.94772 60.8625 9.5 60.4148 9.5 59.8625V9C9.5 8.44772 9.94772 8 10.5 8Z" fill="white"/>
<path fill-rule="evenodd" clip-rule="evenodd" d="M23.0627 18.2268C23.0627 16.759 24.0929 15.7578 25.1446 15.7578C26.1962 15.7578 27.2264 16.759 27.2264 18.2268V18.8538C27.2264 20.25 26.2836 21.2436 25.2528 21.3191L25.1327 21.3227C24.0852 21.3152 23.0627 20.316 23.0627 18.8538V18.2268ZM25.1446 14.0078C22.9303 14.0078 21.3127 16.001 21.3127 18.2268V18.8538C21.3127 21.0795 22.9303 23.0727 25.1446 23.0727H25.1578L25.1711 23.0723L25.3228 23.0677L25.338 23.0673L25.3532 23.0663C27.4786 22.9275 28.9764 20.9988 28.9764 18.8538V18.2268C28.9764 16.001 27.3588 14.0078 25.1446 14.0078ZM18.4648 29.7344C18.4648 27.6095 20.4111 25.7328 23.0107 25.7328H26.6247C29.2249 25.7328 31.1705 27.6092 31.1705 29.7344C31.1705 30.5126 30.4377 31.2978 29.3351 31.2978H20.3003C19.1977 31.2978 18.4648 30.5126 18.4648 29.7344ZM23.0107 23.9828C19.6234 23.9828 16.7148 26.4734 16.7148 29.7344C16.7148 31.6486 18.41 33.0477 20.3003 33.0477H29.3351C31.2254 33.0477 32.9205 31.6486 32.9205 29.7344C32.9205 26.4732 30.0127 23.9828 26.6247 23.9828H23.0107Z" fill="white"/>
<path d="M40.4805 15.6666H50.7157" stroke="white" stroke-width="2" stroke-linecap="round" stroke-linejoin="round"/>
<path d="M16.5977 46.941H33.6564" stroke="white" stroke-width="2" stroke-linecap="round" stroke-linejoin="round"/>
<path d="M16.5977 41.2547H33.6564" stroke="white" stroke-width="1.75" stroke-linecap="round" stroke-linejoin="round"/>
<path d="M40.4805 20.7842H50.7157" stroke="white" stroke-width="2" stroke-linecap="round" stroke-linejoin="round"/>
<path d="M16.5977 52.6272H33.6564" stroke="white" stroke-width="2" stroke-linecap="round" stroke-linejoin="round"/>
<path d="M33.3984 47.04L32.6952 46.7794C32.5886 47.067 32.6679 47.3905 32.8953 47.5962C33.1227 47.8019 33.4525 47.8485 33.728 47.7137L33.3984 47.04ZM36.7777 37.92L36.2442 37.3929L36.1306 37.5079L36.0744 37.6594L36.7777 37.92ZM41.8466 42.9075L42.1761 43.5812L42.2884 43.5263L42.3768 43.438L41.8466 42.9075ZM55.9268 28.835L56.457 29.3655L55.9268 28.835ZM50.8579 23.67L50.3353 23.132L50.3298 23.1374L50.3244 23.1429L50.8579 23.67ZM64.487 18.23L63.9443 18.7477L64.487 18.23ZM64.4592 20.3292L63.9304 19.7973L64.4592 20.3292ZM59.3472 15.1176L59.8898 15.6354L59.3472 15.1176ZM34.1017 47.3006L37.481 38.1806L36.0744 37.6594L32.6952 46.7794L34.1017 47.3006ZM60.9751 15.6354L63.9443 18.7477L65.0297 17.7123L62.0605 14.5999L60.9751 15.6354ZM41.517 42.2338L33.0689 46.3663L33.728 47.7137L42.1761 43.5812L41.517 42.2338ZM42.3726 42.3729L37.3037 37.3854L36.2517 38.4546L41.3206 43.4421L42.3726 42.3729ZM63.9304 19.7973L59.9037 23.7999L60.9612 24.8638L64.9879 20.8611L63.9304 19.7973ZM55.9063 19.8109L59.8898 15.6354L58.8045 14.5999L54.8209 18.7755L55.9063 19.8109ZM60.9612 23.7999L55.8923 18.7613L54.8349 19.8251L59.9037 24.8638L60.9612 23.7999ZM59.9023 23.8014L55.3966 28.3046L56.457 29.3655L60.9627 24.8623L59.9023 23.8014ZM55.3966 28.3046L41.3164 42.377L42.3768 43.438L56.457 29.3655L55.3966 28.3046ZM37.3112 38.4472L51.3914 24.1972L50.3244 23.1429L36.2442 37.3929L37.3112 38.4472ZM51.3805 24.208L55.8862 19.8312L54.841 18.7553L50.3353 23.132L51.3805 24.208ZM56.4621 28.3097L51.3932 23.1447L50.3226 24.1953L55.3915 29.3604L56.4621 28.3097ZM63.9443 18.7477C64.2261 19.043 64.2199 19.5095 63.9304 19.7973L64.9879 20.8611C65.8564 19.9978 65.875 18.5983 65.0297 17.7123L63.9443 18.7477ZM62.0605 14.5999C61.174 13.6708 59.6909 13.6708 58.8045 14.5999L59.8898 15.6354C60.1853 15.3256 60.6797 15.3256 60.9751 15.6354L62.0605 14.5999Z" fill="white"/>
</g>
</g>
<defs>
<clipPath id="clip0_641:2221">
<rect width="70" height="70" fill="white" transform="translate(0.5)"/>
</clipPath>
<clipPath id="clip1_641:2221">
<rect width="59" height="57" fill="white" transform="translate(7.5 6)"/>
</clipPath>
</defs>
</svg>
