<svg width="63" height="57" viewBox="0 0 63 57" fill="none" xmlns="http://www.w3.org/2000/svg">
<circle cx="24" cy="33" r="24" fill="white" fill-opacity="0.2"/>
<rect x="12" y="1" width="43" height="48" rx="2" stroke="white" stroke-width="2"/>
<path fill-rule="evenodd" clip-rule="evenodd" d="M24.7891 10.725C24.7891 9.48605 25.6577 8.66663 26.5141 8.66663C27.3705 8.66663 28.2391 9.48605 28.2391 10.725V11.275C28.2391 12.4514 27.4458 13.2673 26.6039 13.3302L26.5025 13.3332C25.6498 13.3259 24.7891 12.5083 24.7891 11.275V10.725ZM26.5141 6.91663C24.4987 6.91663 23.0391 8.72395 23.0391 10.725V11.275C23.0391 13.276 24.4987 15.0833 26.5141 15.0833H26.5273L26.5406 15.0829L26.6739 15.0788L26.6891 15.0784L26.7043 15.0774C28.6373 14.9515 29.9891 13.2041 29.9891 11.275V10.725C29.9891 8.72395 28.5294 6.91663 26.5141 6.91663ZM20.7461 20.8194C20.7461 19.0271 22.3973 17.4166 24.6378 17.4166H27.8155C30.0565 17.4166 31.7072 19.0268 31.7072 20.8194C31.7072 21.4304 31.1229 22.0833 30.1989 22.0833H22.2544C21.3304 22.0833 20.7461 21.4304 20.7461 20.8194ZM24.6378 15.6666C21.6138 15.6666 18.9961 17.8873 18.9961 20.8194C18.9961 22.5702 20.5468 23.8333 22.2544 23.8333H30.1989C31.9065 23.8333 33.4572 22.5702 33.4572 20.8194C33.4572 17.8871 30.8401 15.6666 27.8155 15.6666H24.6378Z" fill="white"/>
<path d="M40 8.5H49" stroke="white" stroke-width="2" stroke-linecap="round" stroke-linejoin="round"/>
<path d="M19 36H34" stroke="white" stroke-width="2" stroke-linecap="round" stroke-linejoin="round"/>
<path d="M19 31H34" stroke="white" stroke-width="1.75" stroke-linecap="round" stroke-linejoin="round"/>
<path d="M40 13H49" stroke="white" stroke-width="2" stroke-linecap="round" stroke-linejoin="round"/>
<path d="M19 41H34" stroke="white" stroke-width="2" stroke-linecap="round" stroke-linejoin="round"/>
<path d="M33.7734 36L36.7449 28L49.1258 15.5L53.0877 11.6607L56.4608 8.13359C57.0515 7.51588 58.0382 7.51588 58.6289 8.13358L60.9839 10.5961C61.5491 11.1872 61.5367 12.1221 60.956 12.6979L57.5449 16.0806L53.583 20.0307L41.202 32.375L33.7734 36Z" fill="#9328A5"/>
<path d="M33.7734 36L33.0704 35.7389C32.9636 36.0263 33.0426 36.3498 33.2698 36.5558C33.4971 36.7617 33.8268 36.8085 34.1024 36.674L33.7734 36ZM36.7449 28L36.212 27.4722L36.0981 27.5872L36.0418 27.7389L36.7449 28ZM58.6289 8.13358L58.0869 8.65194V8.65194L58.6289 8.13358ZM60.9839 10.5961L61.5259 10.0778V10.0778L60.9839 10.5961ZM41.202 32.375L41.5309 33.049L41.6431 32.9943L41.7316 32.9061L41.202 32.375ZM60.956 12.6979L60.4279 12.1654V12.1654L60.956 12.6979ZM56.4608 8.13359L57.0028 8.65195V8.65195L56.4608 8.13359ZM53.583 20.0307L54.1125 20.5618L53.583 20.0307ZM49.1258 15.5L48.6039 14.9614L48.5984 14.9668L48.593 14.9722L49.1258 15.5ZM34.4765 36.2611L37.4479 28.2611L36.0418 27.7389L33.0704 35.7389L34.4765 36.2611ZM58.0869 8.65194L60.4419 11.1145L61.5259 10.0778L59.171 7.61522L58.0869 8.65194ZM40.8731 31.701L33.4445 35.326L34.1024 36.674L41.5309 33.049L40.8731 31.701ZM41.7274 31.8398L37.2702 27.4648L36.2195 28.5352L40.6766 32.9102L41.7274 31.8398ZM60.4279 12.1654L57.0168 15.548L58.073 16.6131L61.4841 13.2305L60.4279 12.1654ZM53.6298 12.1791L57.0028 8.65195L55.9188 7.61522L52.5457 11.1424L53.6298 12.1791ZM58.073 15.548L53.6158 11.1282L52.5596 12.1933L57.0168 16.6131L58.073 15.548ZM57.0153 15.5494L53.0534 19.4996L54.1125 20.5618L58.0744 16.6117L57.0153 15.5494ZM53.0534 19.4996L40.6725 31.8439L41.7316 32.9061L54.1125 20.5618L53.0534 19.4996ZM37.2777 28.5278L49.6587 16.0278L48.593 14.9722L36.212 27.4722L37.2777 28.5278ZM49.6477 16.0386L53.6097 12.1993L52.5658 11.1221L48.6039 14.9614L49.6477 16.0386ZM54.1176 19.5048L49.6605 14.974L48.5912 16.026L53.0483 20.5567L54.1176 19.5048ZM60.4419 11.1145C60.7245 11.41 60.7183 11.8775 60.4279 12.1654L61.4841 13.2305C62.3552 12.3667 62.3738 10.9643 61.5259 10.0778L60.4419 11.1145ZM59.171 7.61522C58.2849 6.68866 56.8048 6.68867 55.9188 7.61522L57.0028 8.65195C57.2982 8.34309 57.7915 8.34309 58.0869 8.65194L59.171 7.61522Z" fill="white"/>
</svg>
