<svg width="70" height="70" viewBox="0 0 70 70" fill="none" xmlns="http://www.w3.org/2000/svg">
<circle cx="30" cy="40" r="30" fill="white" fill-opacity="0.2"/>
<g clip-path="url(#clip0_641:2250)">
<path d="M60.1388 41.0364C61.7124 41.0364 62.9882 39.7605 62.9882 38.187C62.9882 36.6129 61.7124 35.3376 60.1388 35.3376C58.5652 35.3376 57.2894 36.6129 57.2894 38.187C57.2917 38.3553 57.3084 38.5227 57.3399 38.6883L48.6966 43.6367C48.0065 43.0162 47.0488 42.788 46.1528 43.0306L42.611 37.7232L48.704 30.3984C49.4155 30.6716 50.2076 30.6442 50.8981 30.3214C51.5887 29.9991 52.1183 29.4096 52.3655 28.6889H57.4642C57.9266 29.9972 59.2646 30.7819 60.6322 30.5473C62.0004 30.3126 62.9998 29.1267 62.9998 27.7391C62.9998 26.3511 62.0004 25.1652 60.6322 24.9305C59.2646 24.6959 57.9266 25.4806 57.4642 26.7893H52.3655C52.0098 25.7644 51.1013 25.0321 50.0244 24.9018C48.9475 24.771 47.8901 25.2654 47.3002 26.1758C46.7098 27.0857 46.6899 28.2525 47.2483 29.1828L41.5082 36.0754L39.6155 33.2395C39.9884 32.7502 40.1911 32.1528 40.1929 31.5383C40.1929 29.9643 38.9171 28.6889 37.3435 28.6889C35.7699 28.6889 34.4941 29.9643 34.4941 31.5383C34.4969 31.9952 34.6114 32.445 34.8276 32.848L30.1736 37.8674L21.8267 29.0344C22.0358 28.6347 22.1457 28.1904 22.1467 27.7391C22.1494 26.3529 21.1519 25.1666 19.7856 24.9319C18.4193 24.6968 17.0832 25.4815 16.6227 26.7893H11.6988V13.8849L14.1076 16.2928L15.4507 14.9497L10.749 10.2494L6.0473 14.9497L7.39039 16.2928L9.79921 13.8849V60.9822H6V62.8819H9.79921V66.6811H11.6988V62.8819H58.7957L56.3869 65.2893L57.73 66.6324L62.4317 61.932L57.73 57.2313L56.3869 58.5743L58.7957 60.9822H11.6988V28.6889H16.6227C16.8824 29.4375 17.4445 30.0427 18.1717 30.3567C18.8993 30.6711 19.7253 30.6651 20.4483 30.3404L28.875 39.2685L26.1291 42.2236C24.9641 41.7204 23.6066 42.0483 22.8001 43.0283C21.9931 44.0078 21.9319 45.4032 22.6489 46.45L18.2023 52.5685C17.9421 52.4846 17.6708 52.4391 17.3976 52.434C15.8241 52.434 14.5482 53.7094 14.5482 55.2834C14.5482 56.857 15.8241 58.1328 17.3976 58.1328C18.9712 58.1328 20.247 56.857 20.247 55.2834C20.2484 54.7065 20.0731 54.143 19.7448 53.6686L24.1914 47.55C24.4516 47.634 24.7229 47.6794 24.9961 47.685C26.5696 47.685 27.8455 46.4092 27.8455 44.8356C27.8427 44.3783 27.7281 43.9285 27.512 43.5254L30.182 40.6477L32.9173 43.5444C32.7081 43.9428 32.5977 44.3857 32.5945 44.8356C32.5945 46.4092 33.8703 47.685 35.4439 47.685C37.0175 47.685 38.2933 46.4092 38.2933 44.8356C38.2905 44.3264 38.15 43.8274 37.8866 43.3919L41.3403 39.2448L44.5695 44.0889C43.8187 45.0809 43.7983 46.4453 44.5194 47.4596C45.2401 48.4734 46.5355 48.9024 47.7195 48.5193C48.903 48.1362 49.7012 47.0292 49.691 45.7854C49.6886 45.617 49.6719 45.4492 49.6404 45.2836L58.2837 40.3352C58.7971 40.7855 59.4561 41.0345 60.1388 41.0364ZM60.1388 26.7893C60.6633 26.7893 61.0886 27.2146 61.0886 27.7391C61.0886 28.2637 60.6633 28.6889 60.1388 28.6889C59.6143 28.6889 59.189 28.2637 59.189 27.7391C59.189 27.2146 59.6143 26.7893 60.1388 26.7893ZM49.691 26.7893C50.2155 26.7893 50.6408 27.2146 50.6408 27.7391C50.6408 28.2637 50.2155 28.6889 49.691 28.6889C49.1664 28.6889 48.7411 28.2637 48.7411 27.7391C48.7411 27.2146 49.1664 26.7893 49.691 26.7893ZM18.3474 27.7391C18.3474 27.2146 18.7727 26.7893 19.2972 26.7893C19.8218 26.7893 20.247 27.2146 20.247 27.7391C20.247 28.2637 19.8218 28.6889 19.2972 28.6889C18.7727 28.6889 18.3474 28.2637 18.3474 27.7391ZM17.3976 56.2332C16.8731 56.2332 16.4478 55.8079 16.4478 55.2834C16.4478 54.7589 16.8731 54.3336 17.3976 54.3336C17.9222 54.3336 18.3474 54.7589 18.3474 55.2834C18.3474 55.8079 17.9222 56.2332 17.3976 56.2332ZM24.9961 45.7854C24.4715 45.7854 24.0463 45.3601 24.0463 44.8356C24.0463 44.3111 24.4715 43.8858 24.9961 43.8858C25.5206 43.8858 25.9459 44.3111 25.9459 44.8356C25.9459 45.3601 25.5206 45.7854 24.9961 45.7854ZM37.3435 30.5885C37.868 30.5885 38.2933 31.0138 38.2933 31.5383C38.2933 32.0629 37.868 32.4881 37.3435 32.4881C36.819 32.4881 36.3937 32.0629 36.3937 31.5383C36.3937 31.0138 36.819 30.5885 37.3435 30.5885ZM35.4439 45.7854C34.9194 45.7854 34.4941 45.3601 34.4941 44.8356C34.4941 44.3111 34.9194 43.8858 35.4439 43.8858C35.9684 43.8858 36.3937 44.3111 36.3937 44.8356C36.3937 45.3601 35.9684 45.7854 35.4439 45.7854ZM36.4308 42.1759C35.7389 41.9078 34.9681 41.9301 34.2928 42.2375L31.4777 39.2564L36.2114 34.154C36.7847 34.4109 37.4293 34.461 38.0359 34.2964L40.2402 37.6008L36.4308 42.1759ZM60.1388 37.2372C60.6633 37.2372 61.0886 37.6624 61.0886 38.187C61.0886 38.7115 60.6633 39.1368 60.1388 39.1368C59.6143 39.1368 59.189 38.7115 59.189 38.187C59.189 37.6624 59.6143 37.2372 60.1388 37.2372ZM46.8415 46.7352C46.317 46.7352 45.8917 46.3099 45.8917 45.7854C45.8917 45.2609 46.317 44.8356 46.8415 44.8356C47.3661 44.8356 47.7913 45.2609 47.7913 45.7854C47.7913 46.3099 47.3661 46.7352 46.8415 46.7352Z" fill="white"/>
</g>
<defs>
<clipPath id="clip0_641:2250">
<rect width="57" height="57" fill="white" transform="translate(6 10)"/>
</clipPath>
</defs>
</svg>
