<svg width="64" height="58" viewBox="0 0 64 58" fill="none" xmlns="http://www.w3.org/2000/svg">
<g clip-path="url(#clip0_242:7946)">
<circle cx="24.5" cy="34" r="24" fill="white" fill-opacity="0.2"/>
<g clip-path="url(#clip1_242:7946)">
<path d="M60.8898 28.3139C62.3253 28.3139 63.4892 27.15 63.4892 25.7144C63.4892 24.2785 62.3253 23.115 60.8898 23.115C59.4542 23.115 58.2903 24.2785 58.2903 25.7144C58.2924 25.868 58.3077 26.0207 58.3364 26.1718L50.4513 30.6861C49.8218 30.12 48.9481 29.9119 48.1307 30.1332L44.8995 25.2913L50.4581 18.6091C51.1071 18.8583 51.8297 18.8333 52.4597 18.5388C53.0897 18.2448 53.5729 17.707 53.7984 17.0495H58.4498C58.8716 18.2431 60.0922 18.9589 61.3399 18.7449C62.5881 18.5308 63.4998 17.4489 63.4998 16.1831C63.4998 14.9168 62.5881 13.8349 61.3399 13.6208C60.0922 13.4067 58.8716 14.1226 58.4498 15.3166H53.7984C53.4739 14.3815 52.645 13.7135 51.6626 13.5946C50.6802 13.4753 49.7156 13.9263 49.1774 14.7568C48.6388 15.5869 48.6206 16.6514 49.13 17.5001L43.8934 23.7881L42.1668 21.2009C42.507 20.7545 42.6918 20.2096 42.6935 19.649C42.6935 18.213 41.5296 17.0495 40.0941 17.0495C38.6585 17.0495 37.4946 18.213 37.4946 19.649C37.4972 20.0658 37.6017 20.4761 37.7988 20.8438L33.5531 25.4229L25.9384 17.3647C26.1292 17 26.2294 16.5947 26.2303 16.1831C26.2328 14.9184 25.3228 13.8362 24.0763 13.6221C22.8299 13.4076 21.611 14.1235 21.1909 15.3166H16.6989V3.54411L18.8965 5.74079L20.1217 4.51552L15.8324 0.227509L11.5432 4.51552L12.7684 5.74079L14.9659 3.54411V46.5101H11.5V48.2431H14.9659V51.709H16.6989V48.2431H59.6645L57.467 50.4393L58.6922 51.6646L62.9815 47.3766L58.6922 43.0882L57.467 44.3134L59.6645 46.5101H16.6989V17.0495H21.1909C21.4278 17.7324 21.9406 18.2845 22.604 18.571C23.2678 18.8578 24.0213 18.8523 24.6809 18.5562L32.3685 26.7011L29.8634 29.397C28.8006 28.9379 27.5622 29.2371 26.8264 30.131C26.0902 31.0246 26.0344 32.2977 26.6885 33.2526L22.6319 38.8344C22.3946 38.7578 22.147 38.7164 21.8978 38.7117C20.4623 38.7117 19.2984 39.8752 19.2984 41.3112C19.2984 42.7467 20.4623 43.9106 21.8978 43.9106C23.3334 43.9106 24.4973 42.7467 24.4973 41.3112C24.4986 40.7849 24.3386 40.2708 24.0391 39.838L28.0957 34.2562C28.333 34.3327 28.5805 34.3742 28.8297 34.3793C30.2653 34.3793 31.4292 33.2154 31.4292 31.7798C31.4267 31.3627 31.3222 30.9523 31.125 30.5846L33.5607 27.9593L36.0561 30.6019C35.8653 30.9654 35.7646 31.3694 35.7616 31.7798C35.7616 33.2154 36.9256 34.3793 38.3611 34.3793C39.7966 34.3793 40.9606 33.2154 40.9606 31.7798C40.958 31.3153 40.8298 30.86 40.5895 30.4627L43.7403 26.6795L46.6862 31.0987C46.0013 32.0036 45.9826 33.2484 46.6405 34.1737C47.298 35.0985 48.4797 35.4899 49.5599 35.1404C50.6396 34.791 51.3677 33.781 51.3584 32.6463C51.3563 32.4927 51.3411 32.3396 51.3123 32.1885L59.1974 27.6742C59.6658 28.085 60.267 28.3122 60.8898 28.3139ZM60.8898 15.3166C61.3683 15.3166 61.7563 15.7045 61.7563 16.1831C61.7563 16.6616 61.3683 17.0495 60.8898 17.0495C60.4113 17.0495 60.0233 16.6616 60.0233 16.1831C60.0233 15.7045 60.4113 15.3166 60.8898 15.3166ZM51.3584 15.3166C51.8369 15.3166 52.2249 15.7045 52.2249 16.1831C52.2249 16.6616 51.8369 17.0495 51.3584 17.0495C50.8799 17.0495 50.4919 16.6616 50.4919 16.1831C50.4919 15.7045 50.8799 15.3166 51.3584 15.3166ZM22.7643 16.1831C22.7643 15.7045 23.1523 15.3166 23.6308 15.3166C24.1093 15.3166 24.4973 15.7045 24.4973 16.1831C24.4973 16.6616 24.1093 17.0495 23.6308 17.0495C23.1523 17.0495 22.7643 16.6616 22.7643 16.1831ZM21.8978 42.1777C21.4193 42.1777 21.0314 41.7897 21.0314 41.3112C21.0314 40.8327 21.4193 40.4447 21.8978 40.4447C22.3764 40.4447 22.7643 40.8327 22.7643 41.3112C22.7643 41.7897 22.3764 42.1777 21.8978 42.1777ZM28.8297 32.6463C28.3512 32.6463 27.9633 32.2583 27.9633 31.7798C27.9633 31.3013 28.3512 30.9133 28.8297 30.9133C29.3083 30.9133 29.6962 31.3013 29.6962 31.7798C29.6962 32.2583 29.3083 32.6463 28.8297 32.6463ZM40.0941 18.7825C40.5726 18.7825 40.9606 19.1705 40.9606 19.649C40.9606 20.1275 40.5726 20.5155 40.0941 20.5155C39.6156 20.5155 39.2276 20.1275 39.2276 19.649C39.2276 19.1705 39.6156 18.7825 40.0941 18.7825ZM38.3611 32.6463C37.8826 32.6463 37.4946 32.2583 37.4946 31.7798C37.4946 31.3013 37.8826 30.9133 38.3611 30.9133C38.8396 30.9133 39.2276 31.3013 39.2276 31.7798C39.2276 32.2583 38.8396 32.6463 38.3611 32.6463ZM39.2614 29.3534C38.6302 29.1089 37.927 29.1292 37.311 29.4097L34.7428 26.6901L39.0613 22.0352C39.5843 22.2696 40.1723 22.3153 40.7257 22.1651L42.7367 25.1796L39.2614 29.3534ZM60.8898 24.8479C61.3683 24.8479 61.7563 25.2359 61.7563 25.7144C61.7563 26.1929 61.3683 26.5809 60.8898 26.5809C60.4113 26.5809 60.0233 26.1929 60.0233 25.7144C60.0233 25.2359 60.4113 24.8479 60.8898 24.8479ZM48.7589 33.5128C48.2804 33.5128 47.8925 33.1248 47.8925 32.6463C47.8925 32.1678 48.2804 31.7798 48.7589 31.7798C49.2375 31.7798 49.6254 32.1678 49.6254 32.6463C49.6254 33.1248 49.2375 33.5128 48.7589 33.5128Z" fill="white"/>
</g>
</g>
<defs>
<clipPath id="clip0_242:7946">
<rect width="63" height="58" fill="white" transform="translate(0.5)"/>
</clipPath>
<clipPath id="clip1_242:7946">
<rect width="52" height="52" fill="white" transform="translate(11.5)"/>
</clipPath>
</defs>
</svg>
