<svg width="730" height="338" viewBox="0 0 730 338" fill="none" xmlns="http://www.w3.org/2000/svg">
<path d="M0.742188 272.753C0.742188 272.753 5.79318 332.939 70.9976 336.877H260.094L266.618 259.06L0.742188 272.753Z" fill="#C0CCFF"/>
<g opacity="0.5">
<path opacity="0.5" d="M273.299 238.156L271.523 271.702L269.801 271.648L262.988 336.881H82.4805C100.279 335.819 138.655 327.274 121.749 271.702C120.867 268.801 118.467 262.352 115.573 257.715C115.499 257.591 115.418 257.473 115.344 257.351C115.3 257.284 115.256 257.213 115.212 257.149C106.529 243.789 96.6596 239.14 86.561 238.156H273.299Z" fill="#B6C4FF"/>
</g>
<path d="M273.342 238.156L269.844 271.645L263.031 336.877H82.5234C100.321 335.816 138.697 327.271 121.796 271.699C120.913 268.798 118.514 262.348 115.619 257.712C115.545 257.587 115.464 257.469 115.39 257.348C115.346 257.281 115.299 257.21 115.259 257.146L273.342 238.156Z" fill="#8D9EFF"/>
<path d="M61.1172 167.219H162.16L145.855 183.523L91.1198 201.486L61.1172 167.219Z" fill="#C0CCFF"/>
<path d="M276.528 177.141L273.303 238.156L271.528 271.702L269.806 271.648L120.581 266.887C118.967 263.457 117.299 260.414 115.581 257.715C115.507 257.591 115.426 257.473 115.352 257.351C115.308 257.284 115.264 257.213 115.22 257.149C106.537 243.789 96.6674 239.139 86.5688 238.156H86.5485C62.6887 235.854 37.5315 254.002 23.6084 226.079C0.718969 180.187 53.5268 151.773 84.6953 175.645C98.4364 186.172 109.141 189.642 117.441 189.117C128.476 188.412 135.262 180.639 139.302 172.96C143.43 165.126 144.694 157.4 144.694 157.4L276.528 177.141Z" fill="#8D9EFF"/>
<path d="M254.292 158.185L151.837 176.936C151.837 176.936 206.108 160.83 131.172 114.065C72.6391 77.5371 72.2786 1.36039 152.174 5.64634C243.56 10.5489 277.707 152.676 277.707 152.676L254.292 158.185Z" fill="#8D9EFF"/>
<path d="M729.111 319.039V331.018C729.111 334.93 725.943 338.097 722.031 338.097H234.644L222.254 149.337H492.058C517.802 149.337 538.673 170.207 538.673 195.95V197.614C538.673 208.905 545.264 219.162 555.538 223.849L651.971 267.83L660.206 271.587L664.422 273.508L667.252 274.798L714.53 296.363C723.413 300.416 729.111 309.278 729.111 319.039Z" fill="#8C9DF4"/>
<path d="M198.177 149.337H156.886C142.943 149.337 135.9 166.14 145.676 176.08L168.828 199.622C178.694 209.653 195.757 202.668 195.757 188.601V165.059C195.764 156.375 206.857 149.337 198.177 149.337Z" fill="#060633"/>
<path d="M158.274 204.353H177.281V151.982H147.043L158.274 204.353Z" fill="#060633"/>
<path d="M156.285 149.338H133.132C119.189 149.338 112.147 166.141 121.922 176.081L145.074 199.624C154.94 209.655 172.004 202.67 172.004 188.602V165.06C172.004 156.377 164.965 149.338 156.285 149.338Z" fill="#6980E2"/>
<path d="M515.282 319.039V331.015C515.282 334.923 512.115 338.097 508.206 338.097H188.734V149.333H278.23C303.977 149.333 324.848 170.207 324.848 195.95V197.608C324.848 208.905 331.439 219.155 341.713 223.842L500.706 296.36C509.588 300.416 515.282 309.282 515.282 319.039Z" fill="#5067C9"/>
<path d="M387.188 234.335L524.626 295.642C527.544 296.943 530.701 297.617 533.896 297.617H684.886C688.71 297.617 689.839 292.407 686.358 290.824L554.268 230.689C552.398 229.836 550.366 229.402 548.311 229.409L388.098 230.005C385.665 230.012 384.961 233.341 387.188 234.335Z" fill="#6980E2"/>
<path d="M606.339 267.429L602.08 267.931C599.806 268.201 596.517 267.756 594.768 266.944L591.493 265.425C589.744 264.613 590.176 263.73 592.447 263.46L596.706 262.958C598.98 262.689 602.269 263.133 604.018 263.945L607.293 265.465C609.042 266.277 608.614 267.16 606.339 267.429Z" fill="#233862"/>
<path d="M590.43 257.213V264.64L608.366 266.533L608.363 259.424L590.43 257.213Z" fill="#233862"/>
<path d="M586.261 267.433L582.002 267.935C579.728 268.205 576.439 267.76 574.69 266.948L571.415 265.428C569.666 264.616 570.098 263.733 572.369 263.464L576.628 262.962C578.902 262.692 582.191 263.137 583.94 263.949L587.215 265.469C588.967 266.281 588.536 267.163 586.261 267.433Z" fill="#233862"/>
<path d="M570.352 257.217L570.355 264.64L588.288 266.537L588.284 259.427L570.352 257.217Z" fill="#233862"/>
<path d="M566.183 267.433L561.924 267.935C559.649 268.205 556.36 267.76 554.612 266.948L551.333 265.428C549.584 264.616 550.016 263.733 552.287 263.464L556.546 262.962C558.82 262.692 562.109 263.137 563.858 263.949L567.133 265.469C568.888 266.281 568.457 267.167 566.183 267.433Z" fill="#233862"/>
<path d="M550.277 257.217V264.643L568.21 266.537V259.427L550.277 257.217Z" fill="#233862"/>
<path d="M546.105 267.436L541.846 267.938C539.571 268.208 536.283 267.763 534.534 266.951L531.259 265.431C529.51 264.619 529.941 263.737 532.212 263.467L536.471 262.965C538.746 262.695 542.035 263.14 543.783 263.952L547.059 265.472C548.807 266.284 548.376 267.167 546.105 267.436Z" fill="#233862"/>
<path d="M530.195 257.22V264.643L548.128 266.54V259.43L530.195 257.22Z" fill="#233862"/>
<path d="M526.027 267.436L521.768 267.938C519.493 268.208 516.205 267.763 514.456 266.951L511.181 265.431C509.432 264.619 509.863 263.737 512.134 263.467L516.393 262.965C518.668 262.695 521.957 263.14 523.705 263.952L526.981 265.472C528.73 266.284 528.298 267.17 526.027 267.436Z" fill="#233862"/>
<path d="M510.117 257.223V264.646L528.05 266.54V259.43L510.117 257.223Z" fill="#233862"/>
<path d="M505.946 267.44L501.687 267.942C499.412 268.211 496.124 267.766 494.375 266.954L491.1 265.435C489.351 264.623 489.779 263.74 492.053 263.47L496.312 262.968C498.587 262.699 501.875 263.143 503.624 263.956L506.9 265.475C508.648 266.287 508.22 267.17 505.946 267.44Z" fill="#233862"/>
<path d="M490.035 257.223V264.65L507.968 266.543V259.434L490.035 257.223Z" fill="#233862"/>
<path d="M563.765 252.742L559.506 253.244C557.232 253.514 553.943 253.069 552.194 252.257L548.919 250.737C547.17 249.925 547.601 249.042 549.873 248.776L554.135 248.274C556.409 248.004 559.698 248.449 561.447 249.261L564.722 250.781C566.468 251.59 566.04 252.472 563.765 252.742Z" fill="#233862"/>
<path d="M547.855 242.526V249.952L565.788 251.846V244.736L547.855 242.526Z" fill="#233862"/>
<path d="M583.632 252.738L579.373 253.241C577.099 253.51 573.81 253.065 572.061 252.253L568.786 250.734C567.037 249.922 567.469 249.039 569.74 248.769L573.999 248.267C576.273 247.998 579.562 248.442 581.311 249.255L584.586 250.774C586.335 251.59 585.907 252.472 583.632 252.738Z" fill="#233862"/>
<path d="M567.723 242.526V249.949L585.656 251.842V244.733L567.723 242.526Z" fill="#233862"/>
<path d="M543.687 252.742L539.424 253.244C537.15 253.514 533.861 253.069 532.112 252.257L528.837 250.737C527.088 249.925 527.519 249.042 529.791 248.773L534.05 248.271C536.324 248.001 539.613 248.446 541.362 249.258L544.637 250.778C546.389 251.593 545.961 252.476 543.687 252.742Z" fill="#233862"/>
<path d="M527.777 242.529L527.781 249.952L545.714 251.846L545.71 244.736L527.777 242.529Z" fill="#233862"/>
<path d="M523.605 252.745L519.346 253.247C517.071 253.517 513.783 253.072 512.034 252.26L508.759 250.741C507.01 249.929 507.441 249.046 509.712 248.78L513.971 248.277C516.246 248.008 519.535 248.453 521.283 249.265L524.559 250.784C526.307 251.593 525.879 252.476 523.605 252.745Z" fill="#233862"/>
<path d="M507.695 242.529L507.699 249.955L525.631 251.849V244.74L507.695 242.529Z" fill="#233862"/>
<path d="M503.527 252.749L499.268 253.251C496.993 253.52 493.705 253.076 491.956 252.263L488.681 250.744C486.932 249.932 487.363 249.049 489.634 248.78L493.893 248.277C496.168 248.008 499.457 248.453 501.205 249.265L504.481 250.784C506.233 251.596 505.801 252.479 503.527 252.749Z" fill="#233862"/>
<path d="M487.621 242.533V249.955L505.554 251.849V244.743L487.621 242.533Z" fill="#233862"/>
<path d="M483.452 252.749L479.193 253.251C476.919 253.52 473.63 253.076 471.881 252.263L468.603 250.744C466.854 249.932 467.285 249.049 469.556 248.78L473.815 248.277C476.09 248.008 479.378 248.453 481.127 249.265L484.402 250.784C486.155 251.596 485.723 252.479 483.452 252.749Z" fill="#233862"/>
<path d="M467.543 242.533V249.959L485.476 251.853V244.743L467.543 242.533Z" fill="#233862"/>
<path d="M463.371 252.752L459.112 253.254C456.837 253.524 453.548 253.079 451.8 252.267L448.524 250.747C446.776 249.935 447.207 249.052 449.478 248.783L453.737 248.281C456.012 248.011 459.3 248.456 461.049 249.268L464.324 250.788C466.073 251.6 465.642 252.482 463.371 252.752Z" fill="#233862"/>
<path d="M447.461 242.536V249.959L465.394 251.853V244.743L447.461 242.536Z" fill="#233862"/>
<path d="M631.772 283.212L627.199 283.751C624.76 284.041 621.225 283.563 619.352 282.693L615.834 281.062C613.957 280.193 614.419 279.243 616.858 278.956L621.431 278.417C623.87 278.128 627.402 278.606 629.278 279.475L632.796 281.106C634.677 281.979 634.215 282.926 631.772 283.212Z" fill="#233862"/>
<path d="M614.695 272.248V280.217L633.946 282.252V274.62L614.695 272.248Z" fill="#233862"/>
<path d="M653.1 283.212L648.527 283.751C646.088 284.041 642.553 283.563 640.68 282.693L637.162 281.062C635.285 280.193 635.747 279.243 638.186 278.956L642.759 278.417C645.198 278.128 648.733 278.606 650.606 279.475L654.124 281.106C656.001 281.976 655.543 282.922 653.1 283.212Z" fill="#233862"/>
<path d="M636.023 272.248V280.217L655.274 282.248V274.617L636.023 272.248Z" fill="#233862"/>
<path d="M610.221 283.215L605.649 283.754C603.209 284.044 599.678 283.566 597.801 282.696L594.283 281.066C592.406 280.196 592.868 279.246 595.307 278.96L599.88 278.421C602.319 278.131 605.851 278.609 607.728 279.479L611.245 281.109C613.122 281.979 612.661 282.929 610.221 283.215Z" fill="#233862"/>
<path d="M593.145 272.251V280.22L612.395 282.252L612.392 274.623L593.145 272.251Z" fill="#233862"/>
<path d="M588.67 283.219L584.098 283.758C581.658 284.048 578.124 283.569 576.25 282.7L572.732 281.069C570.855 280.2 571.317 279.25 573.757 278.963L578.329 278.424C580.769 278.134 584.3 278.613 586.177 279.482L589.695 281.113C591.572 281.982 591.11 282.929 588.67 283.219Z" fill="#233862"/>
<path d="M571.59 272.251V280.22L590.84 282.255V274.623L571.59 272.251Z" fill="#233862"/>
<path d="M567.116 283.219L562.543 283.758C560.104 284.048 556.569 283.569 554.695 282.7L551.178 281.069C549.301 280.2 549.762 279.25 552.202 278.963L556.774 278.424C559.214 278.134 562.745 278.613 564.622 279.482L568.14 281.113C570.017 281.982 569.559 282.932 567.116 283.219Z" fill="#233862"/>
<path d="M550.039 272.255V280.223L569.289 282.258V274.627L550.039 272.255Z" fill="#233862"/>
<path d="M545.561 283.222L540.988 283.761C538.549 284.051 535.018 283.573 533.141 282.703L529.623 281.072C527.746 280.203 528.208 279.253 530.647 278.967L535.22 278.427C537.659 278.138 541.194 278.616 543.067 279.485L546.585 281.116C548.462 281.986 548 282.932 545.561 283.222Z" fill="#233862"/>
<path d="M528.48 272.255L528.484 280.227L547.731 282.258V274.627L528.48 272.255Z" fill="#233862"/>
<path d="M524.01 283.222L519.438 283.761C516.998 284.051 513.464 283.573 511.59 282.703L508.072 281.072C506.195 280.203 506.657 279.253 509.097 278.967L513.669 278.427C516.109 278.141 519.64 278.616 521.517 279.485L525.035 281.116C526.911 281.986 526.45 282.936 524.01 283.222Z" fill="#233862"/>
<path d="M506.93 272.258V280.227L526.18 282.262V274.63L506.93 272.258Z" fill="#233862"/>
<path d="M490.148 238.698L485.794 239.2C483.473 239.47 480.11 239.025 478.327 238.213L474.982 236.693C473.196 235.881 473.634 234.998 475.955 234.729L480.309 234.227C482.63 233.957 485.99 234.402 487.776 235.214L491.122 236.734C492.908 237.546 492.47 238.429 490.148 238.698Z" fill="#233862"/>
<path d="M473.898 228.482V235.905L492.215 237.802V230.692L473.898 228.482Z" fill="#233862"/>
<path d="M469.644 238.698L465.294 239.2C462.973 239.47 459.61 239.025 457.827 238.213L454.481 236.693C452.696 235.881 453.134 234.998 455.455 234.732L459.805 234.23C462.127 233.961 465.49 234.405 467.276 235.217L470.622 236.737C472.404 237.546 471.966 238.429 469.644 238.698Z" fill="#233862"/>
<path d="M453.395 228.485V235.908L471.711 237.802V230.692L453.395 228.485Z" fill="#233862"/>
<path d="M449.137 238.701L444.787 239.204C442.465 239.473 439.106 239.028 437.32 238.216L433.974 236.697C432.188 235.885 432.626 235.002 434.947 234.732L439.301 234.23C441.623 233.961 444.982 234.405 446.768 235.217L450.114 236.737C451.896 237.549 451.458 238.432 449.137 238.701Z" fill="#233862"/>
<path d="M432.887 228.485V235.908L451.204 237.805V230.696L432.887 228.485Z" fill="#233862"/>
<path d="M428.628 238.701L424.275 239.203C421.953 239.473 418.594 239.028 416.808 238.216L413.462 236.697C411.676 235.885 412.114 235.002 414.436 234.732L418.789 234.23C421.111 233.961 424.47 234.405 426.256 235.217L429.602 236.737C431.388 237.549 430.95 238.435 428.628 238.701Z" fill="#233862"/>
<path d="M412.379 228.489V235.912L430.696 237.805V230.696L412.379 228.489Z" fill="#233862"/>
<path d="M531.164 238.695L526.814 239.197C524.492 239.466 521.129 239.022 519.347 238.21L516.001 236.69C514.215 235.878 514.653 234.995 516.975 234.725L521.328 234.223C523.65 233.954 527.009 234.399 528.795 235.211L532.141 236.73C533.924 237.542 533.486 238.425 531.164 238.695Z" fill="#233862"/>
<path d="M514.914 228.479L514.917 235.901L533.231 237.795V230.689L514.914 228.479Z" fill="#233862"/>
<path d="M531.164 231.585L526.814 232.087C524.492 232.357 521.129 231.912 519.347 231.1L516.001 229.58C514.215 228.768 514.653 227.886 516.975 227.616L521.325 227.114C523.647 226.844 527.009 227.289 528.792 228.101L532.138 229.621C533.924 230.433 533.486 231.316 531.164 231.585Z" fill="#F9DDBF"/>
<path d="M553.531 238.695L549.177 239.197C546.856 239.466 543.493 239.022 541.71 238.21L538.364 236.69C536.578 235.878 537.016 234.995 539.338 234.725L543.692 234.223C546.013 233.954 549.373 234.399 551.158 235.211L554.504 236.73C556.29 237.542 555.852 238.425 553.531 238.695Z" fill="#233862"/>
<path d="M537.281 228.479V235.901L555.598 237.795V230.689L537.281 228.479Z" fill="#233862"/>
<path d="M553.527 231.585L549.177 232.087C546.855 232.357 543.496 231.912 541.706 231.1L538.36 229.58C536.575 228.768 537.013 227.886 539.334 227.616L543.688 227.114C546.009 226.844 549.369 227.289 551.155 228.101L554.501 229.621C556.29 230.433 555.852 231.316 553.527 231.585Z" fill="#F9DDBF"/>
<path d="M510.656 238.695L506.306 239.197C503.984 239.466 500.625 239.022 498.839 238.209L495.493 236.69C493.707 235.878 494.145 234.995 496.467 234.729L500.817 234.227C503.139 233.957 506.502 234.402 508.284 235.214L511.63 236.734C513.416 237.542 512.978 238.425 510.656 238.695Z" fill="#233862"/>
<path d="M494.406 228.479L494.41 235.905L512.723 237.798V230.689L494.406 228.479Z" fill="#233862"/>
<path d="M606.339 260.32L602.076 260.822C599.802 261.092 596.513 260.647 594.764 259.835L591.489 258.315C589.74 257.503 590.172 256.62 592.443 256.354L596.702 255.852C598.976 255.582 602.265 256.027 604.014 256.839L607.293 258.359C609.041 259.168 608.613 260.054 606.339 260.32Z" fill="#F9DDBF"/>
<path d="M586.261 260.323L582.002 260.825C579.728 261.095 576.439 260.65 574.69 259.838L571.415 258.318C569.666 257.506 570.098 256.624 572.369 256.357L576.628 255.855C578.902 255.586 582.191 256.031 583.94 256.843L587.215 258.362C588.964 259.171 588.536 260.054 586.261 260.323Z" fill="#F9DDBF"/>
<path d="M566.179 260.323L561.92 260.825C559.646 261.095 556.357 260.65 554.608 259.838L551.333 258.318C549.584 257.506 550.015 256.624 552.287 256.357L556.546 255.855C558.82 255.586 562.109 256.031 563.858 256.843L567.133 258.362C568.885 259.174 568.454 260.057 566.179 260.323Z" fill="#F9DDBF"/>
<path d="M546.101 260.327L541.842 260.829C539.568 261.098 536.279 260.653 534.53 259.841L531.255 258.322C529.506 257.51 529.937 256.627 532.208 256.357L536.468 255.855C538.742 255.586 542.031 256.031 543.78 256.843L547.055 258.362C548.807 259.174 548.376 260.057 546.101 260.327Z" fill="#F9DDBF"/>
<path d="M526.024 260.327L521.765 260.829C519.49 261.098 516.202 260.653 514.453 259.841L511.178 258.322C509.429 257.51 509.857 256.627 512.131 256.361L516.394 255.859C518.668 255.589 521.957 256.034 523.706 256.846L526.981 258.366C528.726 259.178 528.295 260.06 526.024 260.327Z" fill="#F9DDBF"/>
<path d="M505.945 260.33L501.683 260.832C499.408 261.102 496.12 260.657 494.371 259.845L491.096 258.325C489.347 257.513 489.775 256.63 492.049 256.364L496.308 255.862C498.583 255.593 501.872 256.037 503.62 256.849L506.896 258.369C508.648 259.178 508.217 260.06 505.945 260.33Z" fill="#F9DDBF"/>
<path d="M563.765 245.633L559.506 246.135C557.232 246.404 553.943 245.959 552.194 245.147L548.919 243.628C547.17 242.816 547.601 241.933 549.873 241.663L554.132 241.161C556.406 240.892 559.695 241.336 561.444 242.148L564.719 243.668C566.468 244.48 566.04 245.363 563.765 245.633Z" fill="#F9DDBF"/>
<path d="M583.632 245.629L579.373 246.131C577.099 246.401 573.81 245.956 572.061 245.144L568.786 243.624C567.037 242.812 567.469 241.929 569.74 241.66L573.999 241.158C576.273 240.888 579.562 241.333 581.311 242.145L584.586 243.665C586.335 244.48 585.903 245.363 583.632 245.629Z" fill="#F9DDBF"/>
<path d="M543.687 245.636L539.428 246.138C537.154 246.407 533.865 245.963 532.116 245.151L528.841 243.631C527.092 242.819 527.523 241.936 529.794 241.67L534.054 241.168C536.328 240.898 539.617 241.343 541.366 242.155L544.641 243.675C546.39 244.483 545.962 245.366 543.687 245.636Z" fill="#F9DDBF"/>
<path d="M523.606 245.636L519.347 246.138C517.073 246.407 513.784 245.963 512.035 245.151L508.76 243.631C507.011 242.819 507.439 241.936 509.713 241.67L513.972 241.168C516.247 240.898 519.536 241.343 521.284 242.155L524.56 243.675C526.308 244.483 525.881 245.366 523.606 245.636Z" fill="#F9DDBF"/>
<path d="M503.526 245.639L499.267 246.141C496.993 246.411 493.704 245.966 491.955 245.154L488.677 243.634C486.928 242.822 487.359 241.94 489.63 241.673L493.889 241.171C496.164 240.902 499.453 241.347 501.201 242.159L504.477 243.678C506.229 244.487 505.801 245.37 503.526 245.639Z" fill="#F9DDBF"/>
<path d="M483.449 245.639L479.19 246.141C476.915 246.411 473.627 245.966 471.878 245.154L468.603 243.634C466.854 242.822 467.285 241.94 469.556 241.673L473.815 241.171C476.09 240.902 479.378 241.347 481.127 242.159L484.402 243.678C486.155 244.487 485.723 245.373 483.449 245.639Z" fill="#F9DDBF"/>
<path d="M463.371 245.643L459.112 246.145C456.837 246.414 453.548 245.969 451.8 245.157L448.524 243.638C446.776 242.826 447.207 241.943 449.478 241.673L453.737 241.171C456.012 240.902 459.3 241.347 461.049 242.159L464.324 243.678C466.073 244.49 465.642 245.373 463.371 245.643Z" fill="#F9DDBF"/>
<path d="M631.772 275.584L627.199 276.123C624.76 276.413 621.225 275.934 619.352 275.065L615.834 273.434C613.957 272.565 614.419 271.614 616.858 271.328L621.431 270.789C623.87 270.502 627.402 270.978 629.278 271.847L632.796 273.478C634.673 274.347 634.215 275.294 631.772 275.584Z" fill="#F9DDBF"/>
<path d="M653.1 275.58L648.528 276.119C646.088 276.409 642.553 275.931 640.68 275.061L637.162 273.431C635.285 272.561 635.747 271.611 638.186 271.325L642.759 270.786C645.198 270.496 648.733 270.974 650.607 271.844L654.124 273.474C656.001 274.344 655.54 275.294 653.1 275.58Z" fill="#F9DDBF"/>
<path d="M610.221 275.584L605.649 276.123C603.209 276.412 599.678 275.934 597.801 275.065L594.283 273.434C592.406 272.565 592.868 271.614 595.307 271.328L599.88 270.789C602.319 270.499 605.851 270.978 607.728 271.847L611.245 273.478C613.122 274.347 612.661 275.297 610.221 275.584Z" fill="#F9DDBF"/>
<path d="M588.67 275.587L584.098 276.126C581.658 276.416 578.124 275.937 576.25 275.068L572.732 273.437C570.855 272.568 571.317 271.618 573.757 271.331L578.329 270.792C580.769 270.502 584.3 270.981 586.177 271.85L589.695 273.481C591.572 274.35 591.11 275.297 588.67 275.587Z" fill="#F9DDBF"/>
<path d="M567.116 275.587L562.543 276.126C560.104 276.413 556.572 275.937 554.695 275.068L551.178 273.437C549.301 272.568 549.762 271.618 552.202 271.331L556.775 270.792C559.214 270.502 562.745 270.981 564.622 271.85L568.14 273.481C570.017 274.35 569.555 275.301 567.116 275.587Z" fill="#F9DDBF"/>
<path d="M545.561 275.59L540.988 276.129C538.549 276.419 535.018 275.941 533.141 275.071L529.623 273.441C527.746 272.571 528.208 271.621 530.647 271.335L535.22 270.796C537.659 270.506 541.191 270.984 543.067 271.854L546.585 273.484C548.462 274.354 548 275.301 545.561 275.59Z" fill="#F9DDBF"/>
<path d="M524.006 275.59L519.434 276.129C516.994 276.419 513.46 275.941 511.586 275.071L508.068 273.441C506.191 272.571 506.653 271.621 509.093 271.335L513.665 270.796C516.105 270.506 519.636 270.984 521.513 271.854L525.031 273.484C526.908 274.357 526.449 275.304 524.006 275.59Z" fill="#F9DDBF"/>
<path d="M490.148 231.589L485.794 232.091C483.473 232.36 480.113 231.915 478.327 231.103L474.982 229.584C473.196 228.772 473.634 227.889 475.955 227.623L480.309 227.121C482.63 226.851 485.993 227.296 487.779 228.108L491.125 229.628C492.908 230.436 492.47 231.319 490.148 231.589Z" fill="#F9DDBF"/>
<path d="M469.644 231.589L465.294 232.091C462.973 232.36 459.613 231.915 457.827 231.103L454.481 229.584C452.696 228.772 453.134 227.889 455.455 227.623L459.805 227.121C462.127 226.851 465.49 227.296 467.276 228.108L470.622 229.628C472.404 230.436 471.966 231.322 469.644 231.589Z" fill="#F9DDBF"/>
<path d="M449.136 231.592L444.783 232.094C442.461 232.363 439.102 231.919 437.316 231.107L433.97 229.587C432.184 228.775 432.622 227.892 434.944 227.623L439.297 227.121C441.619 226.851 444.978 227.296 446.764 228.108L450.11 229.628C451.896 230.44 451.458 231.322 449.136 231.592Z" fill="#F9DDBF"/>
<path d="M428.628 231.594L424.275 232.096C421.953 232.365 418.59 231.92 416.808 231.108L413.462 229.589C411.676 228.777 412.114 227.894 414.436 227.628L418.789 227.126C421.111 226.856 424.47 227.301 426.256 228.113L429.602 229.633C431.388 230.441 430.95 231.327 428.628 231.594Z" fill="#F9DDBF"/>
<path d="M510.655 231.585L506.302 232.087C503.98 232.357 500.617 231.912 498.831 231.1L495.485 229.58C493.7 228.768 494.138 227.886 496.459 227.619L500.813 227.117C503.134 226.848 506.494 227.293 508.28 228.105L511.626 229.624C513.415 230.433 512.977 231.319 510.655 231.585Z" fill="#F9DDBF"/>
<path d="M381.142 217.818C379.225 216.257 381.701 206.901 381.701 206.901C381.701 206.901 392.497 200.424 393.03 206.574C393.562 212.723 401.113 216.473 405.521 217.811C408.564 218.737 409.295 220.587 409.453 221.649L381.142 217.818Z" fill="#182B49"/>
<path d="M354.579 220.156C352.662 218.596 355.139 209.239 355.139 209.239C355.139 209.239 365.935 202.763 366.467 208.912C367 215.061 374.551 218.812 378.958 220.149C382.001 221.076 382.729 222.929 382.891 223.987L354.579 220.156Z" fill="#233862"/>
<path d="M349.484 116.815C349.484 116.815 393.915 127.769 397.197 142.049C400.479 156.328 393.996 208.444 393.996 208.444C393.996 208.444 388.493 210.152 381.026 207.416C381.026 207.416 378.398 190.555 377.916 174.611C377.603 164.226 381.441 153.063 379.207 152.844C373.543 152.292 319.505 147.696 316.098 130.006C312.688 112.32 349.484 116.815 349.484 116.815Z" fill="#233862"/>
<path d="M319.749 117.553C319.749 117.553 369.096 127.685 372.382 141.964C375.663 156.241 369.474 209.273 369.474 209.273C369.474 209.273 370.714 212.106 353.751 209.34C353.751 209.34 349.431 188.156 348.953 172.215C348.64 161.831 352.724 153.394 350.486 153.215C314.257 150.327 298.841 159.506 300.253 123.055C300.95 105.055 319.749 117.553 319.749 117.553Z" fill="#2B478B"/>
<path d="M299.27 120.403C299.183 121.593 312.068 123.968 317.817 123.746C346.653 122.627 351.03 117.118 351.04 117.105C351.563 116.444 348.132 96.6216 347.94 89.202C347.765 82.4395 347.647 74.4067 347.634 64.8745C347.62 53.4082 329.873 41.076 329.546 41.076L329.543 41.0827C329.543 42.7338 326.941 45.7798 322.935 46.0426C318.18 46.3526 312.344 43.9872 312.344 41.2478C312.344 41.2209 302.118 75.1143 297.363 64.9722L299.27 120.403Z" fill="#FF943B"/>
<path d="M329.551 41.0794C329.551 41.0794 346.052 40.9378 350.024 46.5076C353.997 52.0773 362.704 82.0385 358.158 92.0087C353.613 101.979 345.111 87.8845 340.394 81.779C335.673 75.6702 329.551 41.0794 329.551 41.0794Z" fill="#FF943B"/>
<path d="M329.72 38.559L329.71 40.264C329.71 40.264 330.175 45.5978 323.604 46.3795C317.033 47.1612 312.06 44.3006 312.235 40.1831C312.828 36.9956 313.475 34.8054 313.519 32.1705C313.536 31.19 313.468 30.1489 313.286 28.9763L326.016 28.7236L329.767 29.3368L329.72 38.559Z" fill="#FFD1B1"/>
<path d="M329.766 29.3335L329.719 38.559C328.368 39.1891 326.841 39.5699 325.13 39.5699C319.28 39.5699 315.499 35.2805 313.522 32.1672C313.538 31.1867 313.471 30.1455 313.289 28.9729L326.019 28.7202L329.766 29.3335Z" fill="#E2915A"/>
<path d="M312.313 26.9242C313.789 34.8728 324.046 34.6133 328.477 34.1113C329.723 33.9731 330.508 33.8148 330.508 33.8148C331.914 33.4374 332.699 31.2237 333.063 28.3226C333.787 22.581 332.874 14.1506 331.903 11.9942C330.444 8.74941 327.695 5.24182 317.364 7.77228C307.039 10.3061 310.419 16.7418 312.313 26.9242Z" fill="#FFD1B1"/>
<path d="M346.426 63.4054C346.426 63.4054 352.808 77.4998 352.622 81.7251C352.622 81.7251 350.837 81.6106 347.801 82.5136L346.426 63.4054Z" fill="#EF873A"/>
<path d="M335.074 4.42976C335.074 4.42976 330.528 4.07935 325.164 1.74768C320.811 -0.145956 315.321 1.93974 313.539 2.87982C313.586 2.59341 313.701 2.19919 313.974 1.80833C313.974 1.80833 313.172 2.37439 313.057 3.16958C312.973 3.23023 312.939 3.27405 312.959 3.28753C312.959 3.28753 312.053 3.12242 311.47 3.38523C311.47 3.38523 311.878 3.32795 312.023 3.59077C312.04 3.61772 312.06 3.64132 312.087 3.66153C305.297 6.94339 304.67 17.6718 306.854 20.155C309.482 23.1404 312.636 29.8692 312.636 29.8692C312.636 29.8692 313.785 28.2788 313.306 25.6506C312.828 23.0225 315.099 23.0224 317.967 21.8263C320.834 20.6301 318.445 17.2876 320.952 15.2558C323.462 13.2241 332.661 14.4202 332.54 12.8669C335.957 11.6168 335.074 4.78018 335.074 4.42976Z" fill="#233862"/>
<path d="M310.23 89.8085C312.926 100.628 343.862 109.894 350.487 111.033C350.207 106.342 349.702 95.139 349.506 87.6251L310.23 89.8085Z" fill="#EF873A"/>
<path d="M316.628 93.3262C316.352 93.3262 310.152 92.3996 309.04 91.847C307.931 91.291 302.85 84.0737 306.175 82.2238C309.501 80.374 318.431 87.7767 318.431 87.7767L316.628 93.3262Z" fill="#FFD1B1"/>
<path d="M354.337 95.4691C354.337 95.4691 330.359 96.7698 314.266 93.3262C314.266 93.3262 313.858 88.6763 318.916 86.6142C318.916 86.6142 343.995 81.2972 350.02 82.7798C356.048 84.2556 354.337 95.4691 354.337 95.4691Z" fill="#FF943B"/>
<path d="M299.271 76.6508C304.248 82.6518 310.751 87.5476 317.925 88.6966C317.985 88.6056 320.095 85.4012 319.7 80.6874C319.518 78.5073 318.797 76.0038 317.089 73.3352C316.563 72.5164 316.095 71.5561 315.68 70.4914C311.765 60.5009 312.348 41.2445 312.348 41.2445C312.348 41.2445 295.719 42.9865 290.537 50.3892C287.359 54.9245 291.406 67.1657 299.271 76.6508Z" fill="#FF943B"/>
<path d="M328.476 34.1147C329.723 33.9766 330.508 33.8182 330.508 33.8182C331.913 33.4408 332.698 31.2271 333.062 28.326C330.424 28.9763 329.218 31.0114 328.712 31.8808C328.486 32.2683 328.439 33.1443 328.476 34.1147Z" fill="#E2915A"/>
<path d="M335.177 38.6095C335.177 38.6095 340.923 29.1313 336.455 28.7202C331.99 28.3091 330.194 31.3315 329.55 32.4401C328.903 33.552 329.719 38.559 329.719 38.559L335.177 38.6095Z" fill="#FFD1B1"/>
<path d="M313.287 80.3706C313.462 81.5702 313.823 82.6753 314.264 83.6592C315.666 86.7726 317.92 88.6966 317.92 88.6966C332.837 81.9644 335.857 58.8432 336.359 46.1437C336.561 41.039 336.359 37.6156 336.359 37.6156C329.63 35.3884 327.739 39.2599 327.739 39.2599C327.739 39.2599 319.794 58.1524 315.673 70.4981C314.103 75.2187 313.085 78.9892 313.287 80.3706Z" fill="#FF943B"/>
<path d="M299.27 76.6507C304.246 82.6517 310.75 87.5475 317.923 88.6965C332.84 81.9644 335.86 58.8432 336.362 46.1437C336.362 46.1437 329.302 71.7414 319.696 80.6907C317.96 82.3114 316.138 83.3829 314.264 83.6626C314.264 83.6626 302.151 80.2392 299.61 77.0146C299.428 76.7821 299.317 76.6676 299.27 76.6507Z" fill="#EF873A"/>
<path d="M151.617 327.18C151.617 327.578 151.641 327.975 151.691 328.359C151.84 329.596 152.224 330.758 152.79 331.806C153.235 332.622 153.797 333.366 154.448 334.02C156.2 335.769 158.612 336.85 161.284 336.85H297.27C302.611 336.85 306.941 332.521 306.941 327.184C306.941 324.512 305.859 322.096 304.107 320.347C302.358 318.595 299.939 317.513 297.27 317.513H161.288C155.947 317.51 151.617 321.84 151.617 327.18Z" fill="#2B478B"/>
<path d="M161.99 315.761H208.615C209.431 315.761 210.098 315.094 210.098 314.279C210.098 313.463 209.431 312.796 208.615 312.796H161.99C161.175 312.796 160.508 313.463 160.508 314.279C160.504 315.094 161.172 315.761 161.99 315.761Z" fill="#2B478B"/>
<path d="M164.567 317.509H169.621V315.757H164.567V317.509Z" fill="#233862"/>
<path d="M152.793 331.806C153.238 332.622 153.8 333.366 154.451 334.02C156.203 335.769 158.616 336.85 161.288 336.85H190.094V331.806H152.793Z" fill="#233862"/>
<path d="M324.945 324.346V330.01C324.945 330.63 324.86 331.234 324.705 331.803C323.92 334.711 321.265 336.847 318.108 336.847H176.458C173.301 336.847 170.645 334.711 169.86 331.803C169.705 331.234 169.621 330.63 169.621 330.01V324.346C169.621 320.569 172.681 317.51 176.458 317.51H318.111C321.885 317.51 324.945 320.569 324.945 324.346Z" fill="#F99746"/>
<path d="M324.704 331.806C323.919 334.714 321.264 336.85 318.107 336.85H176.457C173.3 336.85 170.644 334.714 169.859 331.806H324.704Z" fill="#EF873A"/>
<path d="M310.875 327.214C310.875 330.219 311.967 332.901 313.689 334.681C313.729 334.721 313.766 334.758 313.803 334.798C315.134 336.123 316.819 336.918 318.655 336.918C321.523 336.918 328.629 332.591 333.037 329.721C335.23 328.289 336.757 327.217 336.757 327.217C336.757 327.217 335.234 326.146 333.037 324.714C328.633 321.84 321.523 317.513 318.655 317.513C317.826 317.513 317.028 317.675 316.273 317.975C315.009 318.484 313.881 319.383 312.994 320.562C312.014 321.856 311.32 323.484 311.027 325.293C311.023 325.313 311.02 325.334 311.02 325.357C310.922 325.954 310.875 326.577 310.875 327.214Z" fill="#8C9DF4"/>
<path d="M310.875 327.214C310.875 330.219 311.967 332.901 313.689 334.681L335.49 327.18L311.02 325.354C310.922 325.954 310.875 326.577 310.875 327.214Z" fill="#6980E2"/>
<path d="M312.996 320.556L334.747 326.496L316.275 317.968C315.011 318.477 313.886 319.38 312.996 320.556Z" fill="#9FB1FF"/>
<path d="M331.613 327.214C331.613 328.37 332.206 329.353 333.032 329.717C335.225 328.285 336.752 327.214 336.752 327.214C336.752 327.214 335.229 326.142 333.032 324.71C332.206 325.071 331.613 326.058 331.613 327.214Z" fill="#182D4C"/>
<path d="M424.98 134.53C424.98 134.53 440.117 70.3853 491.172 63.333C491.172 63.333 501.106 62.1133 504.415 73.0505C507.724 83.9878 487.971 84.0686 475.763 88.4658C463.552 92.8663 435.089 111.52 424.98 134.53Z" fill="#D2E0FF"/>
<path d="M423.819 122.524C423.819 122.524 418.512 69.3913 455.77 50.5358C455.77 50.5358 463.058 46.9844 468.476 54.4915C473.895 61.9987 458.782 67.2652 450.587 73.8525C442.393 80.4397 425.504 102.23 423.819 122.524Z" fill="#D2E0FF"/>
</svg>
