<svg width="689" height="461" viewBox="0 0 689 461" fill="none" xmlns="http://www.w3.org/2000/svg">
<path fill-rule="evenodd" clip-rule="evenodd" d="M436.898 147.066C436.898 149.312 434.907 151.131 432.449 151.131C429.991 151.131 428 149.312 428 147.066C428 144.819 429.991 143 432.449 143C434.907 143 436.898 144.819 436.898 147.066Z" fill="white" fill-opacity="0.3"/>
<path fill-rule="evenodd" clip-rule="evenodd" d="M436.898 167.395C436.898 169.641 434.907 171.461 432.449 171.461C429.991 171.461 428 169.641 428 167.395C428 165.148 429.991 163.328 432.449 163.328C434.907 163.328 436.898 165.148 436.898 167.395Z" fill="white" fill-opacity="0.3"/>
<path fill-rule="evenodd" clip-rule="evenodd" d="M460.624 167.395C460.624 169.641 458.633 171.461 456.175 171.461C453.717 171.461 451.727 169.641 451.727 167.395C451.727 165.148 453.717 163.328 456.175 163.328C458.633 163.328 460.624 165.148 460.624 167.395Z" fill="white" fill-opacity="0.3"/>
<path fill-rule="evenodd" clip-rule="evenodd" d="M482.87 167.395C482.87 169.641 480.88 171.461 478.422 171.461C475.964 171.461 473.973 169.641 473.973 167.395C473.973 165.148 475.964 163.328 478.422 163.328C480.88 163.328 482.87 165.148 482.87 167.395Z" fill="white" fill-opacity="0.3"/>
<path fill-rule="evenodd" clip-rule="evenodd" d="M505.113 167.395C505.113 169.641 503.122 171.461 500.664 171.461C498.206 171.461 496.215 169.641 496.215 167.395C496.215 165.148 498.206 163.328 500.664 163.328C503.122 163.328 505.113 165.148 505.113 167.395Z" fill="white" fill-opacity="0.3"/>
<path fill-rule="evenodd" clip-rule="evenodd" d="M528.839 167.395C528.839 169.641 526.848 171.461 524.39 171.461C521.932 171.461 519.941 169.641 519.941 167.395C519.941 165.148 521.932 163.328 524.39 163.328C526.848 163.328 528.839 165.148 528.839 167.395Z" fill="white" fill-opacity="0.3"/>
<path fill-rule="evenodd" clip-rule="evenodd" d="M551.085 167.395C551.085 169.641 549.094 171.461 546.636 171.461C544.178 171.461 542.188 169.641 542.188 167.395C542.188 165.148 544.178 163.328 546.636 163.328C549.094 163.328 551.085 165.148 551.085 167.395Z" fill="white" fill-opacity="0.3"/>
<path fill-rule="evenodd" clip-rule="evenodd" d="M574.812 167.395C574.812 169.641 572.821 171.461 570.363 171.461C567.905 171.461 565.914 169.641 565.914 167.395C565.914 165.148 567.905 163.328 570.363 163.328C572.821 163.328 574.812 165.148 574.812 167.395Z" fill="white" fill-opacity="0.3"/>
<path fill-rule="evenodd" clip-rule="evenodd" d="M597.058 167.395C597.058 169.641 595.067 171.461 592.609 171.461C590.151 171.461 588.16 169.641 588.16 167.395C588.16 165.148 590.151 163.328 592.609 163.328C595.067 163.328 597.058 165.148 597.058 167.395Z" fill="white" fill-opacity="0.3"/>
<path fill-rule="evenodd" clip-rule="evenodd" d="M620.784 167.395C620.784 169.641 618.794 171.461 616.336 171.461C613.878 171.461 611.887 169.641 611.887 167.395C611.887 165.148 613.878 163.328 616.336 163.328C618.794 163.328 620.784 165.148 620.784 167.395Z" fill="white" fill-opacity="0.3"/>
<path fill-rule="evenodd" clip-rule="evenodd" d="M643.027 167.395C643.027 169.641 641.036 171.461 638.578 171.461C636.12 171.461 634.129 169.641 634.129 167.395C634.129 165.148 636.12 163.328 638.578 163.328C641.036 163.328 643.027 165.148 643.027 167.395Z" fill="white" fill-opacity="0.3"/>
<path fill-rule="evenodd" clip-rule="evenodd" d="M665.273 167.395C665.273 169.641 663.282 171.461 660.824 171.461C658.366 171.461 656.375 169.641 656.375 167.395C656.375 165.148 658.366 163.328 660.824 163.328C663.282 163.328 665.273 165.148 665.273 167.395Z" fill="white" fill-opacity="0.3"/>
<path fill-rule="evenodd" clip-rule="evenodd" d="M688.999 167.395C688.999 169.641 687.008 171.461 684.55 171.461C682.092 171.461 680.102 169.641 680.102 167.395C680.102 165.148 682.092 163.328 684.55 163.328C687.008 163.328 688.999 165.148 688.999 167.395Z" fill="white" fill-opacity="0.3"/>
<path fill-rule="evenodd" clip-rule="evenodd" d="M436.898 189.078C436.898 191.324 434.907 193.143 432.449 193.143C429.991 193.143 428 191.324 428 189.078C428 186.831 429.991 185.012 432.449 185.012C434.907 185.012 436.898 186.831 436.898 189.078Z" fill="white" fill-opacity="0.3"/>
<path fill-rule="evenodd" clip-rule="evenodd" d="M460.624 189.078C460.624 191.324 458.633 193.143 456.175 193.143C453.717 193.143 451.727 191.324 451.727 189.078C451.727 186.831 453.717 185.012 456.175 185.012C458.633 185.012 460.624 186.831 460.624 189.078Z" fill="white" fill-opacity="0.3"/>
<path fill-rule="evenodd" clip-rule="evenodd" d="M482.87 189.078C482.87 191.324 480.88 193.143 478.422 193.143C475.964 193.143 473.973 191.324 473.973 189.078C473.973 186.831 475.964 185.012 478.422 185.012C480.88 185.012 482.87 186.831 482.87 189.078Z" fill="white" fill-opacity="0.3"/>
<path fill-rule="evenodd" clip-rule="evenodd" d="M505.113 189.078C505.113 191.324 503.122 193.143 500.664 193.143C498.206 193.143 496.215 191.324 496.215 189.078C496.215 186.831 498.206 185.012 500.664 185.012C503.122 185.012 505.113 186.831 505.113 189.078Z" fill="white" fill-opacity="0.3"/>
<path fill-rule="evenodd" clip-rule="evenodd" d="M528.839 189.078C528.839 191.324 526.848 193.143 524.39 193.143C521.932 193.143 519.941 191.324 519.941 189.078C519.941 186.831 521.932 185.012 524.39 185.012C526.848 185.012 528.839 186.831 528.839 189.078Z" fill="white" fill-opacity="0.3"/>
<path fill-rule="evenodd" clip-rule="evenodd" d="M551.085 189.078C551.085 191.324 549.094 193.143 546.636 193.143C544.178 193.143 542.188 191.324 542.188 189.078C542.188 186.831 544.178 185.012 546.636 185.012C549.094 185.012 551.085 186.831 551.085 189.078Z" fill="white" fill-opacity="0.3"/>
<path fill-rule="evenodd" clip-rule="evenodd" d="M574.812 189.078C574.812 191.324 572.821 193.143 570.363 193.143C567.905 193.143 565.914 191.324 565.914 189.078C565.914 186.831 567.905 185.012 570.363 185.012C572.821 185.012 574.812 186.831 574.812 189.078Z" fill="white" fill-opacity="0.3"/>
<path fill-rule="evenodd" clip-rule="evenodd" d="M597.058 189.078C597.058 191.324 595.067 193.143 592.609 193.143C590.151 193.143 588.16 191.324 588.16 189.078C588.16 186.831 590.151 185.012 592.609 185.012C595.067 185.012 597.058 186.831 597.058 189.078Z" fill="white" fill-opacity="0.3"/>
<path fill-rule="evenodd" clip-rule="evenodd" d="M620.784 189.078C620.784 191.324 618.794 193.143 616.336 193.143C613.878 193.143 611.887 191.324 611.887 189.078C611.887 186.831 613.878 185.012 616.336 185.012C618.794 185.012 620.784 186.831 620.784 189.078Z" fill="white" fill-opacity="0.3"/>
<path fill-rule="evenodd" clip-rule="evenodd" d="M643.027 189.078C643.027 191.324 641.036 193.143 638.578 193.143C636.12 193.143 634.129 191.324 634.129 189.078C634.129 186.831 636.12 185.012 638.578 185.012C641.036 185.012 643.027 186.831 643.027 189.078Z" fill="white" fill-opacity="0.3"/>
<path fill-rule="evenodd" clip-rule="evenodd" d="M665.273 189.078C665.273 191.324 663.282 193.143 660.824 193.143C658.366 193.143 656.375 191.324 656.375 189.078C656.375 186.831 658.366 185.012 660.824 185.012C663.282 185.012 665.273 186.831 665.273 189.078Z" fill="white" fill-opacity="0.3"/>
<path fill-rule="evenodd" clip-rule="evenodd" d="M688.999 189.078C688.999 191.324 687.008 193.143 684.55 193.143C682.092 193.143 680.102 191.324 680.102 189.078C680.102 186.831 682.092 185.012 684.55 185.012C687.008 185.012 688.999 186.831 688.999 189.078Z" fill="white" fill-opacity="0.3"/>
<path fill-rule="evenodd" clip-rule="evenodd" d="M436.898 209.406C436.898 211.652 434.907 213.472 432.449 213.472C429.991 213.472 428 211.652 428 209.406C428 207.16 429.991 205.34 432.449 205.34C434.907 205.34 436.898 207.16 436.898 209.406Z" fill="white" fill-opacity="0.3"/>
<path fill-rule="evenodd" clip-rule="evenodd" d="M460.624 209.406C460.624 211.652 458.633 213.472 456.175 213.472C453.717 213.472 451.727 211.652 451.727 209.406C451.727 207.16 453.717 205.34 456.175 205.34C458.633 205.34 460.624 207.16 460.624 209.406Z" fill="white" fill-opacity="0.3"/>
<path fill-rule="evenodd" clip-rule="evenodd" d="M482.87 209.406C482.87 211.652 480.88 213.472 478.422 213.472C475.964 213.472 473.973 211.652 473.973 209.406C473.973 207.16 475.964 205.34 478.422 205.34C480.88 205.34 482.87 207.16 482.87 209.406Z" fill="white" fill-opacity="0.3"/>
<path fill-rule="evenodd" clip-rule="evenodd" d="M505.113 209.406C505.113 211.652 503.122 213.472 500.664 213.472C498.206 213.472 496.215 211.652 496.215 209.406C496.215 207.16 498.206 205.34 500.664 205.34C503.122 205.34 505.113 207.16 505.113 209.406Z" fill="white" fill-opacity="0.3"/>
<path fill-rule="evenodd" clip-rule="evenodd" d="M528.839 209.406C528.839 211.652 526.848 213.472 524.39 213.472C521.932 213.472 519.941 211.652 519.941 209.406C519.941 207.16 521.932 205.34 524.39 205.34C526.848 205.34 528.839 207.16 528.839 209.406Z" fill="white" fill-opacity="0.3"/>
<path fill-rule="evenodd" clip-rule="evenodd" d="M551.085 209.406C551.085 211.652 549.094 213.472 546.636 213.472C544.178 213.472 542.188 211.652 542.188 209.406C542.188 207.16 544.178 205.34 546.636 205.34C549.094 205.34 551.085 207.16 551.085 209.406Z" fill="white" fill-opacity="0.3"/>
<path fill-rule="evenodd" clip-rule="evenodd" d="M574.812 209.406C574.812 211.652 572.821 213.472 570.363 213.472C567.905 213.472 565.914 211.652 565.914 209.406C565.914 207.16 567.905 205.34 570.363 205.34C572.821 205.34 574.812 207.16 574.812 209.406Z" fill="white" fill-opacity="0.3"/>
<path fill-rule="evenodd" clip-rule="evenodd" d="M597.058 209.406C597.058 211.652 595.067 213.472 592.609 213.472C590.151 213.472 588.16 211.652 588.16 209.406C588.16 207.16 590.151 205.34 592.609 205.34C595.067 205.34 597.058 207.16 597.058 209.406Z" fill="white" fill-opacity="0.3"/>
<path fill-rule="evenodd" clip-rule="evenodd" d="M620.784 209.406C620.784 211.652 618.794 213.472 616.336 213.472C613.878 213.472 611.887 211.652 611.887 209.406C611.887 207.16 613.878 205.34 616.336 205.34C618.794 205.34 620.784 207.16 620.784 209.406Z" fill="white" fill-opacity="0.3"/>
<path fill-rule="evenodd" clip-rule="evenodd" d="M643.027 209.406C643.027 211.652 641.036 213.472 638.578 213.472C636.12 213.472 634.129 211.652 634.129 209.406C634.129 207.16 636.12 205.34 638.578 205.34C641.036 205.34 643.027 207.16 643.027 209.406Z" fill="white" fill-opacity="0.3"/>
<path fill-rule="evenodd" clip-rule="evenodd" d="M665.273 209.406C665.273 211.652 663.282 213.472 660.824 213.472C658.366 213.472 656.375 211.652 656.375 209.406C656.375 207.16 658.366 205.34 660.824 205.34C663.282 205.34 665.273 207.16 665.273 209.406Z" fill="white" fill-opacity="0.3"/>
<path fill-rule="evenodd" clip-rule="evenodd" d="M688.999 209.406C688.999 211.652 687.008 213.472 684.55 213.472C682.092 213.472 680.102 211.652 680.102 209.406C680.102 207.16 682.092 205.34 684.55 205.34C687.008 205.34 688.999 207.16 688.999 209.406Z" fill="white" fill-opacity="0.3"/>
<path fill-rule="evenodd" clip-rule="evenodd" d="M436.898 231.09C436.898 233.337 434.907 235.156 432.449 235.156C429.991 235.156 428 233.337 428 231.09C428 228.843 429.991 227.024 432.449 227.024C434.907 227.024 436.898 228.843 436.898 231.09Z" fill="white" fill-opacity="0.3"/>
<path fill-rule="evenodd" clip-rule="evenodd" d="M460.624 231.09C460.624 233.337 458.633 235.156 456.175 235.156C453.717 235.156 451.727 233.337 451.727 231.09C451.727 228.843 453.717 227.024 456.175 227.024C458.633 227.024 460.624 228.843 460.624 231.09Z" fill="white" fill-opacity="0.3"/>
<path fill-rule="evenodd" clip-rule="evenodd" d="M482.87 231.09C482.87 233.337 480.88 235.156 478.422 235.156C475.964 235.156 473.973 233.337 473.973 231.09C473.973 228.843 475.964 227.024 478.422 227.024C480.88 227.024 482.87 228.843 482.87 231.09Z" fill="white" fill-opacity="0.3"/>
<path fill-rule="evenodd" clip-rule="evenodd" d="M505.113 231.09C505.113 233.337 503.122 235.156 500.664 235.156C498.206 235.156 496.215 233.337 496.215 231.09C496.215 228.843 498.206 227.024 500.664 227.024C503.122 227.024 505.113 228.843 505.113 231.09Z" fill="white" fill-opacity="0.3"/>
<path fill-rule="evenodd" clip-rule="evenodd" d="M528.839 231.09C528.839 233.337 526.848 235.156 524.39 235.156C521.932 235.156 519.941 233.337 519.941 231.09C519.941 228.843 521.932 227.024 524.39 227.024C526.848 227.024 528.839 228.843 528.839 231.09Z" fill="white" fill-opacity="0.3"/>
<path fill-rule="evenodd" clip-rule="evenodd" d="M551.085 231.09C551.085 233.337 549.094 235.156 546.636 235.156C544.178 235.156 542.188 233.337 542.188 231.09C542.188 228.843 544.178 227.024 546.636 227.024C549.094 227.024 551.085 228.843 551.085 231.09Z" fill="white" fill-opacity="0.3"/>
<path fill-rule="evenodd" clip-rule="evenodd" d="M574.812 231.09C574.812 233.337 572.821 235.156 570.363 235.156C567.905 235.156 565.914 233.337 565.914 231.09C565.914 228.843 567.905 227.024 570.363 227.024C572.821 227.024 574.812 228.843 574.812 231.09Z" fill="white" fill-opacity="0.3"/>
<path fill-rule="evenodd" clip-rule="evenodd" d="M597.058 231.09C597.058 233.337 595.067 235.156 592.609 235.156C590.151 235.156 588.16 233.337 588.16 231.09C588.16 228.843 590.151 227.024 592.609 227.024C595.067 227.024 597.058 228.843 597.058 231.09Z" fill="white" fill-opacity="0.3"/>
<path fill-rule="evenodd" clip-rule="evenodd" d="M620.784 231.09C620.784 233.337 618.794 235.156 616.336 235.156C613.878 235.156 611.887 233.337 611.887 231.09C611.887 228.843 613.878 227.024 616.336 227.024C618.794 227.024 620.784 228.843 620.784 231.09Z" fill="white" fill-opacity="0.3"/>
<path fill-rule="evenodd" clip-rule="evenodd" d="M643.027 231.09C643.027 233.337 641.036 235.156 638.578 235.156C636.12 235.156 634.129 233.337 634.129 231.09C634.129 228.843 636.12 227.024 638.578 227.024C641.036 227.024 643.027 228.843 643.027 231.09Z" fill="white" fill-opacity="0.3"/>
<path fill-rule="evenodd" clip-rule="evenodd" d="M665.273 231.09C665.273 233.337 663.282 235.156 660.824 235.156C658.366 235.156 656.375 233.337 656.375 231.09C656.375 228.843 658.366 227.024 660.824 227.024C663.282 227.024 665.273 228.843 665.273 231.09Z" fill="white" fill-opacity="0.3"/>
<path fill-rule="evenodd" clip-rule="evenodd" d="M688.999 231.09C688.999 233.337 687.008 235.156 684.55 235.156C682.092 235.156 680.102 233.337 680.102 231.09C680.102 228.843 682.092 227.024 684.55 227.024C687.008 227.024 688.999 228.843 688.999 231.09Z" fill="white" fill-opacity="0.3"/>
<path fill-rule="evenodd" clip-rule="evenodd" d="M436.898 251.418C436.898 253.665 434.907 255.484 432.449 255.484C429.991 255.484 428 253.665 428 251.418C428 249.172 429.991 247.352 432.449 247.352C434.907 247.352 436.898 249.172 436.898 251.418Z" fill="white" fill-opacity="0.3"/>
<path fill-rule="evenodd" clip-rule="evenodd" d="M460.624 251.418C460.624 253.665 458.633 255.484 456.175 255.484C453.717 255.484 451.727 253.665 451.727 251.418C451.727 249.172 453.717 247.352 456.175 247.352C458.633 247.352 460.624 249.172 460.624 251.418Z" fill="white" fill-opacity="0.3"/>
<path fill-rule="evenodd" clip-rule="evenodd" d="M482.87 251.418C482.87 253.665 480.88 255.484 478.422 255.484C475.964 255.484 473.973 253.665 473.973 251.418C473.973 249.172 475.964 247.352 478.422 247.352C480.88 247.352 482.87 249.172 482.87 251.418Z" fill="white" fill-opacity="0.3"/>
<path fill-rule="evenodd" clip-rule="evenodd" d="M505.113 251.418C505.113 253.665 503.122 255.484 500.664 255.484C498.206 255.484 496.215 253.665 496.215 251.418C496.215 249.172 498.206 247.352 500.664 247.352C503.122 247.352 505.113 249.172 505.113 251.418Z" fill="white" fill-opacity="0.3"/>
<path fill-rule="evenodd" clip-rule="evenodd" d="M528.839 251.418C528.839 253.665 526.848 255.484 524.39 255.484C521.932 255.484 519.941 253.665 519.941 251.418C519.941 249.172 521.932 247.352 524.39 247.352C526.848 247.352 528.839 249.172 528.839 251.418Z" fill="white" fill-opacity="0.3"/>
<path fill-rule="evenodd" clip-rule="evenodd" d="M551.085 251.418C551.085 253.665 549.094 255.484 546.636 255.484C544.178 255.484 542.188 253.665 542.188 251.418C542.188 249.172 544.178 247.352 546.636 247.352C549.094 247.352 551.085 249.172 551.085 251.418Z" fill="white" fill-opacity="0.3"/>
<path fill-rule="evenodd" clip-rule="evenodd" d="M574.812 251.418C574.812 253.665 572.821 255.484 570.363 255.484C567.905 255.484 565.914 253.665 565.914 251.418C565.914 249.172 567.905 247.352 570.363 247.352C572.821 247.352 574.812 249.172 574.812 251.418Z" fill="white" fill-opacity="0.3"/>
<path fill-rule="evenodd" clip-rule="evenodd" d="M597.058 251.418C597.058 253.665 595.067 255.484 592.609 255.484C590.151 255.484 588.16 253.665 588.16 251.418C588.16 249.172 590.151 247.352 592.609 247.352C595.067 247.352 597.058 249.172 597.058 251.418Z" fill="white" fill-opacity="0.3"/>
<path fill-rule="evenodd" clip-rule="evenodd" d="M620.784 251.418C620.784 253.665 618.794 255.484 616.336 255.484C613.878 255.484 611.887 253.665 611.887 251.418C611.887 249.172 613.878 247.352 616.336 247.352C618.794 247.352 620.784 249.172 620.784 251.418Z" fill="white" fill-opacity="0.3"/>
<path fill-rule="evenodd" clip-rule="evenodd" d="M643.027 251.418C643.027 253.665 641.036 255.484 638.578 255.484C636.12 255.484 634.129 253.665 634.129 251.418C634.129 249.172 636.12 247.352 638.578 247.352C641.036 247.352 643.027 249.172 643.027 251.418Z" fill="white" fill-opacity="0.3"/>
<path fill-rule="evenodd" clip-rule="evenodd" d="M665.273 251.418C665.273 253.665 663.282 255.484 660.824 255.484C658.366 255.484 656.375 253.665 656.375 251.418C656.375 249.172 658.366 247.352 660.824 247.352C663.282 247.352 665.273 249.172 665.273 251.418Z" fill="white" fill-opacity="0.3"/>
<path fill-rule="evenodd" clip-rule="evenodd" d="M688.999 251.418C688.999 253.665 687.008 255.484 684.55 255.484C682.092 255.484 680.102 253.665 680.102 251.418C680.102 249.172 682.092 247.352 684.55 247.352C687.008 247.352 688.999 249.172 688.999 251.418Z" fill="white" fill-opacity="0.3"/>
<path fill-rule="evenodd" clip-rule="evenodd" d="M436.898 273.102C436.898 275.348 434.907 277.168 432.449 277.168C429.991 277.168 428 275.348 428 273.102C428 270.855 429.991 269.036 432.449 269.036C434.907 269.036 436.898 270.855 436.898 273.102Z" fill="white" fill-opacity="0.3"/>
<path fill-rule="evenodd" clip-rule="evenodd" d="M460.624 273.102C460.624 275.348 458.633 277.168 456.175 277.168C453.717 277.168 451.727 275.348 451.727 273.102C451.727 270.855 453.717 269.036 456.175 269.036C458.633 269.036 460.624 270.855 460.624 273.102Z" fill="white" fill-opacity="0.3"/>
<path fill-rule="evenodd" clip-rule="evenodd" d="M482.87 273.102C482.87 275.348 480.88 277.168 478.422 277.168C475.964 277.168 473.973 275.348 473.973 273.102C473.973 270.855 475.964 269.036 478.422 269.036C480.88 269.036 482.87 270.855 482.87 273.102Z" fill="white" fill-opacity="0.3"/>
<path fill-rule="evenodd" clip-rule="evenodd" d="M505.113 273.102C505.113 275.348 503.122 277.168 500.664 277.168C498.206 277.168 496.215 275.348 496.215 273.102C496.215 270.855 498.206 269.036 500.664 269.036C503.122 269.036 505.113 270.855 505.113 273.102Z" fill="white" fill-opacity="0.3"/>
<path fill-rule="evenodd" clip-rule="evenodd" d="M528.839 273.102C528.839 275.348 526.848 277.168 524.39 277.168C521.932 277.168 519.941 275.348 519.941 273.102C519.941 270.855 521.932 269.036 524.39 269.036C526.848 269.036 528.839 270.855 528.839 273.102Z" fill="white" fill-opacity="0.3"/>
<path fill-rule="evenodd" clip-rule="evenodd" d="M551.085 273.102C551.085 275.348 549.094 277.168 546.636 277.168C544.178 277.168 542.188 275.348 542.188 273.102C542.188 270.855 544.178 269.036 546.636 269.036C549.094 269.036 551.085 270.855 551.085 273.102Z" fill="white" fill-opacity="0.3"/>
<path fill-rule="evenodd" clip-rule="evenodd" d="M574.812 273.102C574.812 275.348 572.821 277.168 570.363 277.168C567.905 277.168 565.914 275.348 565.914 273.102C565.914 270.855 567.905 269.036 570.363 269.036C572.821 269.036 574.812 270.855 574.812 273.102Z" fill="white" fill-opacity="0.3"/>
<path fill-rule="evenodd" clip-rule="evenodd" d="M597.058 273.102C597.058 275.348 595.067 277.168 592.609 277.168C590.151 277.168 588.16 275.348 588.16 273.102C588.16 270.855 590.151 269.036 592.609 269.036C595.067 269.036 597.058 270.855 597.058 273.102Z" fill="white" fill-opacity="0.3"/>
<path fill-rule="evenodd" clip-rule="evenodd" d="M620.784 273.102C620.784 275.348 618.794 277.168 616.336 277.168C613.878 277.168 611.887 275.348 611.887 273.102C611.887 270.855 613.878 269.036 616.336 269.036C618.794 269.036 620.784 270.855 620.784 273.102Z" fill="white" fill-opacity="0.3"/>
<path fill-rule="evenodd" clip-rule="evenodd" d="M643.027 273.102C643.027 275.348 641.036 277.168 638.578 277.168C636.12 277.168 634.129 275.348 634.129 273.102C634.129 270.855 636.12 269.036 638.578 269.036C641.036 269.036 643.027 270.855 643.027 273.102Z" fill="white" fill-opacity="0.3"/>
<path fill-rule="evenodd" clip-rule="evenodd" d="M665.273 273.102C665.273 275.348 663.282 277.168 660.824 277.168C658.366 277.168 656.375 275.348 656.375 273.102C656.375 270.855 658.366 269.036 660.824 269.036C663.282 269.036 665.273 270.855 665.273 273.102Z" fill="white" fill-opacity="0.3"/>
<path fill-rule="evenodd" clip-rule="evenodd" d="M688.999 273.102C688.999 275.348 687.008 277.168 684.55 277.168C682.092 277.168 680.102 275.348 680.102 273.102C680.102 270.855 682.092 269.036 684.55 269.036C687.008 269.036 688.999 270.855 688.999 273.102Z" fill="white" fill-opacity="0.3"/>
<path fill-rule="evenodd" clip-rule="evenodd" d="M436.898 293.43C436.898 295.677 434.907 297.496 432.449 297.496C429.991 297.496 428 295.677 428 293.43C428 291.184 429.991 289.364 432.449 289.364C434.907 289.364 436.898 291.184 436.898 293.43Z" fill="white" fill-opacity="0.3"/>
<path fill-rule="evenodd" clip-rule="evenodd" d="M460.624 293.43C460.624 295.677 458.633 297.496 456.175 297.496C453.717 297.496 451.727 295.677 451.727 293.43C451.727 291.184 453.717 289.364 456.175 289.364C458.633 289.364 460.624 291.184 460.624 293.43Z" fill="white" fill-opacity="0.3"/>
<path fill-rule="evenodd" clip-rule="evenodd" d="M482.87 293.43C482.87 295.677 480.88 297.496 478.422 297.496C475.964 297.496 473.973 295.677 473.973 293.43C473.973 291.184 475.964 289.364 478.422 289.364C480.88 289.364 482.87 291.184 482.87 293.43Z" fill="white" fill-opacity="0.3"/>
<path fill-rule="evenodd" clip-rule="evenodd" d="M505.113 293.43C505.113 295.677 503.122 297.496 500.664 297.496C498.206 297.496 496.215 295.677 496.215 293.43C496.215 291.184 498.206 289.364 500.664 289.364C503.122 289.364 505.113 291.184 505.113 293.43Z" fill="white" fill-opacity="0.3"/>
<path fill-rule="evenodd" clip-rule="evenodd" d="M528.839 293.43C528.839 295.677 526.848 297.496 524.39 297.496C521.932 297.496 519.941 295.677 519.941 293.43C519.941 291.184 521.932 289.364 524.39 289.364C526.848 289.364 528.839 291.184 528.839 293.43Z" fill="white" fill-opacity="0.3"/>
<path fill-rule="evenodd" clip-rule="evenodd" d="M551.085 293.43C551.085 295.677 549.094 297.496 546.636 297.496C544.178 297.496 542.188 295.677 542.188 293.43C542.188 291.184 544.178 289.364 546.636 289.364C549.094 289.364 551.085 291.184 551.085 293.43Z" fill="white" fill-opacity="0.3"/>
<path fill-rule="evenodd" clip-rule="evenodd" d="M574.812 293.43C574.812 295.677 572.821 297.496 570.363 297.496C567.905 297.496 565.914 295.677 565.914 293.43C565.914 291.184 567.905 289.364 570.363 289.364C572.821 289.364 574.812 291.184 574.812 293.43Z" fill="white" fill-opacity="0.3"/>
<path fill-rule="evenodd" clip-rule="evenodd" d="M597.058 293.43C597.058 295.677 595.067 297.496 592.609 297.496C590.151 297.496 588.16 295.677 588.16 293.43C588.16 291.184 590.151 289.364 592.609 289.364C595.067 289.364 597.058 291.184 597.058 293.43Z" fill="white" fill-opacity="0.3"/>
<path fill-rule="evenodd" clip-rule="evenodd" d="M620.784 293.43C620.784 295.677 618.794 297.496 616.336 297.496C613.878 297.496 611.887 295.677 611.887 293.43C611.887 291.184 613.878 289.364 616.336 289.364C618.794 289.364 620.784 291.184 620.784 293.43Z" fill="white" fill-opacity="0.3"/>
<path fill-rule="evenodd" clip-rule="evenodd" d="M643.027 293.43C643.027 295.677 641.036 297.496 638.578 297.496C636.12 297.496 634.129 295.677 634.129 293.43C634.129 291.184 636.12 289.364 638.578 289.364C641.036 289.364 643.027 291.184 643.027 293.43Z" fill="white" fill-opacity="0.3"/>
<path fill-rule="evenodd" clip-rule="evenodd" d="M665.273 293.43C665.273 295.677 663.282 297.496 660.824 297.496C658.366 297.496 656.375 295.677 656.375 293.43C656.375 291.184 658.366 289.364 660.824 289.364C663.282 289.364 665.273 291.184 665.273 293.43Z" fill="white" fill-opacity="0.3"/>
<path fill-rule="evenodd" clip-rule="evenodd" d="M688.999 293.43C688.999 295.677 687.008 297.496 684.55 297.496C682.092 297.496 680.102 295.677 680.102 293.43C680.102 291.184 682.092 289.364 684.55 289.364C687.008 289.364 688.999 291.184 688.999 293.43Z" fill="white" fill-opacity="0.3"/>
<path fill-rule="evenodd" clip-rule="evenodd" d="M436.898 313.758C436.898 316.004 434.907 317.824 432.449 317.824C429.991 317.824 428 316.004 428 313.758C428 311.512 429.991 309.692 432.449 309.692C434.907 309.692 436.898 311.512 436.898 313.758Z" fill="white" fill-opacity="0.3"/>
<path fill-rule="evenodd" clip-rule="evenodd" d="M460.624 313.758C460.624 316.004 458.633 317.824 456.175 317.824C453.717 317.824 451.727 316.004 451.727 313.758C451.727 311.512 453.717 309.692 456.175 309.692C458.633 309.692 460.624 311.512 460.624 313.758Z" fill="white" fill-opacity="0.3"/>
<path fill-rule="evenodd" clip-rule="evenodd" d="M482.87 313.758C482.87 316.004 480.88 317.824 478.422 317.824C475.964 317.824 473.973 316.004 473.973 313.758C473.973 311.512 475.964 309.692 478.422 309.692C480.88 309.692 482.87 311.512 482.87 313.758Z" fill="white" fill-opacity="0.3"/>
<path fill-rule="evenodd" clip-rule="evenodd" d="M505.113 313.758C505.113 316.004 503.122 317.824 500.664 317.824C498.206 317.824 496.215 316.004 496.215 313.758C496.215 311.512 498.206 309.692 500.664 309.692C503.122 309.692 505.113 311.512 505.113 313.758Z" fill="white" fill-opacity="0.3"/>
<path fill-rule="evenodd" clip-rule="evenodd" d="M528.839 313.758C528.839 316.004 526.848 317.824 524.39 317.824C521.932 317.824 519.941 316.004 519.941 313.758C519.941 311.512 521.932 309.692 524.39 309.692C526.848 309.692 528.839 311.512 528.839 313.758Z" fill="white" fill-opacity="0.3"/>
<path fill-rule="evenodd" clip-rule="evenodd" d="M551.085 313.758C551.085 316.004 549.094 317.824 546.636 317.824C544.178 317.824 542.188 316.004 542.188 313.758C542.188 311.512 544.178 309.692 546.636 309.692C549.094 309.692 551.085 311.512 551.085 313.758Z" fill="white" fill-opacity="0.3"/>
<path fill-rule="evenodd" clip-rule="evenodd" d="M574.812 313.758C574.812 316.004 572.821 317.824 570.363 317.824C567.905 317.824 565.914 316.004 565.914 313.758C565.914 311.512 567.905 309.692 570.363 309.692C572.821 309.692 574.812 311.512 574.812 313.758Z" fill="white" fill-opacity="0.3"/>
<path fill-rule="evenodd" clip-rule="evenodd" d="M597.058 313.758C597.058 316.004 595.067 317.824 592.609 317.824C590.151 317.824 588.16 316.004 588.16 313.758C588.16 311.512 590.151 309.692 592.609 309.692C595.067 309.692 597.058 311.512 597.058 313.758Z" fill="white" fill-opacity="0.3"/>
<path fill-rule="evenodd" clip-rule="evenodd" d="M620.784 313.758C620.784 316.004 618.794 317.824 616.336 317.824C613.878 317.824 611.887 316.004 611.887 313.758C611.887 311.512 613.878 309.692 616.336 309.692C618.794 309.692 620.784 311.512 620.784 313.758Z" fill="white" fill-opacity="0.3"/>
<path fill-rule="evenodd" clip-rule="evenodd" d="M643.027 313.758C643.027 316.004 641.036 317.824 638.578 317.824C636.12 317.824 634.129 316.004 634.129 313.758C634.129 311.512 636.12 309.692 638.578 309.692C641.036 309.692 643.027 311.512 643.027 313.758Z" fill="white" fill-opacity="0.3"/>
<path fill-rule="evenodd" clip-rule="evenodd" d="M665.273 313.758C665.273 316.004 663.282 317.824 660.824 317.824C658.366 317.824 656.375 316.004 656.375 313.758C656.375 311.512 658.366 309.692 660.824 309.692C663.282 309.692 665.273 311.512 665.273 313.758Z" fill="white" fill-opacity="0.3"/>
<path fill-rule="evenodd" clip-rule="evenodd" d="M688.999 313.758C688.999 316.004 687.008 317.824 684.55 317.824C682.092 317.824 680.102 316.004 680.102 313.758C680.102 311.512 682.092 309.692 684.55 309.692C687.008 309.692 688.999 311.512 688.999 313.758Z" fill="white" fill-opacity="0.3"/>
<path fill-rule="evenodd" clip-rule="evenodd" d="M436.898 335.442C436.898 337.689 434.907 339.508 432.449 339.508C429.991 339.508 428 337.689 428 335.442C428 333.196 429.991 331.376 432.449 331.376C434.907 331.376 436.898 333.196 436.898 335.442Z" fill="white" fill-opacity="0.3"/>
<path fill-rule="evenodd" clip-rule="evenodd" d="M460.624 335.442C460.624 337.689 458.633 339.508 456.175 339.508C453.717 339.508 451.727 337.689 451.727 335.442C451.727 333.196 453.717 331.376 456.175 331.376C458.633 331.376 460.624 333.196 460.624 335.442Z" fill="white" fill-opacity="0.3"/>
<path fill-rule="evenodd" clip-rule="evenodd" d="M482.87 335.442C482.87 337.689 480.88 339.508 478.422 339.508C475.964 339.508 473.973 337.689 473.973 335.442C473.973 333.196 475.964 331.376 478.422 331.376C480.88 331.376 482.87 333.196 482.87 335.442Z" fill="white" fill-opacity="0.3"/>
<path fill-rule="evenodd" clip-rule="evenodd" d="M505.113 335.442C505.113 337.689 503.122 339.508 500.664 339.508C498.206 339.508 496.215 337.689 496.215 335.442C496.215 333.196 498.206 331.376 500.664 331.376C503.122 331.376 505.113 333.196 505.113 335.442Z" fill="white" fill-opacity="0.3"/>
<path fill-rule="evenodd" clip-rule="evenodd" d="M528.839 335.442C528.839 337.689 526.848 339.508 524.39 339.508C521.932 339.508 519.941 337.689 519.941 335.442C519.941 333.196 521.932 331.376 524.39 331.376C526.848 331.376 528.839 333.196 528.839 335.442Z" fill="white" fill-opacity="0.3"/>
<path fill-rule="evenodd" clip-rule="evenodd" d="M551.085 335.442C551.085 337.689 549.094 339.508 546.636 339.508C544.178 339.508 542.188 337.689 542.188 335.442C542.188 333.196 544.178 331.376 546.636 331.376C549.094 331.376 551.085 333.196 551.085 335.442Z" fill="white" fill-opacity="0.3"/>
<path fill-rule="evenodd" clip-rule="evenodd" d="M574.812 335.442C574.812 337.689 572.821 339.508 570.363 339.508C567.905 339.508 565.914 337.689 565.914 335.442C565.914 333.196 567.905 331.376 570.363 331.376C572.821 331.376 574.812 333.196 574.812 335.442Z" fill="white" fill-opacity="0.3"/>
<path fill-rule="evenodd" clip-rule="evenodd" d="M597.058 335.442C597.058 337.689 595.067 339.508 592.609 339.508C590.151 339.508 588.16 337.689 588.16 335.442C588.16 333.196 590.151 331.376 592.609 331.376C595.067 331.376 597.058 333.196 597.058 335.442Z" fill="white" fill-opacity="0.3"/>
<path fill-rule="evenodd" clip-rule="evenodd" d="M620.784 335.442C620.784 337.689 618.794 339.508 616.336 339.508C613.878 339.508 611.887 337.689 611.887 335.442C611.887 333.196 613.878 331.376 616.336 331.376C618.794 331.376 620.784 333.196 620.784 335.442Z" fill="white" fill-opacity="0.3"/>
<path fill-rule="evenodd" clip-rule="evenodd" d="M643.027 335.442C643.027 337.689 641.036 339.508 638.578 339.508C636.12 339.508 634.129 337.689 634.129 335.442C634.129 333.196 636.12 331.376 638.578 331.376C641.036 331.376 643.027 333.196 643.027 335.442Z" fill="white" fill-opacity="0.3"/>
<path fill-rule="evenodd" clip-rule="evenodd" d="M665.273 335.442C665.273 337.689 663.282 339.508 660.824 339.508C658.366 339.508 656.375 337.689 656.375 335.442C656.375 333.196 658.366 331.376 660.824 331.376C663.282 331.376 665.273 333.196 665.273 335.442Z" fill="white" fill-opacity="0.3"/>
<path fill-rule="evenodd" clip-rule="evenodd" d="M688.999 335.442C688.999 337.689 687.008 339.508 684.55 339.508C682.092 339.508 680.102 337.689 680.102 335.442C680.102 333.196 682.092 331.376 684.55 331.376C687.008 331.376 688.999 333.196 688.999 335.442Z" fill="white" fill-opacity="0.3"/>
<path fill-rule="evenodd" clip-rule="evenodd" d="M436.898 355.77C436.898 358.017 434.907 359.837 432.449 359.837C429.991 359.837 428 358.017 428 355.77C428 353.524 429.991 351.704 432.449 351.704C434.907 351.704 436.898 353.524 436.898 355.77Z" fill="white" fill-opacity="0.3"/>
<path fill-rule="evenodd" clip-rule="evenodd" d="M460.624 355.77C460.624 358.017 458.633 359.837 456.175 359.837C453.717 359.837 451.727 358.017 451.727 355.77C451.727 353.524 453.717 351.704 456.175 351.704C458.633 351.704 460.624 353.524 460.624 355.77Z" fill="white" fill-opacity="0.3"/>
<path fill-rule="evenodd" clip-rule="evenodd" d="M482.87 355.77C482.87 358.017 480.88 359.837 478.422 359.837C475.964 359.837 473.973 358.017 473.973 355.77C473.973 353.524 475.964 351.704 478.422 351.704C480.88 351.704 482.87 353.524 482.87 355.77Z" fill="white" fill-opacity="0.3"/>
<path fill-rule="evenodd" clip-rule="evenodd" d="M505.113 355.77C505.113 358.017 503.122 359.837 500.664 359.837C498.206 359.837 496.215 358.017 496.215 355.77C496.215 353.524 498.206 351.704 500.664 351.704C503.122 351.704 505.113 353.524 505.113 355.77Z" fill="white" fill-opacity="0.3"/>
<path fill-rule="evenodd" clip-rule="evenodd" d="M528.839 355.77C528.839 358.017 526.848 359.837 524.39 359.837C521.932 359.837 519.941 358.017 519.941 355.77C519.941 353.524 521.932 351.704 524.39 351.704C526.848 351.704 528.839 353.524 528.839 355.77Z" fill="white" fill-opacity="0.3"/>
<path fill-rule="evenodd" clip-rule="evenodd" d="M551.085 355.77C551.085 358.017 549.094 359.837 546.636 359.837C544.178 359.837 542.188 358.017 542.188 355.77C542.188 353.524 544.178 351.704 546.636 351.704C549.094 351.704 551.085 353.524 551.085 355.77Z" fill="white" fill-opacity="0.3"/>
<path fill-rule="evenodd" clip-rule="evenodd" d="M574.812 355.77C574.812 358.017 572.821 359.837 570.363 359.837C567.905 359.837 565.914 358.017 565.914 355.77C565.914 353.524 567.905 351.704 570.363 351.704C572.821 351.704 574.812 353.524 574.812 355.77Z" fill="white" fill-opacity="0.3"/>
<path fill-rule="evenodd" clip-rule="evenodd" d="M597.058 355.77C597.058 358.017 595.067 359.837 592.609 359.837C590.151 359.837 588.16 358.017 588.16 355.77C588.16 353.524 590.151 351.704 592.609 351.704C595.067 351.704 597.058 353.524 597.058 355.77Z" fill="white" fill-opacity="0.3"/>
<path fill-rule="evenodd" clip-rule="evenodd" d="M620.784 355.77C620.784 358.017 618.794 359.837 616.336 359.837C613.878 359.837 611.887 358.017 611.887 355.77C611.887 353.524 613.878 351.704 616.336 351.704C618.794 351.704 620.784 353.524 620.784 355.77Z" fill="white" fill-opacity="0.3"/>
<path fill-rule="evenodd" clip-rule="evenodd" d="M643.027 355.77C643.027 358.017 641.036 359.837 638.578 359.837C636.12 359.837 634.129 358.017 634.129 355.77C634.129 353.524 636.12 351.704 638.578 351.704C641.036 351.704 643.027 353.524 643.027 355.77Z" fill="white" fill-opacity="0.3"/>
<path fill-rule="evenodd" clip-rule="evenodd" d="M665.273 355.77C665.273 358.017 663.282 359.837 660.824 359.837C658.366 359.837 656.375 358.017 656.375 355.77C656.375 353.524 658.366 351.704 660.824 351.704C663.282 351.704 665.273 353.524 665.273 355.77Z" fill="white" fill-opacity="0.3"/>
<path fill-rule="evenodd" clip-rule="evenodd" d="M688.999 355.77C688.999 358.017 687.008 359.837 684.55 359.837C682.092 359.837 680.102 358.017 680.102 355.77C680.102 353.524 682.092 351.704 684.55 351.704C687.008 351.704 688.999 353.524 688.999 355.77Z" fill="white" fill-opacity="0.3"/>
<path fill-rule="evenodd" clip-rule="evenodd" d="M436.898 377.453C436.898 379.7 434.907 381.519 432.449 381.519C429.991 381.519 428 379.7 428 377.453C428 375.207 429.991 373.388 432.449 373.388C434.907 373.388 436.898 375.207 436.898 377.453Z" fill="white" fill-opacity="0.3"/>
<path fill-rule="evenodd" clip-rule="evenodd" d="M460.624 377.453C460.624 379.7 458.633 381.519 456.175 381.519C453.717 381.519 451.727 379.7 451.727 377.453C451.727 375.207 453.717 373.388 456.175 373.388C458.633 373.388 460.624 375.207 460.624 377.453Z" fill="white" fill-opacity="0.3"/>
<path fill-rule="evenodd" clip-rule="evenodd" d="M482.87 377.453C482.87 379.7 480.88 381.519 478.422 381.519C475.964 381.519 473.973 379.7 473.973 377.453C473.973 375.207 475.964 373.388 478.422 373.388C480.88 373.388 482.87 375.207 482.87 377.453Z" fill="white" fill-opacity="0.3"/>
<path fill-rule="evenodd" clip-rule="evenodd" d="M505.113 377.453C505.113 379.7 503.122 381.519 500.664 381.519C498.206 381.519 496.215 379.7 496.215 377.453C496.215 375.207 498.206 373.388 500.664 373.388C503.122 373.388 505.113 375.207 505.113 377.453Z" fill="white" fill-opacity="0.3"/>
<path fill-rule="evenodd" clip-rule="evenodd" d="M528.839 377.453C528.839 379.7 526.848 381.519 524.39 381.519C521.932 381.519 519.941 379.7 519.941 377.453C519.941 375.207 521.932 373.388 524.39 373.388C526.848 373.388 528.839 375.207 528.839 377.453Z" fill="white" fill-opacity="0.3"/>
<path fill-rule="evenodd" clip-rule="evenodd" d="M551.085 377.453C551.085 379.7 549.094 381.519 546.636 381.519C544.178 381.519 542.188 379.7 542.188 377.453C542.188 375.207 544.178 373.388 546.636 373.388C549.094 373.388 551.085 375.207 551.085 377.453Z" fill="white" fill-opacity="0.3"/>
<path fill-rule="evenodd" clip-rule="evenodd" d="M574.812 377.453C574.812 379.7 572.821 381.519 570.363 381.519C567.905 381.519 565.914 379.7 565.914 377.453C565.914 375.207 567.905 373.388 570.363 373.388C572.821 373.388 574.812 375.207 574.812 377.453Z" fill="white" fill-opacity="0.3"/>
<path fill-rule="evenodd" clip-rule="evenodd" d="M597.058 377.453C597.058 379.7 595.067 381.519 592.609 381.519C590.151 381.519 588.16 379.7 588.16 377.453C588.16 375.207 590.151 373.388 592.609 373.388C595.067 373.388 597.058 375.207 597.058 377.453Z" fill="white" fill-opacity="0.3"/>
<path fill-rule="evenodd" clip-rule="evenodd" d="M620.784 377.453C620.784 379.7 618.794 381.519 616.336 381.519C613.878 381.519 611.887 379.7 611.887 377.453C611.887 375.207 613.878 373.388 616.336 373.388C618.794 373.388 620.784 375.207 620.784 377.453Z" fill="white" fill-opacity="0.3"/>
<path fill-rule="evenodd" clip-rule="evenodd" d="M643.027 377.453C643.027 379.7 641.036 381.519 638.578 381.519C636.12 381.519 634.129 379.7 634.129 377.453C634.129 375.207 636.12 373.388 638.578 373.388C641.036 373.388 643.027 375.207 643.027 377.453Z" fill="white" fill-opacity="0.3"/>
<path fill-rule="evenodd" clip-rule="evenodd" d="M665.273 377.453C665.273 379.7 663.282 381.519 660.824 381.519C658.366 381.519 656.375 379.7 656.375 377.453C656.375 375.207 658.366 373.388 660.824 373.388C663.282 373.388 665.273 375.207 665.273 377.453Z" fill="white" fill-opacity="0.3"/>
<path fill-rule="evenodd" clip-rule="evenodd" d="M688.999 377.453C688.999 379.7 687.008 381.519 684.55 381.519C682.092 381.519 680.102 379.7 680.102 377.453C680.102 375.207 682.092 373.388 684.55 373.388C687.008 373.388 688.999 375.207 688.999 377.453Z" fill="white" fill-opacity="0.3"/>
<path fill-rule="evenodd" clip-rule="evenodd" d="M436.898 397.782C436.898 400.028 434.907 401.848 432.449 401.848C429.991 401.848 428 400.028 428 397.782C428 395.536 429.991 393.716 432.449 393.716C434.907 393.716 436.898 395.536 436.898 397.782Z" fill="white" fill-opacity="0.3"/>
<path fill-rule="evenodd" clip-rule="evenodd" d="M460.624 397.782C460.624 400.028 458.633 401.848 456.175 401.848C453.717 401.848 451.727 400.028 451.727 397.782C451.727 395.536 453.717 393.716 456.175 393.716C458.633 393.716 460.624 395.536 460.624 397.782Z" fill="white" fill-opacity="0.3"/>
<path fill-rule="evenodd" clip-rule="evenodd" d="M482.87 397.782C482.87 400.028 480.88 401.848 478.422 401.848C475.964 401.848 473.973 400.028 473.973 397.782C473.973 395.536 475.964 393.716 478.422 393.716C480.88 393.716 482.87 395.536 482.87 397.782Z" fill="white" fill-opacity="0.3"/>
<path fill-rule="evenodd" clip-rule="evenodd" d="M505.113 397.782C505.113 400.028 503.122 401.848 500.664 401.848C498.206 401.848 496.215 400.028 496.215 397.782C496.215 395.536 498.206 393.716 500.664 393.716C503.122 393.716 505.113 395.536 505.113 397.782Z" fill="white" fill-opacity="0.3"/>
<path fill-rule="evenodd" clip-rule="evenodd" d="M528.839 397.782C528.839 400.028 526.848 401.848 524.39 401.848C521.932 401.848 519.941 400.028 519.941 397.782C519.941 395.536 521.932 393.716 524.39 393.716C526.848 393.716 528.839 395.536 528.839 397.782Z" fill="white" fill-opacity="0.3"/>
<path fill-rule="evenodd" clip-rule="evenodd" d="M551.085 397.782C551.085 400.028 549.094 401.848 546.636 401.848C544.178 401.848 542.188 400.028 542.188 397.782C542.188 395.536 544.178 393.716 546.636 393.716C549.094 393.716 551.085 395.536 551.085 397.782Z" fill="white" fill-opacity="0.3"/>
<path fill-rule="evenodd" clip-rule="evenodd" d="M574.812 397.782C574.812 400.028 572.821 401.848 570.363 401.848C567.905 401.848 565.914 400.028 565.914 397.782C565.914 395.536 567.905 393.716 570.363 393.716C572.821 393.716 574.812 395.536 574.812 397.782Z" fill="white" fill-opacity="0.3"/>
<path fill-rule="evenodd" clip-rule="evenodd" d="M597.058 397.782C597.058 400.028 595.067 401.848 592.609 401.848C590.151 401.848 588.16 400.028 588.16 397.782C588.16 395.536 590.151 393.716 592.609 393.716C595.067 393.716 597.058 395.536 597.058 397.782Z" fill="white" fill-opacity="0.3"/>
<path fill-rule="evenodd" clip-rule="evenodd" d="M620.784 397.782C620.784 400.028 618.794 401.848 616.336 401.848C613.878 401.848 611.887 400.028 611.887 397.782C611.887 395.536 613.878 393.716 616.336 393.716C618.794 393.716 620.784 395.536 620.784 397.782Z" fill="white" fill-opacity="0.3"/>
<path fill-rule="evenodd" clip-rule="evenodd" d="M643.027 397.782C643.027 400.028 641.036 401.848 638.578 401.848C636.12 401.848 634.129 400.028 634.129 397.782C634.129 395.536 636.12 393.716 638.578 393.716C641.036 393.716 643.027 395.536 643.027 397.782Z" fill="white" fill-opacity="0.3"/>
<path fill-rule="evenodd" clip-rule="evenodd" d="M665.273 397.782C665.273 400.028 663.282 401.848 660.824 401.848C658.366 401.848 656.375 400.028 656.375 397.782C656.375 395.536 658.366 393.716 660.824 393.716C663.282 393.716 665.273 395.536 665.273 397.782Z" fill="white" fill-opacity="0.3"/>
<path fill-rule="evenodd" clip-rule="evenodd" d="M688.999 397.782C688.999 400.028 687.008 401.848 684.55 401.848C682.092 401.848 680.102 400.028 680.102 397.782C680.102 395.536 682.092 393.716 684.55 393.716C687.008 393.716 688.999 395.536 688.999 397.782Z" fill="white" fill-opacity="0.3"/>
<path fill-rule="evenodd" clip-rule="evenodd" d="M460.624 147.066C460.624 149.312 458.633 151.131 456.175 151.131C453.717 151.131 451.727 149.312 451.727 147.066C451.727 144.819 453.717 143 456.175 143C458.633 143 460.624 144.819 460.624 147.066Z" fill="white" fill-opacity="0.3"/>
<path fill-rule="evenodd" clip-rule="evenodd" d="M482.87 147.066C482.87 149.312 480.88 151.131 478.422 151.131C475.964 151.131 473.973 149.312 473.973 147.066C473.973 144.819 475.964 143 478.422 143C480.88 143 482.87 144.819 482.87 147.066Z" fill="white" fill-opacity="0.3"/>
<path fill-rule="evenodd" clip-rule="evenodd" d="M505.113 147.066C505.113 149.312 503.122 151.131 500.664 151.131C498.206 151.131 496.215 149.312 496.215 147.066C496.215 144.819 498.206 143 500.664 143C503.122 143 505.113 144.819 505.113 147.066Z" fill="white" fill-opacity="0.3"/>
<path fill-rule="evenodd" clip-rule="evenodd" d="M528.839 147.066C528.839 149.312 526.848 151.131 524.39 151.131C521.932 151.131 519.941 149.312 519.941 147.066C519.941 144.819 521.932 143 524.39 143C526.848 143 528.839 144.819 528.839 147.066Z" fill="white" fill-opacity="0.3"/>
<path fill-rule="evenodd" clip-rule="evenodd" d="M551.085 147.066C551.085 149.312 549.094 151.131 546.636 151.131C544.178 151.131 542.188 149.312 542.188 147.066C542.188 144.819 544.178 143 546.636 143C549.094 143 551.085 144.819 551.085 147.066Z" fill="white" fill-opacity="0.3"/>
<path fill-rule="evenodd" clip-rule="evenodd" d="M574.812 147.066C574.812 149.312 572.821 151.131 570.363 151.131C567.905 151.131 565.914 149.312 565.914 147.066C565.914 144.819 567.905 143 570.363 143C572.821 143 574.812 144.819 574.812 147.066Z" fill="white" fill-opacity="0.3"/>
<path fill-rule="evenodd" clip-rule="evenodd" d="M597.058 147.066C597.058 149.312 595.067 151.131 592.609 151.131C590.151 151.131 588.16 149.312 588.16 147.066C588.16 144.819 590.151 143 592.609 143C595.067 143 597.058 144.819 597.058 147.066Z" fill="white" fill-opacity="0.3"/>
<path fill-rule="evenodd" clip-rule="evenodd" d="M620.784 147.066C620.784 149.312 618.794 151.131 616.336 151.131C613.878 151.131 611.887 149.312 611.887 147.066C611.887 144.819 613.878 143 616.336 143C618.794 143 620.784 144.819 620.784 147.066Z" fill="white" fill-opacity="0.3"/>
<path fill-rule="evenodd" clip-rule="evenodd" d="M643.027 147.066C643.027 149.312 641.036 151.131 638.578 151.131C636.12 151.131 634.129 149.312 634.129 147.066C634.129 144.819 636.12 143 638.578 143C641.036 143 643.027 144.819 643.027 147.066Z" fill="white" fill-opacity="0.3"/>
<path fill-rule="evenodd" clip-rule="evenodd" d="M665.273 147.066C665.273 149.312 663.282 151.131 660.824 151.131C658.366 151.131 656.375 149.312 656.375 147.066C656.375 144.819 658.366 143 660.824 143C663.282 143 665.273 144.819 665.273 147.066Z" fill="white" fill-opacity="0.3"/>
<path fill-rule="evenodd" clip-rule="evenodd" d="M688.999 147.066C688.999 149.312 687.008 151.131 684.55 151.131C682.092 151.131 680.102 149.312 680.102 147.066C680.102 144.819 682.092 143 684.55 143C687.008 143 688.999 144.819 688.999 147.066Z" fill="white" fill-opacity="0.3"/>
<g clip-path="url(#clip0_811:1009)">
<path d="M404.988 288.61C404.988 288.61 417.813 234.264 461.073 228.289C461.073 228.289 469.49 227.256 472.294 236.522C475.098 245.789 458.361 245.857 448.017 249.583C437.67 253.311 413.554 269.115 404.988 288.61Z" fill="#D2E0FF"/>
<path d="M404.006 278.439C404.006 278.439 399.509 233.422 431.078 217.447C431.078 217.447 437.254 214.438 441.844 220.798C446.435 227.159 433.63 231.621 426.687 237.202C419.743 242.783 405.434 261.245 404.006 278.439Z" fill="#D2E0FF"/>
<path d="M452.555 386.41C452.555 386.41 456.135 364.634 472.957 368.097C472.957 368.097 483.855 371.797 488.651 378.251C488.651 378.251 466.733 381.823 467.647 385.859C468.56 389.896 491.783 380.121 491.783 380.121C491.783 380.121 507.866 395.868 509.853 403.613C509.853 403.613 485.531 399.043 487.412 402.728C489.294 406.417 514.384 412.349 514.384 412.349C514.384 412.349 525.088 430.591 514.638 437.925C504.189 445.258 496.557 442.289 494.784 439.655C493.011 437.02 486.519 418.347 484.28 419.703C482.042 421.059 482.724 435.01 487.435 441.225C487.435 441.225 465.565 440.408 462.859 429.92C460.152 419.431 465.291 414.019 463.501 407.57C461.711 401.118 458.359 397.144 457.805 400.895C457.251 404.647 462.236 414.855 459.764 421.487C457.288 428.118 456.121 433.183 450.779 424.467C445.437 415.752 440.523 398.417 446.542 392.414C452.555 386.41 452.555 386.41 452.555 386.41Z" fill="#BBD0FF"/>
<path d="M507.783 430.305C507.783 430.305 473.002 385.56 452.554 386.41C452.554 386.41 444.435 389.625 433.183 387.966L429.562 389.276C429.562 389.276 443.798 390.127 446.539 392.414C446.539 392.411 458.362 375.297 507.783 430.305Z" fill="#BBD0FF"/>
<path d="M433.184 387.966C433.184 387.966 418.48 384.449 405.641 394.138L406.908 395.954C406.908 395.954 422.12 388.235 431.608 389.428C441.098 390.618 433.184 387.966 433.184 387.966Z" fill="#BBD0FF"/>
<path d="M400.842 186.283L401.319 184.827C401.827 183.271 403.503 182.42 405.059 182.928L417.276 186.919C418.829 187.427 419.683 189.103 419.175 190.659L418.492 192.743C418.392 193.048 418.064 193.214 417.761 193.114C417.456 193.014 417.29 192.686 417.39 192.383L418.07 190.299C418.378 189.354 417.861 188.332 416.914 188.024L404.697 184.033C403.752 183.725 402.73 184.242 402.421 185.189L401.944 186.645C401.636 187.59 402.153 188.612 403.101 188.92L411.212 191.57C411.517 191.67 411.683 191.998 411.583 192.301C411.483 192.606 411.155 192.772 410.852 192.672L402.741 190.022C401.185 189.514 400.334 187.836 400.842 186.283Z" fill="#F99746"/>
<path d="M388.152 182.834L389.005 180.225C389.796 177.801 392.554 176.519 395.149 177.367L413.516 183.368C413.822 183.468 413.987 183.796 413.887 184.099C413.787 184.404 413.459 184.57 413.156 184.47L394.79 178.472C392.803 177.824 390.701 178.772 390.107 180.587L389.254 183.197C388.66 185.012 389.796 187.016 391.783 187.667L412.705 194.502C414.692 195.152 416.794 194.202 417.388 192.389C417.488 192.084 417.816 191.918 418.119 192.018C418.424 192.118 418.59 192.446 418.49 192.749C417.699 195.172 414.941 196.454 412.346 195.606L391.424 188.772C388.828 187.918 387.361 185.255 388.152 182.834Z" fill="#F99746"/>
<path d="M45.5273 405.72C45.5273 405.72 49.8071 456.712 105.056 460.049H265.279L270.807 394.118L45.5273 405.72Z" fill="#C0CCFF"/>
<g opacity="0.5">
<path opacity="0.5" d="M276.468 376.407L274.963 404.829L273.504 404.783L267.731 460.052H114.785C129.866 459.152 162.382 451.913 148.058 404.829C147.31 402.371 145.277 396.907 142.825 392.979C142.762 392.873 142.694 392.773 142.631 392.671C142.594 392.614 142.556 392.554 142.519 392.499C135.162 381.18 126.799 377.241 118.243 376.407H276.468Z" fill="#B6C4FF"/>
</g>
<path d="M276.503 376.407L273.539 404.781L267.767 460.049H114.82C129.901 459.15 162.417 451.91 148.096 404.826C147.348 402.368 145.315 396.904 142.863 392.976C142.8 392.871 142.732 392.771 142.669 392.668C142.632 392.611 142.592 392.551 142.557 392.497L276.503 376.407Z" fill="#8D9EFF"/>
<path d="M96.6836 316.306H182.299L168.483 330.12L122.105 345.339L96.6836 316.306Z" fill="#C0CCFF"/>
<path d="M279.205 324.713L276.473 376.407L274.968 404.829L273.509 404.783L147.07 400.75C145.702 397.844 144.289 395.266 142.833 392.979C142.77 392.873 142.701 392.774 142.639 392.671C142.601 392.614 142.564 392.554 142.527 392.499C135.17 381.18 126.807 377.241 118.251 376.407H118.233C98.0166 374.457 76.7007 389.833 64.9035 366.176C45.509 327.294 90.2537 303.22 116.663 323.446C128.306 332.364 137.377 335.304 144.409 334.859C153.759 334.262 159.509 327.676 162.932 321.17C166.43 314.533 167.501 307.987 167.501 307.987L279.205 324.713Z" fill="#8D9EFF"/>
<path d="M260.365 308.652L173.553 324.539C173.553 324.539 219.537 310.893 156.043 271.272C106.448 240.324 106.142 175.783 173.839 179.414C251.271 183.568 280.205 303.985 280.205 303.985L260.365 308.652Z" fill="#8D9EFF"/>
<path d="M662.684 444.936V455.084C662.684 458.399 660.001 461.082 656.686 461.082H243.717L233.219 301.156H461.827C483.64 301.156 501.324 318.838 501.324 340.648V342.059C501.324 351.625 506.909 360.315 515.614 364.286L597.323 401.549L604.301 404.732L607.873 406.359L610.271 407.453L650.331 425.723C657.857 429.157 662.684 436.665 662.684 444.936Z" fill="#8C9DF4"/>
<path d="M212.818 301.156H177.832C166.018 301.156 160.051 315.392 168.334 323.814L187.951 343.76C196.31 352.259 210.768 346.341 210.768 334.422V314.476C210.774 307.119 220.173 301.156 212.818 301.156Z" fill="#060633"/>
<path d="M179.008 347.768H195.114V303.396H169.492L179.008 347.768Z" fill="#060633"/>
<path d="M177.321 301.157H157.703C145.889 301.157 139.922 315.394 148.205 323.816L167.822 343.762C176.181 352.26 190.64 346.343 190.64 334.424V314.478C190.64 307.121 184.675 301.157 177.321 301.157Z" fill="#6980E2"/>
<path d="M481.504 444.936V455.082C481.504 458.393 478.821 461.082 475.509 461.082H204.816V301.153H280.647C302.463 301.153 320.147 318.838 320.147 340.648V342.053C320.147 351.625 325.732 360.309 334.437 364.28L469.153 425.72C476.679 429.157 481.504 436.668 481.504 444.936Z" fill="#5067C9"/>
<path d="M372.967 373.17L489.42 425.112C491.892 426.214 494.568 426.785 497.274 426.785H625.21C628.451 426.785 629.407 422.372 626.458 421.03L514.536 370.081C512.951 369.359 511.23 368.99 509.488 368.996L373.738 369.501C371.677 369.507 371.08 372.328 372.967 373.17Z" fill="#6980E2"/>
<path d="M558.658 401.209L555.05 401.635C553.122 401.863 550.336 401.486 548.854 400.798L546.079 399.511C544.597 398.823 544.963 398.075 546.887 397.846L550.496 397.421C552.423 397.193 555.209 397.569 556.691 398.257L559.466 399.545C560.948 400.233 560.586 400.981 558.658 401.209Z" fill="#233862"/>
<path d="M545.18 392.554V398.846L560.377 400.45L560.374 394.426L545.18 392.554Z" fill="#233862"/>
<path d="M541.647 401.212L538.038 401.638C536.111 401.866 533.324 401.489 531.842 400.801L529.067 399.514C527.585 398.826 527.951 398.078 529.875 397.849L533.484 397.424C535.411 397.195 538.198 397.572 539.68 398.26L542.455 399.548C543.939 400.236 543.574 400.984 541.647 401.212Z" fill="#233862"/>
<path d="M528.168 392.557L528.171 398.846L543.365 400.453L543.363 394.429L528.168 392.557Z" fill="#233862"/>
<path d="M524.634 401.212L521.025 401.638C519.098 401.866 516.311 401.489 514.83 400.801L512.052 399.514C510.57 398.826 510.935 398.078 512.86 397.849L516.468 397.424C518.396 397.195 521.182 397.572 522.664 398.26L525.439 399.548C526.926 400.236 526.561 400.987 524.634 401.212Z" fill="#233862"/>
<path d="M511.156 392.557V398.848L526.351 400.453V394.429L511.156 392.557Z" fill="#233862"/>
<path d="M507.623 401.215L504.014 401.64C502.087 401.869 499.301 401.492 497.819 400.804L495.044 399.516C493.562 398.828 493.927 398.08 495.852 397.852L499.461 397.427C501.388 397.198 504.174 397.575 505.656 398.263L508.431 399.551C509.913 400.239 509.548 400.987 507.623 401.215Z" fill="#233862"/>
<path d="M494.145 392.559V398.848L509.339 400.456V394.432L494.145 392.559Z" fill="#233862"/>
<path d="M490.608 401.215L486.999 401.64C485.072 401.869 482.285 401.492 480.803 400.804L478.028 399.516C476.546 398.828 476.912 398.08 478.836 397.852L482.445 397.427C484.372 397.198 487.159 397.575 488.641 398.263L491.416 399.551C492.898 400.239 492.532 400.99 490.608 401.215Z" fill="#233862"/>
<path d="M477.129 392.562V398.851L492.324 400.456V394.432L477.129 392.562Z" fill="#233862"/>
<path d="M473.597 401.218L469.988 401.643C468.061 401.872 465.274 401.495 463.792 400.807L461.017 399.519C459.536 398.831 459.898 398.083 461.825 397.855L465.434 397.43C467.361 397.201 470.148 397.578 471.63 398.266L474.405 399.554C475.887 400.242 475.524 400.99 473.597 401.218Z" fill="#233862"/>
<path d="M460.117 392.562V398.854L475.312 400.459V394.435L460.117 392.562Z" fill="#233862"/>
<path d="M522.584 388.765L518.975 389.191C517.048 389.419 514.262 389.042 512.78 388.354L510.005 387.067C508.523 386.379 508.888 385.631 510.813 385.405L514.424 384.98C516.352 384.752 519.138 385.128 520.62 385.816L523.395 387.104C524.874 387.789 524.511 388.537 522.584 388.765Z" fill="#233862"/>
<path d="M509.105 380.11V386.402L524.3 388.006V381.982L509.105 380.11Z" fill="#233862"/>
<path d="M539.42 388.762L535.811 389.188C533.884 389.416 531.098 389.039 529.616 388.351L526.841 387.064C525.359 386.376 525.724 385.628 527.649 385.4L531.257 384.974C533.185 384.746 535.971 385.123 537.453 385.811L540.228 387.098C541.71 387.789 541.347 388.537 539.42 388.762Z" fill="#233862"/>
<path d="M525.941 380.11V386.399L541.136 388.003V381.98L525.941 380.11Z" fill="#233862"/>
<path d="M505.572 388.765L501.96 389.191C500.033 389.419 497.246 389.042 495.764 388.354L492.989 387.067C491.507 386.379 491.873 385.631 493.797 385.403L497.406 384.977C499.333 384.749 502.12 385.126 503.602 385.814L506.377 387.101C507.861 387.792 507.499 388.54 505.572 388.765Z" fill="#233862"/>
<path d="M492.09 380.113L492.093 386.402L507.287 388.006L507.285 381.983L492.09 380.113Z" fill="#233862"/>
<path d="M488.557 388.768L484.948 389.194C483.021 389.422 480.234 389.045 478.753 388.357L475.977 387.07C474.496 386.382 474.861 385.634 476.785 385.408L480.394 384.983C482.321 384.754 485.108 385.131 486.59 385.819L489.365 387.107C490.847 387.792 490.484 388.54 488.557 388.768Z" fill="#233862"/>
<path d="M475.078 380.113L475.081 386.405L490.276 388.009V381.985L475.078 380.113Z" fill="#233862"/>
<path d="M471.545 388.771L467.936 389.197C466.009 389.425 463.223 389.048 461.741 388.36L458.966 387.073C457.484 386.385 457.849 385.637 459.774 385.408L463.383 384.983C465.31 384.755 468.096 385.131 469.578 385.819L472.353 387.107C473.838 387.795 473.472 388.543 471.545 388.771Z" fill="#233862"/>
<path d="M458.066 380.115V386.405L473.261 388.009V381.988L458.066 380.115Z" fill="#233862"/>
<path d="M454.536 388.771L450.928 389.197C449 389.425 446.214 389.048 444.732 388.36L441.954 387.073C440.472 386.385 440.838 385.637 442.762 385.408L446.371 384.983C448.298 384.755 451.085 385.131 452.566 385.819L455.341 387.107C456.826 387.795 456.461 388.543 454.536 388.771Z" fill="#233862"/>
<path d="M441.055 380.115V386.407L456.249 388.012V381.988L441.055 380.115Z" fill="#233862"/>
<path d="M437.522 388.774L433.913 389.199C431.986 389.428 429.199 389.051 427.717 388.363L424.942 387.075C423.46 386.387 423.826 385.639 425.75 385.411L429.359 384.986C431.286 384.757 434.073 385.134 435.555 385.822L438.33 387.11C439.811 387.798 439.446 388.546 437.522 388.774Z" fill="#233862"/>
<path d="M424.043 380.118V386.408L439.238 388.012V381.988L424.043 380.118Z" fill="#233862"/>
<path d="M580.209 414.581L576.335 415.038C574.268 415.283 571.273 414.878 569.685 414.141L566.705 412.76C565.114 412.023 565.505 411.218 567.572 410.976L571.447 410.519C573.514 410.273 576.506 410.679 578.096 411.415L581.077 412.797C582.67 413.536 582.279 414.338 580.209 414.581Z" fill="#233862"/>
<path d="M565.738 405.292V412.043L582.049 413.767V407.301L565.738 405.292Z" fill="#233862"/>
<path d="M598.279 414.581L594.405 415.038C592.338 415.283 589.343 414.878 587.756 414.141L584.775 412.76C583.185 412.023 583.576 411.218 585.643 410.976L589.517 410.519C591.584 410.273 594.579 410.679 596.167 411.415L599.147 412.797C600.737 413.533 600.349 414.336 598.279 414.581Z" fill="#233862"/>
<path d="M583.812 405.292V412.043L600.124 413.765V407.299L583.812 405.292Z" fill="#233862"/>
<path d="M561.947 414.584L558.073 415.041C556.006 415.286 553.014 414.881 551.423 414.144L548.443 412.763C546.853 412.026 547.244 411.221 549.311 410.978L553.185 410.522C555.252 410.276 558.244 410.681 559.835 411.418L562.815 412.8C564.405 413.536 564.014 414.341 561.947 414.584Z" fill="#233862"/>
<path d="M547.48 405.295V412.046L563.792 413.768L563.789 407.304L547.48 405.295Z" fill="#233862"/>
<path d="M543.689 414.587L539.815 415.044C537.748 415.289 534.753 414.884 533.166 414.147L530.185 412.766C528.595 412.029 528.986 411.224 531.053 410.981L534.927 410.525C536.994 410.279 539.986 410.684 541.577 411.421L544.557 412.803C546.148 413.539 545.757 414.341 543.689 414.587Z" fill="#233862"/>
<path d="M529.219 405.295V412.046L545.53 413.77V407.304L529.219 405.295Z" fill="#233862"/>
<path d="M525.424 414.587L521.549 415.043C519.482 415.289 516.487 414.884 514.9 414.147L511.919 412.765C510.329 412.029 510.72 411.224 512.787 410.981L516.662 410.524C518.729 410.279 521.721 410.684 523.311 411.421L526.292 412.803C527.882 413.539 527.494 414.344 525.424 414.587Z" fill="#233862"/>
<path d="M510.957 405.297V412.049L527.268 413.773V407.307L510.957 405.297Z" fill="#233862"/>
<path d="M507.162 414.59L503.288 415.046C501.221 415.292 498.229 414.887 496.638 414.15L493.658 412.768C492.067 412.032 492.459 411.227 494.526 410.984L498.4 410.527C500.467 410.282 503.462 410.687 505.049 411.424L508.03 412.805C509.62 413.542 509.229 414.344 507.162 414.59Z" fill="#233862"/>
<path d="M492.691 405.297L492.694 412.052L509.002 413.773V407.307L492.691 405.297Z" fill="#233862"/>
<path d="M488.901 414.59L485.026 415.046C482.959 415.292 479.964 414.887 478.377 414.15L475.396 412.768C473.806 412.032 474.197 411.227 476.264 410.984L480.138 410.527C482.205 410.285 485.197 410.687 486.788 411.424L489.768 412.805C491.359 413.542 490.968 414.347 488.901 414.59Z" fill="#233862"/>
<path d="M474.43 405.3V412.052L490.741 413.776V407.31L474.43 405.3Z" fill="#233862"/>
<path d="M460.207 376.867L456.519 377.292C454.552 377.521 451.702 377.144 450.192 376.456L447.357 375.168C445.844 374.48 446.215 373.732 448.182 373.504L451.871 373.079C453.838 372.85 456.684 373.227 458.197 373.915L461.033 375.202C462.546 375.89 462.175 376.638 460.207 376.867Z" fill="#233862"/>
<path d="M446.438 368.211V374.5L461.958 376.107V370.084L446.438 368.211Z" fill="#233862"/>
<path d="M442.837 376.867L439.151 377.292C437.184 377.521 434.335 377.144 432.825 376.456L429.99 375.168C428.476 374.48 428.848 373.732 430.815 373.507L434.5 373.081C436.468 372.853 439.317 373.23 440.83 373.918L443.665 375.205C445.176 375.89 444.804 376.638 442.837 376.867Z" fill="#233862"/>
<path d="M429.07 368.214V374.503L444.59 376.107V370.084L429.07 368.214Z" fill="#233862"/>
<path d="M425.459 376.87L421.773 377.295C419.805 377.523 416.959 377.147 415.446 376.459L412.611 375.171C411.097 374.483 411.469 373.735 413.436 373.507L417.125 373.081C419.092 372.853 421.938 373.23 423.451 373.918L426.286 375.205C427.797 375.893 427.426 376.641 425.459 376.87Z" fill="#233862"/>
<path d="M411.688 368.214V374.503L427.208 376.11V370.087L411.688 368.214Z" fill="#233862"/>
<path d="M408.082 376.87L404.394 377.295C402.427 377.523 399.58 377.147 398.067 376.459L395.232 375.171C393.719 374.483 394.09 373.735 396.057 373.507L399.746 373.081C401.713 372.853 404.559 373.23 406.073 373.918L408.908 375.205C410.421 375.893 410.05 376.644 408.082 376.87Z" fill="#233862"/>
<path d="M394.312 368.217V374.506L409.833 376.11V370.087L394.312 368.217Z" fill="#233862"/>
<path d="M494.962 376.864L491.276 377.289C489.309 377.518 486.46 377.141 484.95 376.453L482.115 375.165C480.601 374.477 480.973 373.73 482.94 373.501L486.628 373.076C488.596 372.847 491.442 373.224 492.955 373.912L495.79 375.2C497.301 375.888 496.929 376.636 494.962 376.864Z" fill="#233862"/>
<path d="M481.191 368.208L481.194 374.497L496.712 376.102V370.081L481.191 368.208Z" fill="#233862"/>
<path d="M494.962 370.84L491.276 371.266C489.309 371.494 486.46 371.117 484.95 370.429L482.115 369.142C480.601 368.454 480.973 367.706 482.94 367.477L486.626 367.052C488.593 366.824 491.442 367.201 492.952 367.889L495.787 369.176C497.301 369.864 496.929 370.612 494.962 370.84Z" fill="#F9DDBF"/>
<path d="M513.914 376.864L510.226 377.289C508.258 377.518 505.409 377.141 503.899 376.453L501.064 375.165C499.551 374.477 499.922 373.73 501.889 373.501L505.578 373.076C507.545 372.847 510.391 373.224 511.904 373.912L514.739 375.2C516.253 375.888 515.882 376.636 513.914 376.864Z" fill="#233862"/>
<path d="M500.145 368.208V374.497L515.665 376.102V370.081L500.145 368.208Z" fill="#233862"/>
<path d="M513.911 370.84L510.225 371.266C508.258 371.494 505.411 371.117 503.895 370.429L501.06 369.142C499.547 368.454 499.918 367.706 501.885 367.477L505.574 367.052C507.541 366.824 510.387 367.201 511.901 367.889L514.736 369.176C516.252 369.864 515.881 370.612 513.911 370.84Z" fill="#F9DDBF"/>
<path d="M477.587 376.864L473.901 377.289C471.934 377.518 469.088 377.141 467.575 376.453L464.74 375.165C463.226 374.477 463.598 373.729 465.565 373.504L469.25 373.079C471.218 372.85 474.067 373.227 475.577 373.915L478.412 375.203C479.926 375.888 479.554 376.636 477.587 376.864Z" fill="#233862"/>
<path d="M463.82 368.208L463.823 374.5L479.341 376.105V370.081L463.82 368.208Z" fill="#233862"/>
<path d="M558.657 395.186L555.046 395.611C553.119 395.84 550.332 395.463 548.85 394.775L546.075 393.487C544.593 392.799 544.959 392.051 546.883 391.826L550.492 391.4C552.419 391.172 555.206 391.549 556.687 392.237L559.465 393.524C560.947 394.21 560.585 394.96 558.657 395.186Z" fill="#F9DDBF"/>
<path d="M541.647 395.189L538.038 395.614C536.111 395.842 533.324 395.466 531.842 394.778L529.067 393.49C527.585 392.802 527.951 392.054 529.875 391.829L533.484 391.403C535.411 391.175 538.198 391.552 539.68 392.24L542.455 393.527C543.936 394.212 543.574 394.96 541.647 395.189Z" fill="#F9DDBF"/>
<path d="M524.631 395.189L521.022 395.614C519.095 395.842 516.309 395.466 514.827 394.778L512.052 393.49C510.57 392.802 510.935 392.054 512.86 391.829L516.468 391.403C518.396 391.175 521.182 391.552 522.664 392.24L525.439 393.527C526.924 394.215 526.558 394.963 524.631 395.189Z" fill="#F9DDBF"/>
<path d="M507.619 395.191L504.011 395.617C502.083 395.845 499.297 395.468 497.815 394.78L495.04 393.493C493.558 392.805 493.924 392.057 495.848 391.829L499.457 391.403C501.384 391.175 504.17 391.552 505.652 392.24L508.427 393.527C509.912 394.215 509.547 394.963 507.619 395.191Z" fill="#F9DDBF"/>
<path d="M490.609 395.191L487 395.617C485.073 395.845 482.286 395.468 480.804 394.78L478.029 393.493C476.547 392.805 476.91 392.057 478.837 391.831L482.449 391.406C484.376 391.178 487.162 391.555 488.644 392.243L491.419 393.53C492.898 394.218 492.533 394.966 490.609 395.191Z" fill="#F9DDBF"/>
<path d="M473.596 395.194L469.984 395.62C468.057 395.848 465.27 395.471 463.789 394.783L461.013 393.496C459.532 392.808 459.894 392.06 461.821 391.834L465.43 391.409C467.357 391.181 470.144 391.557 471.626 392.245L474.401 393.533C475.886 394.218 475.52 394.966 473.596 395.194Z" fill="#F9DDBF"/>
<path d="M522.584 382.742L518.975 383.167C517.048 383.396 514.262 383.019 512.78 382.331L510.005 381.043C508.523 380.355 508.888 379.607 510.813 379.379L514.422 378.954C516.349 378.725 519.135 379.102 520.617 379.79L523.392 381.078C524.874 381.766 524.511 382.514 522.584 382.742Z" fill="#F9DDBF"/>
<path d="M539.42 382.739L535.811 383.164C533.884 383.393 531.098 383.016 529.616 382.328L526.841 381.04C525.359 380.352 525.724 379.604 527.649 379.376L531.257 378.951C533.185 378.722 535.971 379.099 537.453 379.787L540.228 381.075C541.71 381.766 541.344 382.514 539.42 382.739Z" fill="#F9DDBF"/>
<path d="M505.573 382.745L501.964 383.17C500.037 383.398 497.25 383.022 495.768 382.334L492.993 381.046C491.511 380.358 491.877 379.61 493.801 379.385L497.41 378.959C499.337 378.731 502.124 379.108 503.605 379.796L506.381 381.083C507.862 381.768 507.5 382.516 505.573 382.745Z" fill="#F9DDBF"/>
<path d="M488.558 382.745L484.949 383.17C483.022 383.398 480.235 383.022 478.753 382.334L475.978 381.046C474.497 380.358 474.859 379.61 476.786 379.385L480.395 378.959C482.322 378.731 485.109 379.108 486.591 379.796L489.366 381.083C490.848 381.768 490.485 382.516 488.558 382.745Z" fill="#F9DDBF"/>
<path d="M471.544 382.748L467.935 383.173C466.008 383.401 463.222 383.025 461.74 382.337L458.962 381.049C457.48 380.361 457.845 379.613 459.77 379.388L463.379 378.962C465.306 378.734 468.092 379.111 469.574 379.799L472.349 381.086C473.834 381.771 473.471 382.519 471.544 382.748Z" fill="#F9DDBF"/>
<path d="M454.533 382.748L450.925 383.173C448.997 383.401 446.211 383.025 444.729 382.337L441.954 381.049C440.472 380.361 440.838 379.613 442.762 379.388L446.371 378.962C448.298 378.734 451.085 379.111 452.566 379.799L455.341 381.086C456.826 381.771 456.461 382.522 454.533 382.748Z" fill="#F9DDBF"/>
<path d="M437.522 382.751L433.913 383.176C431.986 383.404 429.199 383.027 427.717 382.339L424.942 381.052C423.46 380.364 423.826 379.616 425.75 379.388L429.359 378.962C431.286 378.734 434.073 379.111 435.555 379.799L438.33 381.086C439.811 381.774 439.446 382.522 437.522 382.751Z" fill="#F9DDBF"/>
<path d="M580.209 408.118L576.335 408.575C574.268 408.82 571.273 408.415 569.685 407.678L566.705 406.297C565.114 405.56 565.505 404.755 567.572 404.512L571.447 404.056C573.514 403.813 576.506 404.215 578.096 404.952L581.077 406.334C582.667 407.07 582.279 407.872 580.209 408.118Z" fill="#F9DDBF"/>
<path d="M598.279 408.115L594.405 408.572C592.338 408.817 589.343 408.412 587.756 407.675L584.775 406.294C583.185 405.557 583.576 404.752 585.643 404.509L589.517 404.053C591.584 403.807 594.579 404.213 596.167 404.949L599.147 406.331C600.738 407.067 600.346 407.872 598.279 408.115Z" fill="#F9DDBF"/>
<path d="M561.947 408.118L558.073 408.575C556.006 408.82 553.014 408.415 551.423 407.678L548.443 406.297C546.853 405.56 547.244 404.755 549.311 404.512L553.185 404.056C555.252 403.81 558.244 404.216 559.835 404.952L562.815 406.334C564.405 407.07 564.014 407.875 561.947 408.118Z" fill="#F9DDBF"/>
<path d="M543.689 408.121L539.815 408.578C537.748 408.823 534.753 408.418 533.166 407.681L530.185 406.299C528.595 405.563 528.986 404.758 531.053 404.515L534.927 404.058C536.994 403.813 539.986 404.218 541.577 404.955L544.557 406.337C546.148 407.073 545.757 407.875 543.689 408.121Z" fill="#F9DDBF"/>
<path d="M525.424 408.121L521.55 408.578C519.482 408.82 516.49 408.418 514.9 407.681L511.919 406.299C510.329 405.563 510.72 404.758 512.787 404.515L516.662 404.058C518.729 403.813 521.721 404.218 523.311 404.955L526.292 406.337C527.882 407.073 527.491 407.878 525.424 408.121Z" fill="#F9DDBF"/>
<path d="M507.162 408.124L503.288 408.58C501.221 408.826 498.229 408.42 496.638 407.684L493.658 406.302C492.067 405.566 492.459 404.761 494.526 404.518L498.4 404.061C500.467 403.816 503.459 404.221 505.049 404.958L508.03 406.339C509.62 407.076 509.229 407.878 507.162 408.124Z" fill="#F9DDBF"/>
<path d="M488.897 408.124L485.022 408.58C482.955 408.826 479.96 408.42 478.373 407.684L475.392 406.302C473.802 405.566 474.193 404.761 476.26 404.518L480.134 404.061C482.201 403.816 485.194 404.221 486.784 404.958L489.765 406.339C491.355 407.079 490.966 407.881 488.897 408.124Z" fill="#F9DDBF"/>
<path d="M460.207 370.843L456.519 371.269C454.552 371.497 451.705 371.12 450.192 370.432L447.357 369.145C445.844 368.457 446.215 367.709 448.182 367.483L451.871 367.058C453.838 366.829 456.687 367.206 458.2 367.894L461.035 369.182C462.546 369.867 462.175 370.615 460.207 370.843Z" fill="#F9DDBF"/>
<path d="M442.837 370.843L439.151 371.269C437.184 371.497 434.338 371.12 432.825 370.432L429.99 369.145C428.476 368.457 428.848 367.709 430.815 367.483L434.5 367.058C436.468 366.829 439.317 367.206 440.83 367.894L443.665 369.182C445.176 369.867 444.804 370.618 442.837 370.843Z" fill="#F9DDBF"/>
<path d="M425.457 370.846L421.769 371.271C419.801 371.5 416.955 371.123 415.442 370.435L412.607 369.148C411.094 368.46 411.465 367.712 413.432 367.483L417.121 367.058C419.088 366.829 421.934 367.206 423.447 367.894L426.282 369.182C427.796 369.87 427.425 370.618 425.457 370.846Z" fill="#F9DDBF"/>
<path d="M408.082 370.848L404.394 371.274C402.427 371.502 399.577 371.125 398.067 370.437L395.232 369.15C393.719 368.462 394.09 367.714 396.057 367.488L399.746 367.063C401.713 366.835 404.559 367.211 406.073 367.899L408.908 369.187C410.421 369.872 410.05 370.623 408.082 370.848Z" fill="#F9DDBF"/>
<path d="M477.585 370.84L473.897 371.266C471.929 371.494 469.08 371.117 467.567 370.429L464.732 369.142C463.219 368.454 463.59 367.706 465.557 367.48L469.246 367.055C471.213 366.827 474.059 367.203 475.572 367.891L478.408 369.179C479.924 369.864 479.552 370.615 477.585 370.84Z" fill="#F9DDBF"/>
<path d="M367.843 359.176C366.219 357.854 368.317 349.926 368.317 349.926C368.317 349.926 377.465 344.44 377.916 349.65C378.367 354.859 384.765 358.037 388.5 359.17C391.078 359.955 391.698 361.522 391.832 362.422L367.843 359.176Z" fill="#182B49"/>
<path d="M345.336 361.157C343.711 359.835 345.809 351.908 345.809 351.908C345.809 351.908 354.957 346.421 355.408 351.631C355.859 356.841 362.258 360.018 365.992 361.151C368.57 361.936 369.187 363.507 369.324 364.403L345.336 361.157Z" fill="#233862"/>
<path d="M341.02 273.602C341.02 273.602 378.667 282.882 381.448 294.981C384.229 307.079 378.736 351.234 378.736 351.234C378.736 351.234 374.073 352.681 367.747 350.363C367.747 350.363 365.52 336.078 365.111 322.569C364.846 313.771 368.098 304.313 366.205 304.128C361.405 303.659 315.619 299.765 312.732 284.778C309.843 269.793 341.02 273.602 341.02 273.602Z" fill="#233862"/>
<path d="M315.825 274.227C315.825 274.227 357.637 282.811 360.421 294.909C363.202 307.005 357.957 351.936 357.957 351.936C357.957 351.936 359.008 354.337 344.635 351.993C344.635 351.993 340.975 334.045 340.57 320.54C340.304 311.741 343.765 304.593 341.869 304.442C311.171 301.995 298.109 309.771 299.305 278.889C299.896 263.638 315.825 274.227 315.825 274.227Z" fill="#2B478B"/>
<path d="M298.475 276.642C298.401 277.65 309.319 279.662 314.19 279.474C338.623 278.526 342.332 273.859 342.341 273.847C342.783 273.288 339.877 256.493 339.714 250.207C339.566 244.477 339.466 237.671 339.454 229.595C339.443 219.881 324.405 209.432 324.128 209.432L324.125 209.438C324.125 210.837 321.921 213.417 318.527 213.64C314.498 213.903 309.553 211.899 309.553 209.578C309.553 209.555 300.888 238.271 296.859 229.678L298.475 276.642Z" fill="#FF943B"/>
<path d="M324.133 209.435C324.133 209.435 338.114 209.315 341.48 214.034C344.846 218.753 352.224 244.138 348.372 252.585C344.521 261.032 337.318 249.091 333.32 243.918C329.32 238.742 324.133 209.435 324.133 209.435Z" fill="#FF943B"/>
<path d="M324.276 207.3L324.267 208.744C324.267 208.744 324.661 213.263 319.094 213.925C313.526 214.588 309.312 212.164 309.461 208.676C309.963 205.975 310.511 204.119 310.549 201.887C310.563 201.056 310.506 200.174 310.352 199.181L321.138 198.967L324.316 199.486L324.276 207.3Z" fill="#FFD1B1"/>
<path d="M324.313 199.483L324.273 207.3C323.128 207.833 321.835 208.156 320.384 208.156C315.428 208.156 312.224 204.522 310.549 201.884C310.563 201.053 310.506 200.171 310.352 199.178L321.138 198.964L324.313 199.483Z" fill="#E2915A"/>
<path d="M309.527 197.442C310.777 204.176 319.468 203.957 323.222 203.531C324.279 203.414 324.944 203.28 324.944 203.28C326.135 202.96 326.8 201.085 327.108 198.627C327.722 193.762 326.948 186.62 326.126 184.793C324.89 182.043 322.56 179.072 313.806 181.216C305.058 183.362 307.922 188.815 309.527 197.442Z" fill="#FFD1B1"/>
<path d="M338.43 228.351C338.43 228.351 343.837 240.292 343.68 243.872C343.68 243.872 342.167 243.775 339.595 244.54L338.43 228.351Z" fill="#EF873A"/>
<path d="M328.812 178.384C328.812 178.384 324.961 178.087 320.415 176.111C316.727 174.507 312.076 176.274 310.565 177.071C310.605 176.828 310.702 176.494 310.934 176.163C310.934 176.163 310.254 176.642 310.157 177.316C310.086 177.367 310.057 177.405 310.074 177.416C310.074 177.416 309.306 177.276 308.812 177.499C308.812 177.499 309.158 177.45 309.281 177.673C309.295 177.696 309.312 177.716 309.335 177.733C303.582 180.513 303.051 189.603 304.901 191.707C307.128 194.236 309.8 199.937 309.8 199.937C309.8 199.937 310.774 198.59 310.368 196.363C309.963 194.136 311.887 194.136 314.317 193.123C316.747 192.109 314.722 189.278 316.847 187.556C318.974 185.835 326.768 186.848 326.665 185.532C329.56 184.473 328.812 178.681 328.812 178.384Z" fill="#233862"/>
<path d="M307.762 250.721C310.046 259.887 336.258 267.738 341.871 268.703C341.634 264.729 341.206 255.237 341.04 248.871L307.762 250.721Z" fill="#EF873A"/>
<path d="M313.182 253.701C312.948 253.701 307.695 252.916 306.753 252.448C305.813 251.977 301.508 245.862 304.326 244.295C307.144 242.727 314.71 248.999 314.71 248.999L313.182 253.701Z" fill="#FFD1B1"/>
<path d="M345.131 255.517C345.131 255.517 324.814 256.619 311.179 253.701C311.179 253.701 310.833 249.761 315.119 248.014C315.119 248.014 336.369 243.509 341.474 244.766C346.581 246.016 345.131 255.517 345.131 255.517Z" fill="#FF943B"/>
<path d="M298.474 239.573C302.691 244.657 308.201 248.805 314.28 249.779C314.331 249.701 316.119 246.987 315.784 242.993C315.63 241.146 315.019 239.025 313.572 236.764C313.126 236.07 312.73 235.256 312.378 234.354C309.061 225.89 309.555 209.575 309.555 209.575C309.555 209.575 295.465 211.051 291.074 217.323C288.382 221.165 291.81 231.537 298.474 239.573Z" fill="#FF943B"/>
<path d="M323.221 203.534C324.277 203.417 324.942 203.283 324.942 203.283C326.133 202.963 326.798 201.088 327.106 198.63C324.871 199.181 323.849 200.905 323.42 201.642C323.229 201.97 323.189 202.712 323.221 203.534Z" fill="#E2915A"/>
<path d="M328.897 207.342C328.897 207.342 333.765 199.312 329.979 198.964C326.196 198.615 324.675 201.176 324.129 202.115C323.581 203.057 324.272 207.3 324.272 207.3L328.897 207.342Z" fill="#FFD1B1"/>
<path d="M310.35 242.724C310.498 243.741 310.804 244.677 311.178 245.511C312.365 248.148 314.275 249.778 314.275 249.778C326.915 244.075 329.473 224.485 329.898 213.726C330.07 209.401 329.898 206.5 329.898 206.5C324.197 204.613 322.595 207.893 322.595 207.893C322.595 207.893 315.863 223.9 312.371 234.36C311.041 238.359 310.178 241.554 310.35 242.724Z" fill="#FF943B"/>
<path d="M298.473 239.573C302.69 244.657 308.2 248.805 314.278 249.778C326.918 244.075 329.476 224.485 329.901 213.726C329.901 213.726 323.92 235.413 315.78 242.996C314.31 244.369 312.765 245.277 311.178 245.513C311.178 245.513 300.914 242.613 298.761 239.881C298.607 239.684 298.513 239.587 298.473 239.573Z" fill="#EF873A"/>
<path d="M173.367 451.833C173.367 452.17 173.387 452.507 173.43 452.832C173.556 453.88 173.881 454.865 174.361 455.753C174.738 456.443 175.214 457.074 175.765 457.628C177.25 459.11 179.294 460.026 181.558 460.026H296.781C301.306 460.026 304.975 456.358 304.975 451.836C304.975 449.572 304.058 447.525 302.573 446.043C301.092 444.559 299.042 443.643 296.781 443.643H181.561C177.036 443.64 173.367 447.308 173.367 451.833Z" fill="#2B478B"/>
<path d="M182.155 442.158H221.66C222.351 442.158 222.917 441.593 222.917 440.902C222.917 440.211 222.351 439.646 221.66 439.646H182.155C181.464 439.646 180.898 440.211 180.898 440.902C180.896 441.593 181.461 442.158 182.155 442.158Z" fill="#2B478B"/>
<path d="M184.338 443.639H188.621V442.155H184.338V443.639Z" fill="#233862"/>
<path d="M174.363 455.753C174.74 456.443 175.217 457.074 175.768 457.628C177.253 459.11 179.297 460.026 181.561 460.026H205.969V455.753H174.363Z" fill="#233862"/>
<path d="M320.229 449.432V454.231C320.229 454.756 320.157 455.267 320.026 455.75C319.361 458.213 317.111 460.023 314.436 460.023H194.414C191.739 460.023 189.489 458.213 188.824 455.75C188.692 455.267 188.621 454.756 188.621 454.231V449.432C188.621 446.232 191.213 443.64 194.414 443.64H314.438C317.636 443.64 320.229 446.232 320.229 449.432Z" fill="#F99746"/>
<path d="M320.026 455.753C319.361 458.216 317.111 460.026 314.436 460.026H194.414C191.739 460.026 189.489 458.216 188.824 455.753H320.026Z" fill="#EF873A"/>
<path d="M308.309 451.861C308.309 454.408 309.234 456.68 310.693 458.188C310.727 458.222 310.758 458.253 310.79 458.288C311.917 459.409 313.345 460.083 314.901 460.083C317.331 460.083 323.352 456.418 327.086 453.985C328.945 452.772 330.238 451.864 330.238 451.864C330.238 451.864 328.948 450.956 327.086 449.743C323.355 447.308 317.331 443.643 314.901 443.643C314.199 443.643 313.522 443.78 312.882 444.034C311.812 444.465 310.855 445.227 310.104 446.226C309.274 447.322 308.685 448.701 308.437 450.234C308.434 450.251 308.431 450.268 308.431 450.288C308.349 450.794 308.309 451.322 308.309 451.861Z" fill="#8C9DF4"/>
<path d="M308.309 451.861C308.309 454.408 309.234 456.68 310.693 458.188L329.165 451.833L308.431 450.286C308.349 450.794 308.309 451.322 308.309 451.861Z" fill="#6980E2"/>
<path d="M310.105 446.22L328.535 451.253L312.883 444.028C311.813 444.459 310.859 445.224 310.105 446.22Z" fill="#9FB1FF"/>
<path d="M325.879 451.861C325.879 452.841 326.381 453.674 327.081 453.983C328.94 452.769 330.233 451.861 330.233 451.861C330.233 451.861 328.942 450.954 327.081 449.74C326.381 450.046 325.879 450.882 325.879 451.861Z" fill="#182D4C"/>
<path d="M562.539 46.8804L573.396 50.8868L572.435 38.5765L584.392 41.6603L581.782 30.734L593.719 28.2124L596.626 18.2782" stroke="#F5A623" stroke-width="2" stroke-linecap="round" stroke-linejoin="round"/>
<path d="M107.249 63.9358L105.322 65.6595C103.265 67.5023 103.101 70.659 104.953 72.7044L119.543 88.7808C121.396 90.8261 124.582 90.9928 126.639 89.1561L129.403 86.6863C129.804 86.3229 129.836 85.7074 129.475 85.309C129.109 84.9108 128.489 84.8783 128.088 85.2356L125.324 87.7053C124.074 88.8272 122.135 88.7256 121.003 87.477L106.419 71.4004C105.287 70.1579 105.387 68.2321 106.644 67.1101L108.57 65.3863C109.82 64.2644 111.759 64.3661 112.891 65.6147L122.576 76.2868C122.936 76.6852 123.562 76.7175 123.963 76.3602C124.364 75.9968 124.396 75.3813 124.035 74.9829L114.351 64.3109C112.492 62.2596 109.306 62.093 107.249 63.9358Z" fill="white"/>
<path d="M93.2081 46.7647L89.7504 49.8552C86.544 52.7261 86.4522 57.8409 89.5561 61.2537L111.488 85.4297C111.855 85.8279 112.475 85.8605 112.875 85.5031C113.276 85.1458 113.308 84.5241 112.948 84.1257L91.0159 59.9498C88.645 57.3335 88.6667 53.456 91.0715 51.3058L94.5293 48.2154C96.9342 46.0652 100.819 46.4449 103.196 49.061L128.175 76.5964C130.546 79.2127 130.524 83.0902 128.119 85.2404C127.719 85.6038 127.687 86.2193 128.047 86.6177C128.407 87.0161 129.033 87.0485 129.434 86.6912C132.641 83.8203 132.732 78.7054 129.635 75.2925L104.649 47.7573C101.552 44.3444 96.4208 43.8997 93.2081 46.7647Z" fill="white"/>
</g>
<defs>
<clipPath id="clip0_811:1009">
<rect width="680" height="461" fill="white"/>
</clipPath>
</defs>
</svg>
