<svg width="728" height="466" viewBox="0 0 728 466" fill="none" xmlns="http://www.w3.org/2000/svg">
<path fill-rule="evenodd" clip-rule="evenodd" d="M475.898 147.066C475.898 149.312 473.907 151.131 471.449 151.131C468.991 151.131 467 149.312 467 147.066C467 144.819 468.991 143 471.449 143C473.907 143 475.898 144.819 475.898 147.066Z" fill="white" fill-opacity="0.3"/>
<path fill-rule="evenodd" clip-rule="evenodd" d="M475.898 167.395C475.898 169.641 473.907 171.461 471.449 171.461C468.991 171.461 467 169.641 467 167.395C467 165.148 468.991 163.328 471.449 163.328C473.907 163.328 475.898 165.148 475.898 167.395Z" fill="white" fill-opacity="0.3"/>
<path fill-rule="evenodd" clip-rule="evenodd" d="M499.624 167.395C499.624 169.641 497.633 171.461 495.175 171.461C492.717 171.461 490.727 169.641 490.727 167.395C490.727 165.148 492.717 163.328 495.175 163.328C497.633 163.328 499.624 165.148 499.624 167.395Z" fill="white" fill-opacity="0.3"/>
<path fill-rule="evenodd" clip-rule="evenodd" d="M521.87 167.395C521.87 169.641 519.88 171.461 517.422 171.461C514.964 171.461 512.973 169.641 512.973 167.395C512.973 165.148 514.964 163.328 517.422 163.328C519.88 163.328 521.87 165.148 521.87 167.395Z" fill="white" fill-opacity="0.3"/>
<path fill-rule="evenodd" clip-rule="evenodd" d="M544.113 167.395C544.113 169.641 542.122 171.461 539.664 171.461C537.206 171.461 535.215 169.641 535.215 167.395C535.215 165.148 537.206 163.328 539.664 163.328C542.122 163.328 544.113 165.148 544.113 167.395Z" fill="white" fill-opacity="0.3"/>
<path fill-rule="evenodd" clip-rule="evenodd" d="M567.839 167.395C567.839 169.641 565.848 171.461 563.39 171.461C560.932 171.461 558.941 169.641 558.941 167.395C558.941 165.148 560.932 163.328 563.39 163.328C565.848 163.328 567.839 165.148 567.839 167.395Z" fill="white" fill-opacity="0.3"/>
<path fill-rule="evenodd" clip-rule="evenodd" d="M590.085 167.395C590.085 169.641 588.094 171.461 585.636 171.461C583.178 171.461 581.188 169.641 581.188 167.395C581.188 165.148 583.178 163.328 585.636 163.328C588.094 163.328 590.085 165.148 590.085 167.395Z" fill="white" fill-opacity="0.3"/>
<path fill-rule="evenodd" clip-rule="evenodd" d="M613.812 167.395C613.812 169.641 611.821 171.461 609.363 171.461C606.905 171.461 604.914 169.641 604.914 167.395C604.914 165.148 606.905 163.328 609.363 163.328C611.821 163.328 613.812 165.148 613.812 167.395Z" fill="white" fill-opacity="0.3"/>
<path fill-rule="evenodd" clip-rule="evenodd" d="M636.058 167.395C636.058 169.641 634.067 171.461 631.609 171.461C629.151 171.461 627.16 169.641 627.16 167.395C627.16 165.148 629.151 163.328 631.609 163.328C634.067 163.328 636.058 165.148 636.058 167.395Z" fill="white" fill-opacity="0.3"/>
<path fill-rule="evenodd" clip-rule="evenodd" d="M659.784 167.395C659.784 169.641 657.794 171.461 655.336 171.461C652.878 171.461 650.887 169.641 650.887 167.395C650.887 165.148 652.878 163.328 655.336 163.328C657.794 163.328 659.784 165.148 659.784 167.395Z" fill="white" fill-opacity="0.3"/>
<path fill-rule="evenodd" clip-rule="evenodd" d="M682.027 167.395C682.027 169.641 680.036 171.461 677.578 171.461C675.12 171.461 673.129 169.641 673.129 167.395C673.129 165.148 675.12 163.328 677.578 163.328C680.036 163.328 682.027 165.148 682.027 167.395Z" fill="white" fill-opacity="0.3"/>
<path fill-rule="evenodd" clip-rule="evenodd" d="M704.273 167.395C704.273 169.641 702.282 171.461 699.824 171.461C697.366 171.461 695.375 169.641 695.375 167.395C695.375 165.148 697.366 163.328 699.824 163.328C702.282 163.328 704.273 165.148 704.273 167.395Z" fill="white" fill-opacity="0.3"/>
<path fill-rule="evenodd" clip-rule="evenodd" d="M727.999 167.395C727.999 169.641 726.008 171.461 723.55 171.461C721.092 171.461 719.102 169.641 719.102 167.395C719.102 165.148 721.092 163.328 723.55 163.328C726.008 163.328 727.999 165.148 727.999 167.395Z" fill="white" fill-opacity="0.3"/>
<path fill-rule="evenodd" clip-rule="evenodd" d="M475.898 189.078C475.898 191.324 473.907 193.143 471.449 193.143C468.991 193.143 467 191.324 467 189.078C467 186.831 468.991 185.012 471.449 185.012C473.907 185.012 475.898 186.831 475.898 189.078Z" fill="white" fill-opacity="0.3"/>
<path fill-rule="evenodd" clip-rule="evenodd" d="M499.624 189.078C499.624 191.324 497.633 193.143 495.175 193.143C492.717 193.143 490.727 191.324 490.727 189.078C490.727 186.831 492.717 185.012 495.175 185.012C497.633 185.012 499.624 186.831 499.624 189.078Z" fill="white" fill-opacity="0.3"/>
<path fill-rule="evenodd" clip-rule="evenodd" d="M521.87 189.078C521.87 191.324 519.88 193.143 517.422 193.143C514.964 193.143 512.973 191.324 512.973 189.078C512.973 186.831 514.964 185.012 517.422 185.012C519.88 185.012 521.87 186.831 521.87 189.078Z" fill="white" fill-opacity="0.3"/>
<path fill-rule="evenodd" clip-rule="evenodd" d="M544.113 189.078C544.113 191.324 542.122 193.143 539.664 193.143C537.206 193.143 535.215 191.324 535.215 189.078C535.215 186.831 537.206 185.012 539.664 185.012C542.122 185.012 544.113 186.831 544.113 189.078Z" fill="white" fill-opacity="0.3"/>
<path fill-rule="evenodd" clip-rule="evenodd" d="M567.839 189.078C567.839 191.324 565.848 193.143 563.39 193.143C560.932 193.143 558.941 191.324 558.941 189.078C558.941 186.831 560.932 185.012 563.39 185.012C565.848 185.012 567.839 186.831 567.839 189.078Z" fill="white" fill-opacity="0.3"/>
<path fill-rule="evenodd" clip-rule="evenodd" d="M590.085 189.078C590.085 191.324 588.094 193.143 585.636 193.143C583.178 193.143 581.188 191.324 581.188 189.078C581.188 186.831 583.178 185.012 585.636 185.012C588.094 185.012 590.085 186.831 590.085 189.078Z" fill="white" fill-opacity="0.3"/>
<path fill-rule="evenodd" clip-rule="evenodd" d="M613.812 189.078C613.812 191.324 611.821 193.143 609.363 193.143C606.905 193.143 604.914 191.324 604.914 189.078C604.914 186.831 606.905 185.012 609.363 185.012C611.821 185.012 613.812 186.831 613.812 189.078Z" fill="white" fill-opacity="0.3"/>
<path fill-rule="evenodd" clip-rule="evenodd" d="M636.058 189.078C636.058 191.324 634.067 193.143 631.609 193.143C629.151 193.143 627.16 191.324 627.16 189.078C627.16 186.831 629.151 185.012 631.609 185.012C634.067 185.012 636.058 186.831 636.058 189.078Z" fill="white" fill-opacity="0.3"/>
<path fill-rule="evenodd" clip-rule="evenodd" d="M659.784 189.078C659.784 191.324 657.794 193.143 655.336 193.143C652.878 193.143 650.887 191.324 650.887 189.078C650.887 186.831 652.878 185.012 655.336 185.012C657.794 185.012 659.784 186.831 659.784 189.078Z" fill="white" fill-opacity="0.3"/>
<path fill-rule="evenodd" clip-rule="evenodd" d="M682.027 189.078C682.027 191.324 680.036 193.143 677.578 193.143C675.12 193.143 673.129 191.324 673.129 189.078C673.129 186.831 675.12 185.012 677.578 185.012C680.036 185.012 682.027 186.831 682.027 189.078Z" fill="white" fill-opacity="0.3"/>
<path fill-rule="evenodd" clip-rule="evenodd" d="M704.273 189.078C704.273 191.324 702.282 193.143 699.824 193.143C697.366 193.143 695.375 191.324 695.375 189.078C695.375 186.831 697.366 185.012 699.824 185.012C702.282 185.012 704.273 186.831 704.273 189.078Z" fill="white" fill-opacity="0.3"/>
<path fill-rule="evenodd" clip-rule="evenodd" d="M727.999 189.078C727.999 191.324 726.008 193.143 723.55 193.143C721.092 193.143 719.102 191.324 719.102 189.078C719.102 186.831 721.092 185.012 723.55 185.012C726.008 185.012 727.999 186.831 727.999 189.078Z" fill="white" fill-opacity="0.3"/>
<path fill-rule="evenodd" clip-rule="evenodd" d="M475.898 209.406C475.898 211.652 473.907 213.472 471.449 213.472C468.991 213.472 467 211.652 467 209.406C467 207.16 468.991 205.34 471.449 205.34C473.907 205.34 475.898 207.16 475.898 209.406Z" fill="white" fill-opacity="0.3"/>
<path fill-rule="evenodd" clip-rule="evenodd" d="M499.624 209.406C499.624 211.652 497.633 213.472 495.175 213.472C492.717 213.472 490.727 211.652 490.727 209.406C490.727 207.16 492.717 205.34 495.175 205.34C497.633 205.34 499.624 207.16 499.624 209.406Z" fill="white" fill-opacity="0.3"/>
<path fill-rule="evenodd" clip-rule="evenodd" d="M521.87 209.406C521.87 211.652 519.88 213.472 517.422 213.472C514.964 213.472 512.973 211.652 512.973 209.406C512.973 207.16 514.964 205.34 517.422 205.34C519.88 205.34 521.87 207.16 521.87 209.406Z" fill="white" fill-opacity="0.3"/>
<path fill-rule="evenodd" clip-rule="evenodd" d="M544.113 209.406C544.113 211.652 542.122 213.472 539.664 213.472C537.206 213.472 535.215 211.652 535.215 209.406C535.215 207.16 537.206 205.34 539.664 205.34C542.122 205.34 544.113 207.16 544.113 209.406Z" fill="white" fill-opacity="0.3"/>
<path fill-rule="evenodd" clip-rule="evenodd" d="M567.839 209.406C567.839 211.652 565.848 213.472 563.39 213.472C560.932 213.472 558.941 211.652 558.941 209.406C558.941 207.16 560.932 205.34 563.39 205.34C565.848 205.34 567.839 207.16 567.839 209.406Z" fill="white" fill-opacity="0.3"/>
<path fill-rule="evenodd" clip-rule="evenodd" d="M590.085 209.406C590.085 211.652 588.094 213.472 585.636 213.472C583.178 213.472 581.188 211.652 581.188 209.406C581.188 207.16 583.178 205.34 585.636 205.34C588.094 205.34 590.085 207.16 590.085 209.406Z" fill="white" fill-opacity="0.3"/>
<path fill-rule="evenodd" clip-rule="evenodd" d="M613.812 209.406C613.812 211.652 611.821 213.472 609.363 213.472C606.905 213.472 604.914 211.652 604.914 209.406C604.914 207.16 606.905 205.34 609.363 205.34C611.821 205.34 613.812 207.16 613.812 209.406Z" fill="white" fill-opacity="0.3"/>
<path fill-rule="evenodd" clip-rule="evenodd" d="M636.058 209.406C636.058 211.652 634.067 213.472 631.609 213.472C629.151 213.472 627.16 211.652 627.16 209.406C627.16 207.16 629.151 205.34 631.609 205.34C634.067 205.34 636.058 207.16 636.058 209.406Z" fill="white" fill-opacity="0.3"/>
<path fill-rule="evenodd" clip-rule="evenodd" d="M659.784 209.406C659.784 211.652 657.794 213.472 655.336 213.472C652.878 213.472 650.887 211.652 650.887 209.406C650.887 207.16 652.878 205.34 655.336 205.34C657.794 205.34 659.784 207.16 659.784 209.406Z" fill="white" fill-opacity="0.3"/>
<path fill-rule="evenodd" clip-rule="evenodd" d="M682.027 209.406C682.027 211.652 680.036 213.472 677.578 213.472C675.12 213.472 673.129 211.652 673.129 209.406C673.129 207.16 675.12 205.34 677.578 205.34C680.036 205.34 682.027 207.16 682.027 209.406Z" fill="white" fill-opacity="0.3"/>
<path fill-rule="evenodd" clip-rule="evenodd" d="M704.273 209.406C704.273 211.652 702.282 213.472 699.824 213.472C697.366 213.472 695.375 211.652 695.375 209.406C695.375 207.16 697.366 205.34 699.824 205.34C702.282 205.34 704.273 207.16 704.273 209.406Z" fill="white" fill-opacity="0.3"/>
<path fill-rule="evenodd" clip-rule="evenodd" d="M727.999 209.406C727.999 211.652 726.008 213.472 723.55 213.472C721.092 213.472 719.102 211.652 719.102 209.406C719.102 207.16 721.092 205.34 723.55 205.34C726.008 205.34 727.999 207.16 727.999 209.406Z" fill="white" fill-opacity="0.3"/>
<path fill-rule="evenodd" clip-rule="evenodd" d="M475.898 231.09C475.898 233.337 473.907 235.156 471.449 235.156C468.991 235.156 467 233.337 467 231.09C467 228.843 468.991 227.024 471.449 227.024C473.907 227.024 475.898 228.843 475.898 231.09Z" fill="white" fill-opacity="0.3"/>
<path fill-rule="evenodd" clip-rule="evenodd" d="M499.624 231.09C499.624 233.337 497.633 235.156 495.175 235.156C492.717 235.156 490.727 233.337 490.727 231.09C490.727 228.843 492.717 227.024 495.175 227.024C497.633 227.024 499.624 228.843 499.624 231.09Z" fill="white" fill-opacity="0.3"/>
<path fill-rule="evenodd" clip-rule="evenodd" d="M521.87 231.09C521.87 233.337 519.88 235.156 517.422 235.156C514.964 235.156 512.973 233.337 512.973 231.09C512.973 228.843 514.964 227.024 517.422 227.024C519.88 227.024 521.87 228.843 521.87 231.09Z" fill="white" fill-opacity="0.3"/>
<path fill-rule="evenodd" clip-rule="evenodd" d="M544.113 231.09C544.113 233.337 542.122 235.156 539.664 235.156C537.206 235.156 535.215 233.337 535.215 231.09C535.215 228.843 537.206 227.024 539.664 227.024C542.122 227.024 544.113 228.843 544.113 231.09Z" fill="white" fill-opacity="0.3"/>
<path fill-rule="evenodd" clip-rule="evenodd" d="M567.839 231.09C567.839 233.337 565.848 235.156 563.39 235.156C560.932 235.156 558.941 233.337 558.941 231.09C558.941 228.843 560.932 227.024 563.39 227.024C565.848 227.024 567.839 228.843 567.839 231.09Z" fill="white" fill-opacity="0.3"/>
<path fill-rule="evenodd" clip-rule="evenodd" d="M590.085 231.09C590.085 233.337 588.094 235.156 585.636 235.156C583.178 235.156 581.188 233.337 581.188 231.09C581.188 228.843 583.178 227.024 585.636 227.024C588.094 227.024 590.085 228.843 590.085 231.09Z" fill="white" fill-opacity="0.3"/>
<path fill-rule="evenodd" clip-rule="evenodd" d="M613.812 231.09C613.812 233.337 611.821 235.156 609.363 235.156C606.905 235.156 604.914 233.337 604.914 231.09C604.914 228.843 606.905 227.024 609.363 227.024C611.821 227.024 613.812 228.843 613.812 231.09Z" fill="white" fill-opacity="0.3"/>
<path fill-rule="evenodd" clip-rule="evenodd" d="M636.058 231.09C636.058 233.337 634.067 235.156 631.609 235.156C629.151 235.156 627.16 233.337 627.16 231.09C627.16 228.843 629.151 227.024 631.609 227.024C634.067 227.024 636.058 228.843 636.058 231.09Z" fill="white" fill-opacity="0.3"/>
<path fill-rule="evenodd" clip-rule="evenodd" d="M659.784 231.09C659.784 233.337 657.794 235.156 655.336 235.156C652.878 235.156 650.887 233.337 650.887 231.09C650.887 228.843 652.878 227.024 655.336 227.024C657.794 227.024 659.784 228.843 659.784 231.09Z" fill="white" fill-opacity="0.3"/>
<path fill-rule="evenodd" clip-rule="evenodd" d="M682.027 231.09C682.027 233.337 680.036 235.156 677.578 235.156C675.12 235.156 673.129 233.337 673.129 231.09C673.129 228.843 675.12 227.024 677.578 227.024C680.036 227.024 682.027 228.843 682.027 231.09Z" fill="white" fill-opacity="0.3"/>
<path fill-rule="evenodd" clip-rule="evenodd" d="M704.273 231.09C704.273 233.337 702.282 235.156 699.824 235.156C697.366 235.156 695.375 233.337 695.375 231.09C695.375 228.843 697.366 227.024 699.824 227.024C702.282 227.024 704.273 228.843 704.273 231.09Z" fill="white" fill-opacity="0.3"/>
<path fill-rule="evenodd" clip-rule="evenodd" d="M727.999 231.09C727.999 233.337 726.008 235.156 723.55 235.156C721.092 235.156 719.102 233.337 719.102 231.09C719.102 228.843 721.092 227.024 723.55 227.024C726.008 227.024 727.999 228.843 727.999 231.09Z" fill="white" fill-opacity="0.3"/>
<path fill-rule="evenodd" clip-rule="evenodd" d="M475.898 251.418C475.898 253.665 473.907 255.484 471.449 255.484C468.991 255.484 467 253.665 467 251.418C467 249.172 468.991 247.352 471.449 247.352C473.907 247.352 475.898 249.172 475.898 251.418Z" fill="white" fill-opacity="0.3"/>
<path fill-rule="evenodd" clip-rule="evenodd" d="M499.624 251.418C499.624 253.665 497.633 255.484 495.175 255.484C492.717 255.484 490.727 253.665 490.727 251.418C490.727 249.172 492.717 247.352 495.175 247.352C497.633 247.352 499.624 249.172 499.624 251.418Z" fill="white" fill-opacity="0.3"/>
<path fill-rule="evenodd" clip-rule="evenodd" d="M521.87 251.418C521.87 253.665 519.88 255.484 517.422 255.484C514.964 255.484 512.973 253.665 512.973 251.418C512.973 249.172 514.964 247.352 517.422 247.352C519.88 247.352 521.87 249.172 521.87 251.418Z" fill="white" fill-opacity="0.3"/>
<path fill-rule="evenodd" clip-rule="evenodd" d="M544.113 251.418C544.113 253.665 542.122 255.484 539.664 255.484C537.206 255.484 535.215 253.665 535.215 251.418C535.215 249.172 537.206 247.352 539.664 247.352C542.122 247.352 544.113 249.172 544.113 251.418Z" fill="white" fill-opacity="0.3"/>
<path fill-rule="evenodd" clip-rule="evenodd" d="M567.839 251.418C567.839 253.665 565.848 255.484 563.39 255.484C560.932 255.484 558.941 253.665 558.941 251.418C558.941 249.172 560.932 247.352 563.39 247.352C565.848 247.352 567.839 249.172 567.839 251.418Z" fill="white" fill-opacity="0.3"/>
<path fill-rule="evenodd" clip-rule="evenodd" d="M590.085 251.418C590.085 253.665 588.094 255.484 585.636 255.484C583.178 255.484 581.188 253.665 581.188 251.418C581.188 249.172 583.178 247.352 585.636 247.352C588.094 247.352 590.085 249.172 590.085 251.418Z" fill="white" fill-opacity="0.3"/>
<path fill-rule="evenodd" clip-rule="evenodd" d="M613.812 251.418C613.812 253.665 611.821 255.484 609.363 255.484C606.905 255.484 604.914 253.665 604.914 251.418C604.914 249.172 606.905 247.352 609.363 247.352C611.821 247.352 613.812 249.172 613.812 251.418Z" fill="white" fill-opacity="0.3"/>
<path fill-rule="evenodd" clip-rule="evenodd" d="M636.058 251.418C636.058 253.665 634.067 255.484 631.609 255.484C629.151 255.484 627.16 253.665 627.16 251.418C627.16 249.172 629.151 247.352 631.609 247.352C634.067 247.352 636.058 249.172 636.058 251.418Z" fill="white" fill-opacity="0.3"/>
<path fill-rule="evenodd" clip-rule="evenodd" d="M659.784 251.418C659.784 253.665 657.794 255.484 655.336 255.484C652.878 255.484 650.887 253.665 650.887 251.418C650.887 249.172 652.878 247.352 655.336 247.352C657.794 247.352 659.784 249.172 659.784 251.418Z" fill="white" fill-opacity="0.3"/>
<path fill-rule="evenodd" clip-rule="evenodd" d="M682.027 251.418C682.027 253.665 680.036 255.484 677.578 255.484C675.12 255.484 673.129 253.665 673.129 251.418C673.129 249.172 675.12 247.352 677.578 247.352C680.036 247.352 682.027 249.172 682.027 251.418Z" fill="white" fill-opacity="0.3"/>
<path fill-rule="evenodd" clip-rule="evenodd" d="M704.273 251.418C704.273 253.665 702.282 255.484 699.824 255.484C697.366 255.484 695.375 253.665 695.375 251.418C695.375 249.172 697.366 247.352 699.824 247.352C702.282 247.352 704.273 249.172 704.273 251.418Z" fill="white" fill-opacity="0.3"/>
<path fill-rule="evenodd" clip-rule="evenodd" d="M727.999 251.418C727.999 253.665 726.008 255.484 723.55 255.484C721.092 255.484 719.102 253.665 719.102 251.418C719.102 249.172 721.092 247.352 723.55 247.352C726.008 247.352 727.999 249.172 727.999 251.418Z" fill="white" fill-opacity="0.3"/>
<path fill-rule="evenodd" clip-rule="evenodd" d="M475.898 273.102C475.898 275.348 473.907 277.168 471.449 277.168C468.991 277.168 467 275.348 467 273.102C467 270.855 468.991 269.036 471.449 269.036C473.907 269.036 475.898 270.855 475.898 273.102Z" fill="white" fill-opacity="0.3"/>
<path fill-rule="evenodd" clip-rule="evenodd" d="M499.624 273.102C499.624 275.348 497.633 277.168 495.175 277.168C492.717 277.168 490.727 275.348 490.727 273.102C490.727 270.855 492.717 269.036 495.175 269.036C497.633 269.036 499.624 270.855 499.624 273.102Z" fill="white" fill-opacity="0.3"/>
<path fill-rule="evenodd" clip-rule="evenodd" d="M521.87 273.102C521.87 275.348 519.88 277.168 517.422 277.168C514.964 277.168 512.973 275.348 512.973 273.102C512.973 270.855 514.964 269.036 517.422 269.036C519.88 269.036 521.87 270.855 521.87 273.102Z" fill="white" fill-opacity="0.3"/>
<path fill-rule="evenodd" clip-rule="evenodd" d="M544.113 273.102C544.113 275.348 542.122 277.168 539.664 277.168C537.206 277.168 535.215 275.348 535.215 273.102C535.215 270.855 537.206 269.036 539.664 269.036C542.122 269.036 544.113 270.855 544.113 273.102Z" fill="white" fill-opacity="0.3"/>
<path fill-rule="evenodd" clip-rule="evenodd" d="M567.839 273.102C567.839 275.348 565.848 277.168 563.39 277.168C560.932 277.168 558.941 275.348 558.941 273.102C558.941 270.855 560.932 269.036 563.39 269.036C565.848 269.036 567.839 270.855 567.839 273.102Z" fill="white" fill-opacity="0.3"/>
<path fill-rule="evenodd" clip-rule="evenodd" d="M590.085 273.102C590.085 275.348 588.094 277.168 585.636 277.168C583.178 277.168 581.188 275.348 581.188 273.102C581.188 270.855 583.178 269.036 585.636 269.036C588.094 269.036 590.085 270.855 590.085 273.102Z" fill="white" fill-opacity="0.3"/>
<path fill-rule="evenodd" clip-rule="evenodd" d="M613.812 273.102C613.812 275.348 611.821 277.168 609.363 277.168C606.905 277.168 604.914 275.348 604.914 273.102C604.914 270.855 606.905 269.036 609.363 269.036C611.821 269.036 613.812 270.855 613.812 273.102Z" fill="white" fill-opacity="0.3"/>
<path fill-rule="evenodd" clip-rule="evenodd" d="M636.058 273.102C636.058 275.348 634.067 277.168 631.609 277.168C629.151 277.168 627.16 275.348 627.16 273.102C627.16 270.855 629.151 269.036 631.609 269.036C634.067 269.036 636.058 270.855 636.058 273.102Z" fill="white" fill-opacity="0.3"/>
<path fill-rule="evenodd" clip-rule="evenodd" d="M659.784 273.102C659.784 275.348 657.794 277.168 655.336 277.168C652.878 277.168 650.887 275.348 650.887 273.102C650.887 270.855 652.878 269.036 655.336 269.036C657.794 269.036 659.784 270.855 659.784 273.102Z" fill="white" fill-opacity="0.3"/>
<path fill-rule="evenodd" clip-rule="evenodd" d="M682.027 273.102C682.027 275.348 680.036 277.168 677.578 277.168C675.12 277.168 673.129 275.348 673.129 273.102C673.129 270.855 675.12 269.036 677.578 269.036C680.036 269.036 682.027 270.855 682.027 273.102Z" fill="white" fill-opacity="0.3"/>
<path fill-rule="evenodd" clip-rule="evenodd" d="M704.273 273.102C704.273 275.348 702.282 277.168 699.824 277.168C697.366 277.168 695.375 275.348 695.375 273.102C695.375 270.855 697.366 269.036 699.824 269.036C702.282 269.036 704.273 270.855 704.273 273.102Z" fill="white" fill-opacity="0.3"/>
<path fill-rule="evenodd" clip-rule="evenodd" d="M727.999 273.102C727.999 275.348 726.008 277.168 723.55 277.168C721.092 277.168 719.102 275.348 719.102 273.102C719.102 270.855 721.092 269.036 723.55 269.036C726.008 269.036 727.999 270.855 727.999 273.102Z" fill="white" fill-opacity="0.3"/>
<path fill-rule="evenodd" clip-rule="evenodd" d="M475.898 293.43C475.898 295.677 473.907 297.496 471.449 297.496C468.991 297.496 467 295.677 467 293.43C467 291.184 468.991 289.364 471.449 289.364C473.907 289.364 475.898 291.184 475.898 293.43Z" fill="white" fill-opacity="0.3"/>
<path fill-rule="evenodd" clip-rule="evenodd" d="M499.624 293.43C499.624 295.677 497.633 297.496 495.175 297.496C492.717 297.496 490.727 295.677 490.727 293.43C490.727 291.184 492.717 289.364 495.175 289.364C497.633 289.364 499.624 291.184 499.624 293.43Z" fill="white" fill-opacity="0.3"/>
<path fill-rule="evenodd" clip-rule="evenodd" d="M521.87 293.43C521.87 295.677 519.88 297.496 517.422 297.496C514.964 297.496 512.973 295.677 512.973 293.43C512.973 291.184 514.964 289.364 517.422 289.364C519.88 289.364 521.87 291.184 521.87 293.43Z" fill="white" fill-opacity="0.3"/>
<path fill-rule="evenodd" clip-rule="evenodd" d="M544.113 293.43C544.113 295.677 542.122 297.496 539.664 297.496C537.206 297.496 535.215 295.677 535.215 293.43C535.215 291.184 537.206 289.364 539.664 289.364C542.122 289.364 544.113 291.184 544.113 293.43Z" fill="white" fill-opacity="0.3"/>
<path fill-rule="evenodd" clip-rule="evenodd" d="M567.839 293.43C567.839 295.677 565.848 297.496 563.39 297.496C560.932 297.496 558.941 295.677 558.941 293.43C558.941 291.184 560.932 289.364 563.39 289.364C565.848 289.364 567.839 291.184 567.839 293.43Z" fill="white" fill-opacity="0.3"/>
<path fill-rule="evenodd" clip-rule="evenodd" d="M590.085 293.43C590.085 295.677 588.094 297.496 585.636 297.496C583.178 297.496 581.188 295.677 581.188 293.43C581.188 291.184 583.178 289.364 585.636 289.364C588.094 289.364 590.085 291.184 590.085 293.43Z" fill="white" fill-opacity="0.3"/>
<path fill-rule="evenodd" clip-rule="evenodd" d="M613.812 293.43C613.812 295.677 611.821 297.496 609.363 297.496C606.905 297.496 604.914 295.677 604.914 293.43C604.914 291.184 606.905 289.364 609.363 289.364C611.821 289.364 613.812 291.184 613.812 293.43Z" fill="white" fill-opacity="0.3"/>
<path fill-rule="evenodd" clip-rule="evenodd" d="M636.058 293.43C636.058 295.677 634.067 297.496 631.609 297.496C629.151 297.496 627.16 295.677 627.16 293.43C627.16 291.184 629.151 289.364 631.609 289.364C634.067 289.364 636.058 291.184 636.058 293.43Z" fill="white" fill-opacity="0.3"/>
<path fill-rule="evenodd" clip-rule="evenodd" d="M659.784 293.43C659.784 295.677 657.794 297.496 655.336 297.496C652.878 297.496 650.887 295.677 650.887 293.43C650.887 291.184 652.878 289.364 655.336 289.364C657.794 289.364 659.784 291.184 659.784 293.43Z" fill="white" fill-opacity="0.3"/>
<path fill-rule="evenodd" clip-rule="evenodd" d="M682.027 293.43C682.027 295.677 680.036 297.496 677.578 297.496C675.12 297.496 673.129 295.677 673.129 293.43C673.129 291.184 675.12 289.364 677.578 289.364C680.036 289.364 682.027 291.184 682.027 293.43Z" fill="white" fill-opacity="0.3"/>
<path fill-rule="evenodd" clip-rule="evenodd" d="M704.273 293.43C704.273 295.677 702.282 297.496 699.824 297.496C697.366 297.496 695.375 295.677 695.375 293.43C695.375 291.184 697.366 289.364 699.824 289.364C702.282 289.364 704.273 291.184 704.273 293.43Z" fill="white" fill-opacity="0.3"/>
<path fill-rule="evenodd" clip-rule="evenodd" d="M727.999 293.43C727.999 295.677 726.008 297.496 723.55 297.496C721.092 297.496 719.102 295.677 719.102 293.43C719.102 291.184 721.092 289.364 723.55 289.364C726.008 289.364 727.999 291.184 727.999 293.43Z" fill="white" fill-opacity="0.3"/>
<path fill-rule="evenodd" clip-rule="evenodd" d="M475.898 313.758C475.898 316.004 473.907 317.824 471.449 317.824C468.991 317.824 467 316.004 467 313.758C467 311.512 468.991 309.692 471.449 309.692C473.907 309.692 475.898 311.512 475.898 313.758Z" fill="white" fill-opacity="0.3"/>
<path fill-rule="evenodd" clip-rule="evenodd" d="M499.624 313.758C499.624 316.004 497.633 317.824 495.175 317.824C492.717 317.824 490.727 316.004 490.727 313.758C490.727 311.512 492.717 309.692 495.175 309.692C497.633 309.692 499.624 311.512 499.624 313.758Z" fill="white" fill-opacity="0.3"/>
<path fill-rule="evenodd" clip-rule="evenodd" d="M521.87 313.758C521.87 316.004 519.88 317.824 517.422 317.824C514.964 317.824 512.973 316.004 512.973 313.758C512.973 311.512 514.964 309.692 517.422 309.692C519.88 309.692 521.87 311.512 521.87 313.758Z" fill="white" fill-opacity="0.3"/>
<path fill-rule="evenodd" clip-rule="evenodd" d="M544.113 313.758C544.113 316.004 542.122 317.824 539.664 317.824C537.206 317.824 535.215 316.004 535.215 313.758C535.215 311.512 537.206 309.692 539.664 309.692C542.122 309.692 544.113 311.512 544.113 313.758Z" fill="white" fill-opacity="0.3"/>
<path fill-rule="evenodd" clip-rule="evenodd" d="M567.839 313.758C567.839 316.004 565.848 317.824 563.39 317.824C560.932 317.824 558.941 316.004 558.941 313.758C558.941 311.512 560.932 309.692 563.39 309.692C565.848 309.692 567.839 311.512 567.839 313.758Z" fill="white" fill-opacity="0.3"/>
<path fill-rule="evenodd" clip-rule="evenodd" d="M590.085 313.758C590.085 316.004 588.094 317.824 585.636 317.824C583.178 317.824 581.188 316.004 581.188 313.758C581.188 311.512 583.178 309.692 585.636 309.692C588.094 309.692 590.085 311.512 590.085 313.758Z" fill="white" fill-opacity="0.3"/>
<path fill-rule="evenodd" clip-rule="evenodd" d="M613.812 313.758C613.812 316.004 611.821 317.824 609.363 317.824C606.905 317.824 604.914 316.004 604.914 313.758C604.914 311.512 606.905 309.692 609.363 309.692C611.821 309.692 613.812 311.512 613.812 313.758Z" fill="white" fill-opacity="0.3"/>
<path fill-rule="evenodd" clip-rule="evenodd" d="M636.058 313.758C636.058 316.004 634.067 317.824 631.609 317.824C629.151 317.824 627.16 316.004 627.16 313.758C627.16 311.512 629.151 309.692 631.609 309.692C634.067 309.692 636.058 311.512 636.058 313.758Z" fill="white" fill-opacity="0.3"/>
<path fill-rule="evenodd" clip-rule="evenodd" d="M659.784 313.758C659.784 316.004 657.794 317.824 655.336 317.824C652.878 317.824 650.887 316.004 650.887 313.758C650.887 311.512 652.878 309.692 655.336 309.692C657.794 309.692 659.784 311.512 659.784 313.758Z" fill="white" fill-opacity="0.3"/>
<path fill-rule="evenodd" clip-rule="evenodd" d="M682.027 313.758C682.027 316.004 680.036 317.824 677.578 317.824C675.12 317.824 673.129 316.004 673.129 313.758C673.129 311.512 675.12 309.692 677.578 309.692C680.036 309.692 682.027 311.512 682.027 313.758Z" fill="white" fill-opacity="0.3"/>
<path fill-rule="evenodd" clip-rule="evenodd" d="M704.273 313.758C704.273 316.004 702.282 317.824 699.824 317.824C697.366 317.824 695.375 316.004 695.375 313.758C695.375 311.512 697.366 309.692 699.824 309.692C702.282 309.692 704.273 311.512 704.273 313.758Z" fill="white" fill-opacity="0.3"/>
<path fill-rule="evenodd" clip-rule="evenodd" d="M727.999 313.758C727.999 316.004 726.008 317.824 723.55 317.824C721.092 317.824 719.102 316.004 719.102 313.758C719.102 311.512 721.092 309.692 723.55 309.692C726.008 309.692 727.999 311.512 727.999 313.758Z" fill="white" fill-opacity="0.3"/>
<path fill-rule="evenodd" clip-rule="evenodd" d="M475.898 335.442C475.898 337.689 473.907 339.508 471.449 339.508C468.991 339.508 467 337.689 467 335.442C467 333.196 468.991 331.376 471.449 331.376C473.907 331.376 475.898 333.196 475.898 335.442Z" fill="white" fill-opacity="0.3"/>
<path fill-rule="evenodd" clip-rule="evenodd" d="M499.624 335.442C499.624 337.689 497.633 339.508 495.175 339.508C492.717 339.508 490.727 337.689 490.727 335.442C490.727 333.196 492.717 331.376 495.175 331.376C497.633 331.376 499.624 333.196 499.624 335.442Z" fill="white" fill-opacity="0.3"/>
<path fill-rule="evenodd" clip-rule="evenodd" d="M521.87 335.442C521.87 337.689 519.88 339.508 517.422 339.508C514.964 339.508 512.973 337.689 512.973 335.442C512.973 333.196 514.964 331.376 517.422 331.376C519.88 331.376 521.87 333.196 521.87 335.442Z" fill="white" fill-opacity="0.3"/>
<path fill-rule="evenodd" clip-rule="evenodd" d="M544.113 335.442C544.113 337.689 542.122 339.508 539.664 339.508C537.206 339.508 535.215 337.689 535.215 335.442C535.215 333.196 537.206 331.376 539.664 331.376C542.122 331.376 544.113 333.196 544.113 335.442Z" fill="white" fill-opacity="0.3"/>
<path fill-rule="evenodd" clip-rule="evenodd" d="M567.839 335.442C567.839 337.689 565.848 339.508 563.39 339.508C560.932 339.508 558.941 337.689 558.941 335.442C558.941 333.196 560.932 331.376 563.39 331.376C565.848 331.376 567.839 333.196 567.839 335.442Z" fill="white" fill-opacity="0.3"/>
<path fill-rule="evenodd" clip-rule="evenodd" d="M590.085 335.442C590.085 337.689 588.094 339.508 585.636 339.508C583.178 339.508 581.188 337.689 581.188 335.442C581.188 333.196 583.178 331.376 585.636 331.376C588.094 331.376 590.085 333.196 590.085 335.442Z" fill="white" fill-opacity="0.3"/>
<path fill-rule="evenodd" clip-rule="evenodd" d="M613.812 335.442C613.812 337.689 611.821 339.508 609.363 339.508C606.905 339.508 604.914 337.689 604.914 335.442C604.914 333.196 606.905 331.376 609.363 331.376C611.821 331.376 613.812 333.196 613.812 335.442Z" fill="white" fill-opacity="0.3"/>
<path fill-rule="evenodd" clip-rule="evenodd" d="M636.058 335.442C636.058 337.689 634.067 339.508 631.609 339.508C629.151 339.508 627.16 337.689 627.16 335.442C627.16 333.196 629.151 331.376 631.609 331.376C634.067 331.376 636.058 333.196 636.058 335.442Z" fill="white" fill-opacity="0.3"/>
<path fill-rule="evenodd" clip-rule="evenodd" d="M659.784 335.442C659.784 337.689 657.794 339.508 655.336 339.508C652.878 339.508 650.887 337.689 650.887 335.442C650.887 333.196 652.878 331.376 655.336 331.376C657.794 331.376 659.784 333.196 659.784 335.442Z" fill="white" fill-opacity="0.3"/>
<path fill-rule="evenodd" clip-rule="evenodd" d="M682.027 335.442C682.027 337.689 680.036 339.508 677.578 339.508C675.12 339.508 673.129 337.689 673.129 335.442C673.129 333.196 675.12 331.376 677.578 331.376C680.036 331.376 682.027 333.196 682.027 335.442Z" fill="white" fill-opacity="0.3"/>
<path fill-rule="evenodd" clip-rule="evenodd" d="M704.273 335.442C704.273 337.689 702.282 339.508 699.824 339.508C697.366 339.508 695.375 337.689 695.375 335.442C695.375 333.196 697.366 331.376 699.824 331.376C702.282 331.376 704.273 333.196 704.273 335.442Z" fill="white" fill-opacity="0.3"/>
<path fill-rule="evenodd" clip-rule="evenodd" d="M727.999 335.442C727.999 337.689 726.008 339.508 723.55 339.508C721.092 339.508 719.102 337.689 719.102 335.442C719.102 333.196 721.092 331.376 723.55 331.376C726.008 331.376 727.999 333.196 727.999 335.442Z" fill="white" fill-opacity="0.3"/>
<path fill-rule="evenodd" clip-rule="evenodd" d="M475.898 355.77C475.898 358.017 473.907 359.837 471.449 359.837C468.991 359.837 467 358.017 467 355.77C467 353.524 468.991 351.704 471.449 351.704C473.907 351.704 475.898 353.524 475.898 355.77Z" fill="white" fill-opacity="0.3"/>
<path fill-rule="evenodd" clip-rule="evenodd" d="M499.624 355.77C499.624 358.017 497.633 359.837 495.175 359.837C492.717 359.837 490.727 358.017 490.727 355.77C490.727 353.524 492.717 351.704 495.175 351.704C497.633 351.704 499.624 353.524 499.624 355.77Z" fill="white" fill-opacity="0.3"/>
<path fill-rule="evenodd" clip-rule="evenodd" d="M521.87 355.77C521.87 358.017 519.88 359.837 517.422 359.837C514.964 359.837 512.973 358.017 512.973 355.77C512.973 353.524 514.964 351.704 517.422 351.704C519.88 351.704 521.87 353.524 521.87 355.77Z" fill="white" fill-opacity="0.3"/>
<path fill-rule="evenodd" clip-rule="evenodd" d="M544.113 355.77C544.113 358.017 542.122 359.837 539.664 359.837C537.206 359.837 535.215 358.017 535.215 355.77C535.215 353.524 537.206 351.704 539.664 351.704C542.122 351.704 544.113 353.524 544.113 355.77Z" fill="white" fill-opacity="0.3"/>
<path fill-rule="evenodd" clip-rule="evenodd" d="M567.839 355.77C567.839 358.017 565.848 359.837 563.39 359.837C560.932 359.837 558.941 358.017 558.941 355.77C558.941 353.524 560.932 351.704 563.39 351.704C565.848 351.704 567.839 353.524 567.839 355.77Z" fill="white" fill-opacity="0.3"/>
<path fill-rule="evenodd" clip-rule="evenodd" d="M590.085 355.77C590.085 358.017 588.094 359.837 585.636 359.837C583.178 359.837 581.188 358.017 581.188 355.77C581.188 353.524 583.178 351.704 585.636 351.704C588.094 351.704 590.085 353.524 590.085 355.77Z" fill="white" fill-opacity="0.3"/>
<path fill-rule="evenodd" clip-rule="evenodd" d="M613.812 355.77C613.812 358.017 611.821 359.837 609.363 359.837C606.905 359.837 604.914 358.017 604.914 355.77C604.914 353.524 606.905 351.704 609.363 351.704C611.821 351.704 613.812 353.524 613.812 355.77Z" fill="white" fill-opacity="0.3"/>
<path fill-rule="evenodd" clip-rule="evenodd" d="M636.058 355.77C636.058 358.017 634.067 359.837 631.609 359.837C629.151 359.837 627.16 358.017 627.16 355.77C627.16 353.524 629.151 351.704 631.609 351.704C634.067 351.704 636.058 353.524 636.058 355.77Z" fill="white" fill-opacity="0.3"/>
<path fill-rule="evenodd" clip-rule="evenodd" d="M659.784 355.77C659.784 358.017 657.794 359.837 655.336 359.837C652.878 359.837 650.887 358.017 650.887 355.77C650.887 353.524 652.878 351.704 655.336 351.704C657.794 351.704 659.784 353.524 659.784 355.77Z" fill="white" fill-opacity="0.3"/>
<path fill-rule="evenodd" clip-rule="evenodd" d="M682.027 355.77C682.027 358.017 680.036 359.837 677.578 359.837C675.12 359.837 673.129 358.017 673.129 355.77C673.129 353.524 675.12 351.704 677.578 351.704C680.036 351.704 682.027 353.524 682.027 355.77Z" fill="white" fill-opacity="0.3"/>
<path fill-rule="evenodd" clip-rule="evenodd" d="M704.273 355.77C704.273 358.017 702.282 359.837 699.824 359.837C697.366 359.837 695.375 358.017 695.375 355.77C695.375 353.524 697.366 351.704 699.824 351.704C702.282 351.704 704.273 353.524 704.273 355.77Z" fill="white" fill-opacity="0.3"/>
<path fill-rule="evenodd" clip-rule="evenodd" d="M727.999 355.77C727.999 358.017 726.008 359.837 723.55 359.837C721.092 359.837 719.102 358.017 719.102 355.77C719.102 353.524 721.092 351.704 723.55 351.704C726.008 351.704 727.999 353.524 727.999 355.77Z" fill="white" fill-opacity="0.3"/>
<path fill-rule="evenodd" clip-rule="evenodd" d="M475.898 377.453C475.898 379.7 473.907 381.519 471.449 381.519C468.991 381.519 467 379.7 467 377.453C467 375.207 468.991 373.388 471.449 373.388C473.907 373.388 475.898 375.207 475.898 377.453Z" fill="white" fill-opacity="0.3"/>
<path fill-rule="evenodd" clip-rule="evenodd" d="M499.624 377.453C499.624 379.7 497.633 381.519 495.175 381.519C492.717 381.519 490.727 379.7 490.727 377.453C490.727 375.207 492.717 373.388 495.175 373.388C497.633 373.388 499.624 375.207 499.624 377.453Z" fill="white" fill-opacity="0.3"/>
<path fill-rule="evenodd" clip-rule="evenodd" d="M521.87 377.453C521.87 379.7 519.88 381.519 517.422 381.519C514.964 381.519 512.973 379.7 512.973 377.453C512.973 375.207 514.964 373.388 517.422 373.388C519.88 373.388 521.87 375.207 521.87 377.453Z" fill="white" fill-opacity="0.3"/>
<path fill-rule="evenodd" clip-rule="evenodd" d="M544.113 377.453C544.113 379.7 542.122 381.519 539.664 381.519C537.206 381.519 535.215 379.7 535.215 377.453C535.215 375.207 537.206 373.388 539.664 373.388C542.122 373.388 544.113 375.207 544.113 377.453Z" fill="white" fill-opacity="0.3"/>
<path fill-rule="evenodd" clip-rule="evenodd" d="M567.839 377.453C567.839 379.7 565.848 381.519 563.39 381.519C560.932 381.519 558.941 379.7 558.941 377.453C558.941 375.207 560.932 373.388 563.39 373.388C565.848 373.388 567.839 375.207 567.839 377.453Z" fill="white" fill-opacity="0.3"/>
<path fill-rule="evenodd" clip-rule="evenodd" d="M590.085 377.453C590.085 379.7 588.094 381.519 585.636 381.519C583.178 381.519 581.188 379.7 581.188 377.453C581.188 375.207 583.178 373.388 585.636 373.388C588.094 373.388 590.085 375.207 590.085 377.453Z" fill="white" fill-opacity="0.3"/>
<path fill-rule="evenodd" clip-rule="evenodd" d="M613.812 377.453C613.812 379.7 611.821 381.519 609.363 381.519C606.905 381.519 604.914 379.7 604.914 377.453C604.914 375.207 606.905 373.388 609.363 373.388C611.821 373.388 613.812 375.207 613.812 377.453Z" fill="white" fill-opacity="0.3"/>
<path fill-rule="evenodd" clip-rule="evenodd" d="M636.058 377.453C636.058 379.7 634.067 381.519 631.609 381.519C629.151 381.519 627.16 379.7 627.16 377.453C627.16 375.207 629.151 373.388 631.609 373.388C634.067 373.388 636.058 375.207 636.058 377.453Z" fill="white" fill-opacity="0.3"/>
<path fill-rule="evenodd" clip-rule="evenodd" d="M659.784 377.453C659.784 379.7 657.794 381.519 655.336 381.519C652.878 381.519 650.887 379.7 650.887 377.453C650.887 375.207 652.878 373.388 655.336 373.388C657.794 373.388 659.784 375.207 659.784 377.453Z" fill="white" fill-opacity="0.3"/>
<path fill-rule="evenodd" clip-rule="evenodd" d="M682.027 377.453C682.027 379.7 680.036 381.519 677.578 381.519C675.12 381.519 673.129 379.7 673.129 377.453C673.129 375.207 675.12 373.388 677.578 373.388C680.036 373.388 682.027 375.207 682.027 377.453Z" fill="white" fill-opacity="0.3"/>
<path fill-rule="evenodd" clip-rule="evenodd" d="M704.273 377.453C704.273 379.7 702.282 381.519 699.824 381.519C697.366 381.519 695.375 379.7 695.375 377.453C695.375 375.207 697.366 373.388 699.824 373.388C702.282 373.388 704.273 375.207 704.273 377.453Z" fill="white" fill-opacity="0.3"/>
<path fill-rule="evenodd" clip-rule="evenodd" d="M727.999 377.453C727.999 379.7 726.008 381.519 723.55 381.519C721.092 381.519 719.102 379.7 719.102 377.453C719.102 375.207 721.092 373.388 723.55 373.388C726.008 373.388 727.999 375.207 727.999 377.453Z" fill="white" fill-opacity="0.3"/>
<path fill-rule="evenodd" clip-rule="evenodd" d="M475.898 397.782C475.898 400.028 473.907 401.848 471.449 401.848C468.991 401.848 467 400.028 467 397.782C467 395.536 468.991 393.716 471.449 393.716C473.907 393.716 475.898 395.536 475.898 397.782Z" fill="white" fill-opacity="0.3"/>
<path fill-rule="evenodd" clip-rule="evenodd" d="M499.624 397.782C499.624 400.028 497.633 401.848 495.175 401.848C492.717 401.848 490.727 400.028 490.727 397.782C490.727 395.536 492.717 393.716 495.175 393.716C497.633 393.716 499.624 395.536 499.624 397.782Z" fill="white" fill-opacity="0.3"/>
<path fill-rule="evenodd" clip-rule="evenodd" d="M521.87 397.782C521.87 400.028 519.88 401.848 517.422 401.848C514.964 401.848 512.973 400.028 512.973 397.782C512.973 395.536 514.964 393.716 517.422 393.716C519.88 393.716 521.87 395.536 521.87 397.782Z" fill="white" fill-opacity="0.3"/>
<path fill-rule="evenodd" clip-rule="evenodd" d="M544.113 397.782C544.113 400.028 542.122 401.848 539.664 401.848C537.206 401.848 535.215 400.028 535.215 397.782C535.215 395.536 537.206 393.716 539.664 393.716C542.122 393.716 544.113 395.536 544.113 397.782Z" fill="white" fill-opacity="0.3"/>
<path fill-rule="evenodd" clip-rule="evenodd" d="M567.839 397.782C567.839 400.028 565.848 401.848 563.39 401.848C560.932 401.848 558.941 400.028 558.941 397.782C558.941 395.536 560.932 393.716 563.39 393.716C565.848 393.716 567.839 395.536 567.839 397.782Z" fill="white" fill-opacity="0.3"/>
<path fill-rule="evenodd" clip-rule="evenodd" d="M590.085 397.782C590.085 400.028 588.094 401.848 585.636 401.848C583.178 401.848 581.188 400.028 581.188 397.782C581.188 395.536 583.178 393.716 585.636 393.716C588.094 393.716 590.085 395.536 590.085 397.782Z" fill="white" fill-opacity="0.3"/>
<path fill-rule="evenodd" clip-rule="evenodd" d="M613.812 397.782C613.812 400.028 611.821 401.848 609.363 401.848C606.905 401.848 604.914 400.028 604.914 397.782C604.914 395.536 606.905 393.716 609.363 393.716C611.821 393.716 613.812 395.536 613.812 397.782Z" fill="white" fill-opacity="0.3"/>
<path fill-rule="evenodd" clip-rule="evenodd" d="M636.058 397.782C636.058 400.028 634.067 401.848 631.609 401.848C629.151 401.848 627.16 400.028 627.16 397.782C627.16 395.536 629.151 393.716 631.609 393.716C634.067 393.716 636.058 395.536 636.058 397.782Z" fill="white" fill-opacity="0.3"/>
<path fill-rule="evenodd" clip-rule="evenodd" d="M659.784 397.782C659.784 400.028 657.794 401.848 655.336 401.848C652.878 401.848 650.887 400.028 650.887 397.782C650.887 395.536 652.878 393.716 655.336 393.716C657.794 393.716 659.784 395.536 659.784 397.782Z" fill="white" fill-opacity="0.3"/>
<path fill-rule="evenodd" clip-rule="evenodd" d="M682.027 397.782C682.027 400.028 680.036 401.848 677.578 401.848C675.12 401.848 673.129 400.028 673.129 397.782C673.129 395.536 675.12 393.716 677.578 393.716C680.036 393.716 682.027 395.536 682.027 397.782Z" fill="white" fill-opacity="0.3"/>
<path fill-rule="evenodd" clip-rule="evenodd" d="M704.273 397.782C704.273 400.028 702.282 401.848 699.824 401.848C697.366 401.848 695.375 400.028 695.375 397.782C695.375 395.536 697.366 393.716 699.824 393.716C702.282 393.716 704.273 395.536 704.273 397.782Z" fill="white" fill-opacity="0.3"/>
<path fill-rule="evenodd" clip-rule="evenodd" d="M727.999 397.782C727.999 400.028 726.008 401.848 723.55 401.848C721.092 401.848 719.102 400.028 719.102 397.782C719.102 395.536 721.092 393.716 723.55 393.716C726.008 393.716 727.999 395.536 727.999 397.782Z" fill="white" fill-opacity="0.3"/>
<path fill-rule="evenodd" clip-rule="evenodd" d="M499.624 147.066C499.624 149.312 497.633 151.131 495.175 151.131C492.717 151.131 490.727 149.312 490.727 147.066C490.727 144.819 492.717 143 495.175 143C497.633 143 499.624 144.819 499.624 147.066Z" fill="white" fill-opacity="0.3"/>
<path fill-rule="evenodd" clip-rule="evenodd" d="M521.87 147.066C521.87 149.312 519.88 151.131 517.422 151.131C514.964 151.131 512.973 149.312 512.973 147.066C512.973 144.819 514.964 143 517.422 143C519.88 143 521.87 144.819 521.87 147.066Z" fill="white" fill-opacity="0.3"/>
<path fill-rule="evenodd" clip-rule="evenodd" d="M544.113 147.066C544.113 149.312 542.122 151.131 539.664 151.131C537.206 151.131 535.215 149.312 535.215 147.066C535.215 144.819 537.206 143 539.664 143C542.122 143 544.113 144.819 544.113 147.066Z" fill="white" fill-opacity="0.3"/>
<path fill-rule="evenodd" clip-rule="evenodd" d="M567.839 147.066C567.839 149.312 565.848 151.131 563.39 151.131C560.932 151.131 558.941 149.312 558.941 147.066C558.941 144.819 560.932 143 563.39 143C565.848 143 567.839 144.819 567.839 147.066Z" fill="white" fill-opacity="0.3"/>
<path fill-rule="evenodd" clip-rule="evenodd" d="M590.085 147.066C590.085 149.312 588.094 151.131 585.636 151.131C583.178 151.131 581.188 149.312 581.188 147.066C581.188 144.819 583.178 143 585.636 143C588.094 143 590.085 144.819 590.085 147.066Z" fill="white" fill-opacity="0.3"/>
<path fill-rule="evenodd" clip-rule="evenodd" d="M613.812 147.066C613.812 149.312 611.821 151.131 609.363 151.131C606.905 151.131 604.914 149.312 604.914 147.066C604.914 144.819 606.905 143 609.363 143C611.821 143 613.812 144.819 613.812 147.066Z" fill="white" fill-opacity="0.3"/>
<path fill-rule="evenodd" clip-rule="evenodd" d="M636.058 147.066C636.058 149.312 634.067 151.131 631.609 151.131C629.151 151.131 627.16 149.312 627.16 147.066C627.16 144.819 629.151 143 631.609 143C634.067 143 636.058 144.819 636.058 147.066Z" fill="white" fill-opacity="0.3"/>
<path fill-rule="evenodd" clip-rule="evenodd" d="M659.784 147.066C659.784 149.312 657.794 151.131 655.336 151.131C652.878 151.131 650.887 149.312 650.887 147.066C650.887 144.819 652.878 143 655.336 143C657.794 143 659.784 144.819 659.784 147.066Z" fill="white" fill-opacity="0.3"/>
<path fill-rule="evenodd" clip-rule="evenodd" d="M682.027 147.066C682.027 149.312 680.036 151.131 677.578 151.131C675.12 151.131 673.129 149.312 673.129 147.066C673.129 144.819 675.12 143 677.578 143C680.036 143 682.027 144.819 682.027 147.066Z" fill="white" fill-opacity="0.3"/>
<path fill-rule="evenodd" clip-rule="evenodd" d="M704.273 147.066C704.273 149.312 702.282 151.131 699.824 151.131C697.366 151.131 695.375 149.312 695.375 147.066C695.375 144.819 697.366 143 699.824 143C702.282 143 704.273 144.819 704.273 147.066Z" fill="white" fill-opacity="0.3"/>
<path fill-rule="evenodd" clip-rule="evenodd" d="M727.999 147.066C727.999 149.312 726.008 151.131 723.55 151.131C721.092 151.131 719.102 149.312 719.102 147.066C719.102 144.819 721.092 143 723.55 143C726.008 143 727.999 144.819 727.999 147.066Z" fill="white" fill-opacity="0.3"/>
<ellipse opacity="0.4" cx="146" cy="320.5" rx="147" ry="145.5" fill="url(#paint0_linear_811:1009)"/>
<g clip-path="url(#clip0_811:1009)">
<path d="M443.988 288.61C443.988 288.61 456.813 234.264 500.073 228.289C500.073 228.289 508.49 227.256 511.294 236.522C514.098 245.789 497.361 245.857 487.017 249.583C476.67 253.311 452.554 269.115 443.988 288.61Z" fill="#D2E0FF"/>
<path d="M443.006 278.439C443.006 278.439 438.509 233.422 470.078 217.447C470.078 217.447 476.254 214.438 480.844 220.798C485.435 227.159 472.63 231.621 465.687 237.202C458.743 242.783 444.434 261.245 443.006 278.439Z" fill="#D2E0FF"/>
<path d="M491.555 386.41C491.555 386.41 495.135 364.634 511.957 368.097C511.957 368.097 522.855 371.797 527.651 378.251C527.651 378.251 505.733 381.823 506.647 385.859C507.56 389.896 530.783 380.121 530.783 380.121C530.783 380.121 546.866 395.868 548.853 403.613C548.853 403.613 524.531 399.043 526.412 402.728C528.294 406.417 553.384 412.349 553.384 412.349C553.384 412.349 564.088 430.591 553.638 437.925C543.189 445.258 535.557 442.289 533.784 439.655C532.011 437.02 525.519 418.347 523.28 419.703C521.042 421.059 521.724 435.01 526.435 441.225C526.435 441.225 504.565 440.408 501.859 429.92C499.152 419.431 504.291 414.019 502.501 407.57C500.711 401.118 497.359 397.144 496.805 400.895C496.251 404.647 501.236 414.855 498.764 421.487C496.288 428.118 495.121 433.183 489.779 424.467C484.437 415.752 479.523 398.417 485.542 392.414C491.555 386.41 491.555 386.41 491.555 386.41Z" fill="#BBD0FF"/>
<path d="M546.783 430.305C546.783 430.305 512.002 385.56 491.554 386.41C491.554 386.41 483.435 389.625 472.183 387.966L468.562 389.276C468.562 389.276 482.798 390.127 485.539 392.414C485.539 392.411 497.362 375.297 546.783 430.305Z" fill="#BBD0FF"/>
<path d="M472.184 387.966C472.184 387.966 457.48 384.449 444.641 394.138L445.908 395.954C445.908 395.954 461.12 388.235 470.608 389.428C480.098 390.618 472.184 387.966 472.184 387.966Z" fill="#BBD0FF"/>
<path d="M439.842 186.283L440.319 184.827C440.827 183.271 442.503 182.42 444.059 182.928L456.276 186.919C457.829 187.427 458.683 189.103 458.175 190.659L457.492 192.743C457.392 193.048 457.064 193.214 456.761 193.114C456.456 193.014 456.29 192.686 456.39 192.383L457.07 190.299C457.378 189.354 456.861 188.332 455.914 188.024L443.697 184.033C442.752 183.725 441.73 184.242 441.421 185.189L440.944 186.645C440.636 187.59 441.153 188.612 442.101 188.92L450.212 191.57C450.517 191.67 450.683 191.998 450.583 192.301C450.483 192.606 450.155 192.772 449.852 192.672L441.741 190.022C440.185 189.514 439.334 187.836 439.842 186.283Z" fill="#F99746"/>
<path d="M427.152 182.834L428.005 180.225C428.796 177.801 431.554 176.519 434.149 177.367L452.516 183.368C452.822 183.468 452.987 183.796 452.887 184.099C452.787 184.404 452.459 184.57 452.156 184.47L433.79 178.472C431.803 177.824 429.701 178.772 429.107 180.587L428.254 183.197C427.66 185.012 428.796 187.016 430.783 187.667L451.705 194.502C453.692 195.152 455.794 194.202 456.388 192.389C456.488 192.084 456.816 191.918 457.119 192.018C457.424 192.118 457.59 192.446 457.49 192.749C456.699 195.172 453.941 196.454 451.346 195.606L430.424 188.772C427.828 187.918 426.361 185.255 427.152 182.834Z" fill="#F99746"/>
<path d="M84.5273 405.72C84.5273 405.72 88.8071 456.712 144.056 460.049H304.279L309.807 394.118L84.5273 405.72Z" fill="#C0CCFF"/>
<g opacity="0.5">
<path opacity="0.5" d="M315.468 376.407L313.963 404.829L312.504 404.783L306.731 460.052H153.785C168.866 459.152 201.382 451.913 187.058 404.829C186.31 402.371 184.277 396.907 181.825 392.979C181.762 392.873 181.694 392.773 181.631 392.671C181.594 392.614 181.556 392.554 181.519 392.499C174.162 381.18 165.799 377.241 157.243 376.407H315.468Z" fill="#B6C4FF"/>
</g>
<path d="M315.503 376.407L312.539 404.781L306.767 460.049H153.82C168.901 459.15 201.417 451.91 187.096 404.826C186.348 402.368 184.315 396.904 181.863 392.976C181.8 392.871 181.732 392.771 181.669 392.668C181.632 392.611 181.592 392.551 181.557 392.497L315.503 376.407Z" fill="#8D9EFF"/>
<path d="M135.684 316.306H221.299L207.483 330.12L161.105 345.339L135.684 316.306Z" fill="#C0CCFF"/>
<path d="M318.205 324.713L315.473 376.407L313.968 404.829L312.509 404.783L186.07 400.75C184.702 397.844 183.289 395.266 181.833 392.979C181.77 392.873 181.701 392.774 181.639 392.671C181.601 392.614 181.564 392.554 181.527 392.499C174.17 381.18 165.807 377.241 157.251 376.407H157.233C137.017 374.457 115.701 389.833 103.904 366.176C84.509 327.294 129.254 303.22 155.663 323.446C167.306 332.364 176.377 335.304 183.409 334.859C192.759 334.262 198.509 327.676 201.932 321.17C205.43 314.533 206.501 307.987 206.501 307.987L318.205 324.713Z" fill="#8D9EFF"/>
<path d="M299.365 308.652L212.553 324.539C212.553 324.539 258.537 310.893 195.043 271.272C145.448 240.324 145.142 175.783 212.839 179.414C290.271 183.568 319.205 303.985 319.205 303.985L299.365 308.652Z" fill="#8D9EFF"/>
<path d="M701.684 444.936V455.084C701.684 458.399 699.001 461.082 695.686 461.082H282.717L272.219 301.156H500.827C522.64 301.156 540.324 318.838 540.324 340.648V342.059C540.324 351.625 545.909 360.315 554.614 364.286L636.323 401.549L643.301 404.732L646.873 406.359L649.271 407.453L689.331 425.723C696.856 429.157 701.684 436.665 701.684 444.936Z" fill="#8C9DF4"/>
<path d="M251.818 301.156H216.832C205.018 301.156 199.051 315.392 207.334 323.814L226.951 343.76C235.31 352.259 249.768 346.341 249.768 334.422V314.476C249.774 307.119 259.173 301.156 251.818 301.156Z" fill="#060633"/>
<path d="M218.008 347.768H234.114V303.396H208.492L218.008 347.768Z" fill="#060633"/>
<path d="M216.321 301.157H196.703C184.889 301.157 178.922 315.394 187.205 323.816L206.822 343.762C215.181 352.26 229.64 346.343 229.64 334.424V314.478C229.64 307.121 223.675 301.157 216.321 301.157Z" fill="#6980E2"/>
<path d="M520.504 444.936V455.082C520.504 458.393 517.821 461.082 514.509 461.082H243.816V301.153H319.647C341.463 301.153 359.147 318.838 359.147 340.648V342.053C359.147 351.625 364.732 360.309 373.437 364.28L508.153 425.72C515.679 429.157 520.504 436.668 520.504 444.936Z" fill="#5067C9"/>
<path d="M411.967 373.17L528.42 425.112C530.892 426.214 533.568 426.785 536.274 426.785H664.21C667.451 426.785 668.407 422.372 665.458 421.03L553.536 370.081C551.951 369.359 550.23 368.99 548.488 368.996L412.738 369.501C410.677 369.507 410.08 372.328 411.967 373.17Z" fill="#6980E2"/>
<path d="M597.658 401.209L594.05 401.635C592.122 401.863 589.336 401.486 587.854 400.798L585.079 399.511C583.597 398.823 583.963 398.075 585.887 397.846L589.496 397.421C591.423 397.193 594.209 397.569 595.691 398.257L598.466 399.545C599.948 400.233 599.586 400.981 597.658 401.209Z" fill="#233862"/>
<path d="M584.18 392.554V398.846L599.377 400.45L599.374 394.426L584.18 392.554Z" fill="#233862"/>
<path d="M580.647 401.212L577.038 401.638C575.111 401.866 572.324 401.489 570.842 400.801L568.067 399.514C566.585 398.826 566.951 398.078 568.875 397.849L572.484 397.424C574.411 397.195 577.198 397.572 578.68 398.26L581.455 399.548C582.939 400.236 582.574 400.984 580.647 401.212Z" fill="#233862"/>
<path d="M567.168 392.557L567.171 398.846L582.365 400.453L582.363 394.429L567.168 392.557Z" fill="#233862"/>
<path d="M563.634 401.212L560.025 401.638C558.098 401.866 555.311 401.489 553.83 400.801L551.052 399.514C549.57 398.826 549.935 398.078 551.86 397.849L555.468 397.424C557.396 397.195 560.182 397.572 561.664 398.26L564.439 399.548C565.926 400.236 565.561 400.987 563.634 401.212Z" fill="#233862"/>
<path d="M550.156 392.557V398.848L565.351 400.453V394.429L550.156 392.557Z" fill="#233862"/>
<path d="M546.623 401.215L543.014 401.64C541.087 401.869 538.301 401.492 536.819 400.804L534.044 399.516C532.562 398.828 532.927 398.08 534.852 397.852L538.461 397.427C540.388 397.198 543.174 397.575 544.656 398.263L547.431 399.551C548.913 400.239 548.548 400.987 546.623 401.215Z" fill="#233862"/>
<path d="M533.145 392.559V398.848L548.339 400.456V394.432L533.145 392.559Z" fill="#233862"/>
<path d="M529.608 401.215L525.999 401.64C524.072 401.869 521.285 401.492 519.803 400.804L517.028 399.516C515.546 398.828 515.912 398.08 517.836 397.852L521.445 397.427C523.372 397.198 526.159 397.575 527.641 398.263L530.416 399.551C531.898 400.239 531.532 400.99 529.608 401.215Z" fill="#233862"/>
<path d="M516.129 392.562V398.851L531.324 400.456V394.432L516.129 392.562Z" fill="#233862"/>
<path d="M512.597 401.218L508.988 401.643C507.061 401.872 504.274 401.495 502.792 400.807L500.017 399.519C498.536 398.831 498.898 398.083 500.825 397.855L504.434 397.43C506.361 397.201 509.148 397.578 510.63 398.266L513.405 399.554C514.887 400.242 514.524 400.99 512.597 401.218Z" fill="#233862"/>
<path d="M499.117 392.562V398.854L514.312 400.459V394.435L499.117 392.562Z" fill="#233862"/>
<path d="M561.584 388.765L557.975 389.191C556.048 389.419 553.262 389.042 551.78 388.354L549.005 387.067C547.523 386.379 547.888 385.631 549.813 385.405L553.424 384.98C555.352 384.752 558.138 385.128 559.62 385.816L562.395 387.104C563.874 387.789 563.511 388.537 561.584 388.765Z" fill="#233862"/>
<path d="M548.105 380.11V386.402L563.3 388.006V381.982L548.105 380.11Z" fill="#233862"/>
<path d="M578.42 388.762L574.811 389.188C572.884 389.416 570.098 389.039 568.616 388.351L565.841 387.064C564.359 386.376 564.724 385.628 566.649 385.4L570.257 384.974C572.185 384.746 574.971 385.123 576.453 385.811L579.228 387.098C580.71 387.789 580.347 388.537 578.42 388.762Z" fill="#233862"/>
<path d="M564.941 380.11V386.399L580.136 388.003V381.98L564.941 380.11Z" fill="#233862"/>
<path d="M544.572 388.765L540.96 389.191C539.033 389.419 536.246 389.042 534.764 388.354L531.989 387.067C530.507 386.379 530.873 385.631 532.797 385.403L536.406 384.977C538.333 384.749 541.12 385.126 542.602 385.814L545.377 387.101C546.861 387.792 546.499 388.54 544.572 388.765Z" fill="#233862"/>
<path d="M531.09 380.113L531.093 386.402L546.287 388.006L546.285 381.983L531.09 380.113Z" fill="#233862"/>
<path d="M527.557 388.768L523.948 389.194C522.021 389.422 519.234 389.045 517.753 388.357L514.977 387.07C513.496 386.382 513.861 385.634 515.785 385.408L519.394 384.983C521.321 384.754 524.108 385.131 525.59 385.819L528.365 387.107C529.847 387.792 529.484 388.54 527.557 388.768Z" fill="#233862"/>
<path d="M514.078 380.113L514.081 386.405L529.276 388.009V381.985L514.078 380.113Z" fill="#233862"/>
<path d="M510.545 388.771L506.936 389.197C505.009 389.425 502.223 389.048 500.741 388.36L497.966 387.073C496.484 386.385 496.849 385.637 498.774 385.408L502.383 384.983C504.31 384.755 507.096 385.131 508.578 385.819L511.353 387.107C512.838 387.795 512.472 388.543 510.545 388.771Z" fill="#233862"/>
<path d="M497.066 380.115V386.405L512.261 388.009V381.988L497.066 380.115Z" fill="#233862"/>
<path d="M493.536 388.771L489.928 389.197C488 389.425 485.214 389.048 483.732 388.36L480.954 387.073C479.472 386.385 479.838 385.637 481.762 385.408L485.371 384.983C487.298 384.755 490.085 385.131 491.566 385.819L494.341 387.107C495.826 387.795 495.461 388.543 493.536 388.771Z" fill="#233862"/>
<path d="M480.055 380.115V386.407L495.249 388.012V381.988L480.055 380.115Z" fill="#233862"/>
<path d="M476.522 388.774L472.913 389.199C470.986 389.428 468.199 389.051 466.717 388.363L463.942 387.075C462.46 386.387 462.826 385.639 464.75 385.411L468.359 384.986C470.286 384.757 473.073 385.134 474.555 385.822L477.33 387.11C478.811 387.798 478.446 388.546 476.522 388.774Z" fill="#233862"/>
<path d="M463.043 380.118V386.408L478.238 388.012V381.988L463.043 380.118Z" fill="#233862"/>
<path d="M619.209 414.581L615.335 415.038C613.268 415.283 610.273 414.878 608.685 414.141L605.705 412.76C604.114 412.023 604.505 411.218 606.572 410.976L610.447 410.519C612.514 410.273 615.506 410.679 617.096 411.415L620.077 412.797C621.67 413.536 621.279 414.338 619.209 414.581Z" fill="#233862"/>
<path d="M604.738 405.292V412.043L621.049 413.767V407.301L604.738 405.292Z" fill="#233862"/>
<path d="M637.279 414.581L633.405 415.038C631.338 415.283 628.343 414.878 626.756 414.141L623.775 412.76C622.185 412.023 622.576 411.218 624.643 410.976L628.517 410.519C630.584 410.273 633.579 410.679 635.167 411.415L638.147 412.797C639.737 413.533 639.349 414.336 637.279 414.581Z" fill="#233862"/>
<path d="M622.812 405.292V412.043L639.124 413.765V407.299L622.812 405.292Z" fill="#233862"/>
<path d="M600.947 414.584L597.073 415.041C595.006 415.286 592.014 414.881 590.423 414.144L587.443 412.763C585.853 412.026 586.244 411.221 588.311 410.978L592.185 410.522C594.252 410.276 597.244 410.681 598.835 411.418L601.815 412.8C603.405 413.536 603.014 414.341 600.947 414.584Z" fill="#233862"/>
<path d="M586.48 405.295V412.046L602.792 413.768L602.789 407.304L586.48 405.295Z" fill="#233862"/>
<path d="M582.689 414.587L578.815 415.044C576.748 415.289 573.753 414.884 572.166 414.147L569.185 412.766C567.595 412.029 567.986 411.224 570.053 410.981L573.927 410.525C575.994 410.279 578.986 410.684 580.577 411.421L583.557 412.803C585.148 413.539 584.757 414.341 582.689 414.587Z" fill="#233862"/>
<path d="M568.219 405.295V412.046L584.53 413.77V407.304L568.219 405.295Z" fill="#233862"/>
<path d="M564.424 414.587L560.549 415.043C558.482 415.289 555.487 414.884 553.9 414.147L550.919 412.765C549.329 412.029 549.72 411.224 551.787 410.981L555.662 410.524C557.729 410.279 560.721 410.684 562.311 411.421L565.292 412.803C566.882 413.539 566.494 414.344 564.424 414.587Z" fill="#233862"/>
<path d="M549.957 405.297V412.049L566.268 413.773V407.307L549.957 405.297Z" fill="#233862"/>
<path d="M546.162 414.59L542.288 415.046C540.221 415.292 537.229 414.887 535.638 414.15L532.658 412.768C531.067 412.032 531.459 411.227 533.526 410.984L537.4 410.527C539.467 410.282 542.462 410.687 544.049 411.424L547.03 412.805C548.62 413.542 548.229 414.344 546.162 414.59Z" fill="#233862"/>
<path d="M531.691 405.297L531.694 412.052L548.002 413.773V407.307L531.691 405.297Z" fill="#233862"/>
<path d="M527.901 414.59L524.026 415.046C521.959 415.292 518.964 414.887 517.377 414.15L514.396 412.768C512.806 412.032 513.197 411.227 515.264 410.984L519.138 410.527C521.205 410.285 524.197 410.687 525.788 411.424L528.768 412.805C530.359 413.542 529.968 414.347 527.901 414.59Z" fill="#233862"/>
<path d="M513.43 405.3V412.052L529.741 413.776V407.31L513.43 405.3Z" fill="#233862"/>
<path d="M499.207 376.867L495.519 377.292C493.552 377.521 490.702 377.144 489.192 376.456L486.357 375.168C484.844 374.48 485.215 373.732 487.182 373.504L490.871 373.079C492.838 372.85 495.684 373.227 497.197 373.915L500.033 375.202C501.546 375.89 501.175 376.638 499.207 376.867Z" fill="#233862"/>
<path d="M485.438 368.211V374.5L500.958 376.107V370.084L485.438 368.211Z" fill="#233862"/>
<path d="M481.837 376.867L478.151 377.292C476.184 377.521 473.335 377.144 471.825 376.456L468.99 375.168C467.476 374.48 467.848 373.732 469.815 373.507L473.5 373.081C475.468 372.853 478.317 373.23 479.83 373.918L482.665 375.205C484.176 375.89 483.804 376.638 481.837 376.867Z" fill="#233862"/>
<path d="M468.07 368.214V374.503L483.59 376.107V370.084L468.07 368.214Z" fill="#233862"/>
<path d="M464.459 376.87L460.773 377.295C458.805 377.523 455.959 377.147 454.446 376.459L451.611 375.171C450.097 374.483 450.469 373.735 452.436 373.507L456.125 373.081C458.092 372.853 460.938 373.23 462.451 373.918L465.286 375.205C466.797 375.893 466.426 376.641 464.459 376.87Z" fill="#233862"/>
<path d="M450.688 368.214V374.503L466.208 376.11V370.087L450.688 368.214Z" fill="#233862"/>
<path d="M447.082 376.87L443.394 377.295C441.427 377.523 438.58 377.147 437.067 376.459L434.232 375.171C432.719 374.483 433.09 373.735 435.057 373.507L438.746 373.081C440.713 372.853 443.559 373.23 445.073 373.918L447.908 375.205C449.421 375.893 449.05 376.644 447.082 376.87Z" fill="#233862"/>
<path d="M433.312 368.217V374.506L448.833 376.11V370.087L433.312 368.217Z" fill="#233862"/>
<path d="M533.962 376.864L530.276 377.289C528.309 377.518 525.46 377.141 523.95 376.453L521.115 375.165C519.601 374.477 519.973 373.73 521.94 373.501L525.628 373.076C527.596 372.847 530.442 373.224 531.955 373.912L534.79 375.2C536.301 375.888 535.929 376.636 533.962 376.864Z" fill="#233862"/>
<path d="M520.191 368.208L520.194 374.497L535.712 376.102V370.081L520.191 368.208Z" fill="#233862"/>
<path d="M533.962 370.84L530.276 371.266C528.309 371.494 525.46 371.117 523.95 370.429L521.115 369.142C519.601 368.454 519.973 367.706 521.94 367.477L525.626 367.052C527.593 366.824 530.442 367.201 531.952 367.889L534.787 369.176C536.301 369.864 535.929 370.612 533.962 370.84Z" fill="#F9DDBF"/>
<path d="M552.914 376.864L549.226 377.289C547.258 377.518 544.409 377.141 542.899 376.453L540.064 375.165C538.551 374.477 538.922 373.73 540.889 373.501L544.578 373.076C546.545 372.847 549.391 373.224 550.904 373.912L553.739 375.2C555.253 375.888 554.882 376.636 552.914 376.864Z" fill="#233862"/>
<path d="M539.145 368.208V374.497L554.665 376.102V370.081L539.145 368.208Z" fill="#233862"/>
<path d="M552.911 370.84L549.225 371.266C547.258 371.494 544.411 371.117 542.895 370.429L540.06 369.142C538.547 368.454 538.918 367.706 540.885 367.477L544.574 367.052C546.541 366.824 549.387 367.201 550.901 367.889L553.736 369.176C555.252 369.864 554.881 370.612 552.911 370.84Z" fill="#F9DDBF"/>
<path d="M516.587 376.864L512.901 377.289C510.934 377.518 508.088 377.141 506.575 376.453L503.74 375.165C502.226 374.477 502.598 373.729 504.565 373.504L508.25 373.079C510.218 372.85 513.067 373.227 514.577 373.915L517.412 375.203C518.926 375.888 518.554 376.636 516.587 376.864Z" fill="#233862"/>
<path d="M502.82 368.208L502.823 374.5L518.341 376.105V370.081L502.82 368.208Z" fill="#233862"/>
<path d="M597.657 395.186L594.046 395.611C592.119 395.84 589.332 395.463 587.85 394.775L585.075 393.487C583.593 392.799 583.959 392.051 585.883 391.826L589.492 391.4C591.419 391.172 594.206 391.549 595.687 392.237L598.465 393.524C599.947 394.21 599.585 394.96 597.657 395.186Z" fill="#F9DDBF"/>
<path d="M580.647 395.189L577.038 395.614C575.111 395.842 572.324 395.466 570.842 394.778L568.067 393.49C566.585 392.802 566.951 392.054 568.875 391.829L572.484 391.403C574.411 391.175 577.198 391.552 578.68 392.24L581.455 393.527C582.936 394.212 582.574 394.96 580.647 395.189Z" fill="#F9DDBF"/>
<path d="M563.631 395.189L560.022 395.614C558.095 395.842 555.309 395.466 553.827 394.778L551.052 393.49C549.57 392.802 549.935 392.054 551.86 391.829L555.468 391.403C557.396 391.175 560.182 391.552 561.664 392.24L564.439 393.527C565.924 394.215 565.558 394.963 563.631 395.189Z" fill="#F9DDBF"/>
<path d="M546.619 395.191L543.011 395.617C541.083 395.845 538.297 395.468 536.815 394.78L534.04 393.493C532.558 392.805 532.924 392.057 534.848 391.829L538.457 391.403C540.384 391.175 543.17 391.552 544.652 392.24L547.427 393.527C548.912 394.215 548.547 394.963 546.619 395.191Z" fill="#F9DDBF"/>
<path d="M529.609 395.191L526 395.617C524.073 395.845 521.286 395.468 519.804 394.78L517.029 393.493C515.547 392.805 515.91 392.057 517.837 391.831L521.449 391.406C523.376 391.178 526.162 391.555 527.644 392.243L530.419 393.53C531.898 394.218 531.533 394.966 529.609 395.191Z" fill="#F9DDBF"/>
<path d="M512.596 395.194L508.984 395.62C507.057 395.848 504.27 395.471 502.789 394.783L500.013 393.496C498.532 392.808 498.894 392.06 500.821 391.834L504.43 391.409C506.357 391.181 509.144 391.557 510.626 392.245L513.401 393.533C514.886 394.218 514.52 394.966 512.596 395.194Z" fill="#F9DDBF"/>
<path d="M561.584 382.742L557.975 383.167C556.048 383.396 553.262 383.019 551.78 382.331L549.005 381.043C547.523 380.355 547.888 379.607 549.813 379.379L553.422 378.954C555.349 378.725 558.135 379.102 559.617 379.79L562.392 381.078C563.874 381.766 563.511 382.514 561.584 382.742Z" fill="#F9DDBF"/>
<path d="M578.42 382.739L574.811 383.164C572.884 383.393 570.098 383.016 568.616 382.328L565.841 381.04C564.359 380.352 564.724 379.604 566.649 379.376L570.257 378.951C572.185 378.722 574.971 379.099 576.453 379.787L579.228 381.075C580.71 381.766 580.344 382.514 578.42 382.739Z" fill="#F9DDBF"/>
<path d="M544.573 382.745L540.964 383.17C539.037 383.398 536.25 383.022 534.768 382.334L531.993 381.046C530.511 380.358 530.877 379.61 532.801 379.385L536.41 378.959C538.337 378.731 541.124 379.108 542.605 379.796L545.381 381.083C546.862 381.768 546.5 382.516 544.573 382.745Z" fill="#F9DDBF"/>
<path d="M527.558 382.745L523.949 383.17C522.022 383.398 519.235 383.022 517.753 382.334L514.978 381.046C513.497 380.358 513.859 379.61 515.786 379.385L519.395 378.959C521.322 378.731 524.109 379.108 525.591 379.796L528.366 381.083C529.848 381.768 529.485 382.516 527.558 382.745Z" fill="#F9DDBF"/>
<path d="M510.544 382.748L506.935 383.173C505.008 383.401 502.222 383.025 500.74 382.337L497.962 381.049C496.48 380.361 496.845 379.613 498.77 379.388L502.379 378.962C504.306 378.734 507.092 379.111 508.574 379.799L511.349 381.086C512.834 381.771 512.471 382.519 510.544 382.748Z" fill="#F9DDBF"/>
<path d="M493.533 382.748L489.925 383.173C487.997 383.401 485.211 383.025 483.729 382.337L480.954 381.049C479.472 380.361 479.838 379.613 481.762 379.388L485.371 378.962C487.298 378.734 490.085 379.111 491.566 379.799L494.341 381.086C495.826 381.771 495.461 382.522 493.533 382.748Z" fill="#F9DDBF"/>
<path d="M476.522 382.751L472.913 383.176C470.986 383.404 468.199 383.027 466.717 382.339L463.942 381.052C462.46 380.364 462.826 379.616 464.75 379.388L468.359 378.962C470.286 378.734 473.073 379.111 474.555 379.799L477.33 381.086C478.811 381.774 478.446 382.522 476.522 382.751Z" fill="#F9DDBF"/>
<path d="M619.209 408.118L615.335 408.575C613.268 408.82 610.273 408.415 608.685 407.678L605.705 406.297C604.114 405.56 604.505 404.755 606.572 404.512L610.447 404.056C612.514 403.813 615.506 404.215 617.096 404.952L620.077 406.334C621.667 407.07 621.279 407.872 619.209 408.118Z" fill="#F9DDBF"/>
<path d="M637.279 408.115L633.405 408.572C631.338 408.817 628.343 408.412 626.756 407.675L623.775 406.294C622.185 405.557 622.576 404.752 624.643 404.509L628.517 404.053C630.584 403.807 633.579 404.213 635.167 404.949L638.147 406.331C639.738 407.067 639.346 407.872 637.279 408.115Z" fill="#F9DDBF"/>
<path d="M600.947 408.118L597.073 408.575C595.006 408.82 592.014 408.415 590.423 407.678L587.443 406.297C585.853 405.56 586.244 404.755 588.311 404.512L592.185 404.056C594.252 403.81 597.244 404.216 598.835 404.952L601.815 406.334C603.405 407.07 603.014 407.875 600.947 408.118Z" fill="#F9DDBF"/>
<path d="M582.689 408.121L578.815 408.578C576.748 408.823 573.753 408.418 572.166 407.681L569.185 406.299C567.595 405.563 567.986 404.758 570.053 404.515L573.927 404.058C575.994 403.813 578.986 404.218 580.577 404.955L583.557 406.337C585.148 407.073 584.757 407.875 582.689 408.121Z" fill="#F9DDBF"/>
<path d="M564.424 408.121L560.55 408.578C558.482 408.82 555.49 408.418 553.9 407.681L550.919 406.299C549.329 405.563 549.72 404.758 551.787 404.515L555.662 404.058C557.729 403.813 560.721 404.218 562.311 404.955L565.292 406.337C566.882 407.073 566.491 407.878 564.424 408.121Z" fill="#F9DDBF"/>
<path d="M546.162 408.124L542.288 408.58C540.221 408.826 537.229 408.42 535.638 407.684L532.658 406.302C531.067 405.566 531.459 404.761 533.526 404.518L537.4 404.061C539.467 403.816 542.459 404.221 544.049 404.958L547.03 406.339C548.62 407.076 548.229 407.878 546.162 408.124Z" fill="#F9DDBF"/>
<path d="M527.897 408.124L524.022 408.58C521.955 408.826 518.96 408.42 517.373 407.684L514.392 406.302C512.802 405.566 513.193 404.761 515.26 404.518L519.134 404.061C521.201 403.816 524.194 404.221 525.784 404.958L528.765 406.339C530.355 407.079 529.966 407.881 527.897 408.124Z" fill="#F9DDBF"/>
<path d="M499.207 370.843L495.519 371.269C493.552 371.497 490.705 371.12 489.192 370.432L486.357 369.145C484.844 368.457 485.215 367.709 487.182 367.483L490.871 367.058C492.838 366.829 495.687 367.206 497.2 367.894L500.035 369.182C501.546 369.867 501.175 370.615 499.207 370.843Z" fill="#F9DDBF"/>
<path d="M481.837 370.843L478.151 371.269C476.184 371.497 473.338 371.12 471.825 370.432L468.99 369.145C467.476 368.457 467.848 367.709 469.815 367.483L473.5 367.058C475.468 366.829 478.317 367.206 479.83 367.894L482.665 369.182C484.176 369.867 483.804 370.618 481.837 370.843Z" fill="#F9DDBF"/>
<path d="M464.457 370.846L460.769 371.271C458.801 371.5 455.955 371.123 454.442 370.435L451.607 369.148C450.094 368.46 450.465 367.712 452.432 367.483L456.121 367.058C458.088 366.829 460.934 367.206 462.447 367.894L465.282 369.182C466.796 369.87 466.425 370.618 464.457 370.846Z" fill="#F9DDBF"/>
<path d="M447.082 370.848L443.394 371.274C441.427 371.502 438.577 371.125 437.067 370.437L434.232 369.15C432.719 368.462 433.09 367.714 435.057 367.488L438.746 367.063C440.713 366.835 443.559 367.211 445.073 367.899L447.908 369.187C449.421 369.872 449.05 370.623 447.082 370.848Z" fill="#F9DDBF"/>
<path d="M516.585 370.84L512.897 371.266C510.929 371.494 508.08 371.117 506.567 370.429L503.732 369.142C502.219 368.454 502.59 367.706 504.557 367.48L508.246 367.055C510.213 366.827 513.059 367.203 514.572 367.891L517.408 369.179C518.924 369.864 518.552 370.615 516.585 370.84Z" fill="#F9DDBF"/>
<path d="M406.843 359.176C405.219 357.854 407.317 349.926 407.317 349.926C407.317 349.926 416.465 344.44 416.916 349.65C417.367 354.859 423.765 358.037 427.5 359.17C430.078 359.955 430.698 361.522 430.832 362.422L406.843 359.176Z" fill="#182B49"/>
<path d="M384.336 361.157C382.711 359.835 384.809 351.908 384.809 351.908C384.809 351.908 393.957 346.421 394.408 351.631C394.859 356.841 401.258 360.018 404.992 361.151C407.57 361.936 408.187 363.507 408.324 364.403L384.336 361.157Z" fill="#233862"/>
<path d="M380.02 273.602C380.02 273.602 417.667 282.882 420.448 294.981C423.229 307.079 417.736 351.234 417.736 351.234C417.736 351.234 413.073 352.681 406.747 350.363C406.747 350.363 404.52 336.078 404.111 322.569C403.846 313.771 407.098 304.313 405.205 304.128C400.405 303.659 354.619 299.765 351.732 284.778C348.843 269.793 380.02 273.602 380.02 273.602Z" fill="#233862"/>
<path d="M354.825 274.227C354.825 274.227 396.637 282.811 399.421 294.909C402.202 307.005 396.957 351.936 396.957 351.936C396.957 351.936 398.008 354.337 383.635 351.993C383.635 351.993 379.975 334.045 379.57 320.54C379.304 311.741 382.765 304.593 380.869 304.442C350.171 301.995 337.109 309.771 338.305 278.889C338.896 263.638 354.825 274.227 354.825 274.227Z" fill="#2B478B"/>
<path d="M337.475 276.642C337.401 277.65 348.319 279.662 353.19 279.474C377.623 278.526 381.332 273.859 381.341 273.847C381.783 273.288 378.877 256.493 378.714 250.207C378.566 244.477 378.466 237.671 378.454 229.595C378.443 219.881 363.405 209.432 363.128 209.432L363.125 209.438C363.125 210.837 360.921 213.417 357.527 213.64C353.498 213.903 348.553 211.899 348.553 209.578C348.553 209.555 339.888 238.271 335.859 229.678L337.475 276.642Z" fill="#FF943B"/>
<path d="M363.133 209.435C363.133 209.435 377.114 209.315 380.48 214.034C383.846 218.753 391.224 244.138 387.372 252.585C383.521 261.032 376.318 249.091 372.32 243.918C368.32 238.742 363.133 209.435 363.133 209.435Z" fill="#FF943B"/>
<path d="M363.276 207.3L363.267 208.744C363.267 208.744 363.661 213.263 358.094 213.925C352.526 214.588 348.312 212.164 348.461 208.676C348.963 205.975 349.511 204.119 349.549 201.887C349.563 201.056 349.506 200.174 349.352 199.181L360.138 198.967L363.316 199.486L363.276 207.3Z" fill="#FFD1B1"/>
<path d="M363.313 199.483L363.273 207.3C362.128 207.833 360.835 208.156 359.384 208.156C354.428 208.156 351.224 204.522 349.549 201.884C349.563 201.053 349.506 200.171 349.352 199.178L360.138 198.964L363.313 199.483Z" fill="#E2915A"/>
<path d="M348.527 197.442C349.777 204.176 358.468 203.957 362.222 203.531C363.279 203.414 363.944 203.28 363.944 203.28C365.135 202.96 365.8 201.085 366.108 198.627C366.722 193.762 365.948 186.62 365.126 184.793C363.89 182.043 361.56 179.072 352.806 181.216C344.058 183.362 346.922 188.815 348.527 197.442Z" fill="#FFD1B1"/>
<path d="M377.43 228.351C377.43 228.351 382.837 240.292 382.68 243.872C382.68 243.872 381.167 243.775 378.595 244.54L377.43 228.351Z" fill="#EF873A"/>
<path d="M367.812 178.384C367.812 178.384 363.961 178.087 359.415 176.111C355.727 174.507 351.076 176.274 349.565 177.071C349.605 176.828 349.702 176.494 349.934 176.163C349.934 176.163 349.254 176.642 349.157 177.316C349.086 177.367 349.057 177.405 349.074 177.416C349.074 177.416 348.306 177.276 347.812 177.499C347.812 177.499 348.158 177.45 348.281 177.673C348.295 177.696 348.312 177.716 348.335 177.733C342.582 180.513 342.051 189.603 343.901 191.707C346.128 194.236 348.8 199.937 348.8 199.937C348.8 199.937 349.774 198.59 349.368 196.363C348.963 194.136 350.887 194.136 353.317 193.123C355.747 192.109 353.722 189.278 355.847 187.556C357.974 185.835 365.768 186.848 365.665 185.532C368.56 184.473 367.812 178.681 367.812 178.384Z" fill="#233862"/>
<path d="M346.762 250.721C349.046 259.887 375.258 267.738 380.871 268.703C380.634 264.729 380.206 255.237 380.04 248.871L346.762 250.721Z" fill="#EF873A"/>
<path d="M352.182 253.701C351.948 253.701 346.695 252.916 345.753 252.448C344.813 251.977 340.508 245.862 343.326 244.295C346.144 242.727 353.71 248.999 353.71 248.999L352.182 253.701Z" fill="#FFD1B1"/>
<path d="M384.131 255.517C384.131 255.517 363.814 256.619 350.179 253.701C350.179 253.701 349.833 249.761 354.119 248.014C354.119 248.014 375.369 243.509 380.474 244.766C385.581 246.016 384.131 255.517 384.131 255.517Z" fill="#FF943B"/>
<path d="M337.474 239.573C341.691 244.657 347.201 248.805 353.28 249.779C353.331 249.701 355.119 246.987 354.784 242.993C354.63 241.146 354.019 239.025 352.572 236.764C352.126 236.07 351.73 235.256 351.378 234.354C348.061 225.89 348.555 209.575 348.555 209.575C348.555 209.575 334.465 211.051 330.074 217.323C327.382 221.165 330.81 231.537 337.474 239.573Z" fill="#FF943B"/>
<path d="M362.221 203.534C363.277 203.417 363.942 203.283 363.942 203.283C365.133 202.963 365.798 201.088 366.106 198.63C363.871 199.181 362.849 200.905 362.42 201.642C362.229 201.97 362.189 202.712 362.221 203.534Z" fill="#E2915A"/>
<path d="M367.897 207.342C367.897 207.342 372.765 199.312 368.979 198.964C365.196 198.615 363.675 201.176 363.129 202.115C362.581 203.057 363.272 207.3 363.272 207.3L367.897 207.342Z" fill="#FFD1B1"/>
<path d="M349.35 242.724C349.498 243.741 349.804 244.677 350.178 245.511C351.365 248.148 353.275 249.778 353.275 249.778C365.915 244.075 368.473 224.485 368.898 213.726C369.07 209.401 368.898 206.5 368.898 206.5C363.197 204.613 361.595 207.893 361.595 207.893C361.595 207.893 354.863 223.9 351.371 234.36C350.041 238.359 349.178 241.554 349.35 242.724Z" fill="#FF943B"/>
<path d="M337.473 239.573C341.69 244.657 347.2 248.805 353.278 249.778C365.918 244.075 368.476 224.485 368.901 213.726C368.901 213.726 362.92 235.413 354.78 242.996C353.31 244.369 351.765 245.277 350.178 245.513C350.178 245.513 339.914 242.613 337.761 239.881C337.607 239.684 337.513 239.587 337.473 239.573Z" fill="#EF873A"/>
<path d="M685.085 211.789C685.085 211.789 673.08 257.793 630.137 268.673L668.814 317.975C668.814 317.975 713.982 296.281 720.257 258.93L685.085 211.789Z" fill="white"/>
<path d="M680.852 237.734L680.07 238.37L704.519 268.426L705.301 267.79L680.852 237.734Z" fill="#D2E0FF"/>
<path d="M678.573 243.776L677.773 244.394L701.326 274.895L702.126 274.278L678.573 243.776Z" fill="#D2E0FF"/>
<path d="M674.792 249.036L673.98 249.638L698.878 283.204L699.69 282.602L674.792 249.036Z" fill="#D2E0FF"/>
<path d="M669.839 255.433L669.027 256.03L693.926 289.896L694.738 289.3L669.839 255.433Z" fill="#D2E0FF"/>
<path d="M664.678 260.475L663.863 261.073L688.762 294.94L689.577 294.341L664.678 260.475Z" fill="#D2E0FF"/>
<path d="M657.394 264.57L656.582 265.167L681.481 299.034L682.293 298.437L657.394 264.57Z" fill="#D2E0FF"/>
<path d="M158.953 345.17C158.953 345.17 125.48 320.565 130.519 282.194L78 297.664C78 297.664 81.0235 341.334 109.323 358.494L158.953 345.17Z" fill="#F3F8FF"/>
<path d="M139.026 332.493L106.73 342.641L106.995 343.483L139.29 333.335L139.026 332.493Z" fill="#D2E0FF"/>
<path d="M134.857 328.74L102.48 337.999L102.723 338.848L135.099 329.589L134.857 328.74Z" fill="#D2E0FF"/>
<path d="M131.817 323.922L96.5234 333.287L96.7497 334.14L132.043 324.775L131.817 323.922Z" fill="#D2E0FF"/>
<path d="M128.206 317.853L92.668 327.126L92.8907 327.979L128.428 318.707L128.206 317.853Z" fill="#D2E0FF"/>
<path d="M125.788 312.027L90.25 321.3L90.4728 322.153L126.01 312.88L125.788 312.027Z" fill="#D2E0FF"/>
<path d="M124.802 304.815L89.2617 314.092L89.4846 314.945L125.025 305.668L124.802 304.815Z" fill="#D2E0FF"/>
<path d="M374.373 431.427C374.373 431.427 326.956 400.656 330.759 348.134L260.645 373.307C260.645 373.307 268.21 432.386 308.01 453.454L374.373 431.427Z" fill="#EBF3FA"/>
<path d="M346.276 415.769L303.211 432.111L303.636 433.232L346.701 416.89L346.276 415.769Z" fill="#D2E0FF"/>
<path d="M340.317 410.982L297.078 426.137L297.475 427.268L340.713 412.113L340.317 410.982Z" fill="#D2E0FF"/>
<path d="M335.835 404.753L288.633 420.268L289.007 421.407L336.21 405.892L335.835 404.753Z" fill="#D2E0FF"/>
<path d="M330.431 396.777L282.887 412.183L283.256 413.324L330.801 397.918L330.431 396.777Z" fill="#D2E0FF"/>
<path d="M326.681 389.06L279.137 404.466L279.506 405.607L327.051 390.2L326.681 389.06Z" fill="#D2E0FF"/>
<path d="M324.805 379.268L277.266 394.689L277.636 395.83L325.175 380.408L324.805 379.268Z" fill="#D2E0FF"/>
<path d="M522.738 179.25C522.738 179.25 549.345 203.216 541.744 235.7L588.117 226.919C588.117 226.919 589.256 189.202 566.449 172.062L522.738 179.25Z" fill="white"/>
<path d="M565.709 178.185L536.227 182.914L536.347 183.663L565.829 178.934L565.709 178.185Z" fill="#D2E0FF"/>
<path d="M568.383 181.569L539.664 185.955L539.779 186.706L568.498 182.319L568.383 181.569Z" fill="#D2E0FF"/>
<path d="M569.918 185.106L542.719 189.5L542.84 190.25L570.039 185.856L569.918 185.106Z" fill="#D2E0FF"/>
<path d="M572.288 189.479L544.582 193.545L544.692 194.296L572.398 190.231L572.288 189.479Z" fill="#D2E0FF"/>
<path d="M573.651 192.868L546.281 196.926L546.393 197.677L573.762 193.619L573.651 192.868Z" fill="#D2E0FF"/>
<path d="M575.993 196.943L546.258 202.007L546.385 202.756L576.121 197.692L575.993 196.943Z" fill="#D2E0FF"/>
<path d="M212.367 451.833C212.367 452.17 212.387 452.507 212.43 452.832C212.556 453.88 212.881 454.865 213.361 455.753C213.738 456.443 214.214 457.074 214.765 457.628C216.25 459.11 218.294 460.026 220.558 460.026H335.781C340.306 460.026 343.975 456.358 343.975 451.836C343.975 449.572 343.058 447.525 341.573 446.043C340.092 444.559 338.042 443.643 335.781 443.643H220.561C216.036 443.64 212.367 447.308 212.367 451.833Z" fill="#2B478B"/>
<path d="M221.155 442.158H260.66C261.351 442.158 261.917 441.593 261.917 440.902C261.917 440.211 261.351 439.646 260.66 439.646H221.155C220.464 439.646 219.898 440.211 219.898 440.902C219.896 441.593 220.461 442.158 221.155 442.158Z" fill="#2B478B"/>
<path d="M223.338 443.639H227.621V442.155H223.338V443.639Z" fill="#233862"/>
<path d="M213.363 455.753C213.74 456.443 214.217 457.074 214.768 457.628C216.253 459.11 218.297 460.026 220.561 460.026H244.969V455.753H213.363Z" fill="#233862"/>
<path d="M359.229 449.432V454.231C359.229 454.756 359.157 455.267 359.026 455.75C358.361 458.213 356.111 460.023 353.436 460.023H233.414C230.739 460.023 228.489 458.213 227.824 455.75C227.692 455.267 227.621 454.756 227.621 454.231V449.432C227.621 446.232 230.213 443.64 233.414 443.64H353.438C356.636 443.64 359.229 446.232 359.229 449.432Z" fill="#F99746"/>
<path d="M359.026 455.753C358.361 458.216 356.111 460.026 353.436 460.026H233.414C230.739 460.026 228.489 458.216 227.824 455.753H359.026Z" fill="#EF873A"/>
<path d="M347.309 451.861C347.309 454.408 348.234 456.68 349.693 458.188C349.727 458.222 349.758 458.253 349.79 458.288C350.917 459.409 352.345 460.083 353.901 460.083C356.331 460.083 362.352 456.418 366.086 453.985C367.945 452.772 369.238 451.864 369.238 451.864C369.238 451.864 367.948 450.956 366.086 449.743C362.355 447.308 356.331 443.643 353.901 443.643C353.199 443.643 352.522 443.78 351.882 444.034C350.812 444.465 349.855 445.227 349.104 446.226C348.274 447.322 347.685 448.701 347.437 450.234C347.434 450.251 347.431 450.268 347.431 450.288C347.349 450.794 347.309 451.322 347.309 451.861Z" fill="#8C9DF4"/>
<path d="M347.309 451.861C347.309 454.408 348.234 456.68 349.693 458.188L368.165 451.833L347.431 450.286C347.349 450.794 347.309 451.322 347.309 451.861Z" fill="#6980E2"/>
<path d="M349.105 446.22L367.535 451.253L351.883 444.028C350.813 444.459 349.859 445.224 349.105 446.22Z" fill="#9FB1FF"/>
<path d="M364.879 451.861C364.879 452.841 365.381 453.674 366.081 453.983C367.94 452.769 369.233 451.861 369.233 451.861C369.233 451.861 367.942 450.954 366.081 449.74C365.381 450.046 364.879 450.882 364.879 451.861Z" fill="#182D4C"/>
<path d="M601.539 46.8804L612.396 50.8868L611.435 38.5765L623.392 41.6603L620.782 30.734L632.719 28.2124L635.626 18.2782" stroke="#F5A623" stroke-width="2" stroke-linecap="round" stroke-linejoin="round"/>
<path d="M146.249 63.9358L144.322 65.6595C142.265 67.5023 142.101 70.659 143.953 72.7044L158.543 88.7808C160.396 90.8261 163.582 90.9928 165.639 89.1561L168.403 86.6863C168.804 86.3229 168.836 85.7074 168.475 85.309C168.109 84.9108 167.489 84.8783 167.088 85.2356L164.324 87.7053C163.074 88.8272 161.135 88.7256 160.003 87.477L145.419 71.4004C144.287 70.1579 144.387 68.2321 145.644 67.1101L147.57 65.3863C148.82 64.2644 150.759 64.3661 151.891 65.6147L161.576 76.2868C161.936 76.6852 162.562 76.7175 162.963 76.3602C163.364 75.9968 163.396 75.3813 163.035 74.9829L153.351 64.3109C151.492 62.2596 148.306 62.093 146.249 63.9358Z" fill="white"/>
<path d="M132.208 46.7647L128.75 49.8552C125.544 52.7261 125.452 57.8409 128.556 61.2537L150.488 85.4297C150.855 85.8279 151.475 85.8605 151.875 85.5031C152.276 85.1458 152.308 84.5241 151.948 84.1257L130.016 59.9498C127.645 57.3335 127.667 53.456 130.072 51.3058L133.529 48.2154C135.934 46.0652 139.819 46.4449 142.196 49.061L167.175 76.5964C169.546 79.2127 169.524 83.0902 167.119 85.2404C166.719 85.6038 166.687 86.2193 167.047 86.6177C167.407 87.0161 168.033 87.0485 168.434 86.6912C171.641 83.8203 171.732 78.7054 168.635 75.2925L143.649 47.7573C140.552 44.3444 135.421 43.8997 132.208 46.7647Z" fill="white"/>
</g>
<defs>
<linearGradient id="paint0_linear_811:1009" x1="213.038" y1="466" x2="76.3626" y2="195.45" gradientUnits="userSpaceOnUse">
<stop stop-color="#ED8554"/>
<stop offset="1" stop-color="#FFE9D7" stop-opacity="0.75"/>
<stop offset="1" stop-color="white" stop-opacity="0.6"/>
</linearGradient>
<clipPath id="clip0_811:1009">
<rect width="680" height="461" fill="white" transform="translate(39)"/>
</clipPath>
</defs>
</svg>
