<svg width="62" height="60" viewBox="0 0 62 60" fill="none" xmlns="http://www.w3.org/2000/svg">
<g clip-path="url(#clip0_242:7934)">
<circle cx="26.5" cy="36" r="24" fill="white" fill-opacity="0.15"/>
<path d="M16.432 52H54.5654C56.0389 52 57.1654 50.8735 57.1654 49.4V5.2C57.1654 3.7265 56.0389 2.6 54.5654 2.6H44.1654C44.1654 1.1265 43.0389 0 41.5654 0H29.432C27.9585 0 26.832 1.1265 26.832 2.6H16.432C14.9585 2.6 13.832 3.7265 13.832 5.2V49.4C13.832 50.8735 14.9585 52 16.432 52ZM28.5654 2.6C28.5654 2.07992 28.9119 1.73333 29.432 1.73333H41.5654C42.0855 1.73333 42.432 2.07992 42.432 2.6V6.93333C42.432 7.45342 42.0855 7.8 41.5654 7.8H29.432C28.9119 7.8 28.5654 7.45342 28.5654 6.93333V2.6ZM15.5654 5.2C15.5654 4.67992 15.9119 4.33333 16.432 4.33333H26.832V6.93333C26.832 8.40684 27.9585 9.53333 29.432 9.53333H41.5654C42.6919 9.53333 43.6453 8.84017 43.9919 7.8H51.9654V40.7333H45.8987V46.8H19.032V27.3V7.8H24.232C24.7107 7.8 25.0987 7.41198 25.0987 6.93333C25.0987 6.45469 24.7107 6.06667 24.232 6.06667H18.2987C17.7464 6.06667 17.2987 6.51438 17.2987 7.06667V47.5333C17.2987 48.0856 17.7464 48.5333 18.2987 48.5333H47.1119L53.6987 41.9466V7.06667C53.6987 6.51438 53.251 6.06667 52.6987 6.06667H44.1654V4.33333H54.5654C55.0855 4.33333 55.432 4.67992 55.432 5.2V49.4C55.432 49.9201 55.0855 50.2667 54.5654 50.2667H16.432C15.9119 50.2667 15.5654 49.9201 15.5654 49.4V5.2ZM50.7521 42.4667L47.632 45.5868V42.4667H50.7521Z" fill="white"/>
<path d="M32.5 4.75C32.5 4.33579 32.8358 4 33.25 4H38.6833C39.0975 4 39.4333 4.33579 39.4333 4.75C39.4333 5.16421 39.0975 5.5 38.6833 5.5H33.25C32.8358 5.5 32.5 5.16421 32.5 4.75Z" fill="white"/>
<path d="M21.6328 27.6C21.6328 28.1523 22.0805 28.6 22.6328 28.6H48.3661C48.9184 28.6 49.3661 28.1523 49.3661 27.6V15.7333C49.3661 15.1811 48.9184 14.7333 48.3661 14.7333H22.6328C22.0805 14.7333 21.6328 15.1811 21.6328 15.7333V27.6ZM22.9995 16.2H47.9995V27H22.9995V16.2Z" fill="white"/>
<path d="M29.5 11.75C29.5 11.3358 29.8358 11 30.25 11H40.75C41.1642 11 41.5 11.3358 41.5 11.75C41.5 12.1642 41.1642 12.5 40.75 12.5H30.25C29.8358 12.5 29.5 12.1642 29.5 11.75Z" fill="white"/>
<path d="M21.6328 33.0833C21.6328 32.6691 21.9686 32.3333 22.3828 32.3333H32.1495C32.5637 32.3333 32.8995 32.6691 32.8995 33.0833C32.8995 33.4975 32.5637 33.8333 32.1495 33.8333H22.3828C21.9686 33.8333 21.6328 33.4975 21.6328 33.0833Z" fill="white"/>
<path d="M34.8984 33.0833C34.8984 32.6691 35.2342 32.3333 35.6484 32.3333H48.8818C49.296 32.3333 49.6318 32.6691 49.6318 33.0833C49.6318 33.4975 49.296 33.8333 48.8818 33.8333H35.6484C35.2342 33.8333 34.8984 33.4975 34.8984 33.0833Z" fill="white"/>
<path d="M21.6328 38.0833C21.6328 37.6691 21.9686 37.3333 22.3828 37.3333H37.3495C37.7637 37.3333 38.0995 37.6691 38.0995 38.0833C38.0995 38.4975 37.7637 38.8333 37.3495 38.8333H22.3828C21.9686 38.8333 21.6328 38.4975 21.6328 38.0833Z" fill="white"/>
<path d="M40.1016 38.0833C40.1016 37.6691 40.4373 37.3333 40.8516 37.3333H48.8849C49.2991 37.3333 49.6349 37.6691 49.6349 38.0833C49.6349 38.4975 49.2991 38.8333 48.8849 38.8333H40.8516C40.4373 38.8333 40.1016 38.4975 40.1016 38.0833Z" fill="white"/>
<path d="M21.6328 43.0833C21.6328 42.6691 21.9686 42.3333 22.3828 42.3333H42.5495C42.9637 42.3333 43.2995 42.6691 43.2995 43.0833C43.2995 43.4975 42.9637 43.8333 42.5495 43.8333H22.3828C21.9686 43.8333 21.6328 43.4975 21.6328 43.0833Z" fill="white"/>
</g>
<defs>
<clipPath id="clip0_242:7934">
<rect width="61" height="60" fill="white" transform="translate(0.5)"/>
</clipPath>
</defs>
</svg>
