<svg width="71" height="70" viewBox="0 0 71 70" fill="none" xmlns="http://www.w3.org/2000/svg">
<circle cx="35.5" cy="38" r="30" fill="white" fill-opacity="0.15"/>
<path d="M17.3641 62H60.6307C62.3026 62 63.5807 60.7219 63.5807 59.05V8.9C63.5807 7.22814 62.3026 5.95 60.6307 5.95H48.8307C48.8307 4.27814 47.5526 3 45.8807 3H32.1141C30.4422 3 29.1641 4.27814 29.1641 5.95H17.3641C15.6922 5.95 14.4141 7.22814 14.4141 8.9V59.05C14.4141 60.7219 15.6922 62 17.3641 62ZM31.1307 5.95C31.1307 5.3599 31.524 4.96667 32.1141 4.96667H45.8807C46.4708 4.96667 46.8641 5.3599 46.8641 5.95V10.8667C46.8641 11.4568 46.4708 11.85 45.8807 11.85H32.1141C31.524 11.85 31.1307 11.4568 31.1307 10.8667V5.95ZM16.3807 8.9C16.3807 8.3099 16.774 7.91667 17.3641 7.91667H29.1641V10.8667C29.1641 12.5385 30.4422 13.8167 32.1141 13.8167H45.8807C47.1589 13.8167 48.2406 13.0302 48.6339 11.85H57.6807V49.2167H50.7974V56.1H20.3141V33.975V11.85H26.2141C26.7571 11.85 27.1974 11.4097 27.1974 10.8667C27.1974 10.3236 26.7571 9.88333 26.2141 9.88333H19.3474C18.7951 9.88333 18.3474 10.331 18.3474 10.8833V57.0667C18.3474 57.619 18.7951 58.0667 19.3474 58.0667H52.174L59.6474 50.5932V10.8833C59.6474 10.331 59.1997 9.88333 58.6474 9.88333H48.8307V7.91667H60.6307C61.2208 7.91667 61.6141 8.3099 61.6141 8.9V59.05C61.6141 59.6401 61.2208 60.0333 60.6307 60.0333H17.3641C16.774 60.0333 16.3807 59.6401 16.3807 59.05V8.9ZM56.3042 51.1833L52.7641 54.7234V51.1833H56.3042Z" fill="white"/>
<path d="M35.5977 8.38905C35.5977 7.91907 35.9786 7.53809 36.4486 7.53809H42.6134C43.0833 7.53809 43.4643 7.91907 43.4643 8.38905C43.4643 8.85902 43.0833 9.24001 42.6134 9.24001H36.4486C35.9786 9.24001 35.5977 8.85902 35.5977 8.38905Z" fill="white"/>
<path d="M23.2656 34.4501C23.2656 35.0024 23.7133 35.4501 24.2656 35.4501H53.7323C54.2846 35.4501 54.7323 35.0024 54.7323 34.4501V20.7168C54.7323 20.1645 54.2846 19.7168 53.7323 19.7168H24.2656C23.7133 19.7168 23.2656 20.1645 23.2656 20.7168V34.4501ZM24.8163 21.3809H53.1817V33.6347H24.8163V21.3809Z" fill="white"/>
<path d="M32.1914 16.3317C32.1914 15.8617 32.5724 15.4807 33.0424 15.4807H44.9558C45.4258 15.4807 45.8068 15.8617 45.8068 16.3317C45.8068 16.8017 45.4258 17.1827 44.9558 17.1827H33.0424C32.5724 17.1827 32.1914 16.8017 32.1914 16.3317Z" fill="white"/>
<path d="M23.2656 40.5365C23.2656 40.0665 23.6466 39.6855 24.1166 39.6855H35.198C35.668 39.6855 36.049 40.0665 36.049 40.5365C36.049 41.0065 35.668 41.3875 35.198 41.3875H24.1166C23.6466 41.3875 23.2656 41.0065 23.2656 40.5365Z" fill="white"/>
<path d="M38.3164 40.5365C38.3164 40.0665 38.6974 39.6855 39.1674 39.6855H54.1821C54.6521 39.6855 55.0331 40.0665 55.0331 40.5365C55.0331 41.0065 54.6521 41.3875 54.1821 41.3875H39.1674C38.6974 41.3875 38.3164 41.0065 38.3164 40.5365Z" fill="white"/>
<path d="M23.2656 46.2103C23.2656 45.7404 23.6466 45.3594 24.1166 45.3594H41.098C41.568 45.3594 41.949 45.7404 41.949 46.2103C41.949 46.6803 41.568 47.0613 41.098 47.0613H24.1166C23.6466 47.0613 23.2656 46.6803 23.2656 46.2103Z" fill="white"/>
<path d="M44.2227 46.2103C44.2227 45.7404 44.6036 45.3594 45.0736 45.3594H54.1884C54.6583 45.3594 55.0393 45.7404 55.0393 46.2103C55.0393 46.6803 54.6583 47.0613 54.1884 47.0613H45.0736C44.6036 47.0613 44.2227 46.6803 44.2227 46.2103Z" fill="white"/>
<path d="M23.2656 51.8832C23.2656 51.4132 23.6466 51.0322 24.1166 51.0322H46.998C47.468 51.0322 47.849 51.4132 47.849 51.8832C47.849 52.3532 47.468 52.7341 46.998 52.7341H24.1166C23.6466 52.7341 23.2656 52.3532 23.2656 51.8832Z" fill="white"/>
</svg>
