<?xml version="1.0" standalone="no"?>
<svg xmlns:xlink="http://www.w3.org/1999/xlink" id="wave" style="transform:rotate(0deg); transition: 0.3s" viewBox="0 0 1440 190" version="1.1" xmlns="http://www.w3.org/2000/svg"><defs><linearGradient id="sw-gradient-0" x1="0" x2="0" y1="1" y2="0"><stop stop-color="rgba(255, 255, 255, 1)" offset="0%"/><stop stop-color="rgba(255, 255, 255, 1)" offset="100%"/></linearGradient></defs><path style="transform:translate(0, 0px); opacity:1" fill="url(#sw-gradient-0)" d="M0,133L80,136.2C160,139,320,146,480,126.7C640,108,800,63,960,47.5C1120,32,1280,44,1440,57C1600,70,1760,82,1920,79.2C2080,76,2240,57,2400,57C2560,57,2720,76,2880,91.8C3040,108,3200,120,3360,129.8C3520,139,3680,146,3840,152C4000,158,4160,165,4320,161.5C4480,158,4640,146,4800,126.7C4960,108,5120,82,5280,88.7C5440,95,5600,133,5760,142.5C5920,152,6080,133,6240,129.8C6400,127,6560,139,6720,126.7C6880,114,7040,76,7200,63.3C7360,51,7520,63,7680,63.3C7840,63,8000,51,8160,66.5C8320,82,8480,127,8640,123.5C8800,120,8960,70,9120,60.2C9280,51,9440,82,9600,101.3C9760,120,9920,127,10080,123.5C10240,120,10400,108,10560,98.2C10720,89,10880,82,11040,69.7C11200,57,11360,38,11440,28.5L11520,19L11520,190L11440,190C11360,190,11200,190,11040,190C10880,190,10720,190,10560,190C10400,190,10240,190,10080,190C9920,190,9760,190,9600,190C9440,190,9280,190,9120,190C8960,190,8800,190,8640,190C8480,190,8320,190,8160,190C8000,190,7840,190,7680,190C7520,190,7360,190,7200,190C7040,190,6880,190,6720,190C6560,190,6400,190,6240,190C6080,190,5920,190,5760,190C5600,190,5440,190,5280,190C5120,190,4960,190,4800,190C4640,190,4480,190,4320,190C4160,190,4000,190,3840,190C3680,190,3520,190,3360,190C3200,190,3040,190,2880,190C2720,190,2560,190,2400,190C2240,190,2080,190,1920,190C1760,190,1600,190,1440,190C1280,190,1120,190,960,190C800,190,640,190,480,190C320,190,160,190,80,190L0,190Z"/></svg>