<?xml version="1.0" standalone="no"?>
<svg xmlns:xlink="http://www.w3.org/1999/xlink" id="wave" style="transform:rotate(0deg); transition: 0.3s" viewBox="0 0 1440 120" version="1.1" xmlns="http://www.w3.org/2000/svg"><defs><linearGradient id="sw-gradient-0" x1="0" x2="0" y1="1" y2="0"><stop stop-color="rgba(255, 255, 255, 1)" offset="0%"/><stop stop-color="rgba(255, 255, 255, 1)" offset="100%"/></linearGradient></defs><path style="transform:translate(0, 0px); opacity:1" fill="url(#sw-gradient-0)" d="M0,48L60,56C120,64,240,80,360,86C480,92,600,88,720,72C840,56,960,28,1080,30C1200,32,1320,64,1440,82C1560,100,1680,104,1800,98C1920,92,2040,76,2160,70C2280,64,2400,68,2520,60C2640,52,2760,32,2880,36C3000,40,3120,68,3240,76C3360,84,3480,72,3600,62C3720,52,3840,44,3960,40C4080,36,4200,36,4320,46C4440,56,4560,76,4680,88C4800,100,4920,104,5040,104C5160,104,5280,100,5400,98C5520,96,5640,96,5760,98C5880,100,6000,104,6120,88C6240,72,6360,36,6480,28C6600,20,6720,40,6840,50C6960,60,7080,60,7200,58C7320,56,7440,52,7560,52C7680,52,7800,56,7920,50C8040,44,8160,28,8280,18C8400,8,8520,4,8580,2L8640,0L8640,120L8580,120C8520,120,8400,120,8280,120C8160,120,8040,120,7920,120C7800,120,7680,120,7560,120C7440,120,7320,120,7200,120C7080,120,6960,120,6840,120C6720,120,6600,120,6480,120C6360,120,6240,120,6120,120C6000,120,5880,120,5760,120C5640,120,5520,120,5400,120C5280,120,5160,120,5040,120C4920,120,4800,120,4680,120C4560,120,4440,120,4320,120C4200,120,4080,120,3960,120C3840,120,3720,120,3600,120C3480,120,3360,120,3240,120C3120,120,3000,120,2880,120C2760,120,2640,120,2520,120C2400,120,2280,120,2160,120C2040,120,1920,120,1800,120C1680,120,1560,120,1440,120C1320,120,1200,120,1080,120C960,120,840,120,720,120C600,120,480,120,360,120C240,120,120,120,60,120L0,120Z"/></svg>