<?xml version="1.0" standalone="no"?>
<svg xmlns:xlink="http://www.w3.org/1999/xlink" id="wave" style="transform:rotate(0deg); transition: 0.3s" viewBox="0 0 1440 100" version="1.1" xmlns="http://www.w3.org/2000/svg"><defs><linearGradient id="sw-gradient-0" x1="0" x2="0" y1="1" y2="0"><stop stop-color="rgba(255, 255, 255, 1)" offset="0%"/><stop stop-color="rgba(255, 255, 255, 1)" offset="100%"/></linearGradient></defs><path style="transform:translate(0, 0px); opacity:1" fill="url(#sw-gradient-0)" d="M0,30L34.3,40C68.6,50,137,70,206,80C274.3,90,343,90,411,90C480,90,549,90,617,85C685.7,80,754,70,823,56.7C891.4,43,960,27,1029,18.3C1097.1,10,1166,10,1234,13.3C1302.9,17,1371,23,1440,36.7C1508.6,50,1577,70,1646,70C1714.3,70,1783,50,1851,43.3C1920,37,1989,43,2057,45C2125.7,47,2194,43,2263,36.7C2331.4,30,2400,20,2469,26.7C2537.1,33,2606,57,2674,65C2742.9,73,2811,67,2880,53.3C2948.6,40,3017,20,3086,25C3154.3,30,3223,60,3291,75C3360,90,3429,90,3497,83.3C3565.7,77,3634,63,3703,53.3C3771.4,43,3840,37,3909,33.3C3977.1,30,4046,30,4114,26.7C4182.9,23,4251,17,4320,16.7C4388.6,17,4457,23,4526,33.3C4594.3,43,4663,57,4731,51.7C4800,47,4869,23,4903,11.7L4937.1,0L4937.1,100L4902.9,100C4868.6,100,4800,100,4731,100C4662.9,100,4594,100,4526,100C4457.1,100,4389,100,4320,100C4251.4,100,4183,100,4114,100C4045.7,100,3977,100,3909,100C3840,100,3771,100,3703,100C3634.3,100,3566,100,3497,100C3428.6,100,3360,100,3291,100C3222.9,100,3154,100,3086,100C3017.1,100,2949,100,2880,100C2811.4,100,2743,100,2674,100C2605.7,100,2537,100,2469,100C2400,100,2331,100,2263,100C2194.3,100,2126,100,2057,100C1988.6,100,1920,100,1851,100C1782.9,100,1714,100,1646,100C1577.1,100,1509,100,1440,100C1371.4,100,1303,100,1234,100C1165.7,100,1097,100,1029,100C960,100,891,100,823,100C754.3,100,686,100,617,100C548.6,100,480,100,411,100C342.9,100,274,100,206,100C137.1,100,69,100,34,100L0,100Z"/></svg>