<?xml version="1.0" standalone="no"?>
<svg xmlns:xlink="http://www.w3.org/1999/xlink" id="wave" style="transform:rotate(0deg); transition: 0.3s" viewBox="0 0 1440 100" version="1.1" xmlns="http://www.w3.org/2000/svg"><defs><linearGradient id="sw-gradient-0" x1="0" x2="0" y1="1" y2="0"><stop stop-color="rgba(255, 255, 255, 1)" offset="0%"/><stop stop-color="rgba(255, 255, 255, 1)" offset="100%"/></linearGradient></defs><path style="transform:translate(0, 0px); opacity:1" fill="url(#sw-gradient-0)" d="M0,60L80,65C160,70,320,80,480,76.7C640,73,800,57,960,45C1120,33,1280,27,1440,31.7C1600,37,1760,53,1920,55C2080,57,2240,43,2400,35C2560,27,2720,23,2880,18.3C3040,13,3200,7,3360,11.7C3520,17,3680,33,3840,45C4000,57,4160,63,4320,63.3C4480,63,4640,57,4800,56.7C4960,57,5120,63,5280,70C5440,77,5600,83,5760,71.7C5920,60,6080,30,6240,16.7C6400,3,6560,7,6720,18.3C6880,30,7040,50,7200,55C7360,60,7520,50,7680,40C7840,30,8000,20,8160,15C8320,10,8480,10,8640,8.3C8800,7,8960,3,9120,5C9280,7,9440,13,9600,16.7C9760,20,9920,20,10080,26.7C10240,33,10400,47,10560,53.3C10720,60,10880,60,11040,58.3C11200,57,11360,53,11440,51.7L11520,50L11520,100L11440,100C11360,100,11200,100,11040,100C10880,100,10720,100,10560,100C10400,100,10240,100,10080,100C9920,100,9760,100,9600,100C9440,100,9280,100,9120,100C8960,100,8800,100,8640,100C8480,100,8320,100,8160,100C8000,100,7840,100,7680,100C7520,100,7360,100,7200,100C7040,100,6880,100,6720,100C6560,100,6400,100,6240,100C6080,100,5920,100,5760,100C5600,100,5440,100,5280,100C5120,100,4960,100,4800,100C4640,100,4480,100,4320,100C4160,100,4000,100,3840,100C3680,100,3520,100,3360,100C3200,100,3040,100,2880,100C2720,100,2560,100,2400,100C2240,100,2080,100,1920,100C1760,100,1600,100,1440,100C1280,100,1120,100,960,100C800,100,640,100,480,100C320,100,160,100,80,100L0,100Z"/></svg>