<?xml version="1.0" standalone="no"?>
<svg xmlns:xlink="http://www.w3.org/1999/xlink" id="wave" style="transform:rotate(0deg); transition: 0.3s" viewBox="0 0 1440 240" version="1.1" xmlns="http://www.w3.org/2000/svg"><defs><linearGradient id="sw-gradient-0" x1="0" x2="0" y1="1" y2="0"><stop stop-color="rgba(255, 255, 255, 1)" offset="0%"/><stop stop-color="rgba(255, 255, 255, 1)" offset="100%"/></linearGradient></defs><path style="transform:translate(0, 0px); opacity:1" fill="url(#sw-gradient-0)" d="M0,120L60,104C120,88,240,56,360,68C480,80,600,136,720,160C840,184,960,176,1080,164C1200,152,1320,136,1440,112C1560,88,1680,56,1800,68C1920,80,2040,136,2160,156C2280,176,2400,160,2520,144C2640,128,2760,112,2880,92C3000,72,3120,48,3240,32C3360,16,3480,8,3600,4C3720,0,3840,0,3960,16C4080,32,4200,64,4320,64C4440,64,4560,32,4680,28C4800,24,4920,48,5040,60C5160,72,5280,72,5400,84C5520,96,5640,120,5760,128C5880,136,6000,128,6120,132C6240,136,6360,152,6480,168C6600,184,6720,200,6840,208C6960,216,7080,216,7200,204C7320,192,7440,168,7560,148C7680,128,7800,112,7920,88C8040,64,8160,32,8280,24C8400,16,8520,32,8580,40L8640,48L8640,240L8580,240C8520,240,8400,240,8280,240C8160,240,8040,240,7920,240C7800,240,7680,240,7560,240C7440,240,7320,240,7200,240C7080,240,6960,240,6840,240C6720,240,6600,240,6480,240C6360,240,6240,240,6120,240C6000,240,5880,240,5760,240C5640,240,5520,240,5400,240C5280,240,5160,240,5040,240C4920,240,4800,240,4680,240C4560,240,4440,240,4320,240C4200,240,4080,240,3960,240C3840,240,3720,240,3600,240C3480,240,3360,240,3240,240C3120,240,3000,240,2880,240C2760,240,2640,240,2520,240C2400,240,2280,240,2160,240C2040,240,1920,240,1800,240C1680,240,1560,240,1440,240C1320,240,1200,240,1080,240C960,240,840,240,720,240C600,240,480,240,360,240C240,240,120,240,60,240L0,240Z"/></svg>