<svg width="147" height="195" viewBox="0 0 147 195" fill="none" xmlns="http://www.w3.org/2000/svg">
<path d="M146.253 189.246C146.49 189.105 146.569 188.798 146.428 188.56L144.133 184.69C143.992 184.452 143.685 184.374 143.448 184.514C143.21 184.655 143.132 184.962 143.273 185.2L145.313 188.64L141.872 190.68C141.634 190.821 141.556 191.128 141.697 191.365C141.838 191.603 142.144 191.681 142.382 191.54L146.253 189.246ZM1.31918 3.35646C1.30172 3.63205 1.51098 3.86961 1.78657 3.88706C2.06216 3.90452 2.29972 3.69526 2.31718 3.41967L1.31918 3.35646ZM1.97742 9.45747C1.99094 9.18166 1.77831 8.94711 1.5025 8.93359C1.22669 8.92007 0.99214 9.1327 0.97862 9.40851L1.97742 9.45747ZM0.726575 15.508C0.717351 15.784 0.933605 16.0152 1.20959 16.0244C1.48558 16.0336 1.71679 15.8174 1.72602 15.5414L0.726575 15.508ZM1.5744 21.5614C1.57902 21.2853 1.35894 21.0578 1.08284 21.0531C0.806731 21.0485 0.579162 21.2686 0.574544 21.5447L1.5744 21.5614ZM0.527569 27.6607C0.528014 27.9369 0.752233 28.1604 1.02837 28.1599C1.30452 28.1595 1.52801 27.9353 1.52757 27.6591L0.527569 27.6607ZM1.59646 33.7165C1.59055 33.4404 1.36195 33.2214 1.08587 33.2273C0.809796 33.2332 0.59078 33.4618 0.596692 33.7379L1.59646 33.7165ZM0.790238 39.7895C0.802063 40.0654 1.0353 40.2794 1.31119 40.2676C1.58708 40.2558 1.80114 40.0225 1.78932 39.7466L0.790238 39.7895ZM2.12076 45.8292C2.10245 45.5537 1.86423 45.3452 1.5887 45.3635C1.31317 45.3818 1.10465 45.62 1.12296 45.8956L2.12076 45.8292ZM1.60205 51.9538C1.62737 52.2288 1.87081 52.4312 2.14579 52.4059C2.42077 52.3806 2.62316 52.1371 2.59784 51.8621L1.60205 51.9538ZM3.23202 57.8561C3.19913 57.5819 2.95021 57.3863 2.67603 57.4192C2.40185 57.4521 2.20625 57.701 2.23914 57.9752L3.23202 57.8561ZM3.05816 64.0361C3.09934 64.3092 3.35407 64.4972 3.62712 64.456C3.90018 64.4148 4.08816 64.1601 4.04698 63.887L3.05816 64.0361ZM5.04699 69.8627C4.99691 69.5912 4.73615 69.4116 4.46459 69.4617C4.19303 69.5118 4.01349 69.7726 4.06358 70.0441L5.04699 69.8627ZM5.26979 75.999C5.32945 76.2686 5.59639 76.4388 5.86601 76.3791C6.13563 76.3195 6.30583 76.0525 6.24617 75.7829L5.26979 75.999ZM7.66147 81.6519C7.59155 81.3848 7.31831 81.2249 7.05117 81.2948C6.78402 81.3647 6.62413 81.638 6.69405 81.9051L7.66147 81.6519ZM8.36085 87.7818C8.44174 88.0459 8.72134 88.1943 8.98537 88.1135C9.24941 88.0326 9.39788 87.753 9.317 87.4889L8.36085 87.7818ZM11.2158 93.2368C11.1234 92.9766 10.8375 92.8406 10.5773 92.933C10.3171 93.0254 10.1811 93.3113 10.2735 93.5715L11.2158 93.2368ZM12.4452 99.2627C12.5497 99.5183 12.8416 99.6408 13.0972 99.5363C13.3528 99.4318 13.4753 99.1398 13.3708 98.8842L12.4452 99.2627ZM15.7928 104.418C15.6758 104.168 15.3782 104.06 15.128 104.177C14.8779 104.294 14.7699 104.591 14.8869 104.841L15.7928 104.418ZM17.6069 110.291C17.7365 110.535 18.0393 110.627 18.2831 110.498C18.5269 110.368 18.6194 110.065 18.4898 109.822L17.6069 110.291ZM21.4676 115.081C21.3252 114.845 21.018 114.768 20.7814 114.911C20.5448 115.053 20.4684 115.36 20.6108 115.597L21.4676 115.081ZM23.8964 120.737C24.0514 120.965 24.3623 121.025 24.5908 120.87C24.8194 120.715 24.879 120.404 24.7241 120.176L23.8964 120.737ZM28.2496 125.083C28.0825 124.863 27.7688 124.82 27.549 124.988C27.3292 125.155 27.2865 125.468 27.4536 125.688L28.2496 125.083ZM31.2724 130.438C31.4511 130.649 31.7666 130.675 31.9771 130.496C32.1876 130.317 32.2134 130.002 32.0347 129.791L31.2724 130.438ZM36.0658 134.291C35.8762 134.091 35.5598 134.082 35.359 134.271C35.1582 134.461 35.1491 134.777 35.3387 134.978L36.0658 134.291ZM39.6361 139.301C39.8356 139.492 40.1522 139.485 40.343 139.286C40.5339 139.086 40.5268 138.77 40.3272 138.579L39.6361 139.301ZM44.8016 142.652C44.593 142.471 44.2772 142.493 44.0963 142.702C43.9154 142.911 43.9379 143.226 44.1466 143.407L44.8016 142.652ZM48.8487 147.296C49.0655 147.467 49.3799 147.43 49.551 147.213C49.722 146.996 49.685 146.682 49.4682 146.511L48.8487 147.296ZM54.2891 150.147C54.0652 149.985 53.7526 150.036 53.5911 150.26C53.4296 150.484 53.4802 150.796 53.7042 150.958L54.2891 150.147ZM58.7093 154.414C58.9396 154.567 59.2498 154.503 59.4022 154.273C59.5545 154.043 59.4914 153.733 59.2611 153.58L58.7093 154.414ZM64.37 156.823C64.1342 156.679 63.8266 156.754 63.6829 156.99C63.5393 157.226 63.614 157.533 63.8499 157.677L64.37 156.823ZM69.1142 160.758C69.3549 160.893 69.6597 160.808 69.7951 160.567C69.9305 160.327 69.8452 160.022 69.6045 159.886L69.1142 160.758ZM74.936 162.774C74.6911 162.646 74.3891 162.741 74.2614 162.986C74.1338 163.231 74.2287 163.533 74.4736 163.66L74.936 162.774ZM79.8927 166.385C80.1412 166.506 80.4403 166.402 80.5608 166.154C80.6813 165.905 80.5776 165.606 80.3291 165.486L79.8927 166.385ZM85.8135 168.055C85.5619 167.941 85.2657 168.053 85.1518 168.304C85.038 168.556 85.1496 168.852 85.4012 168.966L85.8135 168.055ZM90.9968 171.414C91.2511 171.522 91.5445 171.403 91.6522 171.149C91.7598 170.895 91.6409 170.601 91.3866 170.494L90.9968 171.414ZM96.9776 172.786C96.721 172.684 96.4303 172.809 96.3283 173.066C96.2264 173.323 96.3518 173.613 96.6084 173.715L96.9776 172.786ZM102.274 175.898C102.533 175.995 102.821 175.864 102.917 175.605C103.014 175.347 102.883 175.058 102.624 174.962L102.274 175.898ZM108.348 177.04C108.088 176.948 107.802 177.085 107.711 177.345C107.619 177.605 107.755 177.891 108.016 177.983L108.348 177.04ZM113.747 179.948C114.009 180.035 114.292 179.894 114.38 179.632C114.467 179.37 114.326 179.087 114.064 178.999L113.747 179.948ZM119.827 180.871C119.563 180.787 119.282 180.933 119.199 181.197C119.116 181.46 119.262 181.741 119.525 181.824L119.827 180.871ZM125.366 183.624C125.63 183.703 125.909 183.554 125.988 183.289C126.068 183.025 125.918 182.746 125.653 182.666L125.366 183.624ZM131.438 184.362C131.172 184.286 130.896 184.44 130.82 184.705C130.744 184.971 130.897 185.248 131.163 185.324L131.438 184.362ZM137.038 186.966C137.304 187.039 137.579 186.882 137.652 186.615C137.725 186.349 137.568 186.074 137.302 186.001L137.038 186.966ZM143.148 187.563C142.88 187.493 142.607 187.653 142.537 187.92C142.468 188.187 142.628 188.46 142.895 188.53L143.148 187.563ZM1.52467 0.280406C1.45227 1.31135 1.38377 2.33669 1.31918 3.35646L2.31718 3.41967C2.38163 2.40222 2.44997 1.37916 2.52221 0.350453L1.52467 0.280406ZM0.97862 9.40851C0.87782 11.4649 0.793757 13.4979 0.726575 15.508L1.72602 15.5414C1.79302 13.5367 1.87687 11.5088 1.97742 9.45747L0.97862 9.40851ZM0.574544 21.5447C0.540031 23.6083 0.524317 25.6468 0.527569 27.6607L1.52757 27.6591C1.52433 25.6515 1.53999 23.6191 1.5744 21.5614L0.574544 21.5447ZM0.596692 33.7379C0.640438 35.7811 0.704891 37.7982 0.790238 39.7895L1.78932 39.7466C1.70429 37.7627 1.64006 35.7528 1.59646 33.7165L0.596692 33.7379ZM1.12296 45.8956C1.25905 47.943 1.41867 49.9623 1.60205 51.9538L2.59784 51.8621C2.41526 49.8793 2.25631 47.8685 2.12076 45.8292L1.12296 45.8956ZM2.23914 57.9752C2.48513 60.0258 2.75805 62.0459 3.05816 64.0361L4.04698 63.887C3.74842 61.9071 3.47685 59.8969 3.23202 57.8561L2.23914 57.9752ZM4.06358 70.0441C4.43556 72.0608 4.83752 74.0455 5.26979 75.999L6.24617 75.7829C5.81652 73.8412 5.41688 71.8681 5.04699 69.8627L4.06358 70.0441ZM6.69405 81.9051C7.21551 83.8977 7.77099 85.8563 8.36085 87.7818L9.317 87.4889C8.73126 85.5769 8.17953 83.6315 7.66147 81.6519L6.69405 81.9051ZM10.2735 93.5715C10.9598 95.5032 11.6835 97.3999 12.4452 99.2627L13.3708 98.8842C12.6151 97.0362 11.897 95.154 11.2158 93.2368L10.2735 93.5715ZM14.8869 104.841C15.7527 106.693 16.6592 108.509 17.6069 110.291L18.4898 109.822C17.5502 108.055 16.6513 106.254 15.7928 104.418L14.8869 104.841ZM20.6108 115.597C21.6626 117.344 22.7577 119.057 23.8964 120.737L24.7241 120.176C23.5955 118.511 22.5102 116.813 21.4676 115.081L20.6108 115.597ZM27.4536 125.688C28.6822 127.304 29.955 128.887 31.2724 130.438L32.0347 129.791C30.7288 128.253 29.4673 126.684 28.2496 125.083L27.4536 125.688ZM35.3387 134.978C36.7272 136.449 38.1595 137.889 39.6361 139.301L40.3272 138.579C38.8628 137.178 37.4424 135.749 36.0658 134.291L35.3387 134.978ZM44.1466 143.407C45.6714 144.729 47.2387 146.025 48.8487 147.296L49.4682 146.511C47.87 145.25 46.3146 143.964 44.8016 142.652L44.1466 143.407ZM53.7042 150.958C55.3326 152.132 57.0009 153.284 58.7093 154.414L59.2611 153.58C57.5635 152.457 55.9063 151.313 54.2891 150.147L53.7042 150.958ZM63.8499 157.677C65.5672 158.723 67.3218 159.749 69.1142 160.758L69.6045 159.886C67.8219 158.883 66.0772 157.862 64.37 156.823L63.8499 157.677ZM74.4736 163.66C76.2456 164.584 78.0519 165.492 79.8927 166.385L80.3291 165.486C78.4968 164.597 76.6992 163.693 74.936 162.774L74.4736 163.66ZM85.4012 168.966C87.2343 169.795 89.0994 170.611 90.9968 171.414L91.3866 170.494C89.4965 169.693 87.6389 168.881 85.8135 168.055L85.4012 168.966ZM96.6084 173.715C98.4676 174.454 100.356 175.182 102.274 175.898L102.624 174.962C100.712 174.247 98.8302 173.522 96.9776 172.786L96.6084 173.715ZM108.016 177.983C109.899 178.647 111.81 179.302 113.747 179.948L114.064 178.999C112.131 178.355 110.226 177.702 108.348 177.04L108.016 177.983ZM119.525 181.824C121.447 182.432 123.393 183.032 125.366 183.624L125.653 182.666C123.686 182.075 121.743 181.477 119.827 180.871L119.525 181.824ZM131.163 185.324C133.098 185.877 135.056 186.425 137.038 186.966L137.302 186.001C135.323 185.461 133.369 184.915 131.438 184.362L131.163 185.324ZM142.895 188.53C143.882 188.788 144.875 189.045 145.874 189.3L146.122 188.331C145.125 188.076 144.133 187.82 143.148 187.563L142.895 188.53ZM146.508 189.676C146.983 189.394 147.14 188.781 146.858 188.305L142.268 180.564C141.987 180.089 141.373 179.932 140.898 180.214C140.423 180.495 140.266 181.109 140.548 181.584L144.628 188.465L137.746 192.545C137.271 192.827 137.114 193.44 137.396 193.915C137.678 194.39 138.291 194.547 138.766 194.265L146.508 189.676ZM0.820177 3.32485C0.785263 3.87603 1.20378 4.35115 1.75496 4.38606C2.30614 4.42098 2.78126 4.00246 2.81618 3.45128L0.820177 3.32485ZM2.47682 9.48195C2.50386 8.93033 2.0786 8.46123 1.52698 8.43419C0.975357 8.40715 0.506259 8.83241 0.479219 9.38403L2.47682 9.48195ZM0.226854 15.4913C0.208405 16.0433 0.640914 16.5057 1.19289 16.5241C1.74487 16.5426 2.20729 16.1101 2.22574 15.5581L0.226854 15.4913ZM2.07433 21.5698C2.08357 21.0176 1.6434 20.5625 1.0912 20.5532C0.538989 20.544 0.08385 20.9841 0.0746139 21.5364L2.07433 21.5698ZM0.027569 27.6615C0.02846 28.2138 0.476898 28.6608 1.02918 28.6599C1.58146 28.659 2.02846 28.2106 2.02757 27.6583L0.027569 27.6615ZM2.09635 33.7058C2.08453 33.1536 1.62733 32.7156 1.07517 32.7274C0.523013 32.7392 0.084985 33.1964 0.0968055 33.7486L2.09635 33.7058ZM0.290697 39.8109C0.314347 40.3627 0.780823 40.7908 1.3326 40.7671C1.88438 40.7435 2.31251 40.277 2.28886 39.7252L0.290697 39.8109ZM2.61966 45.7961C2.58303 45.245 2.10661 44.828 1.55554 44.8646C1.00447 44.9012 0.587433 45.3777 0.624063 45.9287L2.61966 45.7961ZM1.10416 51.9997C1.1548 52.5496 1.64168 52.9544 2.19164 52.9038C2.74159 52.8531 3.14637 52.3662 3.09573 51.8163L1.10416 51.9997ZM3.72846 57.7965C3.66268 57.2482 3.16483 56.857 2.61648 56.9227C2.06812 56.9885 1.67692 57.4864 1.7427 58.0347L3.72846 57.7965ZM2.56375 64.1107C2.6461 64.6568 3.15557 65.0328 3.70168 64.9504C4.24779 64.8681 4.62374 64.3586 4.54139 63.8125L2.56375 64.1107ZM5.5387 69.772C5.43852 69.2289 4.91702 68.8698 4.3739 68.97C3.83077 69.0702 3.4717 69.5917 3.57188 70.1348L5.5387 69.772ZM4.7816 76.107C4.90093 76.6462 5.4348 76.9866 5.97404 76.8673C6.51327 76.748 6.85369 76.2141 6.73436 75.6749L4.7816 76.107ZM8.14518 81.5253C8.00535 80.9911 7.45887 80.6713 6.92458 80.8111C6.39029 80.9509 6.07051 81.4974 6.21034 82.0317L8.14518 81.5253ZM7.88278 87.9283C8.04455 88.4564 8.60376 88.7533 9.13182 88.5915C9.65989 88.4298 9.95683 87.8705 9.79507 87.3425L7.88278 87.9283ZM11.687 93.0694C11.5021 92.549 10.9303 92.277 10.4099 92.4618C9.8895 92.6467 9.6175 93.2185 9.80238 93.7389L11.687 93.0694ZM11.9824 99.4519C12.1914 99.9631 12.7752 100.208 13.2864 99.9991C13.7976 99.7901 14.0426 99.2062 13.8336 98.695L11.9824 99.4519ZM16.2457 104.206C16.0117 103.706 15.4165 103.49 14.9162 103.724C14.416 103.958 14.2 104.553 14.434 105.053L16.2457 104.206ZM17.1654 110.526C17.4247 111.013 18.0303 111.199 18.5179 110.939C19.0055 110.68 19.1906 110.074 18.9312 109.587L17.1654 110.526ZM21.896 114.823C21.6112 114.35 20.9967 114.197 20.5235 114.482C20.0504 114.767 19.8976 115.381 20.1824 115.855L21.896 114.823ZM23.4825 121.017C23.7925 121.474 24.4143 121.594 24.8714 121.284C25.3285 120.974 25.4478 120.352 25.1379 119.895L23.4825 121.017ZM28.6476 124.78C28.3134 124.341 27.686 124.255 27.2464 124.59C26.8067 124.924 26.7213 125.551 27.0556 125.991L28.6476 124.78ZM30.8912 130.762C31.2487 131.183 31.8798 131.235 32.3008 130.877C32.7218 130.52 32.7733 129.888 32.4158 129.467L30.8912 130.762ZM36.4294 133.948C36.0502 133.547 35.4173 133.528 35.0157 133.908C34.6142 134.287 34.596 134.92 34.9751 135.321L36.4294 133.948ZM39.2905 139.663C39.6896 140.045 40.3226 140.03 40.7044 139.631C41.0861 139.232 41.0719 138.599 40.6728 138.217L39.2905 139.663ZM45.1292 142.274C44.7119 141.912 44.0803 141.957 43.7185 142.375C43.3567 142.792 43.4017 143.423 43.819 143.785L45.1292 142.274ZM48.539 147.688C48.9726 148.03 49.6014 147.956 49.9435 147.523C50.2856 147.089 50.2115 146.46 49.7779 146.118L48.539 147.688ZM54.5816 149.741C54.1336 149.418 53.5086 149.519 53.1856 149.967C52.8625 150.415 52.9638 151.04 53.4117 151.363L54.5816 149.741ZM58.4334 154.831C58.894 155.136 59.5145 155.01 59.8192 154.549C60.1239 154.088 59.9976 153.468 59.5369 153.163L58.4334 154.831ZM64.6301 156.396C64.1584 156.108 63.5432 156.258 63.2559 156.73C62.9686 157.201 63.1181 157.817 63.5898 158.104L64.6301 156.396ZM68.869 161.194C69.3504 161.464 69.9601 161.294 70.2309 160.812C70.5017 160.331 70.331 159.721 69.8497 159.451L68.869 161.194ZM75.1672 162.33C74.6775 162.075 74.0735 162.265 73.8181 162.755C73.5627 163.244 73.7527 163.848 74.2424 164.104L75.1672 162.33ZM79.6745 166.835C80.1714 167.076 80.7696 166.869 81.0107 166.372C81.2517 165.875 81.0443 165.277 80.5474 165.036L79.6745 166.835ZM86.0196 167.599C85.5165 167.371 84.924 167.595 84.6963 168.098C84.4686 168.601 84.6919 169.194 85.1951 169.421L86.0196 167.599ZM90.8019 171.875C91.3105 172.09 91.8973 171.852 92.1126 171.344C92.3279 170.835 92.0901 170.248 91.5815 170.033L90.8019 171.875ZM97.1622 172.321C96.649 172.117 96.0676 172.368 95.8637 172.882C95.6598 173.395 95.9105 173.976 96.4238 174.18L97.1622 172.321ZM102.099 176.367C102.616 176.56 103.192 176.298 103.386 175.78C103.579 175.263 103.316 174.687 102.799 174.493L102.099 176.367ZM108.515 176.568C107.994 176.385 107.423 176.658 107.239 177.179C107.055 177.7 107.329 178.271 107.85 178.454L108.515 176.568ZM113.589 180.422C114.113 180.597 114.679 180.314 114.854 179.79C115.029 179.266 114.746 178.7 114.222 178.525L113.589 180.422ZM119.977 180.394C119.451 180.227 118.889 180.519 118.722 181.046C118.556 181.573 118.848 182.134 119.374 182.301L119.977 180.394ZM125.222 184.103C125.751 184.262 126.308 183.962 126.467 183.433C126.626 182.904 126.326 182.346 125.797 182.187L125.222 184.103ZM131.575 183.881C131.045 183.729 130.491 184.037 130.339 184.568C130.187 185.099 130.494 185.652 131.025 185.804L131.575 183.881ZM136.906 187.448C137.439 187.594 137.989 187.28 138.135 186.747C138.28 186.214 137.966 185.664 137.433 185.519L136.906 187.448ZM143.274 187.079C142.74 186.939 142.193 187.259 142.054 187.794C141.914 188.328 142.234 188.874 142.768 189.014L143.274 187.079ZM1.02589 0.245383C0.953423 1.27745 0.884845 2.30393 0.820177 3.32485L2.81618 3.45128C2.88055 2.43498 2.94883 1.41306 3.02098 0.385477L1.02589 0.245383ZM0.479219 9.38403C0.378296 11.4429 0.294126 13.4786 0.226854 15.4913L2.22574 15.5581C2.29265 13.556 2.37639 11.5308 2.47682 9.48195L0.479219 9.38403ZM0.0746139 21.5364C0.0400523 23.6029 0.0243136 25.6445 0.027569 27.6615L2.02757 27.6583C2.02433 25.6538 2.03997 23.6245 2.07433 21.5698L0.0746139 21.5364ZM0.0968055 33.7486C0.140627 35.7953 0.205192 37.8159 0.290697 39.8109L2.28886 39.7252C2.20399 37.745 2.13987 35.7386 2.09635 33.7058L0.0968055 33.7486ZM0.624063 45.9287C0.760425 47.9803 0.92038 50.0038 1.10416 51.9997L3.09573 51.8163C2.91356 49.8378 2.75493 47.8312 2.61966 45.7961L0.624063 45.9287ZM1.7427 58.0347C1.98928 60.0902 2.26287 62.1153 2.56375 64.1107L4.54139 63.8125C4.24361 61.8376 3.97271 59.8325 3.72846 57.7965L1.7427 58.0347ZM3.57188 70.1348C3.94489 72.1571 4.34802 74.1476 4.7816 76.107L6.73436 75.6749C6.30602 73.7391 5.90755 71.7718 5.5387 69.772L3.57188 70.1348ZM6.21034 82.0317C6.7335 84.0308 7.29086 85.996 7.88278 87.9283L9.79507 87.3425C9.2114 85.4372 8.66154 83.4984 8.14518 81.5253L6.21034 82.0317ZM9.80238 93.7389C10.4912 95.6778 11.2177 97.5818 11.9824 99.4519L13.8336 98.695C13.081 96.8543 12.3655 94.9794 11.687 93.0694L9.80238 93.7389ZM14.434 105.053C15.3033 106.912 16.2136 108.736 17.1654 110.526L18.9312 109.587C17.9957 107.828 17.1007 106.034 16.2457 104.206L14.434 105.053ZM20.1824 115.855C21.2389 117.61 22.3388 119.33 23.4825 121.017L25.1379 119.895C24.0144 118.238 22.9339 116.548 21.896 114.823L20.1824 115.855ZM27.0556 125.991C28.2897 127.614 29.5681 129.204 30.8912 130.762L32.4158 129.467C31.1157 127.936 29.8598 126.374 28.6476 124.78L27.0556 125.991ZM34.9751 135.321C36.3695 136.798 37.8079 138.245 39.2905 139.663L40.6728 138.217C39.2144 136.823 37.8001 135.4 36.4294 133.948L34.9751 135.321ZM43.819 143.785C45.3498 145.112 46.923 146.413 48.539 147.688L49.7779 146.118C48.1856 144.862 46.6362 143.581 45.1292 142.274L43.819 143.785ZM53.4117 151.363C55.0457 152.542 56.7195 153.697 58.4334 154.831L59.5369 153.163C57.8449 152.044 56.1932 150.903 54.5816 149.741L53.4117 151.363ZM63.5898 158.104C65.3121 159.153 67.0718 160.183 68.869 161.194L69.8497 159.451C68.0719 158.45 66.3322 157.432 64.6301 156.396L63.5898 158.104ZM74.2424 164.104C76.0189 165.03 77.8295 165.94 79.6745 166.835L80.5474 165.036C78.7192 164.149 76.9259 163.247 75.1672 162.33L74.2424 164.104ZM85.1951 169.421C87.032 170.253 88.9009 171.07 90.8019 171.875L91.5815 170.033C89.695 169.235 87.8411 168.423 86.0196 167.599L85.1951 169.421ZM96.4238 174.18C98.2862 174.92 100.178 175.649 102.099 176.367L102.799 174.493C100.89 173.78 99.0116 173.056 97.1622 172.321L96.4238 174.18ZM107.85 178.454C109.736 179.119 111.649 179.775 113.589 180.422L114.222 178.525C112.292 177.881 110.39 177.229 108.515 176.568L107.85 178.454ZM119.374 182.301C121.298 182.909 123.247 183.51 125.222 184.103L125.797 182.187C123.832 181.597 121.892 180.999 119.977 180.394L119.374 182.301ZM131.025 185.804C132.962 186.359 134.922 186.906 136.906 187.448L137.433 185.519C135.457 184.979 133.504 184.433 131.575 183.881L131.025 185.804ZM142.768 189.014C143.757 189.272 144.751 189.529 145.75 189.784L146.245 187.847C145.249 187.592 144.259 187.336 143.274 187.079L142.768 189.014Z" fill="black" fill-opacity="0.5"/>
</svg>
