<svg width="147" height="195" viewBox="0 0 147 195" fill="none" xmlns="http://www.w3.org/2000/svg">
<path d="M146.508 189.676C146.983 189.394 147.14 188.781 146.858 188.305L142.268 180.564C141.987 180.089 141.373 179.932 140.898 180.214C140.423 180.495 140.266 181.109 140.548 181.584L144.628 188.465L137.746 192.545C137.271 192.827 137.114 193.44 137.396 193.915C137.678 194.39 138.291 194.547 138.766 194.265L146.508 189.676ZM1.02589 0.245383C-3.02605 57.9495 5.08712 98.2508 28.3803 127.699C51.6569 157.126 89.942 175.519 145.75 189.784L146.245 187.847C90.5536 173.611 52.8068 155.356 29.9489 126.458C7.10758 97.5813 -1.01643 57.8826 3.02098 0.385477L1.02589 0.245383Z" fill="black"/>
</svg>
