<svg width="11" height="15" viewBox="0 0 11 15" fill="none" xmlns="http://www.w3.org/2000/svg">
<path d="M6.06298 0.509739C5.79222 0.0283809 5.1825 -0.142339 4.70114 0.128424C4.21979 0.399188 4.04907 1.0089 4.31983 1.49026L6.06298 0.509739ZM1.20114 12.6284C0.719787 12.8992 0.549067 13.5089 0.819831 13.9903C1.09059 14.4716 1.70031 14.6423 2.18167 14.3716L1.20114 12.6284ZM9.69141 9L10.1817 9.87158C10.663 9.60081 10.8337 8.9911 10.563 8.50974L9.69141 9ZM4.31983 1.49026L8.81983 9.49026L10.563 8.50974L6.06298 0.509739L4.31983 1.49026ZM9.20114 8.12842L1.20114 12.6284L2.18167 14.3716L10.1817 9.87158L9.20114 8.12842Z" fill="black" fill-opacity="0.5"/>
</svg>
