<svg width="11" height="21" viewBox="0 0 11 21" fill="none" xmlns="http://www.w3.org/2000/svg">
<path d="M0.853554 0.646447C0.658292 0.451184 0.341709 0.451184 0.146447 0.646447C-0.0488153 0.841709 -0.0488153 1.15829 0.146447 1.35355L0.853554 0.646447ZM0.146449 19.6464C-0.0488128 19.8417 -0.0488128 20.1583 0.146449 20.3535C0.341711 20.5488 0.658294 20.5488 0.853556 20.3535L0.146449 19.6464ZM10 10.5L10.3536 10.8536C10.5488 10.6583 10.5488 10.3417 10.3536 10.1464L10 10.5ZM0.146447 1.35355L9.64645 10.8536L10.3536 10.1464L0.853554 0.646447L0.146447 1.35355ZM9.64645 10.1464L0.146449 19.6464L0.853556 20.3535L10.3536 10.8536L9.64645 10.1464Z" fill="black" fill-opacity="0.5"/>
</svg>
