<svg width="106" height="104" viewBox="0 0 106 104" fill="none" xmlns="http://www.w3.org/2000/svg">
<g opacity="0.2">
<path d="M99.3283 52.9995C99.3283 52.9995 59.2439 48.7726 44.6805 14.1617L8.26085 52.8301C8.26085 52.8301 32.1719 87.9328 64.2779 88.4551L99.3283 52.9995Z" fill="#F3F8FF"/>
<path d="M76.4281 52.135L54.3438 76.4453L54.9773 77.0208L77.0616 52.7105L76.4281 52.135Z" fill="#D2E0FF"/>
<path d="M71.0954 51.0322L48.5078 74.6372L49.1263 75.229L71.7139 51.6239L71.0954 51.0322Z" fill="#D2E0FF"/>
<path d="M66.1972 48.4822L41.2188 73.6045L41.8257 74.2079L66.8041 49.0856L66.1972 48.4822Z" fill="#D2E0FF"/>
<path d="M60.1977 45.1674L34.9688 70.3315L35.5732 70.9375L60.8022 45.7734L60.1977 45.1674Z" fill="#D2E0FF"/>
<path d="M55.3228 41.4687L30.0938 66.6328L30.6982 67.2388L55.9272 42.0747L55.3228 41.4687Z" fill="#D2E0FF"/>
<path d="M50.9638 35.9117L25.7344 61.0806L26.3389 61.6865L51.5683 36.5176L50.9638 35.9117Z" fill="#D2E0FF"/>
</g>
</svg>
