<svg width="107" height="126" viewBox="0 0 107 126" fill="none" xmlns="http://www.w3.org/2000/svg">
<g opacity="0.4">
<path d="M64.8507 0C64.8507 0 50.6817 54.2988 0 67.1398L45.6475 125.33C45.6475 125.33 98.9541 99.7259 106.36 55.6399L64.8507 0Z" fill="white"/>
<path d="M59.8564 30.6225L58.9336 31.373L87.7883 66.8481L88.7111 66.0976L59.8564 30.6225Z" fill="#D2E0FF"/>
<path d="M57.1629 37.7545L56.2188 38.4834L84.015 74.4843L84.9591 73.7554L57.1629 37.7545Z" fill="#D2E0FF"/>
<path d="M52.7042 43.9623L51.7461 44.6729L81.1304 84.291L82.0885 83.5805L52.7042 43.9623Z" fill="#D2E0FF"/>
<path d="M46.8568 51.5133L45.8984 52.2178L75.2844 92.1901L76.2428 91.4856L46.8568 51.5133Z" fill="#D2E0FF"/>
<path d="M40.7658 57.4634L39.8047 58.1699L69.1904 98.1425L70.1515 97.4359L40.7658 57.4634Z" fill="#D2E0FF"/>
<path d="M32.1693 62.2979L31.2109 63.0024L60.597 102.975L61.5553 102.27L32.1693 62.2979Z" fill="#D2E0FF"/>
</g>
</svg>
