<svg width="78" height="76" viewBox="0 0 78 76" fill="none" xmlns="http://www.w3.org/2000/svg">
<g opacity="0.15">
<path d="M0 8.48429C0 8.48429 31.4009 36.7709 22.4312 75.112L77.1596 64.7475C77.1596 64.7475 78.5041 20.2302 51.588 0L0 8.48429Z" fill="white"/>
<path d="M50.7129 7.22677L15.918 12.8081L16.06 13.6931L50.8549 8.11176L50.7129 7.22677Z" fill="#D2E0FF"/>
<path d="M53.8709 11.2209L19.9766 16.3984L20.1119 17.2844L54.0063 12.1069L53.8709 11.2209Z" fill="#D2E0FF"/>
<path d="M55.6821 15.3965L23.582 20.5825L23.725 21.4673L55.8251 16.2813L55.6821 15.3965Z" fill="#D2E0FF"/>
<path d="M58.4795 20.5577L25.7812 25.3564L25.9114 26.2432L58.6096 21.4444L58.4795 20.5577Z" fill="#D2E0FF"/>
<path d="M60.087 24.557L27.7852 29.3472L27.9166 30.2338L60.2185 25.4436L60.087 24.557Z" fill="#D2E0FF"/>
<path d="M62.8518 29.3674L27.7578 35.3442L27.9083 36.2278L63.0023 30.251L62.8518 29.3674Z" fill="#D2E0FF"/>
</g>
</svg>
