<svg width="261" height="260" viewBox="0 0 261 260" fill="none" xmlns="http://www.w3.org/2000/svg">
<path fill-rule="evenodd" clip-rule="evenodd" d="M8.89771 4.573C8.89771 6.81928 6.90684 8.63867 4.44885 8.63867C1.99086 8.63867 0 6.81928 0 4.573C0 2.32671 1.99086 0.507324 4.44885 0.507324C6.90684 0.507324 8.89771 2.32671 8.89771 4.573Z" fill="white" fill-opacity="0.3"/>
<path fill-rule="evenodd" clip-rule="evenodd" d="M8.89771 24.9018C8.89771 27.1483 6.90684 28.968 4.44885 28.968C1.99086 28.968 0 27.1483 0 24.9018C0 22.6552 1.99086 20.8356 4.44885 20.8356C6.90684 20.8356 8.89771 22.6552 8.89771 24.9018Z" fill="white" fill-opacity="0.3"/>
<path fill-rule="evenodd" clip-rule="evenodd" d="M32.6243 24.9018C32.6243 27.1483 30.6334 28.968 28.1754 28.968C25.7174 28.968 23.7266 27.1483 23.7266 24.9018C23.7266 22.6552 25.7174 20.8356 28.1754 20.8356C30.6334 20.8356 32.6243 22.6552 32.6243 24.9018Z" fill="white" fill-opacity="0.3"/>
<path fill-rule="evenodd" clip-rule="evenodd" d="M54.8705 24.9018C54.8705 27.1483 52.8796 28.968 50.4216 28.968C47.9635 28.968 45.9727 27.1483 45.9727 24.9018C45.9727 22.6552 47.9635 20.8356 50.4216 20.8356C52.8796 20.8356 54.8705 22.6552 54.8705 24.9018Z" fill="white" fill-opacity="0.3"/>
<path fill-rule="evenodd" clip-rule="evenodd" d="M77.1125 24.9018C77.1125 27.1483 75.1217 28.968 72.6637 28.968C70.2057 28.968 68.2148 27.1483 68.2148 24.9018C68.2148 22.6552 70.2057 20.8356 72.6637 20.8356C75.1217 20.8356 77.1125 22.6552 77.1125 24.9018Z" fill="white" fill-opacity="0.3"/>
<path fill-rule="evenodd" clip-rule="evenodd" d="M100.839 24.9018C100.839 27.1483 98.8482 28.968 96.3903 28.968C93.9323 28.968 91.9414 27.1483 91.9414 24.9018C91.9414 22.6552 93.9323 20.8356 96.3903 20.8356C98.8482 20.8356 100.839 22.6552 100.839 24.9018Z" fill="white" fill-opacity="0.3"/>
<path fill-rule="evenodd" clip-rule="evenodd" d="M123.085 24.9018C123.085 27.1483 121.094 28.968 118.636 28.968C116.178 28.968 114.188 27.1483 114.188 24.9018C114.188 22.6552 116.178 20.8356 118.636 20.8356C121.094 20.8356 123.085 22.6552 123.085 24.9018Z" fill="white" fill-opacity="0.3"/>
<path fill-rule="evenodd" clip-rule="evenodd" d="M146.812 24.9018C146.812 27.1483 144.821 28.968 142.363 28.968C139.905 28.968 137.914 27.1483 137.914 24.9018C137.914 22.6552 139.905 20.8356 142.363 20.8356C144.821 20.8356 146.812 22.6552 146.812 24.9018Z" fill="white" fill-opacity="0.3"/>
<path fill-rule="evenodd" clip-rule="evenodd" d="M169.058 24.9018C169.058 27.1483 167.067 28.968 164.609 28.968C162.151 28.968 160.16 27.1483 160.16 24.9018C160.16 22.6552 162.151 20.8356 164.609 20.8356C167.067 20.8356 169.058 22.6552 169.058 24.9018Z" fill="white" fill-opacity="0.3"/>
<path fill-rule="evenodd" clip-rule="evenodd" d="M192.784 24.9018C192.784 27.1483 190.794 28.968 188.336 28.968C185.878 28.968 183.887 27.1483 183.887 24.9018C183.887 22.6552 185.878 20.8356 188.336 20.8356C190.794 20.8356 192.784 22.6552 192.784 24.9018Z" fill="white" fill-opacity="0.3"/>
<path fill-rule="evenodd" clip-rule="evenodd" d="M215.027 24.9018C215.027 27.1483 213.036 28.968 210.578 28.968C208.12 28.968 206.129 27.1483 206.129 24.9018C206.129 22.6552 208.12 20.8356 210.578 20.8356C213.036 20.8356 215.027 22.6552 215.027 24.9018Z" fill="white" fill-opacity="0.3"/>
<path fill-rule="evenodd" clip-rule="evenodd" d="M237.273 24.9018C237.273 27.1483 235.282 28.968 232.824 28.968C230.366 28.968 228.375 27.1483 228.375 24.9018C228.375 22.6552 230.366 20.8356 232.824 20.8356C235.282 20.8356 237.273 22.6552 237.273 24.9018Z" fill="white" fill-opacity="0.3"/>
<path fill-rule="evenodd" clip-rule="evenodd" d="M260.999 24.9018C260.999 27.1483 259.008 28.968 256.55 28.968C254.092 28.968 252.102 27.1483 252.102 24.9018C252.102 22.6552 254.092 20.8356 256.55 20.8356C259.008 20.8356 260.999 22.6552 260.999 24.9018Z" fill="white" fill-opacity="0.3"/>
<path fill-rule="evenodd" clip-rule="evenodd" d="M8.89771 46.5848C8.89771 48.8311 6.90684 50.6505 4.44885 50.6505C1.99086 50.6505 0 48.8311 0 46.5848C0 44.3386 1.99086 42.5192 4.44885 42.5192C6.90684 42.5192 8.89771 44.3386 8.89771 46.5848Z" fill="white" fill-opacity="0.3"/>
<path fill-rule="evenodd" clip-rule="evenodd" d="M32.6243 46.5848C32.6243 48.8311 30.6334 50.6505 28.1754 50.6505C25.7174 50.6505 23.7266 48.8311 23.7266 46.5848C23.7266 44.3386 25.7174 42.5192 28.1754 42.5192C30.6334 42.5192 32.6243 44.3386 32.6243 46.5848Z" fill="white" fill-opacity="0.3"/>
<path fill-rule="evenodd" clip-rule="evenodd" d="M54.8705 46.5848C54.8705 48.8311 52.8796 50.6505 50.4216 50.6505C47.9635 50.6505 45.9727 48.8311 45.9727 46.5848C45.9727 44.3386 47.9635 42.5192 50.4216 42.5192C52.8796 42.5192 54.8705 44.3386 54.8705 46.5848Z" fill="white" fill-opacity="0.3"/>
<path fill-rule="evenodd" clip-rule="evenodd" d="M77.1125 46.5848C77.1125 48.8311 75.1217 50.6505 72.6637 50.6505C70.2057 50.6505 68.2148 48.8311 68.2148 46.5848C68.2148 44.3386 70.2057 42.5192 72.6637 42.5192C75.1217 42.5192 77.1125 44.3386 77.1125 46.5848Z" fill="white" fill-opacity="0.3"/>
<path fill-rule="evenodd" clip-rule="evenodd" d="M100.839 46.5848C100.839 48.8311 98.8482 50.6505 96.3903 50.6505C93.9323 50.6505 91.9414 48.8311 91.9414 46.5848C91.9414 44.3386 93.9323 42.5192 96.3903 42.5192C98.8482 42.5192 100.839 44.3386 100.839 46.5848Z" fill="white" fill-opacity="0.3"/>
<path fill-rule="evenodd" clip-rule="evenodd" d="M123.085 46.5848C123.085 48.8311 121.094 50.6505 118.636 50.6505C116.178 50.6505 114.188 48.8311 114.188 46.5848C114.188 44.3386 116.178 42.5192 118.636 42.5192C121.094 42.5192 123.085 44.3386 123.085 46.5848Z" fill="white" fill-opacity="0.3"/>
<path fill-rule="evenodd" clip-rule="evenodd" d="M146.812 46.5848C146.812 48.8311 144.821 50.6505 142.363 50.6505C139.905 50.6505 137.914 48.8311 137.914 46.5848C137.914 44.3386 139.905 42.5192 142.363 42.5192C144.821 42.5192 146.812 44.3386 146.812 46.5848Z" fill="white" fill-opacity="0.3"/>
<path fill-rule="evenodd" clip-rule="evenodd" d="M169.058 46.5848C169.058 48.8311 167.067 50.6505 164.609 50.6505C162.151 50.6505 160.16 48.8311 160.16 46.5848C160.16 44.3386 162.151 42.5192 164.609 42.5192C167.067 42.5192 169.058 44.3386 169.058 46.5848Z" fill="white" fill-opacity="0.3"/>
<path fill-rule="evenodd" clip-rule="evenodd" d="M192.784 46.5848C192.784 48.8311 190.794 50.6505 188.336 50.6505C185.878 50.6505 183.887 48.8311 183.887 46.5848C183.887 44.3386 185.878 42.5192 188.336 42.5192C190.794 42.5192 192.784 44.3386 192.784 46.5848Z" fill="white" fill-opacity="0.3"/>
<path fill-rule="evenodd" clip-rule="evenodd" d="M215.027 46.5848C215.027 48.8311 213.036 50.6505 210.578 50.6505C208.12 50.6505 206.129 48.8311 206.129 46.5848C206.129 44.3386 208.12 42.5192 210.578 42.5192C213.036 42.5192 215.027 44.3386 215.027 46.5848Z" fill="white" fill-opacity="0.3"/>
<path fill-rule="evenodd" clip-rule="evenodd" d="M237.273 46.5848C237.273 48.8311 235.282 50.6505 232.824 50.6505C230.366 50.6505 228.375 48.8311 228.375 46.5848C228.375 44.3386 230.366 42.5192 232.824 42.5192C235.282 42.5192 237.273 44.3386 237.273 46.5848Z" fill="white" fill-opacity="0.3"/>
<path fill-rule="evenodd" clip-rule="evenodd" d="M260.999 46.5848C260.999 48.8311 259.008 50.6505 256.55 50.6505C254.092 50.6505 252.102 48.8311 252.102 46.5848C252.102 44.3386 254.092 42.5192 256.55 42.5192C259.008 42.5192 260.999 44.3386 260.999 46.5848Z" fill="white" fill-opacity="0.3"/>
<path fill-rule="evenodd" clip-rule="evenodd" d="M8.89771 66.9132C8.89771 69.1594 6.90684 70.9788 4.44885 70.9788C1.99086 70.9788 0 69.1594 0 66.9132C0 64.6669 1.99086 62.8475 4.44885 62.8475C6.90684 62.8475 8.89771 64.6669 8.89771 66.9132Z" fill="white" fill-opacity="0.3"/>
<path fill-rule="evenodd" clip-rule="evenodd" d="M32.6243 66.9132C32.6243 69.1594 30.6334 70.9788 28.1754 70.9788C25.7174 70.9788 23.7266 69.1594 23.7266 66.9132C23.7266 64.6669 25.7174 62.8475 28.1754 62.8475C30.6334 62.8475 32.6243 64.6669 32.6243 66.9132Z" fill="white" fill-opacity="0.3"/>
<path fill-rule="evenodd" clip-rule="evenodd" d="M54.8705 66.9132C54.8705 69.1594 52.8796 70.9788 50.4216 70.9788C47.9635 70.9788 45.9727 69.1594 45.9727 66.9132C45.9727 64.6669 47.9635 62.8475 50.4216 62.8475C52.8796 62.8475 54.8705 64.6669 54.8705 66.9132Z" fill="white" fill-opacity="0.3"/>
<path fill-rule="evenodd" clip-rule="evenodd" d="M77.1125 66.9132C77.1125 69.1594 75.1217 70.9788 72.6637 70.9788C70.2057 70.9788 68.2148 69.1594 68.2148 66.9132C68.2148 64.6669 70.2057 62.8475 72.6637 62.8475C75.1217 62.8475 77.1125 64.6669 77.1125 66.9132Z" fill="white" fill-opacity="0.3"/>
<path fill-rule="evenodd" clip-rule="evenodd" d="M100.839 66.9132C100.839 69.1594 98.8482 70.9788 96.3903 70.9788C93.9323 70.9788 91.9414 69.1594 91.9414 66.9132C91.9414 64.6669 93.9323 62.8475 96.3903 62.8475C98.8482 62.8475 100.839 64.6669 100.839 66.9132Z" fill="white" fill-opacity="0.3"/>
<path fill-rule="evenodd" clip-rule="evenodd" d="M123.085 66.9132C123.085 69.1594 121.094 70.9788 118.636 70.9788C116.178 70.9788 114.188 69.1594 114.188 66.9132C114.188 64.6669 116.178 62.8475 118.636 62.8475C121.094 62.8475 123.085 64.6669 123.085 66.9132Z" fill="white" fill-opacity="0.3"/>
<path fill-rule="evenodd" clip-rule="evenodd" d="M146.812 66.9132C146.812 69.1594 144.821 70.9788 142.363 70.9788C139.905 70.9788 137.914 69.1594 137.914 66.9132C137.914 64.6669 139.905 62.8475 142.363 62.8475C144.821 62.8475 146.812 64.6669 146.812 66.9132Z" fill="white" fill-opacity="0.3"/>
<path fill-rule="evenodd" clip-rule="evenodd" d="M169.058 66.9132C169.058 69.1594 167.067 70.9788 164.609 70.9788C162.151 70.9788 160.16 69.1594 160.16 66.9132C160.16 64.6669 162.151 62.8475 164.609 62.8475C167.067 62.8475 169.058 64.6669 169.058 66.9132Z" fill="white" fill-opacity="0.3"/>
<path fill-rule="evenodd" clip-rule="evenodd" d="M192.784 66.9132C192.784 69.1594 190.794 70.9788 188.336 70.9788C185.878 70.9788 183.887 69.1594 183.887 66.9132C183.887 64.6669 185.878 62.8475 188.336 62.8475C190.794 62.8475 192.784 64.6669 192.784 66.9132Z" fill="white" fill-opacity="0.3"/>
<path fill-rule="evenodd" clip-rule="evenodd" d="M215.027 66.9132C215.027 69.1594 213.036 70.9788 210.578 70.9788C208.12 70.9788 206.129 69.1594 206.129 66.9132C206.129 64.6669 208.12 62.8475 210.578 62.8475C213.036 62.8475 215.027 64.6669 215.027 66.9132Z" fill="white" fill-opacity="0.3"/>
<path fill-rule="evenodd" clip-rule="evenodd" d="M237.273 66.9132C237.273 69.1594 235.282 70.9788 232.824 70.9788C230.366 70.9788 228.375 69.1594 228.375 66.9132C228.375 64.6669 230.366 62.8475 232.824 62.8475C235.282 62.8475 237.273 64.6669 237.273 66.9132Z" fill="white" fill-opacity="0.3"/>
<path fill-rule="evenodd" clip-rule="evenodd" d="M260.999 66.9132C260.999 69.1594 259.008 70.9788 256.55 70.9788C254.092 70.9788 252.102 69.1594 252.102 66.9132C252.102 64.6669 254.092 62.8475 256.55 62.8475C259.008 62.8475 260.999 64.6669 260.999 66.9132Z" fill="white" fill-opacity="0.3"/>
<path fill-rule="evenodd" clip-rule="evenodd" d="M8.89771 88.5973C8.89771 90.8438 6.90684 92.6635 4.44885 92.6635C1.99086 92.6635 0 90.8438 0 88.5973C0 86.3507 1.99086 84.5311 4.44885 84.5311C6.90684 84.5311 8.89771 86.3507 8.89771 88.5973Z" fill="white" fill-opacity="0.3"/>
<path fill-rule="evenodd" clip-rule="evenodd" d="M32.6243 88.5973C32.6243 90.8438 30.6334 92.6635 28.1754 92.6635C25.7174 92.6635 23.7266 90.8438 23.7266 88.5973C23.7266 86.3507 25.7174 84.5311 28.1754 84.5311C30.6334 84.5311 32.6243 86.3507 32.6243 88.5973Z" fill="white" fill-opacity="0.3"/>
<path fill-rule="evenodd" clip-rule="evenodd" d="M54.8705 88.5973C54.8705 90.8438 52.8796 92.6635 50.4216 92.6635C47.9635 92.6635 45.9727 90.8438 45.9727 88.5973C45.9727 86.3507 47.9635 84.5311 50.4216 84.5311C52.8796 84.5311 54.8705 86.3507 54.8705 88.5973Z" fill="white" fill-opacity="0.3"/>
<path fill-rule="evenodd" clip-rule="evenodd" d="M77.1125 88.5973C77.1125 90.8438 75.1217 92.6635 72.6637 92.6635C70.2057 92.6635 68.2148 90.8438 68.2148 88.5973C68.2148 86.3507 70.2057 84.5311 72.6637 84.5311C75.1217 84.5311 77.1125 86.3507 77.1125 88.5973Z" fill="white" fill-opacity="0.3"/>
<path fill-rule="evenodd" clip-rule="evenodd" d="M100.839 88.5973C100.839 90.8438 98.8482 92.6635 96.3903 92.6635C93.9323 92.6635 91.9414 90.8438 91.9414 88.5973C91.9414 86.3507 93.9323 84.5311 96.3903 84.5311C98.8482 84.5311 100.839 86.3507 100.839 88.5973Z" fill="white" fill-opacity="0.3"/>
<path fill-rule="evenodd" clip-rule="evenodd" d="M123.085 88.5973C123.085 90.8438 121.094 92.6635 118.636 92.6635C116.178 92.6635 114.188 90.8438 114.188 88.5973C114.188 86.3507 116.178 84.5311 118.636 84.5311C121.094 84.5311 123.085 86.3507 123.085 88.5973Z" fill="white" fill-opacity="0.3"/>
<path fill-rule="evenodd" clip-rule="evenodd" d="M146.812 88.5973C146.812 90.8438 144.821 92.6635 142.363 92.6635C139.905 92.6635 137.914 90.8438 137.914 88.5973C137.914 86.3507 139.905 84.5311 142.363 84.5311C144.821 84.5311 146.812 86.3507 146.812 88.5973Z" fill="white" fill-opacity="0.3"/>
<path fill-rule="evenodd" clip-rule="evenodd" d="M169.058 88.5973C169.058 90.8438 167.067 92.6635 164.609 92.6635C162.151 92.6635 160.16 90.8438 160.16 88.5973C160.16 86.3507 162.151 84.5311 164.609 84.5311C167.067 84.5311 169.058 86.3507 169.058 88.5973Z" fill="white" fill-opacity="0.3"/>
<path fill-rule="evenodd" clip-rule="evenodd" d="M192.784 88.5973C192.784 90.8438 190.794 92.6635 188.336 92.6635C185.878 92.6635 183.887 90.8438 183.887 88.5973C183.887 86.3507 185.878 84.5311 188.336 84.5311C190.794 84.5311 192.784 86.3507 192.784 88.5973Z" fill="white" fill-opacity="0.3"/>
<path fill-rule="evenodd" clip-rule="evenodd" d="M215.027 88.5973C215.027 90.8438 213.036 92.6635 210.578 92.6635C208.12 92.6635 206.129 90.8438 206.129 88.5973C206.129 86.3507 208.12 84.5311 210.578 84.5311C213.036 84.5311 215.027 86.3507 215.027 88.5973Z" fill="white" fill-opacity="0.3"/>
<path fill-rule="evenodd" clip-rule="evenodd" d="M237.273 88.5973C237.273 90.8438 235.282 92.6635 232.824 92.6635C230.366 92.6635 228.375 90.8438 228.375 88.5973C228.375 86.3507 230.366 84.5311 232.824 84.5311C235.282 84.5311 237.273 86.3507 237.273 88.5973Z" fill="white" fill-opacity="0.3"/>
<path fill-rule="evenodd" clip-rule="evenodd" d="M260.999 88.5973C260.999 90.8438 259.008 92.6635 256.55 92.6635C254.092 92.6635 252.102 90.8438 252.102 88.5973C252.102 86.3507 254.092 84.5311 256.55 84.5311C259.008 84.5311 260.999 86.3507 260.999 88.5973Z" fill="white" fill-opacity="0.3"/>
<path fill-rule="evenodd" clip-rule="evenodd" d="M8.89771 108.926C8.89771 111.172 6.90684 112.992 4.44885 112.992C1.99086 112.992 0 111.172 0 108.926C0 106.679 1.99086 104.859 4.44885 104.859C6.90684 104.859 8.89771 106.679 8.89771 108.926Z" fill="white" fill-opacity="0.3"/>
<path fill-rule="evenodd" clip-rule="evenodd" d="M32.6243 108.926C32.6243 111.172 30.6334 112.992 28.1754 112.992C25.7174 112.992 23.7266 111.172 23.7266 108.926C23.7266 106.679 25.7174 104.859 28.1754 104.859C30.6334 104.859 32.6243 106.679 32.6243 108.926Z" fill="white" fill-opacity="0.3"/>
<path fill-rule="evenodd" clip-rule="evenodd" d="M54.8705 108.926C54.8705 111.172 52.8796 112.992 50.4216 112.992C47.9635 112.992 45.9727 111.172 45.9727 108.926C45.9727 106.679 47.9635 104.859 50.4216 104.859C52.8796 104.859 54.8705 106.679 54.8705 108.926Z" fill="white" fill-opacity="0.3"/>
<path fill-rule="evenodd" clip-rule="evenodd" d="M77.1125 108.926C77.1125 111.172 75.1217 112.992 72.6637 112.992C70.2057 112.992 68.2148 111.172 68.2148 108.926C68.2148 106.679 70.2057 104.859 72.6637 104.859C75.1217 104.859 77.1125 106.679 77.1125 108.926Z" fill="white" fill-opacity="0.3"/>
<path fill-rule="evenodd" clip-rule="evenodd" d="M100.839 108.926C100.839 111.172 98.8482 112.992 96.3903 112.992C93.9323 112.992 91.9414 111.172 91.9414 108.926C91.9414 106.679 93.9323 104.859 96.3903 104.859C98.8482 104.859 100.839 106.679 100.839 108.926Z" fill="white" fill-opacity="0.3"/>
<path fill-rule="evenodd" clip-rule="evenodd" d="M123.085 108.926C123.085 111.172 121.094 112.992 118.636 112.992C116.178 112.992 114.188 111.172 114.188 108.926C114.188 106.679 116.178 104.859 118.636 104.859C121.094 104.859 123.085 106.679 123.085 108.926Z" fill="white" fill-opacity="0.3"/>
<path fill-rule="evenodd" clip-rule="evenodd" d="M146.812 108.926C146.812 111.172 144.821 112.992 142.363 112.992C139.905 112.992 137.914 111.172 137.914 108.926C137.914 106.679 139.905 104.859 142.363 104.859C144.821 104.859 146.812 106.679 146.812 108.926Z" fill="white" fill-opacity="0.3"/>
<path fill-rule="evenodd" clip-rule="evenodd" d="M169.058 108.926C169.058 111.172 167.067 112.992 164.609 112.992C162.151 112.992 160.16 111.172 160.16 108.926C160.16 106.679 162.151 104.859 164.609 104.859C167.067 104.859 169.058 106.679 169.058 108.926Z" fill="white" fill-opacity="0.3"/>
<path fill-rule="evenodd" clip-rule="evenodd" d="M192.784 108.926C192.784 111.172 190.794 112.992 188.336 112.992C185.878 112.992 183.887 111.172 183.887 108.926C183.887 106.679 185.878 104.859 188.336 104.859C190.794 104.859 192.784 106.679 192.784 108.926Z" fill="white" fill-opacity="0.3"/>
<path fill-rule="evenodd" clip-rule="evenodd" d="M215.027 108.926C215.027 111.172 213.036 112.992 210.578 112.992C208.12 112.992 206.129 111.172 206.129 108.926C206.129 106.679 208.12 104.859 210.578 104.859C213.036 104.859 215.027 106.679 215.027 108.926Z" fill="white" fill-opacity="0.3"/>
<path fill-rule="evenodd" clip-rule="evenodd" d="M237.273 108.926C237.273 111.172 235.282 112.992 232.824 112.992C230.366 112.992 228.375 111.172 228.375 108.926C228.375 106.679 230.366 104.859 232.824 104.859C235.282 104.859 237.273 106.679 237.273 108.926Z" fill="white" fill-opacity="0.3"/>
<path fill-rule="evenodd" clip-rule="evenodd" d="M260.999 108.926C260.999 111.172 259.008 112.992 256.55 112.992C254.092 112.992 252.102 111.172 252.102 108.926C252.102 106.679 254.092 104.859 256.55 104.859C259.008 104.859 260.999 106.679 260.999 108.926Z" fill="white" fill-opacity="0.3"/>
<path fill-rule="evenodd" clip-rule="evenodd" d="M8.89771 130.609C8.89771 132.856 6.90684 134.675 4.44885 134.675C1.99086 134.675 0 132.856 0 130.609C0 128.363 1.99086 126.543 4.44885 126.543C6.90684 126.543 8.89771 128.363 8.89771 130.609Z" fill="white" fill-opacity="0.3"/>
<path fill-rule="evenodd" clip-rule="evenodd" d="M32.6243 130.609C32.6243 132.856 30.6334 134.675 28.1754 134.675C25.7174 134.675 23.7266 132.856 23.7266 130.609C23.7266 128.363 25.7174 126.543 28.1754 126.543C30.6334 126.543 32.6243 128.363 32.6243 130.609Z" fill="white" fill-opacity="0.3"/>
<path fill-rule="evenodd" clip-rule="evenodd" d="M54.8705 130.609C54.8705 132.856 52.8796 134.675 50.4216 134.675C47.9635 134.675 45.9727 132.856 45.9727 130.609C45.9727 128.363 47.9635 126.543 50.4216 126.543C52.8796 126.543 54.8705 128.363 54.8705 130.609Z" fill="white" fill-opacity="0.3"/>
<path fill-rule="evenodd" clip-rule="evenodd" d="M77.1125 130.609C77.1125 132.856 75.1217 134.675 72.6637 134.675C70.2057 134.675 68.2148 132.856 68.2148 130.609C68.2148 128.363 70.2057 126.543 72.6637 126.543C75.1217 126.543 77.1125 128.363 77.1125 130.609Z" fill="white" fill-opacity="0.3"/>
<path fill-rule="evenodd" clip-rule="evenodd" d="M100.839 130.609C100.839 132.856 98.8482 134.675 96.3903 134.675C93.9323 134.675 91.9414 132.856 91.9414 130.609C91.9414 128.363 93.9323 126.543 96.3903 126.543C98.8482 126.543 100.839 128.363 100.839 130.609Z" fill="white" fill-opacity="0.3"/>
<path fill-rule="evenodd" clip-rule="evenodd" d="M123.085 130.609C123.085 132.856 121.094 134.675 118.636 134.675C116.178 134.675 114.188 132.856 114.188 130.609C114.188 128.363 116.178 126.543 118.636 126.543C121.094 126.543 123.085 128.363 123.085 130.609Z" fill="white" fill-opacity="0.3"/>
<path fill-rule="evenodd" clip-rule="evenodd" d="M146.812 130.609C146.812 132.856 144.821 134.675 142.363 134.675C139.905 134.675 137.914 132.856 137.914 130.609C137.914 128.363 139.905 126.543 142.363 126.543C144.821 126.543 146.812 128.363 146.812 130.609Z" fill="white" fill-opacity="0.3"/>
<path fill-rule="evenodd" clip-rule="evenodd" d="M169.058 130.609C169.058 132.856 167.067 134.675 164.609 134.675C162.151 134.675 160.16 132.856 160.16 130.609C160.16 128.363 162.151 126.543 164.609 126.543C167.067 126.543 169.058 128.363 169.058 130.609Z" fill="white" fill-opacity="0.3"/>
<path fill-rule="evenodd" clip-rule="evenodd" d="M192.784 130.609C192.784 132.856 190.794 134.675 188.336 134.675C185.878 134.675 183.887 132.856 183.887 130.609C183.887 128.363 185.878 126.543 188.336 126.543C190.794 126.543 192.784 128.363 192.784 130.609Z" fill="white" fill-opacity="0.3"/>
<path fill-rule="evenodd" clip-rule="evenodd" d="M215.027 130.609C215.027 132.856 213.036 134.675 210.578 134.675C208.12 134.675 206.129 132.856 206.129 130.609C206.129 128.363 208.12 126.543 210.578 126.543C213.036 126.543 215.027 128.363 215.027 130.609Z" fill="white" fill-opacity="0.3"/>
<path fill-rule="evenodd" clip-rule="evenodd" d="M237.273 130.609C237.273 132.856 235.282 134.675 232.824 134.675C230.366 134.675 228.375 132.856 228.375 130.609C228.375 128.363 230.366 126.543 232.824 126.543C235.282 126.543 237.273 128.363 237.273 130.609Z" fill="white" fill-opacity="0.3"/>
<path fill-rule="evenodd" clip-rule="evenodd" d="M260.999 130.609C260.999 132.856 259.008 134.675 256.55 134.675C254.092 134.675 252.102 132.856 252.102 130.609C252.102 128.363 254.092 126.543 256.55 126.543C259.008 126.543 260.999 128.363 260.999 130.609Z" fill="white" fill-opacity="0.3"/>
<path fill-rule="evenodd" clip-rule="evenodd" d="M8.89771 150.937C8.89771 153.184 6.90684 155.004 4.44885 155.004C1.99086 155.004 0 153.184 0 150.937C0 148.691 1.99086 146.871 4.44885 146.871C6.90684 146.871 8.89771 148.691 8.89771 150.937Z" fill="white" fill-opacity="0.3"/>
<path fill-rule="evenodd" clip-rule="evenodd" d="M32.6243 150.937C32.6243 153.184 30.6334 155.004 28.1754 155.004C25.7174 155.004 23.7266 153.184 23.7266 150.937C23.7266 148.691 25.7174 146.871 28.1754 146.871C30.6334 146.871 32.6243 148.691 32.6243 150.937Z" fill="white" fill-opacity="0.3"/>
<path fill-rule="evenodd" clip-rule="evenodd" d="M54.8705 150.937C54.8705 153.184 52.8796 155.004 50.4216 155.004C47.9635 155.004 45.9727 153.184 45.9727 150.937C45.9727 148.691 47.9635 146.871 50.4216 146.871C52.8796 146.871 54.8705 148.691 54.8705 150.937Z" fill="white" fill-opacity="0.3"/>
<path fill-rule="evenodd" clip-rule="evenodd" d="M77.1125 150.937C77.1125 153.184 75.1217 155.004 72.6637 155.004C70.2057 155.004 68.2148 153.184 68.2148 150.937C68.2148 148.691 70.2057 146.871 72.6637 146.871C75.1217 146.871 77.1125 148.691 77.1125 150.937Z" fill="white" fill-opacity="0.3"/>
<path fill-rule="evenodd" clip-rule="evenodd" d="M100.839 150.937C100.839 153.184 98.8482 155.004 96.3903 155.004C93.9323 155.004 91.9414 153.184 91.9414 150.937C91.9414 148.691 93.9323 146.871 96.3903 146.871C98.8482 146.871 100.839 148.691 100.839 150.937Z" fill="white" fill-opacity="0.3"/>
<path fill-rule="evenodd" clip-rule="evenodd" d="M123.085 150.937C123.085 153.184 121.094 155.004 118.636 155.004C116.178 155.004 114.188 153.184 114.188 150.937C114.188 148.691 116.178 146.871 118.636 146.871C121.094 146.871 123.085 148.691 123.085 150.937Z" fill="white" fill-opacity="0.3"/>
<path fill-rule="evenodd" clip-rule="evenodd" d="M146.812 150.937C146.812 153.184 144.821 155.004 142.363 155.004C139.905 155.004 137.914 153.184 137.914 150.937C137.914 148.691 139.905 146.871 142.363 146.871C144.821 146.871 146.812 148.691 146.812 150.937Z" fill="white" fill-opacity="0.3"/>
<path fill-rule="evenodd" clip-rule="evenodd" d="M169.058 150.937C169.058 153.184 167.067 155.004 164.609 155.004C162.151 155.004 160.16 153.184 160.16 150.937C160.16 148.691 162.151 146.871 164.609 146.871C167.067 146.871 169.058 148.691 169.058 150.937Z" fill="white" fill-opacity="0.3"/>
<path fill-rule="evenodd" clip-rule="evenodd" d="M192.784 150.937C192.784 153.184 190.794 155.004 188.336 155.004C185.878 155.004 183.887 153.184 183.887 150.937C183.887 148.691 185.878 146.871 188.336 146.871C190.794 146.871 192.784 148.691 192.784 150.937Z" fill="white" fill-opacity="0.3"/>
<path fill-rule="evenodd" clip-rule="evenodd" d="M215.027 150.937C215.027 153.184 213.036 155.004 210.578 155.004C208.12 155.004 206.129 153.184 206.129 150.937C206.129 148.691 208.12 146.871 210.578 146.871C213.036 146.871 215.027 148.691 215.027 150.937Z" fill="white" fill-opacity="0.3"/>
<path fill-rule="evenodd" clip-rule="evenodd" d="M237.273 150.937C237.273 153.184 235.282 155.004 232.824 155.004C230.366 155.004 228.375 153.184 228.375 150.937C228.375 148.691 230.366 146.871 232.824 146.871C235.282 146.871 237.273 148.691 237.273 150.937Z" fill="white" fill-opacity="0.3"/>
<path fill-rule="evenodd" clip-rule="evenodd" d="M260.999 150.937C260.999 153.184 259.008 155.004 256.55 155.004C254.092 155.004 252.102 153.184 252.102 150.937C252.102 148.691 254.092 146.871 256.55 146.871C259.008 146.871 260.999 148.691 260.999 150.937Z" fill="white" fill-opacity="0.3"/>
<path fill-rule="evenodd" clip-rule="evenodd" d="M8.89771 171.265C8.89771 173.512 6.90684 175.331 4.44885 175.331C1.99086 175.331 0 173.512 0 171.265C0 169.019 1.99086 167.2 4.44885 167.2C6.90684 167.2 8.89771 169.019 8.89771 171.265Z" fill="white" fill-opacity="0.3"/>
<path fill-rule="evenodd" clip-rule="evenodd" d="M32.6243 171.265C32.6243 173.512 30.6334 175.331 28.1754 175.331C25.7174 175.331 23.7266 173.512 23.7266 171.265C23.7266 169.019 25.7174 167.2 28.1754 167.2C30.6334 167.2 32.6243 169.019 32.6243 171.265Z" fill="white" fill-opacity="0.3"/>
<path fill-rule="evenodd" clip-rule="evenodd" d="M54.8705 171.265C54.8705 173.512 52.8796 175.331 50.4216 175.331C47.9635 175.331 45.9727 173.512 45.9727 171.265C45.9727 169.019 47.9635 167.2 50.4216 167.2C52.8796 167.2 54.8705 169.019 54.8705 171.265Z" fill="white" fill-opacity="0.3"/>
<path fill-rule="evenodd" clip-rule="evenodd" d="M77.1125 171.265C77.1125 173.512 75.1217 175.331 72.6637 175.331C70.2057 175.331 68.2148 173.512 68.2148 171.265C68.2148 169.019 70.2057 167.2 72.6637 167.2C75.1217 167.2 77.1125 169.019 77.1125 171.265Z" fill="white" fill-opacity="0.3"/>
<path fill-rule="evenodd" clip-rule="evenodd" d="M100.839 171.265C100.839 173.512 98.8482 175.331 96.3903 175.331C93.9323 175.331 91.9414 173.512 91.9414 171.265C91.9414 169.019 93.9323 167.2 96.3903 167.2C98.8482 167.2 100.839 169.019 100.839 171.265Z" fill="white" fill-opacity="0.3"/>
<path fill-rule="evenodd" clip-rule="evenodd" d="M123.085 171.265C123.085 173.512 121.094 175.331 118.636 175.331C116.178 175.331 114.188 173.512 114.188 171.265C114.188 169.019 116.178 167.2 118.636 167.2C121.094 167.2 123.085 169.019 123.085 171.265Z" fill="white" fill-opacity="0.3"/>
<path fill-rule="evenodd" clip-rule="evenodd" d="M146.812 171.265C146.812 173.512 144.821 175.331 142.363 175.331C139.905 175.331 137.914 173.512 137.914 171.265C137.914 169.019 139.905 167.2 142.363 167.2C144.821 167.2 146.812 169.019 146.812 171.265Z" fill="white" fill-opacity="0.3"/>
<path fill-rule="evenodd" clip-rule="evenodd" d="M169.058 171.265C169.058 173.512 167.067 175.331 164.609 175.331C162.151 175.331 160.16 173.512 160.16 171.265C160.16 169.019 162.151 167.2 164.609 167.2C167.067 167.2 169.058 169.019 169.058 171.265Z" fill="white" fill-opacity="0.3"/>
<path fill-rule="evenodd" clip-rule="evenodd" d="M192.784 171.265C192.784 173.512 190.794 175.331 188.336 175.331C185.878 175.331 183.887 173.512 183.887 171.265C183.887 169.019 185.878 167.2 188.336 167.2C190.794 167.2 192.784 169.019 192.784 171.265Z" fill="white" fill-opacity="0.3"/>
<path fill-rule="evenodd" clip-rule="evenodd" d="M215.027 171.265C215.027 173.512 213.036 175.331 210.578 175.331C208.12 175.331 206.129 173.512 206.129 171.265C206.129 169.019 208.12 167.2 210.578 167.2C213.036 167.2 215.027 169.019 215.027 171.265Z" fill="white" fill-opacity="0.3"/>
<path fill-rule="evenodd" clip-rule="evenodd" d="M237.273 171.265C237.273 173.512 235.282 175.331 232.824 175.331C230.366 175.331 228.375 173.512 228.375 171.265C228.375 169.019 230.366 167.2 232.824 167.2C235.282 167.2 237.273 169.019 237.273 171.265Z" fill="white" fill-opacity="0.3"/>
<path fill-rule="evenodd" clip-rule="evenodd" d="M260.999 171.265C260.999 173.512 259.008 175.331 256.55 175.331C254.092 175.331 252.102 173.512 252.102 171.265C252.102 169.019 254.092 167.2 256.55 167.2C259.008 167.2 260.999 169.019 260.999 171.265Z" fill="white" fill-opacity="0.3"/>
<path fill-rule="evenodd" clip-rule="evenodd" d="M8.89771 192.949C8.89771 195.196 6.90684 197.016 4.44885 197.016C1.99086 197.016 0 195.196 0 192.949C0 190.703 1.99086 188.883 4.44885 188.883C6.90684 188.883 8.89771 190.703 8.89771 192.949Z" fill="white" fill-opacity="0.3"/>
<path fill-rule="evenodd" clip-rule="evenodd" d="M32.6243 192.949C32.6243 195.196 30.6334 197.016 28.1754 197.016C25.7174 197.016 23.7266 195.196 23.7266 192.949C23.7266 190.703 25.7174 188.883 28.1754 188.883C30.6334 188.883 32.6243 190.703 32.6243 192.949Z" fill="white" fill-opacity="0.3"/>
<path fill-rule="evenodd" clip-rule="evenodd" d="M54.8705 192.949C54.8705 195.196 52.8796 197.016 50.4216 197.016C47.9635 197.016 45.9727 195.196 45.9727 192.949C45.9727 190.703 47.9635 188.883 50.4216 188.883C52.8796 188.883 54.8705 190.703 54.8705 192.949Z" fill="white" fill-opacity="0.3"/>
<path fill-rule="evenodd" clip-rule="evenodd" d="M77.1125 192.949C77.1125 195.196 75.1217 197.016 72.6637 197.016C70.2057 197.016 68.2148 195.196 68.2148 192.949C68.2148 190.703 70.2057 188.883 72.6637 188.883C75.1217 188.883 77.1125 190.703 77.1125 192.949Z" fill="white" fill-opacity="0.3"/>
<path fill-rule="evenodd" clip-rule="evenodd" d="M100.839 192.949C100.839 195.196 98.8482 197.016 96.3903 197.016C93.9323 197.016 91.9414 195.196 91.9414 192.949C91.9414 190.703 93.9323 188.883 96.3903 188.883C98.8482 188.883 100.839 190.703 100.839 192.949Z" fill="white" fill-opacity="0.3"/>
<path fill-rule="evenodd" clip-rule="evenodd" d="M123.085 192.949C123.085 195.196 121.094 197.016 118.636 197.016C116.178 197.016 114.188 195.196 114.188 192.949C114.188 190.703 116.178 188.883 118.636 188.883C121.094 188.883 123.085 190.703 123.085 192.949Z" fill="white" fill-opacity="0.3"/>
<path fill-rule="evenodd" clip-rule="evenodd" d="M146.812 192.949C146.812 195.196 144.821 197.016 142.363 197.016C139.905 197.016 137.914 195.196 137.914 192.949C137.914 190.703 139.905 188.883 142.363 188.883C144.821 188.883 146.812 190.703 146.812 192.949Z" fill="white" fill-opacity="0.3"/>
<path fill-rule="evenodd" clip-rule="evenodd" d="M169.058 192.949C169.058 195.196 167.067 197.016 164.609 197.016C162.151 197.016 160.16 195.196 160.16 192.949C160.16 190.703 162.151 188.883 164.609 188.883C167.067 188.883 169.058 190.703 169.058 192.949Z" fill="white" fill-opacity="0.3"/>
<path fill-rule="evenodd" clip-rule="evenodd" d="M192.784 192.949C192.784 195.196 190.794 197.016 188.336 197.016C185.878 197.016 183.887 195.196 183.887 192.949C183.887 190.703 185.878 188.883 188.336 188.883C190.794 188.883 192.784 190.703 192.784 192.949Z" fill="white" fill-opacity="0.3"/>
<path fill-rule="evenodd" clip-rule="evenodd" d="M215.027 192.949C215.027 195.196 213.036 197.016 210.578 197.016C208.12 197.016 206.129 195.196 206.129 192.949C206.129 190.703 208.12 188.883 210.578 188.883C213.036 188.883 215.027 190.703 215.027 192.949Z" fill="white" fill-opacity="0.3"/>
<path fill-rule="evenodd" clip-rule="evenodd" d="M237.273 192.949C237.273 195.196 235.282 197.016 232.824 197.016C230.366 197.016 228.375 195.196 228.375 192.949C228.375 190.703 230.366 188.883 232.824 188.883C235.282 188.883 237.273 190.703 237.273 192.949Z" fill="white" fill-opacity="0.3"/>
<path fill-rule="evenodd" clip-rule="evenodd" d="M260.999 192.949C260.999 195.196 259.008 197.016 256.55 197.016C254.092 197.016 252.102 195.196 252.102 192.949C252.102 190.703 254.092 188.883 256.55 188.883C259.008 188.883 260.999 190.703 260.999 192.949Z" fill="white" fill-opacity="0.3"/>
<path fill-rule="evenodd" clip-rule="evenodd" d="M8.89771 213.278C8.89771 215.524 6.90684 217.344 4.44885 217.344C1.99086 217.344 0 215.524 0 213.278C0 211.031 1.99086 209.212 4.44885 209.212C6.90684 209.212 8.89771 211.031 8.89771 213.278Z" fill="white" fill-opacity="0.3"/>
<path fill-rule="evenodd" clip-rule="evenodd" d="M32.6243 213.278C32.6243 215.524 30.6334 217.344 28.1754 217.344C25.7174 217.344 23.7266 215.524 23.7266 213.278C23.7266 211.031 25.7174 209.212 28.1754 209.212C30.6334 209.212 32.6243 211.031 32.6243 213.278Z" fill="white" fill-opacity="0.3"/>
<path fill-rule="evenodd" clip-rule="evenodd" d="M54.8705 213.278C54.8705 215.524 52.8796 217.344 50.4216 217.344C47.9635 217.344 45.9727 215.524 45.9727 213.278C45.9727 211.031 47.9635 209.212 50.4216 209.212C52.8796 209.212 54.8705 211.031 54.8705 213.278Z" fill="white" fill-opacity="0.3"/>
<path fill-rule="evenodd" clip-rule="evenodd" d="M77.1125 213.278C77.1125 215.524 75.1217 217.344 72.6637 217.344C70.2057 217.344 68.2148 215.524 68.2148 213.278C68.2148 211.031 70.2057 209.212 72.6637 209.212C75.1217 209.212 77.1125 211.031 77.1125 213.278Z" fill="white" fill-opacity="0.3"/>
<path fill-rule="evenodd" clip-rule="evenodd" d="M100.839 213.278C100.839 215.524 98.8482 217.344 96.3903 217.344C93.9323 217.344 91.9414 215.524 91.9414 213.278C91.9414 211.031 93.9323 209.212 96.3903 209.212C98.8482 209.212 100.839 211.031 100.839 213.278Z" fill="white" fill-opacity="0.3"/>
<path fill-rule="evenodd" clip-rule="evenodd" d="M123.085 213.278C123.085 215.524 121.094 217.344 118.636 217.344C116.178 217.344 114.188 215.524 114.188 213.278C114.188 211.031 116.178 209.212 118.636 209.212C121.094 209.212 123.085 211.031 123.085 213.278Z" fill="white" fill-opacity="0.3"/>
<path fill-rule="evenodd" clip-rule="evenodd" d="M146.812 213.278C146.812 215.524 144.821 217.344 142.363 217.344C139.905 217.344 137.914 215.524 137.914 213.278C137.914 211.031 139.905 209.212 142.363 209.212C144.821 209.212 146.812 211.031 146.812 213.278Z" fill="white" fill-opacity="0.3"/>
<path fill-rule="evenodd" clip-rule="evenodd" d="M169.058 213.278C169.058 215.524 167.067 217.344 164.609 217.344C162.151 217.344 160.16 215.524 160.16 213.278C160.16 211.031 162.151 209.212 164.609 209.212C167.067 209.212 169.058 211.031 169.058 213.278Z" fill="white" fill-opacity="0.3"/>
<path fill-rule="evenodd" clip-rule="evenodd" d="M192.784 213.278C192.784 215.524 190.794 217.344 188.336 217.344C185.878 217.344 183.887 215.524 183.887 213.278C183.887 211.031 185.878 209.212 188.336 209.212C190.794 209.212 192.784 211.031 192.784 213.278Z" fill="white" fill-opacity="0.3"/>
<path fill-rule="evenodd" clip-rule="evenodd" d="M215.027 213.278C215.027 215.524 213.036 217.344 210.578 217.344C208.12 217.344 206.129 215.524 206.129 213.278C206.129 211.031 208.12 209.212 210.578 209.212C213.036 209.212 215.027 211.031 215.027 213.278Z" fill="white" fill-opacity="0.3"/>
<path fill-rule="evenodd" clip-rule="evenodd" d="M237.273 213.278C237.273 215.524 235.282 217.344 232.824 217.344C230.366 217.344 228.375 215.524 228.375 213.278C228.375 211.031 230.366 209.212 232.824 209.212C235.282 209.212 237.273 211.031 237.273 213.278Z" fill="white" fill-opacity="0.3"/>
<path fill-rule="evenodd" clip-rule="evenodd" d="M260.999 213.278C260.999 215.524 259.008 217.344 256.55 217.344C254.092 217.344 252.102 215.524 252.102 213.278C252.102 211.031 254.092 209.212 256.55 209.212C259.008 209.212 260.999 211.031 260.999 213.278Z" fill="white" fill-opacity="0.3"/>
<path fill-rule="evenodd" clip-rule="evenodd" d="M8.89771 234.961C8.89771 237.207 6.90684 239.026 4.44885 239.026C1.99086 239.026 0 237.207 0 234.961C0 232.714 1.99086 230.895 4.44885 230.895C6.90684 230.895 8.89771 232.714 8.89771 234.961Z" fill="white" fill-opacity="0.3"/>
<path fill-rule="evenodd" clip-rule="evenodd" d="M32.6243 234.961C32.6243 237.207 30.6334 239.026 28.1754 239.026C25.7174 239.026 23.7266 237.207 23.7266 234.961C23.7266 232.714 25.7174 230.895 28.1754 230.895C30.6334 230.895 32.6243 232.714 32.6243 234.961Z" fill="white" fill-opacity="0.3"/>
<path fill-rule="evenodd" clip-rule="evenodd" d="M54.8705 234.961C54.8705 237.207 52.8796 239.026 50.4216 239.026C47.9635 239.026 45.9727 237.207 45.9727 234.961C45.9727 232.714 47.9635 230.895 50.4216 230.895C52.8796 230.895 54.8705 232.714 54.8705 234.961Z" fill="white" fill-opacity="0.3"/>
<path fill-rule="evenodd" clip-rule="evenodd" d="M77.1125 234.961C77.1125 237.207 75.1217 239.026 72.6637 239.026C70.2057 239.026 68.2148 237.207 68.2148 234.961C68.2148 232.714 70.2057 230.895 72.6637 230.895C75.1217 230.895 77.1125 232.714 77.1125 234.961Z" fill="white" fill-opacity="0.3"/>
<path fill-rule="evenodd" clip-rule="evenodd" d="M100.839 234.961C100.839 237.207 98.8482 239.026 96.3903 239.026C93.9323 239.026 91.9414 237.207 91.9414 234.961C91.9414 232.714 93.9323 230.895 96.3903 230.895C98.8482 230.895 100.839 232.714 100.839 234.961Z" fill="white" fill-opacity="0.3"/>
<path fill-rule="evenodd" clip-rule="evenodd" d="M123.085 234.961C123.085 237.207 121.094 239.026 118.636 239.026C116.178 239.026 114.188 237.207 114.188 234.961C114.188 232.714 116.178 230.895 118.636 230.895C121.094 230.895 123.085 232.714 123.085 234.961Z" fill="white" fill-opacity="0.3"/>
<path fill-rule="evenodd" clip-rule="evenodd" d="M146.812 234.961C146.812 237.207 144.821 239.026 142.363 239.026C139.905 239.026 137.914 237.207 137.914 234.961C137.914 232.714 139.905 230.895 142.363 230.895C144.821 230.895 146.812 232.714 146.812 234.961Z" fill="white" fill-opacity="0.3"/>
<path fill-rule="evenodd" clip-rule="evenodd" d="M169.058 234.961C169.058 237.207 167.067 239.026 164.609 239.026C162.151 239.026 160.16 237.207 160.16 234.961C160.16 232.714 162.151 230.895 164.609 230.895C167.067 230.895 169.058 232.714 169.058 234.961Z" fill="white" fill-opacity="0.3"/>
<path fill-rule="evenodd" clip-rule="evenodd" d="M192.784 234.961C192.784 237.207 190.794 239.026 188.336 239.026C185.878 239.026 183.887 237.207 183.887 234.961C183.887 232.714 185.878 230.895 188.336 230.895C190.794 230.895 192.784 232.714 192.784 234.961Z" fill="white" fill-opacity="0.3"/>
<path fill-rule="evenodd" clip-rule="evenodd" d="M215.027 234.961C215.027 237.207 213.036 239.026 210.578 239.026C208.12 239.026 206.129 237.207 206.129 234.961C206.129 232.714 208.12 230.895 210.578 230.895C213.036 230.895 215.027 232.714 215.027 234.961Z" fill="white" fill-opacity="0.3"/>
<path fill-rule="evenodd" clip-rule="evenodd" d="M237.273 234.961C237.273 237.207 235.282 239.026 232.824 239.026C230.366 239.026 228.375 237.207 228.375 234.961C228.375 232.714 230.366 230.895 232.824 230.895C235.282 230.895 237.273 232.714 237.273 234.961Z" fill="white" fill-opacity="0.3"/>
<path fill-rule="evenodd" clip-rule="evenodd" d="M260.999 234.961C260.999 237.207 259.008 239.026 256.55 239.026C254.092 239.026 252.102 237.207 252.102 234.961C252.102 232.714 254.092 230.895 256.55 230.895C259.008 230.895 260.999 232.714 260.999 234.961Z" fill="white" fill-opacity="0.3"/>
<path fill-rule="evenodd" clip-rule="evenodd" d="M8.89771 255.289C8.89771 257.535 6.90684 259.355 4.44885 259.355C1.99086 259.355 0 257.535 0 255.289C0 253.043 1.99086 251.223 4.44885 251.223C6.90684 251.223 8.89771 253.043 8.89771 255.289Z" fill="white" fill-opacity="0.3"/>
<path fill-rule="evenodd" clip-rule="evenodd" d="M32.6243 255.289C32.6243 257.535 30.6334 259.355 28.1754 259.355C25.7174 259.355 23.7266 257.535 23.7266 255.289C23.7266 253.043 25.7174 251.223 28.1754 251.223C30.6334 251.223 32.6243 253.043 32.6243 255.289Z" fill="white" fill-opacity="0.3"/>
<path fill-rule="evenodd" clip-rule="evenodd" d="M54.8705 255.289C54.8705 257.535 52.8796 259.355 50.4216 259.355C47.9635 259.355 45.9727 257.535 45.9727 255.289C45.9727 253.043 47.9635 251.223 50.4216 251.223C52.8796 251.223 54.8705 253.043 54.8705 255.289Z" fill="white" fill-opacity="0.3"/>
<path fill-rule="evenodd" clip-rule="evenodd" d="M77.1125 255.289C77.1125 257.535 75.1217 259.355 72.6637 259.355C70.2057 259.355 68.2148 257.535 68.2148 255.289C68.2148 253.043 70.2057 251.223 72.6637 251.223C75.1217 251.223 77.1125 253.043 77.1125 255.289Z" fill="white" fill-opacity="0.3"/>
<path fill-rule="evenodd" clip-rule="evenodd" d="M100.839 255.289C100.839 257.535 98.8482 259.355 96.3903 259.355C93.9323 259.355 91.9414 257.535 91.9414 255.289C91.9414 253.043 93.9323 251.223 96.3903 251.223C98.8482 251.223 100.839 253.043 100.839 255.289Z" fill="white" fill-opacity="0.3"/>
<path fill-rule="evenodd" clip-rule="evenodd" d="M123.085 255.289C123.085 257.535 121.094 259.355 118.636 259.355C116.178 259.355 114.188 257.535 114.188 255.289C114.188 253.043 116.178 251.223 118.636 251.223C121.094 251.223 123.085 253.043 123.085 255.289Z" fill="white" fill-opacity="0.3"/>
<path fill-rule="evenodd" clip-rule="evenodd" d="M146.812 255.289C146.812 257.535 144.821 259.355 142.363 259.355C139.905 259.355 137.914 257.535 137.914 255.289C137.914 253.043 139.905 251.223 142.363 251.223C144.821 251.223 146.812 253.043 146.812 255.289Z" fill="white" fill-opacity="0.3"/>
<path fill-rule="evenodd" clip-rule="evenodd" d="M169.058 255.289C169.058 257.535 167.067 259.355 164.609 259.355C162.151 259.355 160.16 257.535 160.16 255.289C160.16 253.043 162.151 251.223 164.609 251.223C167.067 251.223 169.058 253.043 169.058 255.289Z" fill="white" fill-opacity="0.3"/>
<path fill-rule="evenodd" clip-rule="evenodd" d="M192.784 255.289C192.784 257.535 190.794 259.355 188.336 259.355C185.878 259.355 183.887 257.535 183.887 255.289C183.887 253.043 185.878 251.223 188.336 251.223C190.794 251.223 192.784 253.043 192.784 255.289Z" fill="white" fill-opacity="0.3"/>
<path fill-rule="evenodd" clip-rule="evenodd" d="M215.027 255.289C215.027 257.535 213.036 259.355 210.578 259.355C208.12 259.355 206.129 257.535 206.129 255.289C206.129 253.043 208.12 251.223 210.578 251.223C213.036 251.223 215.027 253.043 215.027 255.289Z" fill="white" fill-opacity="0.3"/>
<path fill-rule="evenodd" clip-rule="evenodd" d="M237.273 255.289C237.273 257.535 235.282 259.355 232.824 259.355C230.366 259.355 228.375 257.535 228.375 255.289C228.375 253.043 230.366 251.223 232.824 251.223C235.282 251.223 237.273 253.043 237.273 255.289Z" fill="white" fill-opacity="0.3"/>
<path fill-rule="evenodd" clip-rule="evenodd" d="M260.999 255.289C260.999 257.535 259.008 259.355 256.55 259.355C254.092 259.355 252.102 257.535 252.102 255.289C252.102 253.043 254.092 251.223 256.55 251.223C259.008 251.223 260.999 253.043 260.999 255.289Z" fill="white" fill-opacity="0.3"/>
<path fill-rule="evenodd" clip-rule="evenodd" d="M32.6243 4.57294C32.6243 6.81922 30.6334 8.63861 28.1754 8.63861C25.7174 8.63861 23.7266 6.81922 23.7266 4.57294C23.7266 2.32665 25.7174 0.507263 28.1754 0.507263C30.6334 0.507263 32.6243 2.32665 32.6243 4.57294Z" fill="white" fill-opacity="0.3"/>
<path fill-rule="evenodd" clip-rule="evenodd" d="M54.8705 4.57294C54.8705 6.81922 52.8796 8.63861 50.4216 8.63861C47.9635 8.63861 45.9727 6.81922 45.9727 4.57294C45.9727 2.32665 47.9635 0.507263 50.4216 0.507263C52.8796 0.507263 54.8705 2.32665 54.8705 4.57294Z" fill="white" fill-opacity="0.3"/>
<path fill-rule="evenodd" clip-rule="evenodd" d="M77.1125 4.57294C77.1125 6.81922 75.1217 8.63861 72.6637 8.63861C70.2057 8.63861 68.2148 6.81922 68.2148 4.57294C68.2148 2.32665 70.2057 0.507263 72.6637 0.507263C75.1217 0.507263 77.1125 2.32665 77.1125 4.57294Z" fill="white" fill-opacity="0.3"/>
<path fill-rule="evenodd" clip-rule="evenodd" d="M100.839 4.57294C100.839 6.81922 98.8482 8.63861 96.3903 8.63861C93.9323 8.63861 91.9414 6.81922 91.9414 4.57294C91.9414 2.32665 93.9323 0.507263 96.3903 0.507263C98.8482 0.507263 100.839 2.32665 100.839 4.57294Z" fill="white" fill-opacity="0.3"/>
<path fill-rule="evenodd" clip-rule="evenodd" d="M123.085 4.57294C123.085 6.81922 121.094 8.63861 118.636 8.63861C116.178 8.63861 114.188 6.81922 114.188 4.57294C114.188 2.32665 116.178 0.507263 118.636 0.507263C121.094 0.507263 123.085 2.32665 123.085 4.57294Z" fill="white" fill-opacity="0.3"/>
<path fill-rule="evenodd" clip-rule="evenodd" d="M146.812 4.57294C146.812 6.81922 144.821 8.63861 142.363 8.63861C139.905 8.63861 137.914 6.81922 137.914 4.57294C137.914 2.32665 139.905 0.507263 142.363 0.507263C144.821 0.507263 146.812 2.32665 146.812 4.57294Z" fill="white" fill-opacity="0.3"/>
<path fill-rule="evenodd" clip-rule="evenodd" d="M169.058 4.57294C169.058 6.81922 167.067 8.63861 164.609 8.63861C162.151 8.63861 160.16 6.81922 160.16 4.57294C160.16 2.32665 162.151 0.507263 164.609 0.507263C167.067 0.507263 169.058 2.32665 169.058 4.57294Z" fill="white" fill-opacity="0.3"/>
<path fill-rule="evenodd" clip-rule="evenodd" d="M192.784 4.57294C192.784 6.81922 190.794 8.63861 188.336 8.63861C185.878 8.63861 183.887 6.81922 183.887 4.57294C183.887 2.32665 185.878 0.507263 188.336 0.507263C190.794 0.507263 192.784 2.32665 192.784 4.57294Z" fill="white" fill-opacity="0.3"/>
<path fill-rule="evenodd" clip-rule="evenodd" d="M215.027 4.57294C215.027 6.81922 213.036 8.63861 210.578 8.63861C208.12 8.63861 206.129 6.81922 206.129 4.57294C206.129 2.32665 208.12 0.507263 210.578 0.507263C213.036 0.507263 215.027 2.32665 215.027 4.57294Z" fill="white" fill-opacity="0.3"/>
<path fill-rule="evenodd" clip-rule="evenodd" d="M237.273 4.57294C237.273 6.81922 235.282 8.63861 232.824 8.63861C230.366 8.63861 228.375 6.81922 228.375 4.57294C228.375 2.32665 230.366 0.507263 232.824 0.507263C235.282 0.507263 237.273 2.32665 237.273 4.57294Z" fill="white" fill-opacity="0.3"/>
<path fill-rule="evenodd" clip-rule="evenodd" d="M260.999 4.57294C260.999 6.81922 259.008 8.63861 256.55 8.63861C254.092 8.63861 252.102 6.81922 252.102 4.57294C252.102 2.32665 254.092 0.507263 256.55 0.507263C259.008 0.507263 260.999 2.32665 260.999 4.57294Z" fill="white" fill-opacity="0.3"/>
</svg>
