<svg width="91" height="107" viewBox="0 0 91 107" fill="none" xmlns="http://www.w3.org/2000/svg">
<path d="M55.0855 0.788818C55.0855 0.788818 43.0799 46.7933 0.136719 57.6728L38.8144 106.975C38.8144 106.975 83.9817 85.2813 90.2571 47.9295L55.0855 0.788818Z" fill="white"/>
<path d="M50.8522 26.7337L50.0703 27.3696L74.5193 57.4257L75.3011 56.7898L50.8522 26.7337Z" fill="#D2E0FF"/>
<path d="M48.5734 32.7762L47.7734 33.3938L71.3256 63.8954L72.1256 63.2778L48.5734 32.7762Z" fill="#D2E0FF"/>
<path d="M44.7923 38.0357L43.9805 38.6377L68.878 72.2041L69.6898 71.6021L44.7923 38.0357Z" fill="#D2E0FF"/>
<path d="M39.8394 44.4331L39.0273 45.03L63.9264 78.8964L64.7385 78.2995L39.8394 44.4331Z" fill="#D2E0FF"/>
<path d="M34.6776 49.4747L33.8633 50.0733L58.7624 83.9397L59.5767 83.3411L34.6776 49.4747Z" fill="#D2E0FF"/>
<path d="M27.3941 53.5704L26.582 54.1673L51.4811 88.0337L52.2932 87.4368L27.3941 53.5704Z" fill="#D2E0FF"/>
</svg>
