<svg width="81" height="77" viewBox="0 0 81 77" fill="none" xmlns="http://www.w3.org/2000/svg">
<path d="M80.9527 63.1704C80.9527 63.1704 47.4798 38.5652 52.519 0.194336L0 15.6643C0 15.6643 3.02352 59.3336 31.323 76.4936L80.9527 63.1704Z" fill="#F3F8FF"/>
<path d="M61.0258 50.4931L28.7305 60.6411L28.995 61.4826L61.2903 51.3346L61.0258 50.4931Z" fill="#D2E0FF"/>
<path d="M56.8568 46.7405L24.4805 55.9995L24.7231 56.8476L57.0994 47.5887L56.8568 46.7405Z" fill="#D2E0FF"/>
<path d="M53.8165 41.922L18.5234 51.2874L18.7497 52.14L54.0428 42.7745L53.8165 41.922Z" fill="#D2E0FF"/>
<path d="M50.2056 35.8531L14.668 45.1257L14.8907 45.9793L50.4284 36.7066L50.2056 35.8531Z" fill="#D2E0FF"/>
<path d="M47.7877 30.0269L12.25 39.2997L12.4728 40.1532L48.0104 30.8804L47.7877 30.0269Z" fill="#D2E0FF"/>
<path d="M46.8021 22.8147L11.2617 32.0918L11.4846 32.9453L47.025 23.6682L46.8021 22.8147Z" fill="#D2E0FF"/>
</svg>
