<svg width="67" height="64" viewBox="0 0 67 64" fill="none" xmlns="http://www.w3.org/2000/svg">
<path d="M0.738281 7.25018C0.738281 7.25018 27.3447 31.2159 19.7445 63.7003L66.1166 54.919C66.1166 54.919 67.2557 17.2019 44.4494 0.0618896L0.738281 7.25018Z" fill="white"/>
<path d="M43.7086 6.18452L14.2266 10.9136L14.3469 11.6634L43.8289 6.93433L43.7086 6.18452Z" fill="#D2E0FF"/>
<path d="M46.3832 9.56854L17.6641 13.9551L17.7787 14.7057L46.4979 10.3192L46.3832 9.56854Z" fill="#D2E0FF"/>
<path d="M47.9175 13.1064L20.7188 17.5004L20.8399 18.25L48.0386 13.856L47.9175 13.1064Z" fill="#D2E0FF"/>
<path d="M50.2877 17.4794L22.582 21.5449L22.6923 22.2962L50.398 18.2307L50.2877 17.4794Z" fill="#D2E0FF"/>
<path d="M51.651 20.8677L24.2812 24.9263L24.3927 25.6774L51.7624 21.6189L51.651 20.8677Z" fill="#D2E0FF"/>
<path d="M53.9933 24.9434L24.2578 30.0074L24.3853 30.756L54.1209 25.692L53.9933 24.9434Z" fill="#D2E0FF"/>
</svg>
