<svg width="115" height="106" viewBox="0 0 115 106" fill="none" xmlns="http://www.w3.org/2000/svg">
<path d="M114.373 83.427C114.373 83.427 66.9564 52.6555 70.7594 0.133606L0.644531 25.3069C0.644531 25.3069 8.21046 84.3862 48.0102 105.454L114.373 83.427Z" fill="#EBF3FA"/>
<path d="M86.2759 67.7695L43.2109 84.1111L43.6364 85.232L86.7014 68.8904L86.2759 67.7695Z" fill="#D2E0FF"/>
<path d="M80.3167 62.9819L37.0781 78.137L37.4748 79.2684L80.7134 64.1134L80.3167 62.9819Z" fill="#D2E0FF"/>
<path d="M75.8353 56.7526L28.6328 72.2681L29.0073 73.4072L76.2097 57.8917L75.8353 56.7526Z" fill="#D2E0FF"/>
<path d="M70.4309 48.7769L22.8867 64.1834L23.2564 65.324L70.8006 49.9175L70.4309 48.7769Z" fill="#D2E0FF"/>
<path d="M66.6808 41.0595L19.1367 56.4661L19.5064 57.6068L67.0505 42.2002L66.6808 41.0595Z" fill="#D2E0FF"/>
<path d="M64.8048 31.2676L17.2656 46.6892L17.6357 47.8297L65.1748 32.4081L64.8048 31.2676Z" fill="#D2E0FF"/>
</svg>
