<svg width="96" height="92" viewBox="0 0 96 92" fill="none" xmlns="http://www.w3.org/2000/svg">
<path d="M95.5758 75.287C95.5758 75.287 56.071 46.2457 62.0183 0.956787L0.0351562 19.2159C0.0351562 19.2159 3.60352 70.7585 37.0026 91.0123L95.5758 75.287Z" fill="#F3F8FF"/>
<path d="M72.0565 60.3241L33.9414 72.3016L34.2536 73.2949L72.3686 61.3174L72.0565 60.3241Z" fill="#D2E0FF"/>
<path d="M67.1364 55.8948L28.9258 66.8231L29.2121 67.8242L67.4227 56.8959L67.1364 55.8948Z" fill="#D2E0FF"/>
<path d="M63.5515 50.2077L21.8984 61.2616L22.1655 62.2679L63.8185 51.2139L63.5515 50.2077Z" fill="#D2E0FF"/>
<path d="M59.2854 43.0447L17.3438 53.9891L17.6066 54.9965L59.5483 44.0521L59.2854 43.0447Z" fill="#D2E0FF"/>
<path d="M56.4339 36.1679L14.4922 47.1125L14.7551 48.12L56.6968 37.1754L56.4339 36.1679Z" fill="#D2E0FF"/>
<path d="M55.2691 27.6554L13.3242 38.6051L13.5872 39.6125L55.5321 28.6628L55.2691 27.6554Z" fill="#D2E0FF"/>
</svg>
