<svg width="79" height="77" viewBox="0 0 79 77" fill="none" xmlns="http://www.w3.org/2000/svg">
<path d="M0.917969 9.45255C0.917969 9.45255 32.3189 37.7392 23.3491 76.0802L78.0776 65.7158C78.0776 65.7158 79.422 21.1985 52.506 0.968262L0.917969 9.45255Z" fill="white"/>
<path d="M51.6308 8.19471L16.8359 13.7764L16.9779 14.6614L51.7728 9.07969L51.6308 8.19471Z" fill="#D2E0FF"/>
<path d="M54.7889 12.1891L20.8945 17.3665L21.0299 18.2524L54.9243 13.075L54.7889 12.1891Z" fill="#D2E0FF"/>
<path d="M56.6001 16.3646L24.5 21.5508L24.643 22.4356L56.743 17.2494L56.6001 16.3646Z" fill="#D2E0FF"/>
<path d="M59.3975 21.526L26.6992 26.3245L26.8294 27.2113L59.5276 22.4128L59.3975 21.526Z" fill="#D2E0FF"/>
<path d="M61.005 25.5253L28.7031 30.3156L28.8346 31.2022L61.1365 26.4119L61.005 25.5253Z" fill="#D2E0FF"/>
<path d="M63.7697 30.3358L28.6758 36.3128L28.8263 37.1964L63.9202 31.2194L63.7697 30.3358Z" fill="#D2E0FF"/>
</svg>
