<svg width="108" height="127" viewBox="0 0 108 127" fill="none" xmlns="http://www.w3.org/2000/svg">
<path d="M65.5226 0.857666C65.5226 0.857666 51.3535 55.1565 0.671875 67.9975L46.3194 126.188C46.3194 126.188 99.626 100.584 107.032 56.4975L65.5226 0.857666Z" fill="white"/>
<path d="M60.5283 31.4803L59.6055 32.2308L88.4602 67.7058L89.383 66.9553L60.5283 31.4803Z" fill="#D2E0FF"/>
<path d="M57.8348 38.6122L56.8906 39.3411L84.687 75.342L85.6311 74.6131L57.8348 38.6122Z" fill="#D2E0FF"/>
<path d="M53.3761 44.8198L52.418 45.5304L81.8022 85.1486L82.7603 84.4381L53.3761 44.8198Z" fill="#D2E0FF"/>
<path d="M47.5287 52.3709L46.5703 53.0754L75.9563 93.0477L76.9146 92.3432L47.5287 52.3709Z" fill="#D2E0FF"/>
<path d="M41.4376 58.3213L40.4766 59.0278L69.8626 99.0001L70.8237 98.2936L41.4376 58.3213Z" fill="#D2E0FF"/>
<path d="M32.8412 63.1555L31.8828 63.86L61.2688 103.832L62.2272 103.128L32.8412 63.1555Z" fill="#D2E0FF"/>
</svg>
