<svg width="135" height="126" viewBox="0 0 135 126" fill="none" xmlns="http://www.w3.org/2000/svg">
<path d="M134.817 99.0952C134.817 99.0952 78.8552 62.7758 83.3435 0.784546L0.59375 30.4964C0.59375 30.4964 9.52308 100.227 56.4948 125.094L134.817 99.0952Z" fill="#EBF3FA"/>
<path d="M101.657 80.6146L50.832 99.9025L51.3341 101.226L102.16 81.9377L101.657 80.6146Z" fill="#D2E0FF"/>
<path d="M94.6241 74.964L43.5938 92.8514L44.0619 94.1869L95.0922 76.2994L94.6241 74.964Z" fill="#D2E0FF"/>
<path d="M89.3335 67.6116L33.625 85.9245L34.067 87.2689L89.7755 68.9561L89.3335 67.6116Z" fill="#D2E0FF"/>
<path d="M82.9555 58.1979L26.8438 76.3821L27.2801 77.7284L83.3918 59.5442L82.9555 58.1979Z" fill="#D2E0FF"/>
<path d="M78.5297 49.0892L22.418 67.2735L22.8543 68.6198L78.966 50.4355L78.5297 49.0892Z" fill="#D2E0FF"/>
<path d="M76.3168 37.5318L20.2109 55.7338L20.6477 57.0799L76.7535 38.8779L76.3168 37.5318Z" fill="#D2E0FF"/>
</svg>
