<svg width="38" height="24" viewBox="0 0 38 24" fill="none" xmlns="http://www.w3.org/2000/svg">
<path d="M16.0877 11.753L16.6504 10.0346C17.2502 8.19821 19.2281 7.1941 21.0645 7.79387L35.4828 12.5044C37.3158 13.1041 38.3233 15.082 37.7235 16.9184L36.9182 19.3781C36.8003 19.7386 36.4128 19.934 36.0556 19.8161C35.6951 19.6982 35.4996 19.3107 35.6176 18.9535L36.4195 16.4938C36.7834 15.3785 36.1735 14.1723 35.0548 13.8084L20.6366 9.09785C19.5213 8.73394 18.3149 9.34383 17.951 10.4625L17.3883 12.1809C17.0244 13.2962 17.6343 14.5025 18.753 14.8664L28.3259 17.9932C28.6864 18.1111 28.8819 18.4986 28.7639 18.8558C28.646 19.2163 28.2585 19.4118 27.9013 19.2938L18.3284 16.167C16.492 15.5672 15.4879 13.586 16.0877 11.753Z" fill="#F99746"/>
<path d="M1.10829 7.68268L2.11578 4.60299C3.04915 1.74232 6.30416 0.229427 9.36709 1.23016L31.0435 8.31277C31.404 8.4307 31.5995 8.81819 31.4815 9.17535C31.3636 9.53588 30.9761 9.7313 30.619 9.61337L8.94252 2.53414C6.59731 1.76927 4.1173 2.88794 3.41643 5.03092L2.40894 8.11059C1.70807 10.2536 3.04915 12.6189 5.39436 13.3872L30.0865 21.4537C32.4318 22.2219 34.9118 21.0999 35.6126 18.9603C35.7306 18.5997 36.1181 18.4043 36.4753 18.5222C36.8358 18.6402 37.0312 19.0276 36.9133 19.3848C35.9799 22.2455 32.7249 23.7584 29.662 22.7576L4.96984 14.6912C1.9069 13.6837 0.174919 10.54 1.10829 7.68268Z" fill="#F99746"/>
</svg>
