<svg width="46" height="48" viewBox="0 0 46 48" fill="none" xmlns="http://www.w3.org/2000/svg">
<path d="M20.2462 20.3432L18.3214 22.0668C16.2651 23.9094 16.102 27.067 17.9544 29.1135L32.5451 45.1992C34.3975 47.2457 37.5822 47.4134 39.6387 45.5768L42.4005 43.1073C42.8009 42.7439 42.8328 42.1282 42.4724 41.7296C42.1059 41.3312 41.4861 41.2984 41.0856 41.6557L38.3237 44.1253C37.0745 45.2471 35.1354 45.1447 34.0037 43.8954L19.4191 27.8096C18.2876 26.5664 18.3871 24.6402 19.6425 23.5182L21.5673 21.7946C22.8165 20.6728 24.7556 20.7752 25.8873 22.0244L35.5723 32.7026C35.9326 33.1012 36.5585 33.1338 36.9591 32.7765C37.3595 32.4132 37.3913 31.7975 37.0309 31.3989L27.3459 20.7207C25.4872 18.6683 22.3025 18.5006 20.2462 20.3432Z" fill="white"/>
<path d="M6.20826 3.16993L2.75266 6.26026C-0.451753 9.13106 -0.541815 14.2474 2.56233 17.6622L24.4955 41.8528C24.8621 42.2513 25.4819 42.284 25.8825 41.9267C26.2831 41.5694 26.3147 40.9476 25.9543 40.5489L4.02118 16.3584C1.65012 13.7406 1.67051 9.86186 4.0739 7.71181L7.52958 4.62147C9.93297 2.47142 13.8164 2.8525 16.1936 5.47018L41.1743 33.0222C43.5453 35.64 43.5249 39.5187 41.1215 41.6688C40.7211 42.0322 40.6893 42.6479 41.0497 43.0465C41.4101 43.4452 42.0361 43.4778 42.4367 43.1205C45.6411 40.2497 45.7311 35.1333 42.633 31.7183L17.6463 4.16648C14.5483 0.751536 9.41897 0.305064 6.20826 3.16993Z" fill="white"/>
</svg>
