<svg width="22" height="26" viewBox="0 0 22 26" fill="none" xmlns="http://www.w3.org/2000/svg">
<path opacity="0.15" d="M13.4195 1.70549C14.6193 0.206586 17.0366 1.09507 16.9801 3.01418L16.8338 7.97895C16.8085 8.83868 17.3357 9.61832 18.143 9.91504L22.8101 11.6305C24.6417 12.3037 24.5235 14.9331 22.6389 15.4392L18.0026 16.6843C17.1499 16.9134 16.5482 17.6744 16.5222 18.557L16.381 23.3515C16.3241 25.2829 13.8331 26.0188 12.7357 24.4284L9.85282 20.2502C9.37221 19.5537 8.50522 19.235 7.68791 19.4545L2.78539 20.7711C0.919257 21.2723 -0.502233 19.0983 0.705234 17.5898L3.70258 13.8451C4.25433 13.1558 4.28878 12.1862 3.78734 11.4595L1.06104 7.50825C-0.04723 5.90203 1.56553 3.82197 3.39718 4.4952L8.0643 6.21061C8.8716 6.50733 9.7782 6.25468 10.3157 5.58319L13.4195 1.70549Z" fill="#F9DDBF"/>
</svg>
