<svg width="37" height="37" viewBox="0 0 37 37" fill="none" xmlns="http://www.w3.org/2000/svg">
<path opacity="0.2" d="M13.7969 2.20288C13.9127 0.294744 16.3831 -0.378984 17.4516 1.20614L22.733 9.04083C23.2121 9.75152 24.0908 10.0779 24.9176 9.85243L34.209 7.31843C36.098 6.80324 37.5255 9.02858 36.2696 10.5308L30.2962 17.6758C29.7249 18.3591 29.6744 19.3379 30.1722 20.0765L35.3138 27.7037C36.3926 29.304 34.8029 31.353 32.9847 30.7058L23.8295 27.447C23.041 27.1664 22.1612 27.4063 21.6244 28.0484L15.3913 35.5041C14.1534 36.9847 11.7436 36.0265 11.8605 34.1001L12.4179 24.9186C12.4719 24.0295 11.9314 23.2119 11.0923 22.9132L2.31847 19.7902C0.473849 19.1336 0.573914 16.4916 2.46292 15.9764L11.7543 13.4424C12.5812 13.2169 13.1724 12.4896 13.2244 11.6341L13.7969 2.20288Z" fill="white"/>
</svg>
